<?xml version="1.0" encoding="UTF-8"?>
<svg xmlns="http://www.w3.org/2000/svg" xmlns:xlink="http://www.w3.org/1999/xlink" width="120px" height="157px" viewBox="0 0 120 157" version="1.1">
<g id="surface1">
<path style=" stroke:none;fill-rule:nonzero;fill:rgb(98.823529%,67.450982%,23.921569%);fill-opacity:1;" d="M 60 3.695312 C 60.445312 3.964844 60.894531 4.238281 61.324219 4.535156 C 62.28125 4.925781 63.269531 4.667969 64.265625 4.503906 C 65.199219 4.480469 65.601562 4.726562 66.34375 5.277344 C 66.457031 5.429688 66.574219 5.582031 66.691406 5.738281 C 67.179688 6.179688 67.179688 6.179688 68.128906 5.9375 C 68.3125 5.90625 68.496094 5.875 68.6875 5.84375 C 69.640625 5.777344 70.289062 6.136719 71.101562 6.597656 C 71.820312 7.265625 71.890625 7.566406 71.945312 8.558594 C 72.058594 9.496094 72.058594 9.496094 72.625 9.882812 C 73 10.105469 73.378906 10.316406 73.769531 10.515625 C 74.273438 10.820312 74.273438 10.820312 74.800781 11.609375 C 74.824219 12.226562 74.824219 12.84375 74.800781 13.457031 C 75.097656 13.554688 75.097656 13.554688 75.394531 13.65625 C 76.226562 14.03125 76.636719 14.304688 77.179688 15.039062 C 77.441406 16.007812 77.503906 16.878906 77.296875 17.859375 C 77.117188 18.484375 77.117188 18.484375 77.445312 19.082031 C 77.835938 20.128906 77.675781 20.808594 77.445312 21.902344 C 77.066406 22.429688 77.066406 22.429688 76.652344 22.691406 C 76.476562 22.691406 76.304688 22.691406 76.125 22.691406 C 76.085938 22.84375 76.046875 22.996094 76.007812 23.152344 C 75.921875 23.5 75.828125 23.847656 75.714844 24.1875 C 75.578125 24.886719 75.589844 25.550781 75.613281 26.261719 C 75.675781 28.546875 75.542969 30.492188 74.289062 32.472656 C 73.726562 33 73.457031 33.222656 72.6875 33.246094 C 72.425781 33.074219 72.164062 32.898438 71.894531 32.71875 C 71.839844 32.871094 71.785156 33.019531 71.726562 33.175781 C 70.753906 35.609375 69.339844 36.914062 66.972656 38.015625 C 66.238281 38.300781 65.542969 38.460938 64.757812 38.523438 C 64.757812 38.785156 64.757812 39.046875 64.757812 39.316406 C 64.917969 39.320312 65.078125 39.324219 65.242188 39.328125 C 67.605469 39.460938 69.464844 40.203125 71.132812 41.90625 C 71.734375 42.648438 72.011719 43.171875 72.042969 44.132812 C 71.917969 44.957031 71.824219 45.492188 71.367188 46.175781 C 71.628906 46.261719 71.890625 46.351562 72.160156 46.441406 C 72.246094 46.613281 72.332031 46.789062 72.421875 46.96875 C 72.957031 47.089844 72.957031 47.089844 73.597656 47.164062 C 75.917969 47.597656 77.636719 48.734375 78.988281 50.65625 C 79.617188 51.753906 79.917969 52.832031 80.125 54.074219 C 80.179688 54.382812 80.230469 54.695312 80.285156 55.015625 C 80.339844 55.355469 80.398438 55.691406 80.453125 56.042969 C 80.480469 56.21875 80.511719 56.390625 80.539062 56.574219 C 80.761719 57.917969 80.972656 59.261719 81.179688 60.605469 C 81.210938 60.804688 81.238281 61.003906 81.269531 61.207031 C 82.378906 68.402344 82.777344 75.386719 82.492188 82.671875 C 82.453125 83.828125 82.433594 84.984375 82.417969 86.140625 C 82.402344 86.964844 82.386719 87.785156 82.367188 88.609375 C 82.363281 88.796875 82.359375 88.984375 82.355469 89.175781 C 82.34375 89.691406 82.328125 90.210938 82.3125 90.726562 C 82.304688 91.011719 82.296875 91.296875 82.285156 91.589844 C 82.199219 92.375 81.996094 92.953125 81.675781 93.671875 C 81.40625 94.480469 81.378906 95.023438 81.382812 95.867188 C 81.382812 96.140625 81.386719 96.410156 81.386719 96.691406 C 81.390625 96.972656 81.390625 97.257812 81.394531 97.546875 C 81.394531 97.976562 81.394531 97.976562 81.398438 98.414062 C 81.398438 99.121094 81.402344 99.828125 81.410156 100.53125 C 81.246094 100.609375 81.082031 100.6875 80.914062 100.769531 C 80.332031 101.046875 80.332031 101.046875 79.824219 101.503906 C 79.296875 101.851562 79.296875 101.851562 78.765625 101.753906 C 78.503906 101.671875 78.503906 101.671875 78.238281 101.589844 C 78.058594 101.636719 77.878906 101.6875 77.691406 101.738281 C 77.523438 101.773438 77.355469 101.8125 77.179688 101.851562 C 76.917969 101.679688 76.65625 101.503906 76.386719 101.324219 C 76.035156 101.230469 75.683594 101.144531 75.332031 101.058594 C 75.066406 100.796875 75.066406 100.796875 75.050781 99.855469 C 75.058594 99.40625 75.058594 99.40625 75.066406 98.949219 C 74.71875 98.863281 74.367188 98.777344 74.007812 98.6875 C 73.828125 95.28125 73.828125 95.28125 74.539062 94.25 C 74.710938 94.058594 74.886719 93.867188 75.066406 93.671875 C 74.804688 93.28125 74.804688 93.28125 74.539062 92.878906 C 74.488281 92.128906 74.476562 91.40625 74.488281 90.65625 C 74.492188 90.300781 74.492188 90.300781 74.492188 89.9375 C 74.519531 87.296875 74.609375 84.65625 74.6875 82.019531 C 74.765625 79.421875 74.828125 76.828125 74.835938 74.230469 C 74.835938 73.984375 74.835938 73.738281 74.839844 73.484375 C 74.839844 73.257812 74.835938 73.027344 74.835938 72.789062 C 74.835938 72.503906 74.835938 72.503906 74.835938 72.207031 C 74.785156 71.179688 74.652344 70.15625 74.539062 69.132812 C 74.449219 76.621094 74.363281 84.109375 74.273438 91.824219 C 73.664062 91.824219 73.050781 91.824219 72.421875 91.824219 C 70.828125 112.320312 70.828125 112.320312 71.050781 132.855469 C 71.070312 133.183594 71.089844 133.507812 71.109375 133.84375 C 71.355469 138.296875 71.355469 138.296875 73.214844 142.222656 C 74.035156 142.722656 74.035156 142.722656 74.800781 143.015625 C 74.800781 143.277344 74.800781 143.539062 74.800781 143.808594 C 75.324219 143.980469 75.847656 144.15625 76.386719 144.335938 C 76.386719 144.59375 76.386719 144.855469 76.386719 145.125 C 76.691406 145.195312 76.691406 145.195312 77.003906 145.261719 C 77.269531 145.324219 77.535156 145.390625 77.808594 145.457031 C 78.070312 145.515625 78.335938 145.578125 78.609375 145.640625 C 79.296875 145.917969 79.296875 145.917969 79.652344 146.390625 C 79.824219 146.972656 79.824219 146.972656 79.824219 148.292969 C 74.589844 148.292969 69.355469 148.292969 63.964844 148.292969 C 63.625 136.863281 63.535156 125.453125 64.003906 114.023438 C 64.300781 106.625 64.28125 99.230469 64.230469 91.824219 C 63.792969 91.859375 63.792969 91.859375 63.347656 91.890625 C 62.953125 91.917969 62.558594 91.945312 62.164062 91.972656 C 61.972656 91.988281 61.785156 92.003906 61.589844 92.019531 C 59.980469 92.125 58.429688 92.003906 56.828125 91.824219 C 56.855469 94.390625 56.886719 96.957031 56.917969 99.519531 C 56.933594 100.710938 56.945312 101.902344 56.960938 103.097656 C 56.972656 104.253906 56.988281 105.410156 57 106.566406 C 57.007812 107 57.011719 107.433594 57.015625 107.871094 C 57.042969 110.488281 57.117188 113.105469 57.226562 115.722656 C 57.375 119.246094 57.390625 122.761719 57.382812 126.285156 C 57.382812 126.925781 57.382812 127.566406 57.382812 128.210938 C 57.378906 129.871094 57.378906 131.53125 57.375 133.191406 C 57.371094 135.199219 57.371094 137.207031 57.367188 139.214844 C 57.367188 142.242188 57.363281 145.265625 57.355469 148.292969 C 52.125 148.292969 46.890625 148.292969 41.496094 148.292969 C 41.761719 146.179688 41.761719 146.179688 42.289062 145.652344 C 42.882812 145.4375 43.484375 145.269531 44.089844 145.09375 C 44.6875 144.902344 44.6875 144.902344 45.074219 144.441406 C 45.460938 144.070312 45.460938 144.070312 46.519531 144.070312 C 46.535156 143.863281 46.550781 143.65625 46.570312 143.445312 C 46.640625 143.214844 46.710938 142.988281 46.785156 142.75 C 46.984375 142.675781 47.1875 142.597656 47.394531 142.519531 C 48.410156 142.097656 48.742188 141.34375 49.164062 140.375 C 49.378906 139.59375 49.5 138.808594 49.609375 138 C 49.640625 137.804688 49.671875 137.605469 49.703125 137.402344 C 50.332031 133.113281 50.285156 128.769531 50.285156 124.445312 C 50.285156 123.949219 50.285156 123.949219 50.289062 123.445312 C 50.289062 118.304688 50.140625 113.183594 49.855469 108.054688 C 49.832031 107.597656 49.832031 107.597656 49.804688 107.132812 C 49.605469 103.582031 49.363281 100.035156 49.066406 96.492188 C 48.9375 94.929688 48.875 93.394531 48.898438 91.824219 C 48.449219 91.832031 48.449219 91.832031 47.988281 91.839844 C 47.046875 91.824219 47.046875 91.824219 46.785156 91.5625 C 46.75 90.886719 46.734375 90.21875 46.730469 89.546875 C 46.726562 89.335938 46.726562 89.121094 46.722656 88.90625 C 46.714844 88.203125 46.707031 87.503906 46.699219 86.800781 C 46.695312 86.316406 46.691406 85.832031 46.683594 85.347656 C 46.667969 84.070312 46.65625 82.792969 46.644531 81.511719 C 46.628906 80.210938 46.617188 78.90625 46.601562 77.601562 C 46.574219 75.042969 46.546875 72.484375 46.519531 69.925781 C 46.363281 71.082031 46.21875 72.191406 46.25 73.359375 C 46.253906 73.597656 46.261719 73.835938 46.265625 74.082031 C 46.273438 74.335938 46.28125 74.589844 46.289062 74.847656 C 46.292969 75.117188 46.300781 75.386719 46.304688 75.664062 C 46.320312 76.238281 46.332031 76.808594 46.347656 77.382812 C 46.386719 78.867188 46.417969 80.355469 46.453125 81.84375 C 46.457031 82.136719 46.464844 82.425781 46.472656 82.730469 C 46.542969 86.203125 46.542969 89.671875 46.519531 93.144531 C 46.519531 93.40625 46.519531 93.667969 46.519531 93.9375 C 46.691406 94.085938 46.867188 94.238281 47.042969 94.394531 C 47.792969 95.230469 47.683594 95.800781 47.644531 96.90625 C 47.628906 97.40625 47.628906 97.40625 47.613281 97.914062 C 47.601562 98.167969 47.589844 98.421875 47.578125 98.6875 C 47.226562 98.773438 46.878906 98.859375 46.519531 98.949219 C 46.519531 99.644531 46.519531 100.34375 46.519531 101.058594 C 44.863281 101.636719 43.488281 102.0625 41.761719 101.589844 C 41.761719 101.328125 41.761719 101.066406 41.761719 100.796875 C 41.597656 100.851562 41.433594 100.90625 41.265625 100.960938 C 41.082031 100.996094 40.894531 101.027344 40.703125 101.058594 C 40.175781 100.53125 40.175781 100.53125 40.132812 99.9375 C 40.140625 99.695312 40.152344 99.449219 40.160156 99.199219 C 40.167969 98.933594 40.175781 98.667969 40.179688 98.394531 C 40.199219 97.832031 40.21875 97.273438 40.242188 96.710938 C 40.277344 95.058594 40.191406 94.425781 39.117188 93.144531 C 38.910156 92.183594 38.890625 91.222656 38.855469 90.242188 C 38.839844 89.925781 38.828125 89.609375 38.8125 89.28125 C 38.726562 87.089844 38.679688 84.898438 38.636719 82.703125 C 38.613281 81.472656 38.570312 80.246094 38.507812 79.015625 C 38.226562 73.171875 38.882812 67.507812 39.738281 61.738281 C 39.828125 61.136719 39.917969 60.539062 40.003906 59.941406 C 40.144531 58.984375 40.289062 58.03125 40.441406 57.078125 C 40.523438 56.554688 40.601562 56.027344 40.679688 55.503906 C 41.144531 52.675781 42 50.042969 44.40625 48.289062 C 45.648438 47.601562 46.789062 47.167969 48.222656 47.230469 C 48.53125 47.230469 48.84375 47.230469 49.164062 47.230469 C 49.707031 46.746094 49.707031 46.746094 49.957031 46.175781 C 49.824219 45.992188 49.695312 45.804688 49.558594 45.617188 C 49.09375 44.722656 49.019531 44.269531 49.164062 43.273438 C 49.980469 41.640625 51.316406 40.539062 52.984375 39.832031 C 54.390625 39.375 55.621094 39.234375 57.09375 39.316406 C 57.09375 39.054688 57.09375 38.792969 57.09375 38.523438 C 56.851562 38.511719 56.613281 38.503906 56.367188 38.492188 C 54.246094 38.179688 52.078125 37.035156 50.777344 35.324219 C 50.28125 34.492188 49.984375 33.644531 49.691406 32.71875 C 49.515625 32.894531 49.34375 33.066406 49.164062 33.246094 C 48.378906 33.222656 48.117188 32.992188 47.5625 32.4375 C 46.195312 30.371094 45.773438 28.042969 45.992188 25.59375 C 46.179688 24.878906 46.410156 24.398438 46.785156 23.746094 C 47.175781 23.617188 47.175781 23.617188 47.578125 23.484375 C 47.839844 23.613281 47.839844 23.613281 48.105469 23.746094 C 48.179688 22.683594 48.222656 21.644531 48.105469 20.582031 C 47.523438 19.929688 47.523438 19.929688 46.785156 19.527344 C 46.097656 18.484375 45.835938 17.582031 45.878906 16.347656 C 46.128906 15.203125 47.035156 14.523438 47.839844 13.722656 C 47.710938 13.453125 47.710938 13.453125 47.578125 13.175781 C 47.253906 12.230469 47.207031 11.546875 47.3125 10.554688 C 47.789062 9.828125 48.121094 9.359375 48.898438 8.972656 C 49.605469 8.9375 50.304688 8.960938 51.011719 8.972656 C 50.996094 8.695312 50.980469 8.417969 50.964844 8.128906 C 51.015625 7.050781 51.121094 6.625 51.804688 5.804688 C 52.703125 5.210938 53.128906 4.964844 54.203125 5.160156 C 55.007812 5.371094 55.007812 5.371094 55.671875 4.800781 C 55.878906 4.609375 56.085938 4.417969 56.300781 4.222656 C 57.480469 3.511719 58.65625 3.511719 60 3.695312 Z M 60 3.695312 "/>
<path style=" stroke:none;fill-rule:nonzero;fill:rgb(96.078432%,76.862746%,53.725493%);fill-opacity:1;" d="M 60 3.695312 C 60.445312 3.964844 60.894531 4.238281 61.324219 4.535156 C 62.28125 4.925781 63.269531 4.667969 64.265625 4.503906 C 65.199219 4.480469 65.601562 4.726562 66.34375 5.277344 C 66.457031 5.429688 66.574219 5.582031 66.691406 5.738281 C 67.179688 6.179688 67.179688 6.179688 68.128906 5.9375 C 68.3125 5.90625 68.496094 5.875 68.6875 5.84375 C 69.640625 5.777344 70.289062 6.136719 71.101562 6.597656 C 71.820312 7.265625 71.890625 7.566406 71.945312 8.558594 C 72.058594 9.496094 72.058594 9.496094 72.625 9.882812 C 73 10.105469 73.378906 10.316406 73.769531 10.515625 C 74.273438 10.820312 74.273438 10.820312 74.800781 11.609375 C 74.824219 12.226562 74.824219 12.84375 74.800781 13.457031 C 75.097656 13.554688 75.097656 13.554688 75.394531 13.65625 C 76.226562 14.03125 76.636719 14.304688 77.179688 15.039062 C 77.441406 16.007812 77.503906 16.878906 77.296875 17.859375 C 77.117188 18.484375 77.117188 18.484375 77.445312 19.082031 C 77.835938 20.128906 77.675781 20.808594 77.445312 21.902344 C 77.066406 22.429688 77.066406 22.429688 76.652344 22.691406 C 76.476562 22.691406 76.304688 22.691406 76.125 22.691406 C 76.085938 22.84375 76.046875 22.996094 76.007812 23.152344 C 75.921875 23.5 75.828125 23.847656 75.714844 24.1875 C 75.578125 24.886719 75.589844 25.550781 75.613281 26.261719 C 75.675781 28.546875 75.542969 30.492188 74.289062 32.472656 C 73.726562 33 73.457031 33.222656 72.6875 33.246094 C 72.292969 32.984375 72.292969 32.984375 71.894531 32.71875 C 71.839844 32.871094 71.785156 33.019531 71.726562 33.175781 C 70.753906 35.609375 69.339844 36.914062 66.972656 38.015625 C 66.238281 38.300781 65.542969 38.460938 64.757812 38.523438 C 64.757812 38.785156 64.757812 39.046875 64.757812 39.316406 C 65.28125 39.316406 65.804688 39.316406 66.34375 39.316406 C 66.34375 39.402344 66.34375 39.488281 66.34375 39.578125 C 65.820312 39.578125 65.296875 39.578125 64.757812 39.578125 C 64.757812 41.148438 64.757812 42.714844 64.757812 44.328125 C 65.105469 44.417969 65.457031 44.503906 65.816406 44.59375 C 65.902344 44.765625 65.988281 44.941406 66.078125 45.121094 C 65.988281 45.246094 65.898438 45.367188 65.804688 45.496094 C 65.386719 46.066406 64.972656 46.640625 64.558594 47.214844 C 64.417969 47.410156 64.273438 47.605469 64.128906 47.804688 C 63.175781 49.132812 62.453125 50.460938 61.851562 51.980469 C 62.113281 51.980469 62.375 51.980469 62.644531 51.980469 C 62.273438 52.898438 61.949219 53.164062 61.058594 53.566406 C 61.058594 53.726562 61.058594 53.890625 61.058594 54.058594 C 61.085938 62.058594 61.074219 70.054688 60.941406 78.054688 C 60.9375 78.386719 60.929688 78.714844 60.925781 79.058594 C 60.859375 83.230469 60.738281 87.394531 60.527344 91.5625 C 60.355469 91.648438 60.179688 91.734375 60 91.824219 C 60 91.628906 60 91.429688 60.003906 91.226562 C 60.019531 86.421875 60.03125 81.617188 60.042969 76.8125 C 60.046875 74.488281 60.050781 72.164062 60.058594 69.839844 C 60.066406 67.816406 60.074219 65.789062 60.074219 63.765625 C 60.074219 62.691406 60.078125 61.621094 60.082031 60.546875 C 60.089844 59.539062 60.089844 58.527344 60.089844 57.519531 C 60.089844 57.148438 60.089844 56.777344 60.09375 56.40625 C 60.097656 55.902344 60.097656 55.394531 60.09375 54.890625 C 60.097656 54.464844 60.097656 54.464844 60.097656 54.03125 C 59.988281 53.203125 59.75 52.867188 59.207031 52.246094 C 59.058594 51.863281 58.921875 51.480469 58.792969 51.089844 C 58.167969 49.445312 57.148438 48.128906 56.097656 46.730469 C 55.648438 46.109375 55.285156 45.554688 54.976562 44.855469 C 55.152344 44.683594 55.328125 44.507812 55.507812 44.328125 C 56.03125 44.328125 56.554688 44.328125 57.09375 44.328125 C 57.09375 42.761719 57.09375 41.195312 57.09375 39.578125 C 56.394531 39.578125 55.695312 39.578125 54.976562 39.578125 C 54.976562 39.492188 54.976562 39.40625 54.976562 39.316406 C 55.675781 39.316406 56.375 39.316406 57.09375 39.316406 C 57.09375 39.054688 57.09375 38.792969 57.09375 38.523438 C 56.851562 38.511719 56.613281 38.503906 56.367188 38.492188 C 54.246094 38.179688 52.078125 37.035156 50.777344 35.324219 C 50.28125 34.492188 49.984375 33.644531 49.691406 32.71875 C 49.429688 32.980469 49.429688 32.980469 49.164062 33.246094 C 48.378906 33.222656 48.117188 32.992188 47.5625 32.4375 C 46.195312 30.371094 45.773438 28.042969 45.992188 25.59375 C 46.179688 24.878906 46.410156 24.398438 46.785156 23.746094 C 47.175781 23.617188 47.175781 23.617188 47.578125 23.484375 C 47.75 23.570312 47.925781 23.65625 48.105469 23.746094 C 48.179688 22.683594 48.222656 21.644531 48.105469 20.582031 C 47.523438 19.929688 47.523438 19.929688 46.785156 19.527344 C 46.097656 18.484375 45.835938 17.582031 45.878906 16.347656 C 46.128906 15.203125 47.035156 14.523438 47.839844 13.722656 C 47.753906 13.542969 47.667969 13.363281 47.578125 13.175781 C 47.253906 12.230469 47.207031 11.546875 47.3125 10.554688 C 47.789062 9.828125 48.121094 9.359375 48.898438 8.972656 C 49.605469 8.9375 50.304688 8.960938 51.011719 8.972656 C 50.996094 8.695312 50.980469 8.417969 50.964844 8.128906 C 51.015625 7.050781 51.121094 6.625 51.804688 5.804688 C 52.703125 5.210938 53.128906 4.964844 54.203125 5.160156 C 55.007812 5.371094 55.007812 5.371094 55.671875 4.800781 C 55.878906 4.609375 56.085938 4.417969 56.300781 4.222656 C 57.480469 3.511719 58.65625 3.511719 60 3.695312 Z M 60 3.695312 "/>
<path style=" stroke:none;fill-rule:nonzero;fill:rgb(98.823529%,67.450982%,23.921569%);fill-opacity:1;" d="M 64.757812 39.578125 C 67.144531 39.410156 68.769531 39.832031 70.621094 41.382812 C 71.460938 42.238281 72.003906 42.90625 72.042969 44.132812 C 71.917969 44.957031 71.824219 45.492188 71.367188 46.175781 C 71.628906 46.261719 71.890625 46.351562 72.160156 46.441406 C 72.289062 46.703125 72.289062 46.703125 72.421875 46.96875 C 72.957031 47.089844 72.957031 47.089844 73.597656 47.164062 C 75.917969 47.597656 77.636719 48.734375 78.988281 50.65625 C 79.617188 51.753906 79.917969 52.832031 80.125 54.074219 C 80.179688 54.382812 80.230469 54.695312 80.285156 55.015625 C 80.339844 55.355469 80.398438 55.691406 80.453125 56.042969 C 80.480469 56.21875 80.511719 56.390625 80.539062 56.574219 C 80.761719 57.917969 80.972656 59.261719 81.179688 60.605469 C 81.210938 60.804688 81.238281 61.003906 81.269531 61.207031 C 82.378906 68.402344 82.777344 75.386719 82.492188 82.671875 C 82.453125 83.828125 82.433594 84.984375 82.417969 86.140625 C 82.402344 86.964844 82.386719 87.785156 82.367188 88.609375 C 82.363281 88.890625 82.363281 88.890625 82.355469 89.175781 C 82.34375 89.691406 82.328125 90.210938 82.3125 90.726562 C 82.300781 91.152344 82.300781 91.152344 82.285156 91.589844 C 82.199219 92.375 81.996094 92.953125 81.675781 93.671875 C 81.40625 94.480469 81.378906 95.023438 81.382812 95.867188 C 81.382812 96.140625 81.386719 96.410156 81.386719 96.691406 C 81.390625 96.972656 81.390625 97.257812 81.394531 97.546875 C 81.394531 97.832031 81.394531 98.121094 81.398438 98.414062 C 81.398438 99.121094 81.402344 99.828125 81.410156 100.53125 C 81.246094 100.609375 81.082031 100.6875 80.914062 100.769531 C 80.332031 101.046875 80.332031 101.046875 79.824219 101.503906 C 79.296875 101.851562 79.296875 101.851562 78.765625 101.753906 C 78.59375 101.699219 78.417969 101.644531 78.238281 101.589844 C 78.058594 101.636719 77.878906 101.6875 77.691406 101.738281 C 77.4375 101.792969 77.4375 101.792969 77.179688 101.851562 C 76.917969 101.679688 76.65625 101.503906 76.386719 101.324219 C 76.035156 101.230469 75.683594 101.144531 75.332031 101.058594 C 75.066406 100.796875 75.066406 100.796875 75.050781 99.855469 C 75.054688 99.558594 75.058594 99.257812 75.066406 98.949219 C 74.71875 98.863281 74.367188 98.777344 74.007812 98.6875 C 73.828125 95.28125 73.828125 95.28125 74.539062 94.25 C 74.710938 94.058594 74.886719 93.867188 75.066406 93.671875 C 74.890625 93.410156 74.71875 93.148438 74.539062 92.878906 C 74.488281 92.128906 74.476562 91.40625 74.488281 90.65625 C 74.488281 90.417969 74.492188 90.179688 74.492188 89.9375 C 74.519531 87.503906 74.597656 85.070312 74.667969 82.640625 C 74.792969 78.507812 74.792969 78.507812 74.851562 74.378906 C 74.855469 74.152344 74.859375 73.925781 74.863281 73.695312 C 74.867188 71.332031 74.539062 69.152344 74.273438 66.757812 C 74.1875 74.941406 74.097656 83.128906 74.007812 91.5625 C 69.558594 91.5625 65.113281 91.5625 60.527344 91.5625 C 60.527344 84.53125 60.527344 84.53125 60.554688 81.890625 C 60.558594 81.578125 60.5625 81.269531 60.566406 80.949219 C 60.59375 78.152344 60.628906 75.355469 60.667969 72.558594 C 60.691406 70.691406 60.714844 68.820312 60.730469 66.953125 C 60.746094 65.304688 60.765625 63.65625 60.789062 62.007812 C 60.804688 61.140625 60.8125 60.273438 60.820312 59.402344 C 60.828125 58.441406 60.839844 57.480469 60.859375 56.519531 C 60.859375 56.234375 60.859375 55.949219 60.859375 55.65625 C 60.90625 53.722656 60.90625 53.722656 61.714844 52.886719 C 61.933594 52.761719 62.152344 52.636719 62.378906 52.507812 C 62.464844 52.335938 62.554688 52.160156 62.644531 51.980469 C 62.382812 51.980469 62.121094 51.980469 61.851562 51.980469 C 61.992188 50.742188 62.558594 49.859375 63.238281 48.847656 C 63.34375 48.683594 63.453125 48.523438 63.5625 48.355469 C 64.289062 47.257812 65.03125 46.179688 65.816406 45.121094 C 65.726562 44.945312 65.640625 44.773438 65.550781 44.59375 C 65.289062 44.507812 65.027344 44.417969 64.757812 44.328125 C 64.757812 42.761719 64.757812 41.195312 64.757812 39.578125 Z M 64.757812 39.578125 "/>
<path style=" stroke:none;fill-rule:nonzero;fill:rgb(46.27451%,77.254903%,94.509804%);fill-opacity:1;" d="M 47.046875 91.5625 C 51.234375 91.5625 55.421875 91.5625 59.734375 91.5625 C 59.734375 91.648438 59.734375 91.734375 59.734375 91.824219 C 58.777344 91.824219 57.816406 91.824219 56.828125 91.824219 C 56.855469 94.390625 56.886719 96.957031 56.917969 99.519531 C 56.933594 100.710938 56.945312 101.902344 56.960938 103.097656 C 56.972656 104.253906 56.988281 105.410156 57 106.566406 C 57.007812 107 57.011719 107.433594 57.015625 107.871094 C 57.042969 110.488281 57.117188 113.105469 57.226562 115.722656 C 57.375 119.246094 57.390625 122.761719 57.382812 126.285156 C 57.382812 126.925781 57.382812 127.566406 57.382812 128.210938 C 57.378906 129.871094 57.378906 131.53125 57.375 133.191406 C 57.371094 135.199219 57.371094 137.207031 57.367188 139.214844 C 57.367188 142.242188 57.363281 145.265625 57.355469 148.292969 C 52.125 148.292969 46.890625 148.292969 41.496094 148.292969 C 41.761719 146.179688 41.761719 146.179688 42.289062 145.652344 C 42.882812 145.4375 43.484375 145.269531 44.089844 145.09375 C 44.6875 144.902344 44.6875 144.902344 45.074219 144.441406 C 45.460938 144.070312 45.460938 144.070312 46.519531 144.070312 C 46.542969 143.761719 46.542969 143.761719 46.570312 143.445312 C 46.640625 143.214844 46.710938 142.988281 46.785156 142.75 C 47.085938 142.636719 47.085938 142.636719 47.394531 142.519531 C 48.410156 142.097656 48.742188 141.34375 49.164062 140.375 C 49.378906 139.59375 49.5 138.808594 49.609375 138 C 49.640625 137.804688 49.671875 137.605469 49.703125 137.402344 C 50.332031 133.113281 50.285156 128.769531 50.285156 124.445312 C 50.285156 123.949219 50.285156 123.949219 50.289062 123.445312 C 50.289062 118.304688 50.140625 113.183594 49.855469 108.054688 C 49.839844 107.75 49.824219 107.445312 49.804688 107.132812 C 49.605469 103.582031 49.363281 100.035156 49.066406 96.492188 C 48.9375 94.929688 48.875 93.394531 48.898438 91.824219 C 48.289062 91.824219 47.675781 91.824219 47.046875 91.824219 C 47.046875 91.738281 47.046875 91.652344 47.046875 91.5625 Z M 47.046875 91.5625 "/>
<path style=" stroke:none;fill-rule:nonzero;fill:rgb(4.705882%,4.313726%,3.921569%);fill-opacity:1;" d="M 60 3.695312 C 60.445312 3.964844 60.894531 4.238281 61.324219 4.535156 C 62.28125 4.925781 63.269531 4.667969 64.265625 4.503906 C 65.199219 4.480469 65.601562 4.726562 66.34375 5.277344 C 66.457031 5.429688 66.574219 5.582031 66.691406 5.738281 C 67.179688 6.179688 67.179688 6.179688 68.128906 5.9375 C 68.3125 5.90625 68.496094 5.875 68.6875 5.84375 C 69.640625 5.777344 70.289062 6.136719 71.101562 6.597656 C 71.820312 7.265625 71.890625 7.566406 71.945312 8.558594 C 72.058594 9.496094 72.058594 9.496094 72.625 9.882812 C 73 10.105469 73.378906 10.316406 73.769531 10.515625 C 74.273438 10.820312 74.273438 10.820312 74.800781 11.609375 C 74.824219 12.226562 74.824219 12.84375 74.800781 13.457031 C 75.097656 13.554688 75.097656 13.554688 75.394531 13.65625 C 76.226562 14.03125 76.636719 14.304688 77.179688 15.039062 C 77.441406 16.007812 77.503906 16.878906 77.296875 17.859375 C 77.117188 18.484375 77.117188 18.484375 77.445312 19.082031 C 77.835938 20.128906 77.675781 20.808594 77.445312 21.902344 C 77.066406 22.429688 77.066406 22.429688 76.652344 22.691406 C 76.476562 22.691406 76.304688 22.691406 76.125 22.691406 C 75.992188 23.214844 75.992188 23.214844 75.859375 23.746094 C 75.167969 23.90625 74.605469 24.019531 73.894531 23.945312 C 72.960938 23.972656 72.960938 23.972656 71.628906 25.332031 C 71.628906 23.589844 71.628906 21.847656 71.628906 20.054688 C 71.195312 20.226562 70.757812 20.402344 70.308594 20.582031 C 68.6875 20.722656 68.6875 20.722656 67.8125 20.1875 C 67.675781 20.054688 67.542969 19.925781 67.402344 19.789062 C 67.3125 19.878906 67.226562 19.964844 67.136719 20.054688 C 66.703125 20.085938 66.265625 20.101562 65.832031 20.101562 C 65.59375 20.105469 65.359375 20.109375 65.113281 20.113281 C 64.492188 20.054688 64.492188 20.054688 63.964844 19.527344 C 63.433594 19.605469 62.90625 19.695312 62.378906 19.789062 C 60.308594 19.953125 60.308594 19.953125 59.324219 19.425781 C 58.941406 19 58.941406 19 58.941406 18.46875 C 58.769531 18.46875 58.59375 18.46875 58.414062 18.46875 C 58.328125 18.730469 58.238281 18.992188 58.148438 19.261719 C 57.386719 19.769531 56.773438 19.855469 55.871094 19.839844 C 55.664062 19.835938 55.460938 19.835938 55.25 19.835938 C 54.714844 19.789062 54.714844 19.789062 54.183594 19.527344 C 54.125 19.722656 54.066406 19.917969 54.003906 20.121094 C 53.574219 21.019531 53.191406 21.386719 52.335938 21.902344 C 51.328125 21.96875 51.328125 21.96875 50.484375 21.902344 C 50.472656 22.105469 50.457031 22.308594 50.445312 22.515625 C 50.425781 22.78125 50.40625 23.046875 50.386719 23.320312 C 50.367188 23.582031 50.347656 23.84375 50.328125 24.117188 C 50.21875 24.804688 50.21875 24.804688 49.691406 25.332031 C 48.144531 23.6875 48.144531 23.6875 48.046875 22.53125 C 48.074219 22.074219 48.105469 21.617188 48.132812 21.160156 C 48.167969 20.507812 48.167969 20.507812 47.496094 19.988281 C 47.144531 19.757812 47.144531 19.757812 46.785156 19.527344 C 46.097656 18.484375 45.835938 17.582031 45.878906 16.347656 C 46.128906 15.203125 47.035156 14.523438 47.839844 13.722656 C 47.753906 13.542969 47.667969 13.363281 47.578125 13.175781 C 47.253906 12.230469 47.207031 11.546875 47.3125 10.554688 C 47.789062 9.828125 48.121094 9.359375 48.898438 8.972656 C 49.605469 8.9375 50.304688 8.960938 51.011719 8.972656 C 50.996094 8.695312 50.980469 8.417969 50.964844 8.128906 C 51.015625 7.050781 51.121094 6.625 51.804688 5.804688 C 52.703125 5.210938 53.128906 4.964844 54.203125 5.160156 C 55.007812 5.371094 55.007812 5.371094 55.671875 4.800781 C 55.878906 4.609375 56.085938 4.417969 56.300781 4.222656 C 57.480469 3.511719 58.65625 3.511719 60 3.695312 Z M 60 3.695312 "/>
<path style=" stroke:none;fill-rule:nonzero;fill:rgb(97.647059%,59.215689%,5.098039%);fill-opacity:1;" d="M 72.421875 47.757812 C 74.394531 47.578125 75.855469 47.597656 77.453125 48.847656 C 78.917969 50.238281 79.578125 51.503906 79.929688 53.503906 C 79.960938 53.683594 79.992188 53.863281 80.027344 54.050781 C 80.097656 54.457031 80.167969 54.863281 80.238281 55.269531 C 80.359375 55.984375 80.488281 56.695312 80.613281 57.40625 C 82.105469 65.882812 82.753906 74.046875 82.488281 82.648438 C 82.460938 83.59375 82.445312 84.539062 82.429688 85.488281 C 82.414062 86.527344 82.390625 87.570312 82.367188 88.609375 C 82.363281 88.796875 82.359375 88.984375 82.355469 89.175781 C 82.34375 89.691406 82.328125 90.207031 82.3125 90.726562 C 82.300781 91.152344 82.300781 91.152344 82.285156 91.589844 C 82.199219 92.375 81.996094 92.953125 81.675781 93.671875 C 81.40625 94.480469 81.378906 95.023438 81.382812 95.867188 C 81.382812 96.140625 81.386719 96.410156 81.386719 96.691406 C 81.390625 96.972656 81.390625 97.257812 81.394531 97.546875 C 81.394531 97.832031 81.394531 98.121094 81.398438 98.414062 C 81.398438 99.121094 81.402344 99.828125 81.410156 100.53125 C 81.246094 100.609375 81.082031 100.6875 80.914062 100.769531 C 80.332031 101.046875 80.332031 101.046875 79.824219 101.503906 C 79.296875 101.851562 79.296875 101.851562 78.765625 101.753906 C 78.59375 101.699219 78.417969 101.644531 78.238281 101.589844 C 78.058594 101.636719 77.878906 101.6875 77.691406 101.738281 C 77.4375 101.792969 77.4375 101.792969 77.179688 101.851562 C 76.917969 101.679688 76.65625 101.503906 76.386719 101.324219 C 76.035156 101.230469 75.683594 101.144531 75.332031 101.058594 C 75.066406 100.796875 75.066406 100.796875 75.050781 99.855469 C 75.054688 99.558594 75.058594 99.257812 75.066406 98.949219 C 74.71875 98.863281 74.367188 98.777344 74.007812 98.6875 C 73.828125 95.28125 73.828125 95.28125 74.539062 94.25 C 74.710938 94.058594 74.886719 93.867188 75.066406 93.671875 C 74.890625 93.410156 74.71875 93.148438 74.539062 92.878906 C 74.488281 92.128906 74.476562 91.40625 74.488281 90.65625 C 74.488281 90.417969 74.492188 90.179688 74.492188 89.9375 C 74.519531 87.503906 74.597656 85.070312 74.667969 82.640625 C 74.792969 78.507812 74.792969 78.507812 74.851562 74.378906 C 74.855469 74.152344 74.859375 73.925781 74.863281 73.695312 C 74.867188 71.332031 74.539062 69.152344 74.273438 66.757812 C 74.1875 74.941406 74.097656 83.128906 74.007812 91.5625 C 69.558594 91.5625 65.113281 91.5625 60.527344 91.5625 C 60.527344 91.472656 60.527344 91.386719 60.527344 91.296875 C 64.890625 91.296875 69.25 91.296875 73.746094 91.296875 C 73.773438 86.105469 73.773438 86.105469 73.796875 80.910156 C 73.800781 78.785156 73.808594 76.660156 73.824219 74.535156 C 73.953125 63.976562 73.953125 63.976562 72.808594 53.503906 C 72.492188 51.585938 72.390625 49.699219 72.421875 47.757812 Z M 72.421875 47.757812 "/>
<path style=" stroke:none;fill-rule:nonzero;fill:rgb(97.647059%,59.215689%,4.705882%);fill-opacity:1;" d="M 48.632812 47.757812 C 49.027344 48.542969 48.835938 49.15625 48.730469 50.023438 C 48.710938 50.199219 48.6875 50.378906 48.667969 50.558594 C 48.597656 51.144531 48.523438 51.726562 48.453125 52.3125 C 48.402344 52.714844 48.355469 53.121094 48.304688 53.527344 C 47.167969 62.890625 47.167969 62.890625 46.492188 66.917969 C 46.238281 68.550781 46.183594 70.136719 46.207031 71.789062 C 46.207031 72.089844 46.210938 72.390625 46.210938 72.699219 C 46.234375 75.476562 46.320312 78.253906 46.40625 81.035156 C 46.53125 85.070312 46.546875 89.105469 46.519531 93.144531 C 46.519531 93.40625 46.519531 93.667969 46.519531 93.9375 C 46.691406 94.085938 46.867188 94.238281 47.042969 94.394531 C 47.792969 95.230469 47.683594 95.800781 47.644531 96.90625 C 47.632812 97.238281 47.625 97.570312 47.613281 97.914062 C 47.601562 98.167969 47.589844 98.421875 47.578125 98.6875 C 47.226562 98.773438 46.878906 98.859375 46.519531 98.949219 C 46.519531 99.644531 46.519531 100.34375 46.519531 101.058594 C 44.863281 101.636719 43.488281 102.0625 41.761719 101.589844 C 41.761719 101.328125 41.761719 101.066406 41.761719 100.796875 C 41.597656 100.851562 41.433594 100.90625 41.265625 100.960938 C 41.082031 100.996094 40.894531 101.027344 40.703125 101.058594 C 40.175781 100.53125 40.175781 100.53125 40.132812 99.9375 C 40.140625 99.695312 40.152344 99.449219 40.160156 99.199219 C 40.167969 98.933594 40.175781 98.667969 40.179688 98.394531 C 40.199219 97.832031 40.21875 97.273438 40.242188 96.710938 C 40.277344 95.058594 40.191406 94.425781 39.117188 93.144531 C 38.910156 92.183594 38.890625 91.222656 38.855469 90.242188 C 38.832031 89.765625 38.832031 89.765625 38.8125 89.28125 C 38.726562 87.089844 38.679688 84.898438 38.636719 82.703125 C 38.613281 81.472656 38.570312 80.246094 38.507812 79.015625 C 38.226562 73.171875 38.882812 67.507812 39.738281 61.738281 C 39.828125 61.136719 39.917969 60.539062 40.003906 59.941406 C 40.144531 58.984375 40.289062 58.03125 40.441406 57.078125 C 40.523438 56.554688 40.601562 56.027344 40.679688 55.503906 C 41.117188 52.847656 41.875 50.507812 43.90625 48.640625 C 45.320312 47.636719 46.964844 47.699219 48.632812 47.757812 Z M 48.632812 47.757812 "/>
<path style=" stroke:none;fill-rule:nonzero;fill:rgb(45.882353%,78.431374%,96.862745%);fill-opacity:1;" d="M 64.230469 91.824219 C 66.757812 91.824219 69.289062 91.824219 71.894531 91.824219 C 71.894531 93.5625 71.851562 95.183594 71.65625 96.894531 C 70.726562 105.660156 70.492188 114.449219 70.492188 123.257812 C 70.488281 123.910156 70.488281 124.566406 70.488281 125.21875 C 70.453125 131.628906 70.453125 131.628906 71.101562 138 C 70.902344 138 70.707031 138 70.503906 137.996094 C 69.613281 137.992188 68.722656 137.988281 67.832031 137.984375 C 67.519531 137.984375 67.207031 137.980469 66.890625 137.976562 C 66.59375 137.976562 66.296875 137.976562 65.992188 137.976562 C 65.714844 137.972656 65.441406 137.972656 65.160156 137.972656 C 64.496094 137.957031 64.496094 137.957031 63.964844 138.265625 C 63.710938 137.507812 63.664062 137.027344 63.660156 136.242188 C 63.660156 135.863281 63.660156 135.863281 63.65625 135.476562 C 63.65625 135.199219 63.65625 134.921875 63.65625 134.636719 C 63.65625 134.34375 63.652344 134.050781 63.652344 133.75 C 63.648438 132.78125 63.648438 131.8125 63.652344 130.84375 C 63.652344 130.507812 63.652344 130.175781 63.648438 129.828125 C 63.652344 124.554688 63.785156 119.296875 64.003906 114.027344 C 64.300781 106.625 64.277344 99.234375 64.230469 91.824219 Z M 64.230469 91.824219 "/>
<path style=" stroke:none;fill-rule:nonzero;fill:rgb(60.000002%,45.490196%,37.64706%);fill-opacity:1;" d="M 74.007812 64.121094 C 74.097656 64.121094 74.183594 64.121094 74.273438 64.121094 C 74.273438 73.261719 74.273438 82.40625 74.273438 91.824219 C 73.664062 91.824219 73.050781 91.824219 72.421875 91.824219 C 70.828125 112.320312 70.828125 112.320312 71.050781 132.855469 C 71.070312 133.183594 71.089844 133.507812 71.109375 133.84375 C 71.355469 138.296875 71.355469 138.296875 73.214844 142.222656 C 74.035156 142.722656 74.035156 142.722656 74.800781 143.015625 C 74.800781 143.277344 74.800781 143.539062 74.800781 143.808594 C 75.324219 143.980469 75.847656 144.15625 76.386719 144.335938 C 76.386719 144.59375 76.386719 144.855469 76.386719 145.125 C 76.589844 145.171875 76.796875 145.214844 77.003906 145.261719 C 77.269531 145.324219 77.535156 145.390625 77.808594 145.457031 C 78.070312 145.515625 78.335938 145.578125 78.609375 145.640625 C 79.296875 145.917969 79.296875 145.917969 79.652344 146.390625 C 79.824219 146.972656 79.824219 146.972656 79.824219 148.292969 C 74.589844 148.292969 69.355469 148.292969 63.964844 148.292969 C 63.949219 145.828125 63.949219 145.828125 63.933594 143.3125 C 63.925781 142.792969 63.921875 142.273438 63.917969 141.742188 C 63.914062 141.332031 63.914062 140.921875 63.914062 140.511719 C 63.910156 140.296875 63.90625 140.082031 63.90625 139.863281 C 63.90625 139.328125 63.933594 138.796875 63.964844 138.265625 C 64.492188 137.738281 64.492188 137.738281 65.136719 137.679688 C 65.398438 137.679688 65.660156 137.683594 65.933594 137.6875 C 66.21875 137.6875 66.5 137.691406 66.792969 137.691406 C 67.09375 137.695312 67.390625 137.699219 67.699219 137.703125 C 68 137.707031 68.296875 137.710938 68.609375 137.710938 C 69.351562 137.71875 70.09375 137.726562 70.835938 137.738281 C 70.800781 137.464844 70.761719 137.191406 70.722656 136.90625 C 70.378906 134.25 70.226562 131.644531 70.230469 128.96875 C 70.226562 128.566406 70.226562 128.167969 70.222656 127.765625 C 70.222656 126.707031 70.222656 125.648438 70.222656 124.589844 C 70.226562 123.929688 70.226562 123.269531 70.226562 122.609375 C 70.234375 113.191406 70.644531 103.832031 71.628906 94.464844 C 71.71875 93.59375 71.804688 92.722656 71.894531 91.824219 C 67.96875 91.914062 64.042969 92 60 92.089844 C 60.128906 91.828125 60.128906 91.828125 60.265625 91.5625 C 64.800781 91.5625 69.335938 91.5625 74.007812 91.5625 C 74.007812 82.503906 74.007812 73.449219 74.007812 64.121094 Z M 74.007812 64.121094 "/>
<path style=" stroke:none;fill-rule:nonzero;fill:rgb(64.313728%,38.431373%,25.490198%);fill-opacity:1;" d="M 55.890625 137.699219 C 56.5625 137.738281 56.5625 137.738281 57.09375 138.265625 C 57.15625 139.019531 57.191406 139.753906 57.203125 140.511719 C 57.207031 140.707031 57.210938 140.902344 57.214844 141.105469 C 57.234375 141.839844 57.246094 142.578125 57.257812 143.3125 C 57.289062 144.957031 57.324219 146.597656 57.355469 148.292969 C 52.125 148.292969 46.890625 148.292969 41.496094 148.292969 C 41.761719 146.179688 41.761719 146.179688 42.289062 145.652344 C 42.882812 145.4375 43.484375 145.269531 44.089844 145.09375 C 44.6875 144.902344 44.6875 144.902344 45.074219 144.441406 C 45.460938 144.070312 45.460938 144.070312 46.519531 144.070312 C 46.535156 143.863281 46.550781 143.65625 46.570312 143.445312 C 46.640625 143.214844 46.710938 142.988281 46.785156 142.75 C 46.984375 142.675781 47.1875 142.597656 47.394531 142.519531 C 48.253906 142.160156 48.53125 141.703125 48.960938 140.890625 C 49.261719 140.128906 49.316406 139.335938 49.425781 138.53125 C 50.210938 138.007812 50.402344 137.933594 51.28125 137.890625 C 51.488281 137.882812 51.691406 137.871094 51.902344 137.863281 C 52.117188 137.851562 52.328125 137.84375 52.550781 137.835938 C 52.863281 137.820312 52.863281 137.820312 53.1875 137.804688 C 54.085938 137.765625 54.988281 137.738281 55.890625 137.699219 Z M 55.890625 137.699219 "/>
<path style=" stroke:none;fill-rule:nonzero;fill:rgb(98.823529%,59.215689%,3.137255%);fill-opacity:1;" d="M 63.964844 74.410156 C 66.496094 74.410156 69.023438 74.410156 71.628906 74.410156 C 71.660156 75.589844 71.6875 76.765625 71.703125 77.945312 C 71.710938 78.347656 71.71875 78.746094 71.730469 79.148438 C 71.746094 79.722656 71.753906 80.300781 71.757812 80.878906 C 71.765625 81.226562 71.773438 81.570312 71.78125 81.929688 C 71.589844 83.09375 71.242188 83.46875 70.308594 84.171875 C 69.71875 84.34375 69.71875 84.34375 69.128906 84.347656 C 68.910156 84.351562 68.695312 84.351562 68.472656 84.351562 C 68.25 84.347656 68.027344 84.34375 67.796875 84.339844 C 67.574219 84.34375 67.351562 84.347656 67.125 84.351562 C 66.796875 84.351562 66.796875 84.351562 66.46875 84.347656 C 66.175781 84.347656 66.175781 84.347656 65.875 84.34375 C 64.945312 84.074219 64.550781 83.613281 63.964844 82.855469 C 63.816406 81.929688 63.816406 81.929688 63.835938 80.878906 C 63.835938 80.691406 63.839844 80.507812 63.839844 80.316406 C 63.847656 79.726562 63.867188 79.136719 63.882812 78.550781 C 63.890625 78.148438 63.894531 77.746094 63.898438 77.347656 C 63.914062 76.367188 63.941406 75.390625 63.964844 74.410156 Z M 63.964844 74.410156 "/>
<path style=" stroke:none;fill-rule:nonzero;fill:rgb(98.823529%,59.215689%,3.137255%);fill-opacity:1;" d="M 49.691406 74.410156 C 52.222656 74.410156 54.75 74.410156 57.355469 74.410156 C 57.386719 75.589844 57.414062 76.765625 57.429688 77.945312 C 57.4375 78.347656 57.445312 78.746094 57.457031 79.148438 C 57.472656 79.722656 57.480469 80.300781 57.484375 80.878906 C 57.492188 81.226562 57.5 81.570312 57.507812 81.929688 C 57.316406 83.09375 56.972656 83.472656 56.035156 84.171875 C 55.417969 84.34375 55.417969 84.34375 54.785156 84.347656 C 54.441406 84.351562 54.441406 84.351562 54.089844 84.351562 C 53.855469 84.347656 53.617188 84.34375 53.375 84.339844 C 53.136719 84.34375 52.902344 84.347656 52.65625 84.351562 C 52.425781 84.351562 52.199219 84.351562 51.960938 84.347656 C 51.753906 84.347656 51.546875 84.34375 51.332031 84.34375 C 50.433594 84.082031 50.164062 83.648438 49.691406 82.855469 C 49.570312 81.929688 49.570312 81.929688 49.589844 80.878906 C 49.589844 80.691406 49.589844 80.507812 49.59375 80.316406 C 49.597656 79.726562 49.613281 79.136719 49.625 78.550781 C 49.628906 78.148438 49.636719 77.746094 49.640625 77.347656 C 49.652344 76.367188 49.671875 75.390625 49.691406 74.410156 Z M 49.691406 74.410156 "/>
<path style=" stroke:none;fill-rule:nonzero;fill:rgb(91.37255%,73.333335%,51.764709%);fill-opacity:1;" d="M 82.203125 70.1875 C 82.289062 70.1875 82.378906 70.1875 82.46875 70.1875 C 82.519531 82.890625 82.519531 82.890625 82.382812 88.039062 C 82.371094 88.417969 82.363281 88.792969 82.355469 89.171875 C 82.34375 89.691406 82.328125 90.207031 82.3125 90.726562 C 82.304688 91.011719 82.296875 91.296875 82.285156 91.589844 C 82.199219 92.375 81.996094 92.953125 81.675781 93.671875 C 81.40625 94.480469 81.378906 95.023438 81.382812 95.867188 C 81.386719 96.277344 81.386719 96.277344 81.386719 96.691406 C 81.390625 96.972656 81.390625 97.257812 81.394531 97.546875 C 81.394531 97.832031 81.394531 98.121094 81.398438 98.414062 C 81.398438 99.121094 81.402344 99.828125 81.410156 100.53125 C 81.164062 100.648438 81.164062 100.648438 80.914062 100.769531 C 80.332031 101.046875 80.332031 101.046875 79.824219 101.503906 C 79.296875 101.851562 79.296875 101.851562 78.765625 101.753906 C 78.59375 101.699219 78.417969 101.644531 78.238281 101.589844 C 78.058594 101.636719 77.878906 101.6875 77.691406 101.738281 C 77.4375 101.792969 77.4375 101.792969 77.179688 101.851562 C 76.917969 101.679688 76.65625 101.503906 76.386719 101.324219 C 76.035156 101.230469 75.683594 101.144531 75.332031 101.058594 C 75.066406 100.796875 75.066406 100.796875 75.050781 99.855469 C 75.054688 99.558594 75.058594 99.257812 75.066406 98.949219 C 74.71875 98.863281 74.367188 98.777344 74.007812 98.6875 C 73.980469 98.140625 73.960938 97.597656 73.941406 97.054688 C 73.929688 96.75 73.917969 96.445312 73.90625 96.132812 C 74.027344 95.082031 74.328125 94.683594 75.066406 93.9375 C 75.5 93.660156 75.9375 93.394531 76.386719 93.144531 C 76.648438 92.882812 76.648438 92.882812 76.917969 92.617188 C 78.125 92.410156 79.207031 92.453125 80.238281 93.144531 C 80.449219 93.320312 80.660156 93.492188 80.882812 93.671875 C 81.691406 92.460938 81.707031 91.234375 81.722656 89.804688 C 81.726562 89.515625 81.734375 89.230469 81.738281 88.933594 C 81.742188 88.625 81.746094 88.316406 81.75 88 C 81.753906 87.675781 81.757812 87.351562 81.761719 87.019531 C 81.777344 85.980469 81.792969 84.945312 81.804688 83.910156 C 81.867188 79.332031 81.957031 74.761719 82.203125 70.1875 Z M 82.203125 70.1875 "/>
<path style=" stroke:none;fill-rule:nonzero;fill:rgb(98.039216%,92.156863%,5.490196%);fill-opacity:1;" d="M 56.332031 44.296875 C 56.582031 44.308594 56.835938 44.316406 57.09375 44.328125 C 57.09375 44.9375 57.09375 45.546875 57.09375 46.175781 C 59.621094 46.175781 62.152344 46.175781 64.757812 46.175781 C 64.757812 45.566406 64.757812 44.957031 64.757812 44.328125 C 65.269531 44.429688 65.269531 44.429688 65.816406 44.59375 C 65.945312 44.855469 65.945312 44.855469 66.078125 45.121094 C 65.945312 45.304688 65.945312 45.304688 65.804688 45.496094 C 65.386719 46.066406 64.972656 46.640625 64.558594 47.214844 C 64.417969 47.410156 64.273438 47.605469 64.128906 47.804688 C 63.175781 49.132812 62.453125 50.460938 61.851562 51.980469 C 62.113281 51.980469 62.375 51.980469 62.644531 51.980469 C 62.273438 52.898438 61.949219 53.164062 61.058594 53.566406 C 61.058594 53.726562 61.058594 53.890625 61.058594 54.058594 C 61.085938 62.058594 61.074219 70.054688 60.941406 78.054688 C 60.9375 78.386719 60.929688 78.714844 60.925781 79.058594 C 60.859375 83.230469 60.738281 87.394531 60.527344 91.5625 C 60.355469 91.648438 60.179688 91.734375 60 91.824219 C 60 91.527344 60 91.527344 60.003906 91.226562 C 60.019531 86.421875 60.03125 81.617188 60.042969 76.8125 C 60.046875 74.488281 60.050781 72.164062 60.058594 69.839844 C 60.066406 67.816406 60.074219 65.789062 60.074219 63.765625 C 60.074219 62.691406 60.078125 61.621094 60.082031 60.546875 C 60.089844 59.539062 60.089844 58.527344 60.089844 57.519531 C 60.089844 57.148438 60.089844 56.777344 60.09375 56.40625 C 60.097656 55.902344 60.097656 55.394531 60.09375 54.890625 C 60.097656 54.464844 60.097656 54.464844 60.097656 54.03125 C 59.988281 53.203125 59.75 52.867188 59.207031 52.246094 C 59.058594 51.863281 58.921875 51.480469 58.792969 51.089844 C 58.167969 49.445312 57.148438 48.128906 56.097656 46.730469 C 55.648438 46.109375 55.285156 45.554688 54.976562 44.855469 C 55.507812 44.328125 55.507812 44.328125 56.332031 44.296875 Z M 56.332031 44.296875 "/>
<path style=" stroke:none;fill-rule:nonzero;fill:rgb(98.431373%,58.823532%,3.921569%);fill-opacity:1;" d="M 57.09375 39.578125 C 57.09375 41.148438 57.09375 42.714844 57.09375 44.328125 C 56.480469 44.503906 55.871094 44.675781 55.242188 44.855469 C 56.011719 46.296875 56.925781 47.578125 57.910156 48.882812 C 58.433594 49.632812 58.859375 50.34375 59.207031 51.191406 C 59.121094 51.539062 59.03125 51.886719 58.941406 52.246094 C 57.765625 51.722656 57.765625 51.722656 56.5625 51.191406 C 56.5625 50.144531 56.5625 49.101562 56.5625 48.023438 C 56.214844 48.023438 55.867188 48.023438 55.507812 48.023438 C 55.507812 48.808594 55.507812 49.589844 55.507812 50.398438 C 53.578125 49.4375 51.96875 48.277344 50.484375 46.703125 C 50.484375 46.53125 50.484375 46.355469 50.484375 46.175781 C 50.222656 46.089844 49.960938 46.003906 49.691406 45.914062 C 49.085938 45.054688 49.039062 44.300781 49.164062 43.273438 C 50.003906 41.597656 51.414062 40.566406 53.0625 39.746094 C 54.410156 39.484375 55.722656 39.550781 57.09375 39.578125 Z M 57.09375 39.578125 "/>
<path style=" stroke:none;fill-rule:nonzero;fill:rgb(98.431373%,59.215689%,3.921569%);fill-opacity:1;" d="M 64.757812 39.578125 C 67.285156 39.398438 68.808594 40.019531 70.855469 41.476562 C 71.601562 42.558594 71.695312 43.558594 71.628906 44.855469 C 71.027344 46.863281 69.179688 48.351562 67.402344 49.34375 C 67.050781 49.523438 66.699219 49.699219 66.34375 49.871094 C 66.34375 49.175781 66.34375 48.476562 66.34375 47.757812 C 65.820312 48.019531 65.820312 48.019531 65.285156 48.289062 C 65.285156 51.335938 65.285156 54.382812 65.285156 57.523438 C 65.199219 57.523438 65.113281 57.523438 65.023438 57.523438 C 65.023438 55.347656 65.023438 53.167969 65.023438 50.925781 C 64.238281 51.273438 63.453125 51.621094 62.644531 51.980469 C 62.382812 51.980469 62.121094 51.980469 61.851562 51.980469 C 61.992188 50.742188 62.558594 49.859375 63.238281 48.847656 C 63.34375 48.683594 63.453125 48.523438 63.5625 48.355469 C 64.289062 47.257812 65.03125 46.179688 65.816406 45.121094 C 65.726562 44.945312 65.640625 44.773438 65.550781 44.59375 C 65.289062 44.507812 65.027344 44.417969 64.757812 44.328125 C 64.757812 42.761719 64.757812 41.195312 64.757812 39.578125 Z M 64.757812 39.578125 "/>
<path style=" stroke:none;fill-rule:nonzero;fill:rgb(94.509804%,76.078433%,54.509807%);fill-opacity:1;" d="M 46.253906 85.230469 C 46.34375 85.230469 46.429688 85.230469 46.519531 85.230469 C 46.519531 88.132812 46.519531 91.035156 46.519531 93.9375 C 46.78125 94.164062 46.78125 94.164062 47.042969 94.394531 C 47.792969 95.230469 47.683594 95.800781 47.644531 96.90625 C 47.632812 97.238281 47.625 97.570312 47.613281 97.914062 C 47.597656 98.296875 47.597656 98.296875 47.578125 98.6875 C 47.054688 98.816406 47.054688 98.816406 46.519531 98.949219 C 46.519531 99.644531 46.519531 100.34375 46.519531 101.058594 C 44.863281 101.636719 43.488281 102.0625 41.761719 101.589844 C 41.761719 101.328125 41.761719 101.066406 41.761719 100.796875 C 41.597656 100.851562 41.433594 100.90625 41.265625 100.960938 C 41.082031 100.996094 40.894531 101.027344 40.703125 101.058594 C 39.761719 100.121094 40.042969 98.707031 40.027344 97.433594 C 40.007812 97.003906 40.007812 97.003906 39.988281 96.566406 C 39.960938 94.511719 39.960938 94.511719 40.554688 93.648438 C 41.230469 93.035156 41.808594 92.675781 42.691406 92.433594 C 44.636719 92.550781 44.636719 92.550781 45.460938 93.410156 C 46.199219 92.671875 46.074219 92.1875 46.101562 91.15625 C 46.109375 90.8125 46.121094 90.46875 46.132812 90.113281 C 46.140625 89.75 46.148438 89.386719 46.15625 89.023438 C 46.167969 88.65625 46.175781 88.289062 46.1875 87.921875 C 46.210938 87.023438 46.234375 86.125 46.253906 85.230469 Z M 46.253906 85.230469 "/>
<path style=" stroke:none;fill-rule:nonzero;fill:rgb(93.725491%,89.803922%,81.568629%);fill-opacity:1;" d="M 59.207031 51.71875 C 59.71875 51.933594 59.71875 51.933594 60.265625 52.246094 C 60.351562 52.507812 60.4375 52.769531 60.527344 53.035156 C 60.730469 52.863281 60.933594 52.6875 61.140625 52.507812 C 61.851562 51.980469 61.851562 51.980469 62.644531 51.980469 C 62.273438 52.898438 61.949219 53.164062 61.058594 53.566406 C 61.058594 53.726562 61.058594 53.890625 61.058594 54.058594 C 61.085938 62.058594 61.074219 70.054688 60.941406 78.054688 C 60.9375 78.386719 60.929688 78.714844 60.925781 79.058594 C 60.859375 83.230469 60.738281 87.394531 60.527344 91.5625 C 60.355469 91.648438 60.179688 91.734375 60 91.824219 C 60 91.628906 60 91.429688 60.003906 91.226562 C 60.019531 86.421875 60.03125 81.617188 60.042969 76.8125 C 60.046875 74.488281 60.050781 72.164062 60.058594 69.839844 C 60.066406 67.816406 60.074219 65.789062 60.074219 63.765625 C 60.074219 62.691406 60.078125 61.621094 60.082031 60.546875 C 60.089844 59.539062 60.089844 58.527344 60.089844 57.519531 C 60.089844 57.148438 60.089844 56.777344 60.09375 56.40625 C 60.097656 55.902344 60.097656 55.394531 60.09375 54.890625 C 60.097656 54.605469 60.097656 54.324219 60.097656 54.03125 C 59.988281 53.203125 59.738281 52.871094 59.207031 52.246094 C 59.207031 52.070312 59.207031 51.898438 59.207031 51.71875 Z M 59.207031 51.71875 "/>
<path style=" stroke:none;fill-rule:nonzero;fill:rgb(50.588238%,28.235295%,17.254902%);fill-opacity:1;" d="M 54.929688 139.285156 C 55.121094 139.285156 55.308594 139.289062 55.507812 139.289062 C 55.699219 139.289062 55.886719 139.285156 56.085938 139.285156 C 56.5625 139.320312 56.5625 139.320312 56.828125 139.585938 C 56.851562 140.132812 56.855469 140.679688 56.855469 141.226562 C 56.851562 141.558594 56.851562 141.890625 56.851562 142.234375 C 56.847656 142.589844 56.847656 142.941406 56.84375 143.296875 C 56.84375 143.648438 56.84375 144.003906 56.839844 144.359375 C 56.839844 145.230469 56.832031 146.101562 56.828125 146.972656 C 56.046875 146.996094 55.265625 147.011719 54.480469 147.023438 C 54.261719 147.027344 54.039062 147.035156 53.808594 147.042969 C 53.59375 147.046875 53.382812 147.046875 53.164062 147.050781 C 52.867188 147.054688 52.867188 147.054688 52.566406 147.0625 C 52.402344 147.035156 52.238281 147.003906 52.070312 146.972656 C 51.394531 145.960938 51.339844 145.535156 51.542969 144.335938 C 52.144531 143.550781 52.804688 142.988281 53.65625 142.488281 C 54.707031 142.351562 55.304688 142.421875 56.300781 142.75 C 56.386719 142.140625 56.472656 141.53125 56.5625 140.902344 C 55.691406 140.902344 54.820312 140.902344 53.921875 140.902344 C 54.203125 139.339844 54.203125 139.339844 54.929688 139.285156 Z M 54.929688 139.285156 "/>
<path style=" stroke:none;fill-rule:nonzero;fill:rgb(84.705883%,78.039217%,60.392159%);fill-opacity:1;" d="M 56.828125 145.917969 C 57.371094 146.832031 57.355469 147.128906 57.355469 148.292969 C 52.125 148.292969 46.890625 148.292969 41.496094 148.292969 C 41.585938 147.597656 41.671875 146.898438 41.761719 146.179688 C 41.847656 146.441406 41.9375 146.703125 42.027344 146.972656 C 46.910156 146.972656 51.796875 146.972656 56.828125 146.972656 C 56.828125 146.625 56.828125 146.277344 56.828125 145.917969 Z M 56.828125 145.917969 "/>
<path style=" stroke:none;fill-rule:nonzero;fill:rgb(85.09804%,78.431374%,60.784316%);fill-opacity:1;" d="M 79.296875 146.445312 C 79.824219 146.972656 79.824219 146.972656 79.824219 148.292969 C 74.589844 148.292969 69.355469 148.292969 63.964844 148.292969 C 63.964844 147.855469 63.964844 147.421875 63.964844 146.972656 C 69.023438 146.972656 74.082031 146.972656 79.296875 146.972656 C 79.296875 146.800781 79.296875 146.625 79.296875 146.445312 Z M 79.296875 146.445312 "/>
<path style=" stroke:none;fill-rule:nonzero;fill:rgb(50.588238%,28.235295%,17.254902%);fill-opacity:1;" d="M 67.136719 142.488281 C 68.210938 142.898438 68.992188 143.289062 69.515625 144.335938 C 69.585938 145.324219 69.566406 146.03125 69.25 146.972656 C 67.679688 146.972656 66.109375 146.972656 64.492188 146.972656 C 64.476562 146.332031 64.460938 145.6875 64.445312 145.027344 C 64.4375 144.824219 64.429688 144.625 64.421875 144.414062 C 64.417969 143.949219 64.453125 143.480469 64.492188 143.015625 C 65.484375 142.355469 65.964844 142.386719 67.136719 142.488281 Z M 67.136719 142.488281 "/>
<path style=" stroke:none;fill-rule:nonzero;fill:rgb(97.647059%,70.588237%,31.37255%);fill-opacity:1;" d="M 46.785156 63.328125 C 46.957031 63.328125 47.132812 63.328125 47.3125 63.328125 C 47.3125 72.558594 47.3125 81.789062 47.3125 91.296875 C 47.050781 91.429688 47.050781 91.429688 46.785156 91.5625 C 46.695312 84.421875 46.609375 77.28125 46.519531 69.925781 C 46.433594 70.621094 46.34375 71.316406 46.253906 72.035156 C 46.167969 72.035156 46.082031 72.035156 45.992188 72.035156 C 45.84375 69.066406 46.292969 66.25 46.785156 63.328125 Z M 46.785156 63.328125 "/>
<path style=" stroke:none;fill-rule:nonzero;fill:rgb(99.607843%,96.470588%,92.156863%);fill-opacity:1;" d="M 65.550781 47.757812 C 65.8125 47.757812 66.074219 47.757812 66.34375 47.757812 C 66.625 48.878906 66.617188 49.902344 66.574219 51.054688 C 66.570312 51.242188 66.5625 51.425781 66.558594 51.617188 C 66.535156 52.207031 66.515625 52.792969 66.492188 53.382812 C 66.476562 53.785156 66.464844 54.183594 66.449219 54.585938 C 66.417969 55.566406 66.378906 56.542969 66.34375 57.523438 C 65.996094 57.523438 65.644531 57.523438 65.285156 57.523438 C 65.234375 56.21875 65.1875 54.910156 65.144531 53.605469 C 65.128906 53.160156 65.113281 52.71875 65.09375 52.273438 C 65.070312 51.636719 65.050781 50.996094 65.027344 50.359375 C 65.019531 50.160156 65.011719 49.960938 65.003906 49.753906 C 64.988281 49.265625 65.003906 48.777344 65.023438 48.289062 C 65.195312 48.113281 65.371094 47.9375 65.550781 47.757812 Z M 65.550781 47.757812 "/>
<path style=" stroke:none;fill-rule:nonzero;fill:rgb(92.54902%,95.686275%,94.509804%);fill-opacity:1;" d="M 59.207031 51.71875 C 59.71875 51.933594 59.71875 51.933594 60.265625 52.246094 C 60.351562 52.507812 60.4375 52.769531 60.527344 53.035156 C 60.730469 52.863281 60.933594 52.6875 61.140625 52.507812 C 61.851562 51.980469 61.851562 51.980469 62.644531 51.980469 C 62.273438 52.898438 61.949219 53.164062 61.058594 53.566406 C 61.058594 53.8125 61.058594 54.0625 61.0625 54.316406 C 61.085938 59.175781 61.074219 64.015625 60.792969 68.867188 C 60.707031 68.867188 60.617188 68.867188 60.527344 68.867188 C 60.527344 68.585938 60.527344 68.585938 60.527344 68.296875 C 60.515625 66.515625 60.5 64.734375 60.480469 62.949219 C 60.46875 62.035156 60.460938 61.117188 60.457031 60.203125 C 60.453125 59.148438 60.4375 58.09375 60.425781 57.042969 C 60.425781 56.714844 60.425781 56.386719 60.425781 56.046875 C 60.417969 55.742188 60.414062 55.433594 60.410156 55.121094 C 60.40625 54.851562 60.402344 54.582031 60.402344 54.304688 C 60.230469 53.382812 59.816406 52.945312 59.207031 52.246094 C 59.207031 52.070312 59.207031 51.898438 59.207031 51.71875 Z M 59.207031 51.71875 "/>
<path style=" stroke:none;fill-rule:nonzero;fill:rgb(66.274512%,60.392159%,50.196081%);fill-opacity:1;" d="M 56.828125 145.917969 C 57.371094 146.832031 57.355469 147.128906 57.355469 148.292969 C 52.210938 148.292969 47.0625 148.292969 41.761719 148.292969 C 41.761719 148.207031 41.761719 148.117188 41.761719 148.027344 C 46.734375 148.027344 51.707031 148.027344 56.828125 148.027344 C 56.828125 147.765625 56.828125 147.507812 56.828125 147.238281 C 51.855469 147.238281 46.882812 147.238281 41.761719 147.238281 C 41.847656 146.890625 41.9375 146.539062 42.027344 146.179688 C 42.027344 146.441406 42.027344 146.703125 42.027344 146.972656 C 46.910156 146.972656 51.796875 146.972656 56.828125 146.972656 C 56.828125 146.625 56.828125 146.277344 56.828125 145.917969 Z M 56.828125 145.917969 "/>
<path style=" stroke:none;fill-rule:nonzero;fill:rgb(97.254902%,95.294118%,92.54902%);fill-opacity:1;" d="M 55.769531 47.496094 C 56.121094 47.671875 56.46875 47.84375 56.828125 48.023438 C 56.765625 48.222656 56.765625 48.222656 56.703125 48.425781 C 56.515625 49.308594 56.5 50.1875 56.480469 51.085938 C 56.476562 51.277344 56.46875 51.46875 56.464844 51.667969 C 56.445312 52.277344 56.429688 52.886719 56.414062 53.5 C 56.402344 53.914062 56.390625 54.328125 56.378906 54.742188 C 56.351562 55.757812 56.324219 56.773438 56.300781 57.785156 C 56.039062 57.785156 55.777344 57.785156 55.507812 57.785156 C 55.457031 56.40625 55.410156 55.023438 55.363281 53.644531 C 55.347656 53.175781 55.332031 52.703125 55.316406 52.234375 C 55.289062 51.558594 55.269531 50.886719 55.25 50.210938 C 55.238281 50 55.230469 49.789062 55.222656 49.570312 C 55.207031 49.054688 55.222656 48.539062 55.242188 48.023438 C 55.417969 47.847656 55.589844 47.675781 55.769531 47.496094 Z M 55.769531 47.496094 "/>
<path style=" stroke:none;fill-rule:nonzero;fill:rgb(65.882355%,60.000002%,49.803922%);fill-opacity:1;" d="M 79.296875 146.445312 C 79.824219 146.972656 79.824219 146.972656 79.824219 148.292969 C 74.675781 148.292969 69.53125 148.292969 64.230469 148.292969 C 64.230469 148.207031 64.230469 148.117188 64.230469 148.027344 C 69.199219 148.027344 74.171875 148.027344 79.296875 148.027344 C 79.296875 147.765625 79.296875 147.507812 79.296875 147.238281 C 74.410156 147.238281 69.527344 147.238281 64.492188 147.238281 C 64.492188 147.148438 64.492188 147.0625 64.492188 146.972656 C 69.378906 146.972656 74.261719 146.972656 79.296875 146.972656 C 79.296875 146.800781 79.296875 146.625 79.296875 146.445312 Z M 79.296875 146.445312 "/>
<path style=" stroke:none;fill-rule:nonzero;fill:rgb(85.09804%,63.529414%,40.784314%);fill-opacity:1;" d="M 57.058594 23.894531 C 57.28125 23.886719 57.503906 23.875 57.734375 23.863281 C 58.753906 24.085938 59.121094 24.496094 59.734375 25.332031 C 59.902344 26.085938 59.886719 26.804688 59.851562 27.574219 C 59.851562 27.769531 59.847656 27.96875 59.847656 28.171875 C 59.824219 29.269531 59.703125 30.132812 59.207031 31.136719 C 59.730469 31.050781 60.253906 30.960938 60.792969 30.871094 C 60.707031 31.132812 60.617188 31.394531 60.527344 31.664062 C 60 31.675781 59.472656 31.675781 58.941406 31.664062 C 58.679688 31.398438 58.679688 31.398438 58.644531 30.609375 C 58.679688 29.816406 58.679688 29.816406 58.941406 29.554688 C 58.984375 28.851562 59.003906 28.160156 59.007812 27.457031 C 59.015625 27.261719 59.019531 27.066406 59.023438 26.867188 C 59.039062 26.230469 59.039062 26.230469 58.941406 25.332031 C 57.890625 24.632812 57.007812 24.605469 55.769531 24.804688 C 55.246094 25.292969 55.246094 25.292969 54.976562 25.859375 C 54.804688 25.859375 54.628906 25.859375 54.449219 25.859375 C 54.949219 24.40625 55.511719 23.9375 57.058594 23.894531 Z M 57.058594 23.894531 "/>
<path style=" stroke:none;fill-rule:nonzero;fill:rgb(96.862745%,75.294119%,45.09804%);fill-opacity:1;" d="M 60 70.714844 C 60.085938 70.714844 60.175781 70.714844 60.265625 70.714844 C 60.316406 77.84375 60.164062 84.964844 60 92.089844 C 59.914062 92.089844 59.824219 92.089844 59.734375 92.089844 C 59.691406 90.253906 59.648438 88.417969 59.609375 86.582031 C 59.59375 85.960938 59.578125 85.335938 59.5625 84.710938 C 59.542969 83.8125 59.523438 82.914062 59.503906 82.015625 C 59.496094 81.738281 59.488281 81.460938 59.480469 81.175781 C 59.453125 79.773438 59.492188 78.425781 59.671875 77.035156 C 59.753906 76.363281 59.789062 75.695312 59.820312 75.019531 C 59.832031 74.765625 59.839844 74.511719 59.851562 74.25 C 59.863281 73.992188 59.875 73.734375 59.882812 73.46875 C 59.894531 73.203125 59.90625 72.9375 59.917969 72.664062 C 59.945312 72.015625 59.972656 71.363281 60 70.714844 Z M 60 70.714844 "/>
<path style=" stroke:none;fill-rule:nonzero;fill:rgb(96.862745%,72.156864%,53.333336%);fill-opacity:1;" d="M 54.976562 29.289062 C 55.238281 29.464844 55.5 29.636719 55.769531 29.816406 C 55.855469 30.476562 55.855469 30.476562 55.769531 31.136719 C 55.242188 31.664062 55.242188 31.664062 54.203125 31.746094 C 53.5 31.726562 53.191406 31.703125 52.582031 31.335938 C 52.335938 30.871094 52.335938 30.871094 52.367188 30.328125 C 52.902344 29.148438 53.835938 29.195312 54.976562 29.289062 Z M 54.976562 29.289062 "/>
<path style=" stroke:none;fill-rule:nonzero;fill:rgb(96.862745%,72.156864%,53.333336%);fill-opacity:1;" d="M 67.78125 29.207031 C 68.722656 29.289062 68.722656 29.289062 69.25 29.601562 C 69.515625 30.082031 69.515625 30.082031 69.464844 30.773438 C 69.25 31.398438 69.25 31.398438 68.722656 31.664062 C 67.066406 31.785156 67.066406 31.785156 66.34375 31.335938 C 66.078125 30.871094 66.078125 30.871094 66.128906 30.328125 C 66.519531 29.402344 66.773438 29.296875 67.78125 29.207031 Z M 67.78125 29.207031 "/>
<path style=" stroke:none;fill-rule:nonzero;fill:rgb(84.705883%,67.058825%,41.960785%);fill-opacity:1;" d="M 46.519531 65.175781 C 46.695312 65.175781 46.867188 65.175781 47.046875 65.175781 C 47.046875 70.226562 47.046875 75.277344 47.046875 80.480469 C 46.960938 80.480469 46.875 80.480469 46.785156 80.480469 C 46.695312 76.996094 46.609375 73.511719 46.519531 69.925781 C 46.433594 70.621094 46.34375 71.316406 46.253906 72.035156 C 46.167969 72.035156 46.082031 72.035156 45.992188 72.035156 C 45.921875 69.6875 46.097656 67.484375 46.519531 65.175781 Z M 46.519531 65.175781 "/>
<path style=" stroke:none;fill-rule:nonzero;fill:rgb(23.921569%,24.313726%,25.490198%);fill-opacity:1;" d="M 65.136719 26.335938 C 65.816406 26.386719 65.816406 26.386719 66.34375 26.914062 C 66.410156 27.574219 66.410156 27.574219 66.34375 28.234375 C 65.816406 28.761719 65.816406 28.761719 65.152344 28.84375 C 64.828125 28.804688 64.828125 28.804688 64.492188 28.761719 C 63.964844 27.96875 63.964844 27.96875 64.046875 27.277344 C 64.300781 26.402344 64.300781 26.402344 65.136719 26.335938 Z M 65.136719 26.335938 "/>
<path style=" stroke:none;fill-rule:nonzero;fill:rgb(23.529412%,23.921569%,25.490198%);fill-opacity:1;" d="M 56.960938 26.058594 C 57.621094 26.121094 57.621094 26.121094 58.148438 26.652344 C 58.050781 27.476562 58.050781 27.476562 57.886719 28.234375 C 57.125 28.398438 57.125 28.398438 56.300781 28.496094 C 55.769531 27.96875 55.769531 27.96875 55.703125 27.308594 C 55.796875 26.386719 56.035156 26.148438 56.960938 26.058594 Z M 56.960938 26.058594 "/>
<path style=" stroke:none;fill-rule:nonzero;fill:rgb(99.607843%,98.431373%,96.862745%);fill-opacity:1;" d="M 57.886719 33.511719 C 59.542969 33.511719 61.199219 33.511719 62.90625 33.511719 C 62.90625 33.683594 62.90625 33.859375 62.90625 34.039062 C 62.050781 34.542969 61.386719 34.652344 60.394531 34.664062 C 60.023438 34.675781 60.023438 34.675781 59.644531 34.6875 C 58.941406 34.566406 58.941406 34.566406 57.886719 33.511719 Z M 57.886719 33.511719 "/>
<path style=" stroke:none;fill-rule:nonzero;fill:rgb(50.588238%,28.627452%,17.647059%);fill-opacity:1;" d="M 64.492188 139.320312 C 66.476562 139.222656 66.476562 139.222656 67.136719 139.71875 C 67.265625 139.914062 67.265625 139.914062 67.402344 140.113281 C 67.3125 140.375 67.226562 140.636719 67.136719 140.902344 C 66.75 140.917969 66.367188 140.929688 65.980469 140.9375 C 65.765625 140.941406 65.550781 140.949219 65.328125 140.957031 C 64.757812 140.902344 64.757812 140.902344 64.230469 140.375 C 64.328125 139.816406 64.328125 139.816406 64.492188 139.320312 Z M 64.492188 139.320312 "/>
<path style=" stroke:none;fill-rule:nonzero;fill:rgb(62.352943%,56.078434%,48.235294%);fill-opacity:1;" d="M 47.3125 94.992188 C 47.398438 94.992188 47.488281 94.992188 47.578125 94.992188 C 47.578125 96.210938 47.578125 97.429688 47.578125 98.6875 C 47.226562 98.773438 46.878906 98.859375 46.519531 98.949219 C 46.519531 99.644531 46.519531 100.34375 46.519531 101.058594 C 45.554688 101.394531 44.617188 101.675781 43.613281 101.851562 C 43.613281 101.679688 43.613281 101.503906 43.613281 101.324219 C 43.875 101.238281 44.136719 101.148438 44.40625 101.058594 C 44.492188 100.800781 44.578125 100.539062 44.667969 100.269531 C 44.84375 100.269531 45.019531 100.269531 45.199219 100.269531 C 45.199219 100.441406 45.199219 100.617188 45.199219 100.796875 C 45.460938 100.710938 45.722656 100.621094 45.992188 100.53125 C 46.019531 100.238281 46.046875 99.945312 46.074219 99.640625 C 46.132812 99.328125 46.195312 99.011719 46.253906 98.6875 C 46.515625 98.511719 46.777344 98.335938 47.046875 98.15625 C 47.203125 97.394531 47.203125 97.394531 47.230469 96.542969 C 47.246094 96.253906 47.265625 95.964844 47.28125 95.664062 C 47.292969 95.441406 47.300781 95.222656 47.3125 94.992188 Z M 47.3125 94.992188 "/>
<path style=" stroke:none;fill-rule:nonzero;fill:rgb(51.372552%,30.980393%,20.784314%);fill-opacity:1;" d="M 74.539062 142.75 C 74.625 143.011719 74.710938 143.273438 74.800781 143.542969 C 73.402344 144.613281 73.402344 144.613281 72.457031 144.53125 C 72.269531 144.46875 72.085938 144.402344 71.894531 144.335938 C 71.976562 143.839844 71.976562 143.839844 72.160156 143.277344 C 73.066406 142.675781 73.476562 142.703125 74.539062 142.75 Z M 74.539062 142.75 "/>
<path style=" stroke:none;fill-rule:nonzero;fill:rgb(99.215686%,78.823531%,50.588238%);fill-opacity:1;" d="M 65.550781 47.757812 C 65.8125 47.757812 66.074219 47.757812 66.34375 47.757812 C 66.429688 48.195312 66.519531 48.628906 66.609375 49.078125 C 66.519531 48.90625 66.433594 48.730469 66.34375 48.550781 C 66.082031 48.550781 65.820312 48.550781 65.550781 48.550781 C 65.550781 51.511719 65.550781 54.472656 65.550781 57.523438 C 65.464844 57.523438 65.375 57.523438 65.285156 57.523438 C 65.234375 56.21875 65.1875 54.910156 65.144531 53.605469 C 65.128906 53.160156 65.113281 52.71875 65.09375 52.273438 C 65.070312 51.636719 65.050781 50.996094 65.027344 50.359375 C 65.019531 50.160156 65.011719 49.960938 65.003906 49.753906 C 64.988281 49.265625 65.003906 48.777344 65.023438 48.289062 C 65.195312 48.113281 65.371094 47.9375 65.550781 47.757812 Z M 65.550781 47.757812 "/>
<path style=" stroke:none;fill-rule:nonzero;fill:rgb(85.490197%,63.529414%,40.784314%);fill-opacity:1;" d="M 65.902344 23.898438 C 66.609375 24.011719 66.609375 24.011719 67.449219 24.636719 C 67.929688 25.332031 67.929688 25.332031 67.929688 25.859375 C 67.277344 25.554688 66.859375 25.320312 66.34375 24.804688 C 65.542969 24.671875 64.765625 24.675781 63.964844 24.804688 C 63.441406 25.292969 63.441406 25.292969 63.171875 25.859375 C 62.996094 25.859375 62.824219 25.859375 62.644531 25.859375 C 62.980469 23.914062 64.140625 23.855469 65.902344 23.898438 Z M 65.902344 23.898438 "/>
<path style=" stroke:none;fill-rule:nonzero;fill:rgb(50.588238%,28.627452%,17.647059%);fill-opacity:1;" d="M 76.125 144.335938 C 76.125 144.683594 76.125 145.03125 76.125 145.390625 C 75.546875 145.867188 75.546875 145.867188 74.800781 146.179688 C 74.058594 146.097656 74.058594 146.097656 73.480469 145.917969 C 73.480469 145.125 73.480469 145.125 73.910156 144.679688 C 74.691406 144.25 75.242188 144.273438 76.125 144.335938 Z M 76.125 144.335938 "/>
<path style=" stroke:none;fill-rule:nonzero;fill:rgb(50.196081%,27.843139%,16.862746%);fill-opacity:1;" d="M 45.460938 144.335938 C 46.074219 144.507812 46.683594 144.683594 47.3125 144.863281 C 47.398438 145.210938 47.488281 145.558594 47.578125 145.917969 C 46.980469 146.097656 46.980469 146.097656 46.253906 146.179688 C 45.644531 145.800781 45.644531 145.800781 45.199219 145.390625 C 45.285156 145.042969 45.371094 144.691406 45.460938 144.335938 Z M 45.460938 144.335938 "/>
<path style=" stroke:none;fill-rule:nonzero;fill:rgb(60.392159%,54.901963%,48.235294%);fill-opacity:1;" d="M 81.144531 94.992188 C 81.234375 94.992188 81.320312 94.992188 81.410156 94.992188 C 81.410156 96.820312 81.410156 98.648438 81.410156 100.53125 C 80.886719 100.792969 80.886719 100.792969 80.351562 101.058594 C 80.171875 101.207031 79.992188 101.355469 79.808594 101.503906 C 79.636719 101.621094 79.46875 101.734375 79.296875 101.851562 C 79.035156 101.765625 78.773438 101.679688 78.503906 101.589844 C 78.765625 101.414062 79.027344 101.238281 79.296875 101.058594 C 79.382812 100.800781 79.46875 100.539062 79.558594 100.269531 C 79.996094 100.269531 80.433594 100.269531 80.882812 100.269531 C 80.96875 98.527344 81.054688 96.785156 81.144531 94.992188 Z M 81.144531 94.992188 "/>
<path style=" stroke:none;fill-rule:nonzero;fill:rgb(49.411765%,27.450982%,16.470589%);fill-opacity:1;" d="M 46.785156 143.015625 C 48.269531 142.949219 48.269531 142.949219 49.164062 143.542969 C 49.074219 143.890625 48.988281 144.238281 48.898438 144.597656 C 48.164062 144.5 47.6875 144.421875 47.097656 143.957031 C 46.785156 143.542969 46.785156 143.542969 46.785156 143.015625 Z M 46.785156 143.015625 "/>
<path style=" stroke:none;fill-rule:nonzero;fill:rgb(98.823529%,65.882355%,21.568628%);fill-opacity:1;" d="M 44.933594 48.023438 C 45.109375 48.109375 45.28125 48.199219 45.460938 48.289062 C 45.179688 48.628906 44.890625 48.96875 44.605469 49.308594 C 44.445312 49.5 44.285156 49.691406 44.121094 49.886719 C 43.621094 50.390625 43.207031 50.652344 42.554688 50.925781 C 42.554688 50.132812 42.554688 50.132812 42.941406 49.664062 C 43.109375 49.503906 43.273438 49.34375 43.445312 49.179688 C 43.695312 48.9375 43.695312 48.9375 43.949219 48.6875 C 44.40625 48.289062 44.40625 48.289062 44.933594 48.023438 Z M 44.933594 48.023438 "/>
<path style=" stroke:none;fill-rule:nonzero;fill:rgb(98.823529%,70.980394%,32.941177%);fill-opacity:1;" d="M 54.976562 39.84375 C 54.480469 40.125 54.480469 40.125 53.921875 40.371094 C 53.746094 40.285156 53.570312 40.199219 53.390625 40.109375 C 53.390625 40.28125 53.390625 40.457031 53.390625 40.636719 C 51.429688 41.503906 51.429688 41.503906 50.484375 41.691406 C 51.660156 40.332031 53.125 39.242188 54.976562 39.84375 Z M 54.976562 39.84375 "/>
<path style=" stroke:none;fill-rule:nonzero;fill:rgb(98.039216%,71.764708%,35.686275%);fill-opacity:1;" d="M 40.703125 56.203125 C 40.792969 56.203125 40.878906 56.203125 40.96875 56.203125 C 40.992188 56.980469 41.007812 57.753906 41.019531 58.527344 C 41.023438 58.75 41.03125 58.96875 41.039062 59.195312 C 41.042969 59.40625 41.042969 59.617188 41.046875 59.835938 C 41.050781 60.03125 41.054688 60.226562 41.058594 60.425781 C 40.945312 61.089844 40.683594 61.320312 40.175781 61.746094 C 40.429688 57.84375 40.429688 57.84375 40.703125 56.203125 Z M 40.703125 56.203125 "/>
<path style=" stroke:none;fill-rule:nonzero;fill:rgb(33.725491%,33.725491%,33.725491%);fill-opacity:1;" d="M 51.011719 7.125 C 51.101562 7.125 51.1875 7.125 51.277344 7.125 C 51.277344 7.820312 51.277344 8.519531 51.277344 9.234375 C 50.847656 9.332031 50.417969 9.425781 49.988281 9.515625 C 49.75 9.566406 49.511719 9.621094 49.265625 9.671875 C 48.632812 9.761719 48.632812 9.761719 48.105469 9.5 C 48.921875 8.957031 49.085938 8.910156 50.003906 8.9375 C 50.503906 8.953125 50.503906 8.953125 51.011719 8.972656 C 51.011719 8.363281 51.011719 7.753906 51.011719 7.125 Z M 51.011719 7.125 "/>
<path style=" stroke:none;fill-rule:nonzero;fill:rgb(20.392157%,20.392157%,20.392157%);fill-opacity:1;" d="M 60 3.957031 C 60.816406 4.273438 61.601562 4.613281 62.378906 5.011719 C 62.292969 5.273438 62.203125 5.535156 62.113281 5.804688 C 61.335938 5.445312 60.652344 5.046875 60 4.484375 C 60 4.3125 60 4.136719 60 3.957031 Z M 60 3.957031 "/>
<path style=" stroke:none;fill-rule:nonzero;fill:rgb(34.117648%,33.725491%,33.725491%);fill-opacity:1;" d="M 54.714844 5.277344 C 54.714844 5.363281 54.714844 5.453125 54.714844 5.542969 C 54.296875 5.566406 54.296875 5.566406 53.871094 5.589844 C 52.695312 5.839844 52.304688 6.226562 51.542969 7.125 C 51.542969 6.332031 51.542969 6.332031 52.019531 5.773438 C 52.96875 4.960938 53.550781 4.996094 54.714844 5.277344 Z M 54.714844 5.277344 "/>
<path style=" stroke:none;fill-rule:nonzero;fill:rgb(98.823529%,70.588237%,30.19608%);fill-opacity:1;" d="M 74.539062 67.8125 C 74.800781 67.902344 75.0625 67.988281 75.332031 68.078125 C 75.242188 69.210938 75.15625 70.339844 75.066406 71.507812 C 74.980469 71.507812 74.890625 71.507812 74.800781 71.507812 C 74.714844 70.289062 74.628906 69.070312 74.539062 67.8125 Z M 74.539062 67.8125 "/>
<path style=" stroke:none;fill-rule:nonzero;fill:rgb(83.137256%,81.960785%,79.215688%);fill-opacity:1;" d="M 65.550781 47.757812 C 65.8125 47.757812 66.074219 47.757812 66.34375 47.757812 C 66.429688 48.195312 66.519531 48.628906 66.609375 49.078125 C 66.519531 48.90625 66.433594 48.730469 66.34375 48.550781 C 66.082031 48.550781 65.820312 48.550781 65.550781 48.550781 C 65.464844 48.8125 65.375 49.074219 65.285156 49.34375 C 65.121094 48.847656 65.121094 48.847656 65.023438 48.289062 C 65.195312 48.113281 65.371094 47.9375 65.550781 47.757812 Z M 65.550781 47.757812 "/>
<path style=" stroke:none;fill-rule:nonzero;fill:rgb(68.627453%,49.019608%,39.215687%);fill-opacity:1;" d="M 74.273438 143.542969 C 74.796875 143.71875 75.320312 143.890625 75.859375 144.070312 C 75.859375 144.15625 75.859375 144.246094 75.859375 144.335938 C 75.160156 144.507812 74.464844 144.683594 73.746094 144.863281 C 74.007812 143.808594 74.007812 143.808594 74.273438 143.542969 Z M 74.273438 143.542969 "/>
<path style=" stroke:none;fill-rule:nonzero;fill:rgb(93.725491%,89.019608%,79.215688%);fill-opacity:1;" d="M 61.851562 51.980469 C 62.113281 51.980469 62.375 51.980469 62.644531 51.980469 C 62.28125 52.816406 62.117188 53.035156 61.320312 53.566406 C 61.554688 52.277344 61.554688 52.277344 61.851562 51.980469 Z M 61.851562 51.980469 "/>
</g>
</svg>
