<?xml version="1.0" encoding="UTF-8"?>
<svg xmlns="http://www.w3.org/2000/svg" xmlns:xlink="http://www.w3.org/1999/xlink" width="120px" height="157px" viewBox="0 0 120 157" version="1.1">
<g id="surface1">
<path style=" stroke:none;fill-rule:nonzero;fill:rgb(99.215686%,67.843139%,24.313726%);fill-opacity:1;" d="M 58.8125 9.929688 C 59.152344 9.925781 59.492188 9.925781 59.84375 9.921875 C 60.832031 10.03125 61.292969 10.292969 62.113281 10.820312 C 62.375 10.730469 62.636719 10.644531 62.90625 10.554688 C 64.78125 10.402344 64.78125 10.402344 65.816406 11.050781 C 66.34375 11.609375 66.34375 11.609375 66.34375 12.136719 C 66.605469 12.050781 66.867188 11.964844 67.136719 11.875 C 68.242188 11.765625 69.222656 11.773438 70.273438 12.136719 C 71.0625 12.875 71.421875 13.722656 71.628906 14.777344 C 71.5 15.167969 71.5 15.167969 71.367188 15.566406 C 71.652344 15.59375 71.652344 15.59375 71.945312 15.617188 C 72.964844 15.914062 73.375 16.300781 74.007812 17.152344 C 74.117188 17.890625 74.074219 18.507812 74.007812 19.261719 C 74.304688 19.285156 74.304688 19.285156 74.605469 19.3125 C 75.582031 19.601562 75.839844 19.996094 76.386719 20.84375 C 76.480469 21.707031 76.480469 21.707031 76.4375 22.609375 C 76.339844 23.75 76.339844 23.75 76.652344 24.804688 C 76.773438 26.691406 76.773438 26.691406 76.289062 27.574219 C 75.859375 27.96875 75.859375 27.96875 75.332031 27.96875 C 75.242188 28.316406 75.15625 28.667969 75.066406 29.023438 C 74.890625 29.023438 74.71875 29.023438 74.539062 29.023438 C 74.625 29.285156 74.710938 29.546875 74.800781 29.816406 C 74.96875 32.382812 75.058594 34.902344 73.746094 37.203125 C 73.082031 37.929688 73.082031 37.929688 72.421875 38.261719 C 71.8125 38.195312 71.8125 38.195312 71.367188 37.996094 C 71.292969 38.257812 71.292969 38.257812 71.21875 38.523438 C 70.070312 40.910156 68.175781 42.03125 65.847656 43.09375 C 65.285156 43.273438 65.285156 43.273438 64.492188 43.273438 C 64.492188 43.449219 64.492188 43.621094 64.492188 43.800781 C 64.835938 43.824219 65.179688 43.84375 65.535156 43.867188 C 67.933594 44.144531 69.699219 45.246094 71.367188 46.96875 C 71.933594 48.097656 71.671875 49.480469 71.367188 50.664062 C 71.453125 50.921875 71.539062 51.183594 71.628906 51.453125 C 71.792969 51.453125 71.957031 51.457031 72.125 51.457031 C 74.261719 51.554688 75.613281 52.289062 77.132812 53.769531 C 82.890625 60.125 81.074219 76.128906 81.046875 84.105469 C 81.046875 84.386719 81.042969 84.667969 81.042969 84.953125 C 81.039062 86.832031 81.027344 88.707031 81.007812 90.585938 C 81.003906 90.832031 81.003906 91.078125 81 91.332031 C 80.996094 92.023438 80.984375 92.714844 80.976562 93.40625 C 80.972656 93.609375 80.972656 93.816406 80.96875 94.023438 C 80.949219 95.011719 80.914062 95.46875 80.351562 96.3125 C 80.285156 96.996094 80.285156 96.996094 80.308594 97.765625 C 80.3125 98.046875 80.316406 98.328125 80.320312 98.617188 C 80.328125 99.058594 80.328125 99.058594 80.335938 99.511719 C 80.34375 100.09375 80.351562 100.675781 80.359375 101.261719 C 80.363281 101.519531 80.371094 101.777344 80.375 102.046875 C 80.351562 102.644531 80.351562 102.644531 80.089844 102.90625 C 79.648438 102.917969 79.207031 102.917969 78.765625 102.90625 C 78.679688 103.167969 78.59375 103.429688 78.503906 103.699219 C 76.296875 104.066406 76.296875 104.066406 75.332031 103.433594 C 74.890625 103.257812 74.449219 103.078125 74.007812 102.90625 C 74.007812 102.296875 74.007812 101.6875 74.007812 101.058594 C 73.660156 100.972656 73.3125 100.886719 72.953125 100.796875 C 72.757812 97.453125 72.757812 97.453125 74.007812 96.046875 C 73.617188 95.261719 73.617188 95.261719 73.214844 94.464844 C 72.691406 94.464844 72.167969 94.464844 71.628906 94.464844 C 71.632812 94.613281 71.636719 94.765625 71.644531 94.917969 C 71.675781 97.203125 71.496094 99.464844 71.320312 101.738281 C 68.4375 122.460938 68.4375 122.460938 72.140625 141.90625 C 72.734375 142.535156 73.1875 142.765625 74.007812 143.015625 C 74.007812 143.277344 74.007812 143.539062 74.007812 143.808594 C 74.53125 144.066406 75.054688 144.328125 75.59375 144.597656 C 75.59375 144.859375 75.59375 145.121094 75.59375 145.390625 C 75.78125 145.414062 75.964844 145.441406 76.15625 145.46875 C 76.394531 145.507812 76.636719 145.546875 76.882812 145.585938 C 77.121094 145.625 77.363281 145.660156 77.609375 145.699219 C 78.238281 145.917969 78.238281 145.917969 78.585938 146.398438 C 78.765625 146.972656 78.765625 146.972656 78.765625 148.027344 C 73.792969 148.027344 68.824219 148.027344 63.699219 148.027344 C 63.511719 142.515625 63.394531 137.015625 63.402344 131.503906 C 63.402344 130.566406 63.402344 129.628906 63.402344 128.691406 C 63.394531 124.902344 63.4375 121.121094 63.597656 117.335938 C 63.769531 113.136719 63.792969 108.933594 63.839844 104.730469 C 63.855469 103.570312 63.871094 102.40625 63.882812 101.246094 C 63.910156 98.984375 63.9375 96.722656 63.964844 94.464844 C 61.695312 94.464844 59.429688 94.464844 57.09375 94.464844 C 57.121094 97.019531 57.152344 99.574219 57.183594 102.132812 C 57.195312 103.320312 57.210938 104.507812 57.222656 105.695312 C 57.238281 107.070312 57.253906 108.445312 57.273438 109.820312 C 57.277344 110.050781 57.277344 110.277344 57.28125 110.515625 C 57.316406 113.207031 57.378906 115.894531 57.496094 118.582031 C 57.722656 123.984375 57.648438 129.398438 57.640625 134.804688 C 57.636719 136.566406 57.636719 138.324219 57.632812 140.085938 C 57.628906 142.734375 57.625 145.378906 57.621094 148.027344 C 52.5625 148.027344 47.503906 148.027344 42.289062 148.027344 C 42.554688 146.445312 42.554688 146.445312 42.835938 145.96875 C 43.664062 145.460938 44.503906 145.46875 45.460938 145.390625 C 45.480469 145.226562 45.496094 145.0625 45.511719 144.894531 C 45.582031 144.710938 45.652344 144.523438 45.726562 144.335938 C 46.164062 144.15625 46.605469 143.980469 47.046875 143.808594 C 47.230469 143.457031 47.40625 143.105469 47.578125 142.75 C 47.742188 142.722656 47.902344 142.695312 48.074219 142.667969 C 48.863281 142.414062 49.066406 141.894531 49.449219 141.195312 C 49.867188 140.242188 50 139.273438 50.136719 138.25 C 50.167969 138.050781 50.199219 137.847656 50.230469 137.644531 C 50.820312 133.625 50.8125 129.585938 50.816406 125.535156 C 50.816406 125.074219 50.816406 125.074219 50.816406 124.609375 C 50.816406 119.558594 50.652344 114.527344 50.386719 109.488281 C 50.367188 109.171875 50.351562 108.851562 50.335938 108.527344 C 50.15625 105.226562 49.949219 101.9375 49.59375 98.65625 C 49.445312 97.25 49.40625 95.878906 49.425781 94.464844 C 48.902344 94.464844 48.378906 94.464844 47.839844 94.464844 C 47.578125 94.984375 47.316406 95.507812 47.046875 96.046875 C 47.261719 96.253906 47.472656 96.460938 47.691406 96.671875 C 48.691406 97.695312 48.71875 98.316406 48.714844 99.695312 C 48.601562 100.503906 48.179688 100.800781 47.578125 101.324219 C 47.566406 101.765625 47.566406 102.203125 47.578125 102.644531 C 47.140625 103.285156 46.867188 103.414062 46.105469 103.601562 C 45.894531 103.632812 45.679688 103.664062 45.460938 103.699219 C 45.289062 103.785156 45.113281 103.875 44.933594 103.964844 C 44.363281 103.875 44.363281 103.875 43.710938 103.714844 C 43.386719 103.636719 43.386719 103.636719 43.058594 103.558594 C 42.890625 103.519531 42.726562 103.476562 42.554688 103.433594 C 42.554688 103.261719 42.554688 103.085938 42.554688 102.90625 C 42.34375 102.875 42.128906 102.84375 41.910156 102.808594 C 41.574219 102.726562 41.574219 102.726562 41.234375 102.644531 C 40.910156 102 40.949219 101.609375 40.972656 100.890625 C 40.976562 100.644531 40.980469 100.402344 40.984375 100.152344 C 40.996094 99.636719 41.011719 99.125 41.027344 98.613281 C 41.03125 98.246094 41.03125 98.246094 41.039062 97.871094 C 41.046875 97.535156 41.046875 97.535156 41.054688 97.195312 C 41.019531 96.554688 41.019531 96.554688 40.578125 96.09375 C 40.089844 95.398438 40.050781 94.96875 40 94.125 C 39.984375 93.84375 39.96875 93.5625 39.949219 93.269531 C 39.882812 91.609375 39.828125 89.953125 39.800781 88.289062 C 39.800781 88.097656 39.796875 87.90625 39.792969 87.707031 C 39.769531 86.230469 39.757812 84.757812 39.746094 83.28125 C 39.746094 83.066406 39.742188 82.847656 39.742188 82.625 C 39.703125 76.097656 40.046875 69.734375 41.019531 63.277344 C 41.042969 63.105469 41.070312 62.929688 41.097656 62.75 C 41.265625 61.59375 41.449219 60.441406 41.640625 59.292969 C 41.6875 59.007812 41.730469 58.722656 41.777344 58.429688 C 42.265625 55.714844 43.453125 53.835938 45.726562 52.246094 C 47.082031 51.519531 48.160156 51.453125 49.691406 51.453125 C 50.179688 51.167969 50.179688 51.167969 50.484375 50.664062 C 50.484375 49.988281 50.484375 49.988281 50.335938 49.261719 C 50.21875 48.242188 50.183594 47.84375 50.601562 46.886719 C 52.292969 45.113281 53.871094 44.25 56.300781 43.800781 C 56.5625 43.800781 56.824219 43.800781 57.09375 43.800781 C 57.09375 43.628906 57.09375 43.453125 57.09375 43.273438 C 56.945312 43.25 56.796875 43.222656 56.644531 43.195312 C 54.472656 42.769531 52.742188 42.128906 51.328125 40.359375 C 50.8125 39.515625 50.65625 38.703125 50.484375 37.734375 C 49.832031 37.992188 49.832031 37.992188 49.164062 38.261719 C 47.828125 37.484375 47.453125 36.5 46.992188 35.097656 C 46.460938 33.074219 46.339844 31.269531 47.046875 29.289062 C 47.308594 29.019531 47.570312 28.753906 47.839844 28.496094 C 48.152344 27.742188 48.152344 27.742188 48.105469 26.914062 C 47.5 26.222656 47.5 26.222656 46.785156 25.59375 C 46.199219 24.539062 46.148438 23.625 46.253906 22.429688 C 46.726562 21.191406 47.398438 20.417969 48.371094 19.527344 C 48.28125 19.339844 48.195312 19.15625 48.105469 18.964844 C 47.804688 18.097656 47.730469 17.539062 47.839844 16.625 C 48.675781 15.152344 48.675781 15.152344 49.425781 14.777344 C 50.132812 14.742188 50.835938 14.765625 51.542969 14.777344 C 51.5 14.367188 51.5 14.367188 51.460938 13.953125 C 51.566406 12.648438 51.894531 12.210938 52.863281 11.347656 C 53.910156 11.078125 54.480469 11.003906 55.507812 11.347656 C 55.507812 11.171875 55.507812 10.996094 55.507812 10.820312 C 56.582031 9.972656 57.46875 9.917969 58.8125 9.929688 Z M 47.3125 72.300781 C 47.054688 73.597656 47.011719 74.828125 47.011719 76.144531 C 47.011719 76.363281 47.011719 76.582031 47.011719 76.804688 C 47.011719 77.511719 47.011719 78.222656 47.015625 78.929688 C 47.015625 79.167969 47.015625 79.410156 47.015625 79.65625 C 47.019531 83.804688 47.113281 87.945312 47.3125 92.089844 C 47.398438 92.089844 47.488281 92.089844 47.578125 92.089844 C 47.578125 85.558594 47.578125 79.027344 47.578125 72.300781 C 47.488281 72.300781 47.402344 72.300781 47.3125 72.300781 Z M 73.480469 72.5625 C 73.480469 78.484375 73.480469 84.40625 73.480469 90.507812 C 73.566406 90.507812 73.65625 90.507812 73.746094 90.507812 C 74.011719 86.726562 74.039062 82.949219 74.042969 79.160156 C 74.042969 78.910156 74.042969 78.660156 74.042969 78.402344 C 74.046875 77.683594 74.046875 76.960938 74.042969 76.242188 C 74.042969 76.023438 74.046875 75.804688 74.046875 75.578125 C 74.042969 74.539062 74.003906 73.578125 73.746094 72.5625 C 73.65625 72.5625 73.570312 72.5625 73.480469 72.5625 Z M 73.480469 72.5625 "/>
<path style=" stroke:none;fill-rule:nonzero;fill:rgb(4.313726%,3.921569%,3.921569%);fill-opacity:1;" d="M 58.8125 9.929688 C 59.152344 9.925781 59.492188 9.925781 59.84375 9.921875 C 60.832031 10.03125 61.292969 10.292969 62.113281 10.820312 C 62.375 10.730469 62.636719 10.644531 62.90625 10.554688 C 64.78125 10.402344 64.78125 10.402344 65.816406 11.050781 C 66.34375 11.609375 66.34375 11.609375 66.34375 12.136719 C 66.605469 12.050781 66.867188 11.964844 67.136719 11.875 C 68.242188 11.765625 69.222656 11.773438 70.273438 12.136719 C 71.0625 12.875 71.421875 13.722656 71.628906 14.777344 C 71.5 15.167969 71.5 15.167969 71.367188 15.566406 C 71.652344 15.59375 71.652344 15.59375 71.945312 15.617188 C 72.964844 15.914062 73.375 16.300781 74.007812 17.152344 C 74.117188 17.890625 74.074219 18.507812 74.007812 19.261719 C 74.304688 19.285156 74.304688 19.285156 74.605469 19.3125 C 75.582031 19.601562 75.839844 19.996094 76.386719 20.84375 C 76.480469 21.707031 76.480469 21.707031 76.4375 22.609375 C 76.339844 23.75 76.339844 23.75 76.652344 24.804688 C 76.773438 26.691406 76.773438 26.691406 76.289062 27.574219 C 75.859375 27.96875 75.859375 27.96875 75.332031 27.96875 C 75.199219 28.492188 75.199219 28.492188 75.066406 29.023438 C 74.890625 29.023438 74.71875 29.023438 74.539062 29.023438 C 74.625 29.285156 74.710938 29.546875 74.800781 29.816406 C 74.96875 32.382812 75.058594 34.902344 73.746094 37.203125 C 73.082031 37.929688 73.082031 37.929688 72.421875 38.261719 C 71.8125 38.195312 71.8125 38.195312 71.367188 37.996094 C 71.304688 38.199219 71.246094 38.398438 71.183594 38.605469 C 70.761719 39.472656 70.378906 39.707031 69.515625 40.109375 C 69.253906 40.109375 68.992188 40.109375 68.722656 40.109375 C 68.699219 40.265625 68.679688 40.421875 68.65625 40.585938 C 68.390625 41.355469 68.113281 41.570312 67.402344 41.953125 C 66.574219 42.035156 66.574219 42.035156 65.816406 41.953125 C 65.640625 41.78125 65.464844 41.605469 65.285156 41.425781 C 64.539062 41.382812 64.539062 41.382812 63.699219 41.425781 C 62.839844 41.460938 62.839844 41.460938 62.113281 41.425781 C 61.851562 41.164062 61.851562 41.164062 61.585938 40.898438 C 61.085938 40.992188 61.085938 40.992188 60.527344 41.164062 C 60.089844 41.199219 59.648438 41.222656 59.207031 41.230469 C 58.984375 41.234375 58.761719 41.242188 58.53125 41.25 C 57.761719 41.144531 57.402344 40.875 56.828125 40.371094 C 56.6875 40.457031 56.542969 40.546875 56.398438 40.636719 C 55.589844 40.976562 55.058594 41.003906 54.183594 40.898438 C 53.148438 40.25 52.683594 39.558594 52.070312 38.523438 C 51.753906 38.175781 51.433594 37.828125 51.113281 37.484375 C 50.308594 36.59375 50.09375 36.03125 49.957031 34.832031 C 49.449219 34.238281 49.449219 34.238281 48.898438 33.773438 C 48.480469 32.9375 48.558594 32.050781 48.632812 31.136719 C 48.898438 30.476562 48.898438 30.476562 49.164062 30.082031 C 48.988281 30.082031 48.8125 30.082031 48.632812 30.082031 C 47.804688 28.6875 47.804688 28.6875 48.007812 27.6875 C 48.054688 27.304688 48.054688 27.304688 48.105469 26.914062 C 47.5 26.222656 47.5 26.222656 46.785156 25.59375 C 46.199219 24.539062 46.148438 23.625 46.253906 22.429688 C 46.726562 21.191406 47.398438 20.417969 48.371094 19.527344 C 48.238281 19.25 48.238281 19.25 48.105469 18.964844 C 47.804688 18.097656 47.730469 17.539062 47.839844 16.625 C 48.675781 15.152344 48.675781 15.152344 49.425781 14.777344 C 50.132812 14.742188 50.835938 14.765625 51.542969 14.777344 C 51.515625 14.503906 51.488281 14.230469 51.460938 13.953125 C 51.566406 12.648438 51.894531 12.210938 52.863281 11.347656 C 53.910156 11.078125 54.480469 11.003906 55.507812 11.347656 C 55.507812 11.171875 55.507812 10.996094 55.507812 10.820312 C 56.582031 9.972656 57.46875 9.917969 58.8125 9.929688 Z M 58.8125 9.929688 "/>
<path style=" stroke:none;fill-rule:nonzero;fill:rgb(47.058824%,78.823531%,96.470588%);fill-opacity:1;" d="M 64.9375 94.171875 C 65.246094 94.171875 65.554688 94.171875 65.875 94.175781 C 66.207031 94.175781 66.539062 94.175781 66.882812 94.175781 C 67.238281 94.179688 67.589844 94.179688 67.945312 94.183594 C 68.300781 94.183594 68.65625 94.1875 69.011719 94.1875 C 69.882812 94.191406 70.757812 94.195312 71.628906 94.199219 C 71.691406 96.734375 71.515625 99.234375 71.320312 101.761719 C 68.4375 122.472656 68.4375 122.472656 72.140625 141.90625 C 72.734375 142.535156 73.1875 142.765625 74.007812 143.015625 C 74.007812 143.277344 74.007812 143.539062 74.007812 143.808594 C 74.53125 144.066406 75.054688 144.328125 75.59375 144.597656 C 75.59375 144.859375 75.59375 145.121094 75.59375 145.390625 C 75.871094 145.429688 75.871094 145.429688 76.15625 145.46875 C 76.394531 145.507812 76.636719 145.546875 76.882812 145.585938 C 77.121094 145.625 77.363281 145.660156 77.609375 145.699219 C 78.238281 145.917969 78.238281 145.917969 78.585938 146.398438 C 78.765625 146.972656 78.765625 146.972656 78.765625 148.027344 C 73.792969 148.027344 68.824219 148.027344 63.699219 148.027344 C 63.511719 142.515625 63.394531 137.015625 63.402344 131.503906 C 63.402344 130.566406 63.402344 129.628906 63.402344 128.691406 C 63.394531 124.902344 63.4375 121.121094 63.597656 117.335938 C 63.707031 114.707031 63.746094 112.078125 63.773438 109.445312 C 63.777344 109.226562 63.78125 109.003906 63.78125 108.78125 C 63.804688 106.738281 63.828125 104.699219 63.847656 102.660156 C 63.859375 101.53125 63.871094 100.398438 63.882812 99.269531 C 63.890625 98.636719 63.894531 98 63.902344 97.367188 C 63.90625 96.984375 63.910156 96.605469 63.914062 96.222656 C 63.917969 95.886719 63.921875 95.554688 63.925781 95.207031 C 63.976562 94.210938 63.976562 94.210938 64.9375 94.171875 Z M 64.9375 94.171875 "/>
<path style=" stroke:none;fill-rule:nonzero;fill:rgb(47.450981%,78.823531%,96.470588%);fill-opacity:1;" d="M 49.425781 94.199219 C 50.476562 94.195312 51.527344 94.1875 52.574219 94.183594 C 52.933594 94.183594 53.289062 94.183594 53.644531 94.179688 C 54.160156 94.175781 54.671875 94.175781 55.183594 94.175781 C 55.644531 94.171875 55.644531 94.171875 56.117188 94.171875 C 56.828125 94.199219 56.828125 94.199219 57.09375 94.464844 C 57.125 95.0625 57.136719 95.664062 57.144531 96.265625 C 57.144531 96.453125 57.148438 96.644531 57.148438 96.839844 C 57.152344 97.25 57.15625 97.664062 57.160156 98.078125 C 57.167969 98.738281 57.175781 99.402344 57.179688 100.0625 C 57.195312 101.238281 57.207031 102.414062 57.21875 103.59375 C 57.238281 105.671875 57.257812 107.75 57.28125 109.832031 C 57.285156 110.058594 57.289062 110.289062 57.289062 110.523438 C 57.320312 113.210938 57.378906 115.894531 57.496094 118.582031 C 57.722656 123.984375 57.648438 129.398438 57.640625 134.804688 C 57.636719 136.566406 57.636719 138.324219 57.632812 140.085938 C 57.628906 142.734375 57.625 145.378906 57.621094 148.027344 C 52.5625 148.027344 47.503906 148.027344 42.289062 148.027344 C 42.554688 146.445312 42.554688 146.445312 42.835938 145.96875 C 43.664062 145.460938 44.503906 145.46875 45.460938 145.390625 C 45.488281 145.144531 45.488281 145.144531 45.511719 144.894531 C 45.582031 144.710938 45.652344 144.523438 45.726562 144.335938 C 46.164062 144.15625 46.605469 143.980469 47.046875 143.808594 C 47.230469 143.457031 47.40625 143.105469 47.578125 142.75 C 47.742188 142.722656 47.902344 142.695312 48.074219 142.667969 C 48.863281 142.414062 49.066406 141.894531 49.449219 141.195312 C 49.867188 140.242188 50 139.273438 50.136719 138.25 C 50.167969 138.050781 50.199219 137.847656 50.230469 137.644531 C 50.820312 133.625 50.8125 129.585938 50.816406 125.535156 C 50.816406 125.074219 50.816406 125.074219 50.816406 124.609375 C 50.816406 119.558594 50.652344 114.527344 50.386719 109.488281 C 50.367188 109.171875 50.351562 108.851562 50.335938 108.527344 C 50.160156 105.234375 49.953125 101.953125 49.59375 98.679688 C 49.433594 97.179688 49.402344 95.707031 49.425781 94.199219 Z M 49.425781 94.199219 "/>
<path style=" stroke:none;fill-rule:nonzero;fill:rgb(98.823529%,59.607846%,4.705882%);fill-opacity:1;" d="M 71.894531 51.980469 C 73.570312 51.835938 74.925781 52.199219 76.386719 53.035156 C 80.597656 56.738281 80.445312 65.070312 80.839844 70.296875 C 81.125 74.890625 81.0625 79.507812 81.046875 84.105469 C 81.046875 84.527344 81.046875 84.527344 81.042969 84.953125 C 81.039062 86.832031 81.027344 88.707031 81.007812 90.585938 C 81.003906 90.832031 81.003906 91.078125 81 91.332031 C 80.996094 92.023438 80.984375 92.714844 80.976562 93.40625 C 80.972656 93.609375 80.972656 93.816406 80.96875 94.023438 C 80.949219 95.011719 80.914062 95.46875 80.351562 96.3125 C 80.285156 96.996094 80.285156 96.996094 80.308594 97.765625 C 80.3125 98.046875 80.316406 98.328125 80.320312 98.617188 C 80.324219 98.914062 80.332031 99.207031 80.335938 99.511719 C 80.34375 100.09375 80.351562 100.675781 80.359375 101.261719 C 80.367188 101.648438 80.367188 101.648438 80.375 102.046875 C 80.351562 102.644531 80.351562 102.644531 80.089844 102.90625 C 79.648438 102.917969 79.207031 102.917969 78.765625 102.90625 C 78.679688 103.167969 78.59375 103.429688 78.503906 103.699219 C 76.296875 104.066406 76.296875 104.066406 75.332031 103.433594 C 74.890625 103.257812 74.449219 103.078125 74.007812 102.90625 C 74.007812 102.296875 74.007812 101.6875 74.007812 101.058594 C 73.660156 100.972656 73.3125 100.886719 72.953125 100.796875 C 72.921875 100.300781 72.902344 99.808594 72.886719 99.3125 C 72.867188 98.898438 72.867188 98.898438 72.847656 98.476562 C 72.953125 97.628906 72.953125 97.628906 73.480469 96.90625 C 74.226562 95.691406 74.113281 94.703125 74.058594 93.308594 C 74.046875 92.757812 74.039062 92.207031 74.027344 91.65625 C 74.023438 91.375 74.019531 91.09375 74.011719 90.804688 C 74.007812 89.546875 74.074219 88.296875 74.140625 87.042969 C 74.359375 82.660156 74.296875 78.269531 74.273438 73.882812 C 74.097656 73.882812 73.925781 73.882812 73.746094 73.882812 C 73.75 73.742188 73.757812 73.597656 73.761719 73.453125 C 73.792969 72.085938 73.691406 70.800781 73.484375 69.449219 C 73.035156 66.15625 73.113281 62.820312 73.09375 59.503906 C 73.089844 58.644531 73.078125 57.785156 73.066406 56.925781 C 73.066406 56.664062 73.066406 56.402344 73.066406 56.136719 C 73.046875 54.71875 72.929688 53.742188 72.160156 52.507812 C 72.070312 52.335938 71.984375 52.160156 71.894531 51.980469 Z M 71.894531 51.980469 "/>
<path style=" stroke:none;fill-rule:nonzero;fill:rgb(98.823529%,59.215689%,3.921569%);fill-opacity:1;" d="M 49.164062 51.980469 C 49.164062 52.824219 49.019531 53.113281 48.644531 53.84375 C 48.03125 55.183594 47.957031 56.328125 47.972656 57.78125 C 47.96875 58.03125 47.96875 58.277344 47.964844 58.53125 C 47.957031 59.316406 47.957031 60.101562 47.957031 60.886719 C 47.953125 64.667969 47.757812 68.292969 47.136719 72.023438 C 46.359375 76.8125 46.789062 81.796875 46.957031 86.625 C 47.015625 88.371094 47.058594 90.109375 47.019531 91.855469 C 47.015625 92.136719 47.007812 92.414062 47.003906 92.703125 C 46.988281 93.210938 46.972656 93.722656 46.945312 94.230469 C 46.910156 95.652344 46.910156 95.652344 47.695312 96.832031 C 48.03125 97.097656 48.03125 97.097656 48.371094 97.367188 C 48.824219 98.273438 48.773438 99.277344 48.632812 100.269531 C 48.105469 100.863281 48.105469 100.863281 47.578125 101.324219 C 47.566406 101.765625 47.566406 102.203125 47.578125 102.644531 C 47.140625 103.285156 46.867188 103.414062 46.105469 103.601562 C 45.894531 103.632812 45.679688 103.664062 45.460938 103.699219 C 45.289062 103.785156 45.113281 103.875 44.933594 103.964844 C 44.363281 103.875 44.363281 103.875 43.710938 103.714844 C 43.386719 103.636719 43.386719 103.636719 43.058594 103.558594 C 42.808594 103.5 42.808594 103.5 42.554688 103.433594 C 42.554688 103.261719 42.554688 103.085938 42.554688 102.90625 C 42.234375 102.859375 42.234375 102.859375 41.910156 102.808594 C 41.6875 102.753906 41.464844 102.699219 41.234375 102.644531 C 40.910156 102 40.949219 101.609375 40.972656 100.890625 C 40.976562 100.644531 40.980469 100.402344 40.984375 100.152344 C 40.996094 99.636719 41.011719 99.125 41.027344 98.613281 C 41.03125 98.246094 41.03125 98.246094 41.039062 97.871094 C 41.042969 97.648438 41.050781 97.425781 41.054688 97.195312 C 41.019531 96.554688 41.019531 96.554688 40.578125 96.097656 C 40.089844 95.398438 40.050781 94.964844 40 94.121094 C 39.980469 93.839844 39.964844 93.558594 39.945312 93.269531 C 39.882812 91.628906 39.855469 89.992188 39.847656 88.351562 C 39.847656 88.164062 39.847656 87.976562 39.84375 87.785156 C 39.839844 86.792969 39.835938 85.800781 39.832031 84.808594 C 39.832031 84.007812 39.824219 83.203125 39.816406 82.398438 C 39.769531 77.65625 39.921875 73.144531 40.84375 68.46875 C 41.011719 67.585938 41.152344 66.699219 41.285156 65.808594 C 41.347656 65.40625 41.347656 65.40625 41.410156 64.996094 C 41.46875 64.609375 41.46875 64.609375 41.53125 64.21875 C 41.574219 63.933594 41.617188 63.652344 41.664062 63.359375 C 41.90625 61.800781 42.117188 60.242188 42.308594 58.675781 C 42.667969 56.019531 43.320312 54.492188 45.460938 52.773438 C 46.652344 52.015625 47.765625 51.894531 49.164062 51.980469 Z M 49.164062 51.980469 "/>
<path style=" stroke:none;fill-rule:nonzero;fill:rgb(98.823529%,59.607846%,4.313726%);fill-opacity:1;" d="M 47.839844 28.761719 C 48.238281 29.125 48.238281 29.125 48.632812 29.554688 C 48.632812 29.726562 48.632812 29.902344 48.632812 30.082031 C 48.808594 30.082031 48.984375 30.082031 49.164062 30.082031 C 49.121094 30.210938 49.074219 30.34375 49.03125 30.476562 C 48.800781 31.617188 48.734375 32.761719 49.113281 33.875 C 49.445312 34.382812 49.445312 34.382812 50.21875 34.832031 C 50.28125 35.144531 50.339844 35.460938 50.402344 35.785156 C 50.671875 37.074219 51.414062 37.699219 52.359375 38.570312 C 52.925781 39.113281 53.28125 39.6875 53.65625 40.371094 C 54.390625 40.738281 54.957031 40.683594 55.769531 40.636719 C 56.378906 40.398438 56.378906 40.398438 56.828125 40.109375 C 56.976562 40.238281 57.121094 40.367188 57.273438 40.5 C 57.992188 40.96875 58.359375 40.992188 59.207031 40.964844 C 59.429688 40.960938 59.652344 40.957031 59.882812 40.953125 C 60.523438 40.921875 60.523438 40.921875 61.105469 40.730469 C 61.265625 40.699219 61.421875 40.667969 61.585938 40.636719 C 61.761719 40.808594 61.933594 40.984375 62.113281 41.164062 C 62.863281 41.207031 62.863281 41.207031 63.699219 41.164062 C 64.558594 41.128906 64.558594 41.128906 65.285156 41.164062 C 65.460938 41.335938 65.636719 41.511719 65.816406 41.691406 C 66.703125 41.789062 67.226562 41.789062 68.011719 41.34375 C 68.523438 40.898438 68.523438 40.898438 68.722656 40.109375 C 69.160156 40.019531 69.59375 39.933594 70.042969 39.84375 C 69.246094 41.484375 67.9375 42.308594 66.277344 42.960938 C 65.285156 43.273438 65.285156 43.273438 64.492188 43.273438 C 64.492188 43.449219 64.492188 43.621094 64.492188 43.800781 C 64.835938 43.824219 65.179688 43.84375 65.535156 43.867188 C 67.933594 44.144531 69.699219 45.246094 71.367188 46.96875 C 71.65625 47.550781 71.683594 47.902344 71.695312 48.550781 C 71.703125 48.734375 71.710938 48.921875 71.714844 49.113281 C 71.6875 49.273438 71.660156 49.4375 71.628906 49.605469 C 71.367188 49.78125 71.105469 49.953125 70.835938 50.132812 C 70.691406 50.46875 70.691406 50.46875 70.539062 50.8125 C 69.207031 53.253906 66.832031 54.949219 64.28125 55.972656 C 61.351562 56.773438 58.6875 56.382812 56.078125 54.902344 C 54.84375 54.09375 53.695312 53.230469 52.597656 52.246094 C 52.453125 52.113281 52.304688 51.980469 52.152344 51.847656 C 51.554688 51.28125 51.277344 50.929688 51.011719 50.132812 C 50.839844 50.046875 50.664062 49.960938 50.484375 49.871094 C 50.199219 48.664062 50.078125 48.070312 50.601562 46.933594 C 52.238281 45.097656 53.871094 44.25 56.300781 43.800781 C 56.5625 43.800781 56.824219 43.800781 57.09375 43.800781 C 57.09375 43.628906 57.09375 43.453125 57.09375 43.273438 C 56.945312 43.25 56.796875 43.222656 56.644531 43.195312 C 54.472656 42.769531 52.742188 42.128906 51.328125 40.359375 C 50.8125 39.515625 50.65625 38.703125 50.484375 37.734375 C 50.046875 37.90625 49.613281 38.082031 49.164062 38.261719 C 47.828125 37.484375 47.453125 36.5 46.992188 35.097656 C 46.464844 33.082031 46.328125 31.261719 47.046875 29.289062 C 47.308594 29.113281 47.570312 28.941406 47.839844 28.761719 Z M 47.839844 28.761719 "/>
<path style=" stroke:none;fill-rule:nonzero;fill:rgb(64.313728%,37.64706%,24.705882%);fill-opacity:1;" d="M 65.199219 138.203125 C 65.597656 138.207031 65.996094 138.210938 66.394531 138.214844 C 66.6875 138.214844 66.6875 138.214844 66.988281 138.214844 C 68.207031 138.226562 69.371094 138.332031 70.574219 138.53125 C 70.746094 139.398438 70.921875 140.269531 71.101562 141.167969 C 71.277344 141.167969 71.449219 141.167969 71.628906 141.167969 C 71.789062 141.375 71.945312 141.582031 72.109375 141.792969 C 72.71875 142.527344 73.113281 142.742188 74.007812 143.015625 C 74.007812 143.277344 74.007812 143.539062 74.007812 143.808594 C 74.53125 144.066406 75.054688 144.328125 75.59375 144.597656 C 75.59375 144.859375 75.59375 145.121094 75.59375 145.390625 C 75.78125 145.414062 75.964844 145.441406 76.15625 145.46875 C 76.394531 145.507812 76.636719 145.546875 76.882812 145.585938 C 77.121094 145.625 77.363281 145.660156 77.609375 145.699219 C 78.238281 145.917969 78.238281 145.917969 78.585938 146.398438 C 78.765625 146.972656 78.765625 146.972656 78.765625 148.027344 C 73.792969 148.027344 68.824219 148.027344 63.699219 148.027344 C 63.683594 145.757812 63.683594 145.757812 63.667969 143.445312 C 63.664062 142.964844 63.65625 142.488281 63.652344 141.996094 C 63.652344 141.621094 63.648438 141.242188 63.648438 140.863281 C 63.644531 140.667969 63.644531 140.472656 63.640625 140.269531 C 63.640625 139.777344 63.667969 139.285156 63.699219 138.792969 C 64.230469 138.265625 64.230469 138.265625 65.199219 138.203125 Z M 65.199219 138.203125 "/>
<path style=" stroke:none;fill-rule:nonzero;fill:rgb(64.313728%,38.431373%,25.098041%);fill-opacity:1;" d="M 54.382812 138.234375 C 54.613281 138.230469 54.847656 138.230469 55.085938 138.230469 C 55.304688 138.230469 55.523438 138.230469 55.75 138.230469 C 55.949219 138.230469 56.152344 138.230469 56.359375 138.230469 C 56.828125 138.265625 56.828125 138.265625 57.09375 138.53125 C 57.117188 139.15625 57.121094 139.777344 57.117188 140.402344 C 57.117188 140.746094 57.117188 141.085938 57.117188 141.4375 C 57.113281 141.878906 57.113281 142.316406 57.109375 142.769531 C 57.105469 144.15625 57.097656 145.542969 57.09375 146.972656 C 52.46875 146.972656 47.847656 146.972656 43.082031 146.972656 C 43.257812 146.625 43.433594 146.277344 43.613281 145.917969 C 44.570312 145.71875 44.570312 145.71875 45.460938 145.652344 C 45.488281 145.34375 45.488281 145.34375 45.511719 145.027344 C 45.582031 144.796875 45.652344 144.570312 45.726562 144.335938 C 46.160156 144.144531 46.601562 143.96875 47.046875 143.808594 C 47.230469 143.457031 47.40625 143.105469 47.578125 142.75 C 47.734375 142.71875 47.894531 142.6875 48.054688 142.652344 C 48.992188 142.386719 49.484375 141.714844 49.957031 140.902344 C 50.203125 140.121094 50.363281 139.339844 50.484375 138.53125 C 51.777344 138.191406 53.058594 138.226562 54.382812 138.234375 Z M 54.382812 138.234375 "/>
<path style=" stroke:none;fill-rule:nonzero;fill:rgb(96.470588%,78.823531%,56.470591%);fill-opacity:1;" d="M 47.839844 28.761719 C 48.238281 29.125 48.238281 29.125 48.632812 29.554688 C 48.632812 29.726562 48.632812 29.902344 48.632812 30.082031 C 48.808594 30.082031 48.984375 30.082031 49.164062 30.082031 C 49.121094 30.210938 49.074219 30.34375 49.03125 30.476562 C 48.800781 31.617188 48.734375 32.761719 49.113281 33.875 C 49.445312 34.382812 49.445312 34.382812 50.21875 34.832031 C 50.28125 35.144531 50.339844 35.460938 50.402344 35.785156 C 50.671875 37.074219 51.414062 37.699219 52.359375 38.570312 C 52.925781 39.113281 53.28125 39.6875 53.65625 40.371094 C 54.390625 40.738281 54.957031 40.683594 55.769531 40.636719 C 56.378906 40.398438 56.378906 40.398438 56.828125 40.109375 C 56.976562 40.238281 57.121094 40.367188 57.273438 40.5 C 57.992188 40.96875 58.359375 40.992188 59.207031 40.964844 C 59.429688 40.960938 59.652344 40.957031 59.882812 40.953125 C 60.523438 40.921875 60.523438 40.921875 61.105469 40.730469 C 61.265625 40.699219 61.421875 40.667969 61.585938 40.636719 C 61.761719 40.808594 61.933594 40.984375 62.113281 41.164062 C 62.863281 41.207031 62.863281 41.207031 63.699219 41.164062 C 64.558594 41.128906 64.558594 41.128906 65.285156 41.164062 C 65.460938 41.335938 65.636719 41.511719 65.816406 41.691406 C 66.703125 41.789062 67.226562 41.789062 68.011719 41.34375 C 68.523438 40.898438 68.523438 40.898438 68.722656 40.109375 C 69.160156 40.019531 69.59375 39.933594 70.042969 39.84375 C 69.246094 41.484375 67.9375 42.308594 66.277344 42.960938 C 65.285156 43.273438 65.285156 43.273438 64.492188 43.273438 C 64.492188 43.449219 64.492188 43.621094 64.492188 43.800781 C 65.015625 43.933594 65.015625 43.933594 65.550781 44.066406 C 62.496094 44.066406 59.445312 44.066406 56.300781 44.066406 C 56.5625 43.976562 56.824219 43.890625 57.09375 43.800781 C 57.09375 43.628906 57.09375 43.453125 57.09375 43.273438 C 56.945312 43.25 56.796875 43.222656 56.644531 43.195312 C 54.472656 42.769531 52.742188 42.128906 51.328125 40.359375 C 50.8125 39.515625 50.65625 38.703125 50.484375 37.734375 C 50.046875 37.90625 49.613281 38.082031 49.164062 38.261719 C 47.828125 37.484375 47.453125 36.5 46.992188 35.097656 C 46.464844 33.082031 46.328125 31.261719 47.046875 29.289062 C 47.308594 29.113281 47.570312 28.941406 47.839844 28.761719 Z M 47.839844 28.761719 "/>
<path style=" stroke:none;fill-rule:nonzero;fill:rgb(96.862745%,79.215688%,52.941179%);fill-opacity:1;" d="M 47.578125 67.8125 C 47.664062 67.8125 47.75 67.8125 47.839844 67.8125 C 47.839844 76.433594 47.839844 85.054688 47.839844 93.9375 C 56.214844 93.9375 64.589844 93.9375 73.214844 93.9375 C 73.214844 85.402344 73.214844 76.871094 73.214844 68.078125 C 73.304688 68.078125 73.390625 68.078125 73.480469 68.078125 C 74.273438 72.324219 74.273438 72.324219 73.875 73.871094 C 73.738281 74.433594 73.710938 74.917969 73.714844 75.5 C 73.714844 75.820312 73.714844 75.820312 73.714844 76.148438 C 73.714844 76.371094 73.71875 76.59375 73.71875 76.820312 C 73.71875 77.027344 73.71875 77.234375 73.71875 77.449219 C 73.722656 78.214844 73.722656 78.984375 73.726562 79.753906 C 73.734375 81.472656 73.738281 83.191406 73.746094 84.964844 C 73.832031 81.308594 73.917969 77.648438 74.007812 73.882812 C 74.097656 73.882812 74.183594 73.882812 74.273438 73.882812 C 74.644531 75.503906 74.585938 77.109375 74.585938 78.765625 C 74.585938 78.941406 74.585938 79.117188 74.585938 79.300781 C 74.585938 84.710938 74.28125 90.117188 74.007812 95.519531 C 73.925781 95.347656 73.847656 95.175781 73.761719 95 C 73.023438 94.273438 72.527344 94.335938 71.515625 94.320312 C 71.28125 94.324219 71.050781 94.324219 70.808594 94.328125 C 70.441406 94.324219 70.441406 94.324219 70.0625 94.320312 C 69.246094 94.316406 68.429688 94.320312 67.617188 94.324219 C 67.050781 94.324219 66.484375 94.320312 65.917969 94.320312 C 64.730469 94.320312 63.546875 94.320312 62.359375 94.328125 C 60.835938 94.332031 59.3125 94.328125 57.789062 94.324219 C 56.621094 94.320312 55.453125 94.320312 54.285156 94.324219 C 53.722656 94.324219 53.160156 94.324219 52.601562 94.320312 C 51.816406 94.316406 51.03125 94.320312 50.25 94.328125 C 50.015625 94.324219 49.78125 94.324219 49.542969 94.320312 C 48.285156 94.304688 48.285156 94.304688 47.292969 95 C 47.171875 95.257812 47.171875 95.257812 47.046875 95.519531 C 46.972656 93.554688 46.898438 91.589844 46.824219 89.625 C 46.796875 88.957031 46.773438 88.292969 46.746094 87.625 C 46.308594 76.375 46.308594 76.375 46.898438 71.441406 C 46.933594 71.117188 46.972656 70.792969 47.007812 70.457031 C 47.273438 68.117188 47.273438 68.117188 47.578125 67.8125 Z M 47.3125 72.300781 C 47.054688 73.597656 47.011719 74.828125 47.011719 76.144531 C 47.011719 76.363281 47.011719 76.582031 47.011719 76.804688 C 47.011719 77.511719 47.011719 78.222656 47.015625 78.929688 C 47.015625 79.167969 47.015625 79.410156 47.015625 79.65625 C 47.019531 83.804688 47.113281 87.945312 47.3125 92.089844 C 47.398438 92.089844 47.488281 92.089844 47.578125 92.089844 C 47.578125 85.558594 47.578125 79.027344 47.578125 72.300781 C 47.488281 72.300781 47.402344 72.300781 47.3125 72.300781 Z M 47.3125 72.300781 "/>
<path style=" stroke:none;fill-rule:nonzero;fill:rgb(97.647059%,78.823531%,56.862748%);fill-opacity:1;" d="M 40.175781 95.253906 C 40.351562 95.253906 40.523438 95.253906 40.703125 95.253906 C 40.847656 95.472656 40.992188 95.6875 41.140625 95.910156 C 41.71875 96.667969 41.71875 96.667969 42.703125 96.714844 C 43.226562 96.695312 43.226562 96.695312 43.761719 96.671875 C 43.9375 96.671875 44.117188 96.667969 44.300781 96.664062 C 45.101562 96.636719 45.753906 96.566406 46.519531 96.3125 C 46.605469 96.050781 46.695312 95.789062 46.785156 95.519531 C 48.523438 97.164062 48.523438 97.164062 48.722656 98.480469 C 48.75 100.136719 48.75 100.136719 48.105469 100.863281 C 47.929688 101.015625 47.757812 101.167969 47.578125 101.324219 C 47.566406 101.765625 47.566406 102.203125 47.578125 102.644531 C 47.140625 103.285156 46.867188 103.414062 46.105469 103.601562 C 45.894531 103.632812 45.679688 103.664062 45.460938 103.699219 C 45.199219 103.828125 45.199219 103.828125 44.933594 103.964844 C 44.363281 103.875 44.363281 103.875 43.710938 103.714844 C 43.496094 103.664062 43.28125 103.613281 43.058594 103.558594 C 42.890625 103.519531 42.726562 103.476562 42.554688 103.433594 C 42.554688 103.261719 42.554688 103.085938 42.554688 102.90625 C 42.34375 102.875 42.128906 102.84375 41.910156 102.808594 C 41.574219 102.726562 41.574219 102.726562 41.234375 102.644531 C 40.910156 102 40.949219 101.613281 40.972656 100.898438 C 40.976562 100.65625 40.980469 100.414062 40.984375 100.164062 C 40.996094 99.65625 41.011719 99.144531 41.027344 98.632812 C 41.058594 96.820312 41.058594 96.820312 40.175781 95.253906 Z M 40.175781 95.253906 "/>
<path style=" stroke:none;fill-rule:nonzero;fill:rgb(97.647059%,78.431374%,56.078434%);fill-opacity:1;" d="M 80.617188 94.726562 C 80.703125 94.988281 80.792969 95.25 80.882812 95.519531 C 80.621094 95.910156 80.621094 95.910156 80.351562 96.3125 C 80.285156 96.996094 80.285156 96.996094 80.308594 97.765625 C 80.3125 98.046875 80.316406 98.328125 80.320312 98.617188 C 80.324219 98.914062 80.332031 99.207031 80.335938 99.511719 C 80.34375 100.09375 80.351562 100.675781 80.359375 101.261719 C 80.367188 101.648438 80.367188 101.648438 80.375 102.046875 C 80.351562 102.644531 80.351562 102.644531 80.089844 102.90625 C 79.648438 102.917969 79.207031 102.917969 78.765625 102.90625 C 78.679688 103.167969 78.59375 103.429688 78.503906 103.699219 C 76.296875 104.066406 76.296875 104.066406 75.332031 103.433594 C 74.890625 103.257812 74.449219 103.078125 74.007812 102.90625 C 74.007812 102.296875 74.007812 101.6875 74.007812 101.058594 C 73.660156 100.972656 73.3125 100.886719 72.953125 100.796875 C 72.757812 97.484375 72.757812 97.484375 74.007812 96.046875 C 74.097656 95.871094 74.183594 95.699219 74.273438 95.519531 C 74.476562 95.777344 74.476562 95.777344 74.6875 96.039062 C 75.75 96.925781 76.824219 96.730469 78.15625 96.699219 C 78.984375 96.582031 79.328125 96.523438 79.90625 95.949219 C 80.34375 95.296875 80.34375 95.296875 80.617188 94.726562 Z M 80.617188 94.726562 "/>
<path style=" stroke:none;fill-rule:nonzero;fill:rgb(85.09804%,79.607844%,62.7451%);fill-opacity:1;" d="M 57.09375 138.792969 C 57.726562 139.742188 57.6875 140.414062 57.671875 141.507812 C 57.671875 141.851562 57.671875 142.191406 57.667969 142.542969 C 57.664062 142.976562 57.660156 143.410156 57.652344 143.855469 C 57.644531 145.234375 57.632812 146.609375 57.621094 148.027344 C 52.5625 148.027344 47.503906 148.027344 42.289062 148.027344 C 42.554688 146.445312 42.554688 146.445312 42.835938 145.96875 C 43.664062 145.460938 44.503906 145.46875 45.460938 145.390625 C 44.933594 145.917969 44.933594 145.917969 44.125 146.179688 C 43.316406 146.355469 43.316406 146.355469 43.082031 146.972656 C 47.707031 146.972656 52.328125 146.972656 57.09375 146.972656 C 57.09375 144.273438 57.09375 141.574219 57.09375 138.792969 Z M 57.09375 138.792969 "/>
<path style=" stroke:none;fill-rule:nonzero;fill:rgb(50.196081%,27.843139%,16.862746%);fill-opacity:1;" d="M 67.136719 142.75 C 67.933594 143.210938 68.566406 143.761719 68.988281 144.597656 C 69.046875 146.320312 69.046875 146.320312 68.722656 146.972656 C 67.238281 146.972656 65.757812 146.972656 64.230469 146.972656 C 64.152344 144.136719 64.152344 144.136719 64.230469 143.277344 C 65.203125 142.628906 66.003906 142.535156 67.136719 142.75 Z M 67.136719 142.75 "/>
<path style=" stroke:none;fill-rule:nonzero;fill:rgb(50.196081%,28.235295%,16.862746%);fill-opacity:1;" d="M 55.425781 142.832031 C 55.734375 142.871094 55.734375 142.871094 56.054688 142.914062 C 56.5625 143.015625 56.5625 143.015625 56.828125 143.277344 C 56.867188 144.511719 56.839844 145.742188 56.828125 146.972656 C 55.34375 146.972656 53.863281 146.972656 52.335938 146.972656 C 51.945312 144.8125 51.945312 144.8125 52.515625 143.824219 C 53.488281 142.957031 54.121094 142.65625 55.425781 142.832031 Z M 55.425781 142.832031 "/>
<path style=" stroke:none;fill-rule:nonzero;fill:rgb(96.078432%,79.215688%,58.431375%);fill-opacity:1;" d="M 74.539062 29.289062 C 75.316406 30.839844 74.960938 33.542969 74.613281 35.207031 C 74.167969 36.53125 73.734375 37.605469 72.421875 38.261719 C 71.8125 38.195312 71.8125 38.195312 71.367188 37.996094 C 71.277344 38.171875 71.191406 38.34375 71.101562 38.523438 C 71.152344 35.703125 71.152344 35.703125 71.667969 34.871094 C 72.027344 34.535156 72.027344 34.535156 72.6875 34.039062 C 73.265625 32.882812 72.992188 31.300781 72.6875 30.082031 C 73.941406 29.289062 73.941406 29.289062 74.539062 29.289062 Z M 74.539062 29.289062 "/>
<path style=" stroke:none;fill-rule:nonzero;fill:rgb(79.607844%,68.627453%,52.941179%);fill-opacity:1;" d="M 77.710938 145.917969 C 77.882812 145.917969 78.058594 145.917969 78.238281 145.917969 C 78.703125 146.734375 78.765625 147.035156 78.765625 148.027344 C 73.792969 148.027344 68.824219 148.027344 63.699219 148.027344 C 63.699219 147.59375 63.699219 147.15625 63.699219 146.710938 C 68.410156 146.710938 73.121094 146.710938 77.972656 146.710938 C 77.84375 146.316406 77.84375 146.316406 77.710938 145.917969 Z M 77.710938 145.917969 "/>
<path style=" stroke:none;fill-rule:nonzero;fill:rgb(78.039217%,65.882355%,52.156866%);fill-opacity:1;" d="M 57.09375 138.792969 C 57.726562 139.742188 57.6875 140.414062 57.671875 141.507812 C 57.671875 141.695312 57.671875 141.882812 57.671875 142.074219 C 57.667969 142.667969 57.660156 143.261719 57.652344 143.855469 C 57.652344 144.257812 57.648438 144.664062 57.648438 145.066406 C 57.640625 146.054688 57.632812 147.039062 57.621094 148.027344 C 57.359375 147.941406 57.097656 147.855469 56.828125 147.765625 C 56.105469 147.746094 55.386719 147.738281 54.664062 147.75 C 54.464844 147.75 54.269531 147.75 54.0625 147.75 C 53.574219 147.753906 53.085938 147.757812 52.597656 147.765625 C 52.597656 147.589844 52.597656 147.417969 52.597656 147.238281 C 49.371094 147.238281 46.144531 147.238281 42.820312 147.238281 C 42.90625 147.0625 42.992188 146.890625 43.082031 146.710938 C 47.707031 146.796875 52.328125 146.882812 57.09375 146.972656 C 57.09375 144.273438 57.09375 141.574219 57.09375 138.792969 Z M 57.09375 138.792969 "/>
<path style=" stroke:none;fill-rule:nonzero;fill:rgb(86.274511%,80.784315%,63.921571%);fill-opacity:1;" d="M 63.699219 146.710938 C 63.960938 146.839844 63.960938 146.839844 64.230469 146.972656 C 64.667969 147.003906 65.109375 147.019531 65.550781 147.027344 C 65.964844 147.035156 65.964844 147.035156 66.382812 147.042969 C 66.832031 147.050781 66.832031 147.050781 67.289062 147.054688 C 67.589844 147.0625 67.894531 147.066406 68.210938 147.074219 C 69.183594 147.089844 70.160156 147.105469 71.132812 147.121094 C 71.792969 147.132812 72.453125 147.144531 73.113281 147.15625 C 74.734375 147.183594 76.355469 147.210938 77.972656 147.238281 C 77.972656 147.410156 77.972656 147.585938 77.972656 147.765625 C 77.71875 147.761719 77.464844 147.761719 77.203125 147.761719 C 70.449219 147.714844 70.449219 147.714844 63.699219 148.027344 C 63.699219 147.59375 63.699219 147.15625 63.699219 146.710938 Z M 63.699219 146.710938 "/>
<path style=" stroke:none;fill-rule:nonzero;fill:rgb(40.784314%,78.039217%,97.254902%);fill-opacity:1;" d="M 49.691406 94.199219 C 52.046875 94.199219 54.402344 94.199219 56.828125 94.199219 C 56.742188 96.726562 56.652344 99.25 56.5625 101.851562 C 56.476562 101.851562 56.390625 101.851562 56.300781 101.851562 C 56.300781 99.5 56.300781 97.148438 56.300781 94.726562 C 54.292969 94.726562 52.289062 94.726562 50.21875 94.726562 C 50.21875 95.25 50.21875 95.773438 50.21875 96.3125 C 50.132812 96.3125 50.046875 96.3125 49.957031 96.3125 C 49.867188 95.613281 49.78125 94.917969 49.691406 94.199219 Z M 49.691406 94.199219 "/>
<path style=" stroke:none;fill-rule:nonzero;fill:rgb(67.058825%,43.921569%,32.156864%);fill-opacity:1;" d="M 73.480469 143.808594 C 74.089844 143.980469 74.703125 144.15625 75.332031 144.335938 C 75.417969 144.683594 75.503906 145.03125 75.59375 145.390625 C 76.292969 145.476562 76.992188 145.5625 77.710938 145.652344 C 77.621094 146.003906 77.535156 146.351562 77.445312 146.710938 C 76.222656 146.710938 75.003906 146.710938 73.746094 146.710938 C 74.09375 146.273438 74.441406 145.839844 74.800781 145.390625 C 74.890625 145.128906 74.976562 144.867188 75.066406 144.597656 C 74.28125 144.46875 74.28125 144.46875 73.480469 144.335938 C 73.480469 144.160156 73.480469 143.984375 73.480469 143.808594 Z M 73.480469 143.808594 "/>
<path style=" stroke:none;fill-rule:nonzero;fill:rgb(83.137256%,73.725492%,59.607846%);fill-opacity:1;" d="M 45.460938 145.652344 C 45.3125 145.695312 45.164062 145.738281 45.007812 145.78125 C 44.816406 145.84375 44.621094 145.902344 44.421875 145.96875 C 44.132812 146.054688 44.132812 146.054688 43.835938 146.144531 C 43.675781 146.242188 43.515625 146.34375 43.347656 146.445312 C 43.261719 146.878906 43.171875 147.316406 43.082031 147.765625 C 45.960938 147.765625 48.839844 147.765625 51.804688 147.765625 C 51.804688 147.851562 51.804688 147.9375 51.804688 148.027344 C 48.667969 148.027344 45.527344 148.027344 42.289062 148.027344 C 42.554688 146.445312 42.554688 146.445312 42.886719 145.96875 C 43.777344 145.363281 44.457031 145.320312 45.460938 145.652344 Z M 45.460938 145.652344 "/>
<path style=" stroke:none;fill-rule:nonzero;fill:rgb(61.960787%,33.333334%,19.607843%);fill-opacity:1;" d="M 45.726562 145.917969 C 45.464844 146.09375 45.203125 146.265625 44.933594 146.445312 C 48.464844 146.574219 48.464844 146.574219 52.070312 146.710938 C 52.15625 146.535156 52.246094 146.359375 52.335938 146.179688 C 52.335938 146.441406 52.335938 146.703125 52.335938 146.972656 C 49.28125 146.972656 46.230469 146.972656 43.082031 146.972656 C 43.613281 145.917969 43.613281 145.917969 44.257812 145.703125 C 44.933594 145.652344 44.933594 145.652344 45.726562 145.917969 Z M 45.726562 145.917969 "/>
<path style=" stroke:none;fill-rule:nonzero;fill:rgb(99.215686%,80.784315%,54.901963%);fill-opacity:1;" d="M 73.214844 90.769531 C 73.476562 90.855469 73.738281 90.945312 74.007812 91.035156 C 74.007812 92.515625 74.007812 93.996094 74.007812 95.519531 C 73.746094 95.171875 73.484375 94.824219 73.214844 94.464844 C 72.390625 94.375 72.390625 94.375 71.628906 94.464844 C 71.542969 94.289062 71.457031 94.117188 71.367188 93.9375 C 71.976562 93.9375 72.585938 93.9375 73.214844 93.9375 C 73.214844 92.890625 73.214844 91.847656 73.214844 90.769531 Z M 73.214844 90.769531 "/>
<path style=" stroke:none;fill-rule:nonzero;fill:rgb(50.980395%,28.627452%,17.647059%);fill-opacity:1;" d="M 55.226562 139.796875 C 55.761719 139.8125 56.292969 139.832031 56.828125 139.847656 C 56.914062 140.195312 57.003906 140.546875 57.09375 140.902344 C 56.128906 141.546875 55.582031 141.476562 54.449219 141.433594 C 54.285156 140.9375 54.285156 140.9375 54.183594 140.375 C 54.714844 139.847656 54.714844 139.847656 55.226562 139.796875 Z M 55.226562 139.796875 "/>
<path style=" stroke:none;fill-rule:nonzero;fill:rgb(99.215686%,80.784315%,54.901963%);fill-opacity:1;" d="M 47.578125 67.8125 C 47.664062 67.8125 47.75 67.8125 47.839844 67.8125 C 47.980469 70.707031 47.554688 73.417969 47.046875 76.257812 C 46.875 76.257812 46.699219 76.257812 46.519531 76.257812 C 46.625 75.097656 46.734375 73.9375 46.84375 72.777344 C 46.882812 72.382812 46.917969 71.988281 46.953125 71.59375 C 47.007812 71.023438 47.058594 70.457031 47.113281 69.890625 C 47.144531 69.550781 47.175781 69.210938 47.210938 68.859375 C 47.3125 68.078125 47.3125 68.078125 47.578125 67.8125 Z M 47.578125 67.8125 "/>
<path style=" stroke:none;fill-rule:nonzero;fill:rgb(49.803922%,27.843139%,17.254902%);fill-opacity:1;" d="M 64.230469 139.847656 C 65.828125 139.796875 65.828125 139.796875 66.34375 139.847656 C 66.871094 140.375 66.871094 140.375 66.871094 141.167969 C 66 141.167969 65.128906 141.167969 64.230469 141.167969 C 64.230469 140.734375 64.230469 140.296875 64.230469 139.847656 Z M 64.230469 139.847656 "/>
<path style=" stroke:none;fill-rule:nonzero;fill:rgb(99.215686%,74.509805%,40.784314%);fill-opacity:1;" d="M 71.101562 49.605469 C 71.140625 49.765625 71.175781 49.921875 71.21875 50.085938 C 71.335938 50.546875 71.480469 51 71.628906 51.453125 C 71.804688 51.464844 71.980469 51.472656 72.160156 51.484375 C 73.5 51.582031 74.496094 51.667969 75.59375 52.507812 C 75.332031 52.640625 75.332031 52.640625 75.066406 52.773438 C 74.878906 52.691406 74.695312 52.609375 74.503906 52.527344 C 73.757812 52.25 73.449219 52.242188 72.6875 52.292969 C 71.714844 52.328125 71.65625 52.265625 70.835938 51.585938 C 70.664062 51.367188 70.488281 51.148438 70.308594 50.925781 C 70.570312 50.492188 70.832031 50.054688 71.101562 49.605469 Z M 71.101562 49.605469 "/>
<path style=" stroke:none;fill-rule:nonzero;fill:rgb(50.588238%,27.843139%,16.862746%);fill-opacity:1;" d="M 47.839844 143.015625 C 48.734375 143.160156 49.183594 143.292969 49.957031 143.808594 C 49.867188 144.15625 49.78125 144.503906 49.691406 144.863281 C 48.71875 144.730469 48.210938 144.570312 47.578125 143.808594 C 47.664062 143.546875 47.75 143.285156 47.839844 143.015625 Z M 47.839844 143.015625 "/>
<path style=" stroke:none;fill-rule:nonzero;fill:rgb(47.058824%,47.058824%,47.058824%);fill-opacity:1;" d="M 49.425781 14.777344 C 49.515625 15.039062 49.601562 15.300781 49.691406 15.566406 C 49.515625 15.699219 49.34375 15.828125 49.164062 15.964844 C 48.425781 16.882812 48.511719 17.597656 48.632812 18.734375 C 48.746094 19.355469 48.746094 19.355469 48.898438 19.789062 C 47.996094 19.019531 47.902344 18.375 47.804688 17.230469 C 47.863281 16.28125 48.285156 15.738281 48.898438 15.039062 C 49.074219 14.953125 49.246094 14.867188 49.425781 14.777344 Z M 49.425781 14.777344 "/>
<path style=" stroke:none;fill-rule:nonzero;fill:rgb(49.803922%,27.450982%,16.078432%);fill-opacity:1;" d="M 75.066406 144.597656 C 74.914062 145.355469 74.839844 145.617188 74.273438 146.179688 C 73.578125 146.214844 73.578125 146.214844 72.953125 146.179688 C 72.953125 145.832031 72.953125 145.484375 72.953125 145.125 C 73.804688 144.558594 74.082031 144.546875 75.066406 144.597656 Z M 75.066406 144.597656 "/>
<path style=" stroke:none;fill-rule:nonzero;fill:rgb(49.803922%,27.450982%,16.078432%);fill-opacity:1;" d="M 45.992188 144.597656 C 46.882812 144.664062 46.882812 144.664062 47.839844 144.863281 C 48.222656 145.40625 48.222656 145.40625 48.371094 145.917969 C 47.773438 146.097656 47.773438 146.097656 47.046875 146.179688 C 46.4375 145.851562 46.4375 145.851562 45.992188 145.390625 C 45.992188 145.128906 45.992188 144.867188 45.992188 144.597656 Z M 45.992188 144.597656 "/>
<path style=" stroke:none;fill-rule:nonzero;fill:rgb(50.588238%,29.019609%,18.039216%);fill-opacity:1;" d="M 72.160156 143.015625 C 72.984375 143.113281 72.984375 143.113281 73.746094 143.277344 C 73.441406 144.179688 73.234375 144.398438 72.421875 144.863281 C 71.828125 144.78125 71.828125 144.78125 71.367188 144.597656 C 71.515625 143.839844 71.59375 143.578125 72.160156 143.015625 Z M 72.160156 143.015625 "/>
<path style=" stroke:none;fill-rule:nonzero;fill:rgb(99.215686%,82.745099%,59.607846%);fill-opacity:1;" d="M 73.214844 68.078125 C 73.304688 68.078125 73.390625 68.078125 73.480469 68.078125 C 73.8125 69.855469 74.078125 71.542969 74.007812 73.355469 C 73.921875 73.007812 73.835938 72.65625 73.746094 72.300781 C 73.570312 72.300781 73.394531 72.300781 73.214844 72.300781 C 73.214844 70.90625 73.214844 69.511719 73.214844 68.078125 Z M 73.214844 68.078125 "/>
<path style=" stroke:none;fill-rule:nonzero;fill:rgb(98.039216%,81.176472%,56.470591%);fill-opacity:1;" d="M 73.480469 30.082031 C 73.65625 30.082031 73.828125 30.082031 74.007812 30.082031 C 74.007812 31.039062 74.007812 31.996094 74.007812 32.984375 C 73.746094 33.113281 73.746094 33.113281 73.480469 33.246094 C 73.429688 32.769531 73.378906 32.289062 73.332031 31.8125 C 73.304688 31.546875 73.277344 31.28125 73.246094 31.003906 C 73.238281 30.789062 73.226562 30.570312 73.214844 30.34375 C 73.304688 30.257812 73.390625 30.171875 73.480469 30.082031 Z M 73.480469 30.082031 "/>
<path style=" stroke:none;fill-rule:nonzero;fill:rgb(87.450981%,80.392158%,63.921571%);fill-opacity:1;" d="M 69.515625 39.84375 C 69.691406 39.929688 69.863281 40.019531 70.042969 40.109375 C 69.285156 41.183594 68.609375 41.699219 67.402344 42.21875 C 67.402344 42.042969 67.402344 41.871094 67.402344 41.691406 C 67.570312 41.566406 67.738281 41.441406 67.914062 41.3125 C 68.53125 40.921875 68.53125 40.921875 68.722656 40.109375 C 68.984375 40.019531 69.246094 39.933594 69.515625 39.84375 Z M 69.515625 39.84375 "/>
<path style=" stroke:none;fill-rule:nonzero;fill:rgb(85.09804%,70.588237%,49.411765%);fill-opacity:1;" d="M 73.214844 31.664062 C 73.304688 31.664062 73.390625 31.664062 73.480469 31.664062 C 73.519531 31.863281 73.554688 32.066406 73.597656 32.273438 C 73.734375 33.003906 73.734375 33.003906 74.007812 33.773438 C 73.644531 34.171875 73.644531 34.171875 73.214844 34.566406 C 73.042969 34.566406 72.867188 34.566406 72.6875 34.566406 C 72.863281 33.609375 73.035156 32.652344 73.214844 31.664062 Z M 71.894531 34.832031 C 72.421875 35.09375 72.421875 35.09375 72.421875 35.09375 Z M 71.894531 34.832031 "/>
<path style=" stroke:none;fill-rule:nonzero;fill:rgb(69.01961%,52.941179%,45.09804%);fill-opacity:1;" d="M 71.628906 141.695312 C 71.925781 141.863281 72.21875 142.035156 72.523438 142.207031 C 73.011719 142.488281 73.5 142.761719 74.007812 143.015625 C 73.921875 143.277344 73.835938 143.539062 73.746094 143.808594 C 73.746094 143.632812 73.746094 143.457031 73.746094 143.277344 C 73.308594 143.367188 72.871094 143.453125 72.421875 143.542969 C 72.105469 142.925781 71.851562 142.355469 71.628906 141.695312 Z M 71.628906 141.695312 "/>
<path style=" stroke:none;fill-rule:nonzero;fill:rgb(81.176472%,71.764708%,52.156866%);fill-opacity:1;" d="M 74.539062 29.289062 C 74.539062 29.464844 74.539062 29.636719 74.539062 29.816406 C 74.1875 30.085938 73.835938 30.347656 73.480469 30.609375 C 73.304688 30.871094 73.132812 31.128906 72.953125 31.398438 C 72.863281 30.964844 72.777344 30.527344 72.6875 30.082031 C 73.941406 29.289062 73.941406 29.289062 74.539062 29.289062 Z M 74.539062 29.289062 "/>
<path style=" stroke:none;fill-rule:nonzero;fill:rgb(29.803923%,29.803923%,29.803923%);fill-opacity:1;" d="M 49.425781 14.777344 C 49.515625 15.039062 49.601562 15.300781 49.691406 15.566406 C 49.253906 15.917969 48.820312 16.265625 48.371094 16.625 C 48.453125 15.996094 48.453125 15.996094 48.632812 15.304688 C 48.894531 15.128906 49.15625 14.957031 49.425781 14.777344 Z M 49.425781 14.777344 "/>
</g>
</svg>
