<?xml version="1.0" encoding="UTF-8"?>
<svg xmlns="http://www.w3.org/2000/svg" xmlns:xlink="http://www.w3.org/1999/xlink" width="400px" height="400px" viewBox="0 0 400 400" version="1.1">
<g id="surface1">
<path style=" stroke:none;fill-rule:nonzero;fill:rgb(58.039218%,75.686276%,11.764706%);fill-opacity:1;" d="M 1.398438 0.234375 C 134.332031 0.234375 267.265625 0.234375 400.21875 0.234375 C 400.21875 133.546875 400.21875 266.859375 400.21875 400.234375 C 267.359375 400.234375 134.480469 400.234375 1.484375 400.125 C 1.355469 399.550781 1.339844 399.085938 1.339844 398.621094 C 1.339844 266.367188 1.339844 134.113281 1.339844 1.859375 C 1.339844 1.316406 1.378906 0.773438 1.398438 0.234375 M 380.925781 280.84375 C 381.136719 280.390625 381.386719 279.945312 381.554688 279.472656 C 382.089844 277.980469 381.832031 277.1875 380.570312 276.25 C 380.277344 276.035156 379.992188 275.808594 379.523438 275.445312 C 380.171875 275.1875 380.582031 274.996094 381.007812 274.859375 C 381.785156 274.617188 382.578125 274.433594 383.34375 274.164062 C 383.738281 274.027344 384.121094 273.800781 384.441406 273.535156 C 385.078125 273.003906 385.144531 272.539062 384.527344 271.96875 C 383.972656 271.460938 383.308594 270.992188 382.609375 270.734375 C 380.363281 269.898438 378.101562 270.15625 375.894531 270.925781 C 374.851562 271.285156 374.109375 272.039062 373.882812 273.152344 C 373.808594 273.527344 373.859375 274.050781 374.074219 274.347656 C 374.757812 275.296875 375.625 276.074219 376.765625 276.476562 C 377 276.558594 377.230469 276.664062 377.457031 276.757812 C 377.089844 277.535156 376.691406 278.207031 376.464844 278.933594 C 376.335938 279.332031 376.320312 279.960938 376.550781 280.242188 C 377.15625 280.972656 377.863281 281.664062 378.644531 282.195312 C 379.34375 282.667969 379.699219 282.5 380.222656 281.835938 C 380.4375 281.558594 380.632812 281.273438 380.925781 280.84375 M 344.882812 338.972656 C 343.574219 338.164062 342.136719 337.707031 340.636719 337.441406 C 339.058594 337.164062 337.8125 337.863281 337.160156 339.328125 C 335.699219 342.609375 337.609375 346.039062 340.960938 347.230469 C 341.753906 347.515625 342.304688 347.28125 342.714844 346.527344 C 342.972656 346.054688 343.164062 345.539062 343.332031 345.023438 C 343.566406 344.285156 343.984375 343.714844 344.648438 343.316406 C 344.882812 343.179688 345.105469 343.019531 345.320312 342.851562 C 346.710938 341.734375 346.707031 340.390625 345.316406 339.261719 C 345.226562 339.1875 345.121094 339.132812 344.882812 338.972656 M 330.433594 283.472656 C 330.644531 283.015625 330.878906 282.570312 331.0625 282.101562 C 331.460938 281.089844 331.285156 280.214844 330.40625 279.507812 C 330.09375 279.25 329.824219 278.941406 329.390625 278.515625 C 330.039062 278.261719 330.488281 278.066406 330.945312 277.90625 C 331.679688 277.65625 332.445312 277.492188 333.148438 277.179688 C 334.25 276.691406 334.335938 275.957031 333.445312 275.121094 C 332.738281 274.464844 331.871094 274.09375 330.933594 274.023438 C 329.894531 273.949219 328.839844 273.949219 327.804688 274.035156 C 326.839844 274.117188 325.894531 274.378906 325.105469 275.007812 C 323.929688 275.953125 323.816406 277.140625 324.894531 278.148438 C 325.589844 278.792969 326.394531 279.320312 327.234375 279.964844 C 327.121094 280.207031 326.980469 280.515625 326.839844 280.824219 C 326.148438 282.3125 326.308594 283.058594 327.59375 284.050781 C 329.238281 285.324219 329.550781 284.875 330.433594 283.472656 M 355.722656 340.183594 C 354.472656 340.59375 353.636719 341.484375 353.019531 342.59375 C 352.292969 343.886719 352.335938 345.207031 353.109375 346.457031 C 354 347.898438 355.296875 348.851562 356.929688 349.292969 C 357.316406 349.398438 357.78125 349.351562 358.179688 349.253906 C 359.386719 348.953125 360.160156 348.0625 360.800781 347.085938 C 361 346.785156 360.996094 346.257812 360.914062 345.871094 C 360.632812 344.53125 360.113281 343.273438 359.25 342.203125 C 358.386719 341.132812 357.429688 340.167969 355.722656 340.183594 M 53.625 318.378906 C 52.304688 320.261719 52.433594 321.925781 54.125 323.230469 C 54.710938 323.683594 55.492188 323.9375 56.222656 324.144531 C 57.300781 324.449219 58.179688 324.011719 58.882812 323.167969 C 60.210938 321.578125 60.125 319.8125 59.472656 318.027344 C 59.125 317.085938 58.34375 316.464844 57.402344 316.105469 C 55.972656 315.558594 54.929688 315.953125 54.183594 317.296875 C 54.015625 317.601562 53.867188 317.917969 53.625 318.378906 M 116.257812 42.726562 C 116.695312 43.046875 117.089844 43.457031 117.574219 43.660156 C 118.714844 44.140625 119.925781 44.359375 120.996094 43.519531 C 123.417969 41.621094 122.789062 37.746094 120.832031 36.417969 C 119.621094 35.597656 117.738281 35.703125 117.046875 36.734375 C 116.511719 37.535156 116.015625 38.371094 115.566406 39.226562 C 115.398438 39.550781 115.347656 39.96875 115.34375 40.347656 C 115.339844 41.179688 115.601562 41.945312 116.257812 42.726562 M 22.394531 197.878906 C 22.164062 196.128906 21.269531 194.945312 19.5 194.519531 C 18.363281 194.246094 17.550781 194.546875 16.90625 195.542969 C 16.402344 196.320312 15.929688 197.121094 15.5 197.941406 C 15.328125 198.269531 15.230469 198.683594 15.242188 199.054688 C 15.332031 201.296875 17.835938 203.148438 20.042969 202.617188 C 20.296875 202.554688 20.566406 202.433594 20.761719 202.261719 C 22.015625 201.148438 22.796875 199.832031 22.394531 197.878906 M 213.089844 296.605469 C 213.394531 296.667969 213.695312 296.738281 214 296.785156 C 215.191406 296.96875 216.050781 296.5 216.800781 295.550781 C 217.929688 294.113281 217.753906 292.566406 217.300781 291.027344 C 216.808594 289.363281 215.605469 288.617188 213.871094 288.640625 C 213.011719 288.652344 212.410156 288.996094 212.015625 289.78125 C 211.648438 290.5 211.222656 291.195312 210.785156 291.878906 C 210.429688 292.4375 210.335938 293.019531 210.484375 293.65625 C 210.800781 295.035156 211.550781 296.046875 213.089844 296.605469 M 344.332031 358.398438 C 345.734375 359.929688 347.453125 360.625 349.535156 360.371094 C 350.9375 360.203125 352.207031 359.242188 352.410156 358.183594 C 352.613281 357.128906 351.867188 355.988281 350.445312 355.335938 C 349.0625 354.699219 347.617188 354.265625 346.066406 354.355469 C 345.53125 354.386719 344.980469 354.433594 344.46875 354.589844 C 343.179688 354.988281 342.808594 355.917969 343.433594 357.125 C 343.644531 357.535156 343.953125 357.894531 344.332031 358.398438 M 125.707031 36.96875 C 126.050781 37.335938 126.363281 37.738281 126.742188 38.058594 C 128.449219 39.511719 130.304688 40.367188 132.597656 39.46875 C 133.847656 38.976562 134.402344 38.0625 134.082031 36.746094 C 133.757812 35.429688 132.820312 34.609375 131.609375 34.191406 C 129.800781 33.566406 128.015625 33.847656 126.339844 34.714844 C 125.371094 35.214844 125.25 35.699219 125.707031 36.96875 M 33.996094 195.4375 C 33.796875 193.960938 32.730469 193.28125 31.496094 192.820312 C 29.886719 192.21875 28.28125 192.5 26.742188 193.085938 C 25.230469 193.660156 24.921875 194.910156 26.03125 196.082031 C 26.988281 197.09375 28.121094 197.898438 29.511719 198.292969 C 30.792969 198.652344 31.960938 198.359375 33.113281 197.84375 C 33.617188 197.617188 33.878906 197.199219 33.957031 196.671875 C 34.003906 196.328125 33.992188 195.976562 33.996094 195.4375 M 118.988281 140.546875 C 120.167969 139.351562 120.011719 137.496094 118.683594 136.378906 C 117.265625 135.1875 115.613281 135.214844 113.945312 135.472656 C 113.238281 135.582031 112.515625 135.855469 111.894531 136.214844 C 110.925781 136.785156 110.761719 137.589844 111.460938 138.460938 C 113.113281 140.53125 115.863281 142.09375 118.988281 140.546875 M 226.738281 286.96875 C 225.113281 286.625 223.507812 286.648438 221.9375 287.246094 C 220.339844 287.855469 220.066406 288.886719 221.167969 290.195312 C 221.90625 291.074219 222.875 291.640625 223.894531 292.140625 C 225.371094 292.863281 226.832031 292.75 228.246094 292.003906 C 228.589844 291.820312 228.925781 291.457031 229.078125 291.097656 C 229.539062 290.011719 229.132812 288.574219 228.195312 287.832031 C 227.800781 287.523438 227.339844 287.300781 226.738281 286.96875 M 67.339844 319.824219 C 68.347656 319.902344 69.335938 319.894531 70.296875 319.457031 C 70.929688 319.171875 71.269531 318.738281 71.421875 318.089844 C 71.738281 316.730469 71.242188 315.574219 69.882812 314.769531 C 67.859375 313.570312 65.789062 313.84375 63.773438 314.792969 C 62.554688 315.367188 62.40625 316.300781 63.300781 317.320312 C 64.339844 318.503906 65.5625 319.429688 67.339844 319.824219 M 116.660156 144.683594 C 115.953125 144.855469 115.203125 144.9375 114.539062 145.21875 C 113.300781 145.746094 113.082031 146.851562 114.03125 147.820312 C 114.59375 148.390625 115.285156 148.859375 115.980469 149.265625 C 116.925781 149.816406 117.945312 149.890625 119.011719 149.527344 C 119.703125 149.292969 120.433594 149.175781 121.148438 148.992188 C 121.597656 148.878906 122.0625 148.789062 122.484375 148.613281 C 123.582031 148.152344 123.699219 147.390625 122.816406 146.566406 C 122.589844 146.359375 122.320312 146.191406 122.066406 146.019531 C 120.496094 144.957031 118.757812 144.535156 116.660156 144.683594 M 67.910156 328.058594 C 68.820312 328.5625 69.753906 328.53125 70.722656 328.230469 C 71.460938 328 72.21875 327.835938 72.964844 327.632812 C 73.414062 327.511719 73.878906 327.425781 74.300781 327.238281 C 75.257812 326.800781 75.359375 326.199219 74.636719 325.445312 C 74.421875 325.222656 74.183594 325.023438 73.9375 324.835938 C 71.980469 323.339844 69.746094 323.132812 67.417969 323.496094 C 66.894531 323.578125 66.359375 323.792969 65.90625 324.066406 C 64.933594 324.652344 64.777344 325.472656 65.566406 326.28125 C 66.203125 326.9375 67.015625 327.421875 67.910156 328.058594 M 131.957031 43.207031 C 130.761719 43.304688 129.554688 43.347656 128.488281 43.992188 C 127.671875 44.488281 127.445312 45.1875 128.003906 45.941406 C 128.953125 47.21875 130.144531 48.203125 131.839844 48.21875 C 133.644531 48.234375 135.3125 47.5625 137.023438 47.109375 C 137.097656 47.089844 137.164062 47.042969 137.230469 47.003906 C 137.8125 46.625 137.933594 46.191406 137.472656 45.65625 C 137.078125 45.195312 136.59375 44.785156 136.089844 44.445312 C 134.90625 43.65625 133.566406 43.300781 131.957031 43.207031 M 224.058594 299.761719 C 224.25 299.894531 224.449219 300.019531 224.632812 300.164062 C 225.898438 301.140625 227.261719 301.359375 228.785156 300.792969 C 229.46875 300.539062 230.210938 300.453125 230.921875 300.273438 C 231.296875 300.179688 231.679688 300.089844 232.023438 299.917969 C 233.046875 299.414062 233.144531 298.6875 232.261719 297.941406 C 229.96875 296.011719 227.292969 295.617188 224.503906 296.378906 C 222.6875 296.871094 222.285156 297.980469 223.664062 299.433594 C 223.742188 299.519531 223.835938 299.585938 224.058594 299.761719 M 37.460938 205.324219 C 37.976562 204.542969 37.421875 204.085938 36.917969 203.667969 C 35.433594 202.433594 33.6875 201.78125 31.78125 201.828125 C 30.726562 201.851562 29.636719 202.144531 28.644531 202.527344 C 27.722656 202.882812 27.441406 203.832031 27.964844 204.535156 C 28.859375 205.742188 29.984375 206.683594 31.558594 206.855469 C 32.65625 206.976562 36.363281 206.042969 37.460938 205.324219 M 195.777344 43.121094 C 195.011719 45.449219 196.105469 47.113281 197.917969 48.195312 C 198.96875 48.820312 199.546875 48.640625 199.988281 47.507812 C 200.320312 46.652344 200.789062 45.980469 201.535156 45.414062 C 202.65625 44.5625 202.585938 43.570312 201.421875 42.78125 C 200.515625 42.171875 199.507812 41.78125 198.410156 41.648438 C 197.261719 41.507812 196.34375 41.824219 195.777344 43.121094 M 139.140625 62.164062 C 139.804688 61.367188 140.449219 60.550781 141.136719 59.777344 C 142.332031 58.429688 142 57.144531 140.28125 56.609375 C 139.988281 56.515625 139.667969 56.425781 139.375 56.453125 C 138.078125 56.574219 136.875 56.976562 135.898438 57.875 C 134.65625 59.015625 134.65625 60.703125 135.882812 61.855469 C 136.109375 62.066406 136.363281 62.246094 136.625 62.410156 C 137.601562 63.035156 138.011719 63.011719 139.140625 62.164062 M 332.9375 347.964844 C 332.238281 348.292969 331.550781 348.640625 330.84375 348.945312 C 329.527344 349.515625 329.242188 350.886719 330.417969 351.65625 C 332.214844 352.832031 334.289062 353.195312 336.402344 352.988281 C 337.449219 352.882812 337.820312 352.125 337.335938 351.210938 C 336.761719 350.125 336.085938 349.074219 335.308594 348.125 C 334.597656 347.257812 334.121094 347.285156 332.9375 347.964844 M 39.210938 220.578125 C 39.875 219.78125 40.527344 218.972656 41.207031 218.191406 C 42.253906 216.992188 41.972656 215.914062 40.5 215.296875 C 38.648438 214.523438 35.90625 215.917969 35.152344 217.519531 C 35.027344 217.789062 34.984375 218.113281 34.964844 218.417969 C 34.875 219.613281 35.609375 220.359375 36.484375 220.980469 C 37.5625 221.746094 38.128906 221.667969 39.210938 220.578125 M 72.371094 339.664062 C 72.285156 341.09375 73.066406 341.996094 74.230469 342.621094 C 75.207031 343.144531 75.953125 343.011719 76.570312 342.113281 C 77.121094 341.304688 77.730469 340.589844 78.464844 339.941406 C 79.066406 339.410156 79.414062 338.664062 79.105469 337.839844 C 78.8125 337.066406 78.078125 336.808594 77.339844 336.679688 C 75.25 336.3125 73.195312 337.503906 72.371094 339.664062 M 234.613281 314.410156 C 234.941406 313.984375 235.257812 313.546875 235.605469 313.140625 C 235.882812 312.816406 236.21875 312.550781 236.492188 312.226562 C 237.300781 311.265625 237.183594 310.3125 236.074219 309.730469 C 235.488281 309.425781 234.722656 309.191406 234.101562 309.296875 C 233.21875 309.445312 232.304688 309.808594 231.554688 310.308594 C 229.699219 311.554688 229.777344 313.484375 231.257812 314.789062 C 232.585938 315.960938 233.398438 315.945312 234.613281 314.410156 M 65.261719 331.382812 C 64.933594 331.003906 64.648438 330.578125 64.273438 330.257812 C 63.613281 329.703125 62.886719 329.203125 61.960938 329.585938 C 61.011719 329.976562 60.761719 330.847656 60.640625 331.746094 C 60.59375 332.078125 60.675781 332.4375 60.746094 332.773438 C 61.136719 334.597656 62.421875 335.675781 63.953125 336.527344 C 65.011719 337.113281 65.855469 336.78125 66.1875 335.617188 C 66.3125 335.183594 66.382812 334.675781 66.273438 334.253906 C 66.03125 333.328125 65.660156 332.4375 65.261719 331.382812 M 23.421875 211.65625 C 23.933594 213.292969 25.148438 214.292969 26.578125 215.070312 C 27.65625 215.65625 28.554688 215.183594 28.824219 213.960938 C 29.230469 212.109375 27.707031 208.957031 26.140625 208.277344 C 24.734375 207.667969 23.550781 208.195312 23.34375 209.730469 C 23.269531 210.296875 23.355469 210.886719 23.421875 211.65625 M 223.628906 308.972656 C 224.027344 308.355469 224.148438 307.679688 224.046875 306.964844 C 223.824219 305.417969 223.214844 304.070312 222.042969 302.992188 C 221.375 302.375 220.636719 301.941406 219.734375 302.261719 C 218.769531 302.605469 218.527344 303.507812 218.367188 304.410156 C 218.332031 304.59375 218.355469 304.796875 218.386719 304.988281 C 218.765625 307.261719 220.3125 308.53125 222.257812 309.4375 C 222.734375 309.660156 223.171875 309.488281 223.628906 308.972656 M 125.582031 55.789062 C 126.011719 56.042969 126.425781 56.339844 126.878906 56.542969 C 127.792969 56.945312 128.507812 56.640625 128.738281 55.65625 C 128.882812 55.035156 128.894531 54.347656 128.792969 53.714844 C 128.523438 52.050781 127.761719 50.648438 126.285156 49.726562 C 125.222656 49.0625 124.484375 49.175781 123.792969 50.179688 C 123.066406 51.226562 123.082031 52.367188 123.628906 53.480469 C 124.054688 54.347656 124.597656 55.152344 125.582031 55.789062 M 210.710938 230.394531 C 211.132812 230.441406 211.554688 230.5 211.976562 230.527344 C 212.855469 230.585938 213.371094 230.238281 213.65625 229.421875 C 214.019531 228.375 213.582031 227.269531 212.570312 226.636719 C 210.671875 225.449219 208.746094 225.625 206.824219 226.546875 C 206.210938 226.839844 205.886719 227.59375 205.988281 228.316406 C 206.113281 229.226562 206.761719 229.636719 207.546875 229.824219 C 208.523438 230.058594 209.519531 230.203125 210.710938 230.394531 M 335.511719 362.875 C 336.078125 362.816406 336.679688 362.855469 337.207031 362.675781 C 338.113281 362.367188 338.484375 361.597656 338.121094 360.726562 C 337.523438 359.292969 336.695312 357.976562 335.523438 356.925781 C 334.929688 356.394531 334.539062 356.425781 333.84375 356.855469 C 333.21875 357.238281 332.585938 357.609375 331.953125 357.980469 C 331.058594 358.503906 330.984375 358.789062 331.578125 359.621094 C 332.558594 361.003906 333.839844 362.039062 335.511719 362.875 M 211.71875 49.214844 C 212.300781 48.777344 212.570312 48.199219 212.4375 47.484375 C 212.175781 46.058594 211.507812 44.855469 210.335938 43.980469 C 209.738281 43.535156 209.050781 43.414062 208.355469 43.746094 C 207.136719 44.335938 206.417969 45.855469 206.703125 47.167969 C 206.882812 47.984375 207.46875 48.5 208.042969 49.023438 C 209.285156 50.160156 210.140625 50.222656 211.71875 49.214844 M 207.035156 236.726562 C 206.632812 237.082031 206.253906 237.464844 205.824219 237.789062 C 204.726562 238.617188 204.921875 240.917969 206.160156 241.527344 C 206.296875 241.59375 206.457031 241.660156 206.601562 241.652344 C 207.972656 241.597656 209.308594 241.367188 210.4375 240.53125 C 210.949219 240.152344 211.355469 239.5625 211.136719 238.921875 C 210.601562 237.359375 209.714844 236.023438 208.21875 235.191406 C 208.171875 235.164062 208.074219 235.21875 207.941406 235.246094 C 207.6875 235.671875 207.414062 236.132812 207.035156 236.726562 M 376.222656 348.839844 C 377.363281 347.257812 377.390625 346.003906 376.3125 344.769531 C 375.496094 343.832031 374.492188 343.570312 373.394531 344.160156 C 372.796875 344.480469 372.246094 344.949219 371.773438 345.445312 C 370.980469 346.277344 370.972656 347.179688 371.75 348.039062 C 372.183594 348.523438 372.71875 348.9375 373.265625 349.289062 C 374.527344 350.105469 374.976562 350.03125 376.222656 348.839844 M 113.875 153.246094 C 113.234375 152.53125 112.679688 151.707031 111.933594 151.128906 C 110.925781 150.347656 109.777344 150.75 109.277344 151.925781 C 108.882812 152.855469 108.90625 153.828125 109.246094 154.765625 C 109.710938 156.070312 110.398438 156.527344 111.769531 156.535156 C 112.390625 156.539062 113.011719 156.554688 113.632812 156.515625 C 114.445312 156.46875 114.683594 156.214844 114.542969 155.402344 C 114.421875 154.722656 114.152344 154.070312 113.875 153.246094 M 277.980469 315.855469 C 277.414062 315.964844 276.832031 316.035156 276.277344 316.195312 C 275.613281 316.386719 274.933594 316.589844 274.332031 316.914062 C 273.75 317.230469 273.671875 317.699219 273.933594 318.1875 C 274.636719 319.511719 276.425781 320.277344 277.890625 319.878906 C 278.414062 319.734375 278.953125 319.632812 279.453125 319.433594 C 280.097656 319.175781 280.726562 318.871094 281.332031 318.53125 C 281.746094 318.296875 281.902344 317.929688 281.613281 317.453125 C 280.902344 316.28125 279.523438 315.613281 277.980469 315.855469 M 133.019531 138.308594 C 134.472656 138.722656 136.074219 138.214844 136.949219 137.066406 C 137.6875 136.097656 137.511719 135.132812 136.449219 134.539062 C 134.789062 133.613281 133.074219 133.789062 131.417969 134.488281 C 130.367188 134.929688 130.171875 135.898438 130.953125 136.757812 C 131.484375 137.34375 132.214844 137.753906 133.019531 138.308594 M 69.605469 307.160156 C 70.105469 307.433594 70.578125 307.796875 71.113281 307.953125 C 71.886719 308.179688 72.699219 308.332031 73.503906 308.386719 C 75.902344 308.550781 76.722656 308.105469 75.882812 305.214844 C 75.554688 304.085938 74.777344 303.667969 73.640625 303.933594 C 72.664062 304.160156 71.699219 304.464844 70.757812 304.8125 C 69.71875 305.199219 69.4375 305.765625 69.605469 307.160156 M 88.367188 313.355469 C 86.703125 312.296875 84.960938 312.476562 83.242188 313.117188 C 82.089844 313.542969 81.875 314.609375 82.734375 315.519531 C 83.203125 316.019531 83.773438 316.460938 84.367188 316.796875 C 85.722656 317.5625 87.578125 317.140625 88.546875 315.921875 C 89.292969 314.980469 89.28125 314.453125 88.367188 313.355469 M 137.550781 23.925781 C 135.832031 23.515625 134.351562 24.292969 132.882812 24.945312 C 132.277344 25.214844 132.042969 25.9375 132.121094 26.65625 C 132.191406 27.308594 132.675781 27.5625 133.214844 27.714844 C 134.675781 28.132812 136.164062 28.367188 137.691406 28.183594 C 138.300781 28.109375 138.75 27.835938 138.773438 27.179688 C 138.8125 26 138.738281 24.839844 137.550781 23.925781 M 233.660156 277.894531 C 233.332031 277.136719 232.828125 276.433594 231.957031 276.59375 C 230.644531 276.832031 229.34375 277.222656 228.089844 277.699219 C 227.46875 277.933594 227.128906 278.605469 227.203125 279.328125 C 227.28125 280.039062 227.820312 280.40625 228.449219 280.53125 C 229.617188 280.769531 230.800781 281.039062 231.984375 281.089844 C 233.601562 281.15625 233.964844 280.703125 233.878906 279.097656 C 233.859375 278.753906 233.773438 278.414062 233.660156 277.894531 M 45.894531 191.5625 C 44.773438 192.167969 44.46875 192.714844 44.980469 193.527344 C 45.929688 195.03125 47.832031 196.484375 50.113281 195.207031 C 50.988281 194.71875 51.660156 194.070312 51.617188 193.058594 C 51.566406 191.945312 50.613281 191.601562 49.710938 191.300781 C 48.46875 190.886719 47.269531 191.207031 45.894531 191.5625 M 117.734375 127.96875 C 118.019531 128.308594 118.242188 128.816406 118.605469 128.960938 C 120.019531 129.515625 121.511719 129.804688 123.039062 129.675781 C 124.117188 129.589844 124.386719 129.253906 124.390625 128.195312 C 124.390625 127.734375 124.371094 127.257812 124.261719 126.8125 C 123.9375 125.476562 123.09375 124.933594 121.761719 125.242188 C 120.96875 125.421875 120.214844 125.75 119.429688 125.960938 C 118.460938 126.21875 117.902344 126.820312 117.734375 127.96875 M 33.574219 183.234375 C 33.265625 183.390625 32.910156 183.496094 32.65625 183.714844 C 31.570312 184.636719 31.777344 185.839844 33.109375 186.3125 C 34.558594 186.828125 36.070312 186.9375 37.589844 186.800781 C 38.375 186.734375 38.644531 186.464844 38.648438 185.695312 C 38.652344 185.042969 38.597656 184.367188 38.425781 183.746094 C 38.125 182.671875 37.636719 182.304688 36.542969 182.449219 C 35.59375 182.578125 34.671875 182.921875 33.574219 183.234375 M 146.855469 36.671875 C 148.214844 37.335938 149.488281 37.148438 150.664062 36.238281 C 151.296875 35.746094 151.796875 35.148438 151.621094 34.261719 C 151.457031 33.429688 150.773438 33.105469 150.089844 32.8125 C 149.914062 32.734375 149.71875 32.660156 149.53125 32.660156 C 148.644531 32.65625 147.75 32.632812 146.867188 32.714844 C 146.417969 32.753906 145.960938 32.949219 145.5625 33.171875 C 144.664062 33.679688 144.496094 34.410156 145.152344 35.191406 C 145.59375 35.71875 146.179688 36.121094 146.855469 36.671875 M 240.238281 287.949219 C 241.84375 289.914062 243.460938 290.324219 245.398438 289.289062 C 246.25 288.835938 246.894531 288.167969 246.820312 287.203125 C 246.75 286.238281 245.886719 285.773438 245.054688 285.5625 C 243.722656 285.222656 242.363281 285.230469 241.0625 285.789062 C 239.996094 286.242188 239.855469 286.574219 240.238281 287.949219 M 343.285156 325.242188 C 342.832031 324.039062 342.042969 323.113281 340.945312 322.453125 C 339.933594 321.84375 338.886719 321.847656 337.835938 322.332031 C 336.917969 322.757812 336.699219 323.519531 337.320312 324.308594 C 338.390625 325.671875 339.753906 326.683594 341.355469 327.339844 C 341.972656 327.589844 342.664062 327.746094 343.222656 327.242188 C 343.808594 326.710938 343.589844 326.042969 343.285156 325.242188 M 81.800781 221.941406 C 80.925781 222.214844 80.007812 222.402344 79.183594 222.785156 C 78.46875 223.117188 78.449219 223.585938 78.949219 224.183594 C 79.171875 224.449219 79.425781 224.6875 79.679688 224.925781 C 80.554688 225.746094 81.519531 226.191406 82.726562 225.65625 C 82.96875 225.546875 83.265625 225.5625 83.511719 225.460938 C 84.367188 225.117188 85.238281 224.796875 86.058594 224.378906 C 86.640625 224.082031 86.675781 223.746094 86.34375 223.25 C 85.421875 221.867188 84.191406 221.382812 82.554688 221.761719 C 82.367188 221.804688 82.179688 221.851562 81.800781 221.941406 M 299.476562 331.761719 C 300.507812 331.058594 301.667969 330.8125 302.894531 330.792969 C 303.125 330.789062 303.359375 330.757812 303.582031 330.691406 C 304.378906 330.464844 304.480469 330.09375 303.933594 329.449219 C 302.570312 327.847656 299.546875 327.109375 297.625 327.90625 C 296.703125 328.292969 296.289062 329.371094 296.683594 330.347656 C 297.058594 331.269531 298.25 331.9375 299.476562 331.761719 M 116.097656 344.9375 C 116.496094 346.246094 117.957031 347.457031 119.171875 347.296875 C 120.667969 347.097656 122.160156 346.789062 123.433594 345.886719 C 123.671875 345.71875 123.855469 345.480469 124.160156 345.183594 C 123.632812 344.644531 123.203125 344.152344 122.722656 343.722656 C 122.050781 343.121094 121.292969 342.835938 120.371094 343.199219 C 119.984375 343.347656 119.535156 343.335938 119.117188 343.417969 C 118.015625 343.628906 116.898438 343.816406 116.097656 344.9375 M 273.15625 316.878906 C 273.410156 316.585938 273.707031 316.320312 273.90625 315.996094 C 274.097656 315.675781 274.289062 315.304688 274.316406 314.945312 C 274.378906 314.128906 273.402344 312.898438 272.519531 312.5625 C 271.664062 312.234375 270.945312 312.496094 270.21875 313.40625 C 270.050781 313.617188 269.875 313.828125 269.730469 314.054688 C 268.546875 315.917969 269.929688 318.816406 272.214844 319.144531 C 272.496094 318.449219 272.78125 317.738281 273.15625 316.878906 M 125.863281 63.363281 C 125.832031 62.9375 125.824219 62.507812 125.773438 62.085938 C 125.617188 60.808594 125.367188 59.550781 124.519531 58.523438 C 124.195312 58.128906 123.734375 57.714844 123.230469 57.949219 C 122.878906 58.117188 122.570312 58.597656 122.453125 58.996094 C 121.855469 61.015625 122.230469 62.929688 123.382812 64.644531 C 123.777344 65.226562 124.40625 65.707031 125.019531 66.074219 C 125.808594 66.546875 126.28125 66.210938 126.222656 65.269531 C 126.183594 64.695312 126.011719 64.132812 125.863281 63.363281 M 217.789062 311.15625 C 217.222656 312.289062 217.253906 313.507812 217.425781 314.691406 C 217.675781 316.4375 218.414062 317.953125 220.0625 318.839844 C 220.835938 319.257812 221.246094 319.03125 221.296875 318.171875 C 221.308594 317.902344 221.277344 317.628906 221.242188 317.363281 C 221.101562 316.328125 221.007812 315.28125 220.785156 314.265625 C 220.589844 313.367188 220.332031 312.457031 219.933594 311.632812 C 219.476562 310.695312 218.671875 310.523438 217.789062 311.15625 M 60.863281 337.9375 C 59.929688 338.011719 59.800781 338.78125 59.714844 339.433594 C 59.550781 340.660156 59.550781 341.902344 59.9375 343.105469 C 60.34375 344.363281 61.039062 345.414062 62.207031 346.070312 C 62.503906 346.234375 62.96875 346.328125 63.261719 346.214844 C 63.453125 346.136719 63.597656 345.613281 63.558594 345.316406 C 63.347656 343.671875 63.144531 342.019531 62.792969 340.402344 C 62.570312 339.390625 62.117188 338.414062 60.863281 337.9375 M 23.53125 223.515625 C 23.871094 223.832031 24.175781 224.199219 24.558594 224.445312 C 24.890625 224.660156 25.316406 224.730469 25.699219 224.867188 C 25.832031 224.484375 25.960938 224.105469 26.085938 223.722656 C 26.097656 223.6875 26.09375 223.644531 26.085938 223.609375 C 25.835938 222.007812 25.625 220.398438 25.308594 218.808594 C 25.199219 218.257812 24.871094 217.734375 24.570312 217.246094 C 24.277344 216.765625 23.808594 216.433594 23.214844 216.523438 C 22.613281 216.613281 22.484375 217.15625 22.367188 217.648438 C 21.867188 219.714844 22.203125 221.632812 23.53125 223.515625 M 107.628906 236.65625 C 108.132812 236.523438 108.714844 236.570312 109.117188 236.015625 C 109.011719 235.824219 108.941406 235.601562 108.800781 235.4375 C 107.414062 233.851562 105.601562 233.324219 103.582031 233.503906 C 102.65625 233.585938 101.734375 233.914062 101.410156 234.964844 C 101.15625 235.808594 101.617188 236.585938 102.671875 237.355469 C 103.277344 237.792969 103.917969 237.9375 104.488281 237.472656 C 105.371094 236.75 106.367188 236.648438 107.628906 236.65625 M 125.351562 144.074219 C 125.835938 144.511719 126.308594 144.964844 126.816406 145.378906 C 127.496094 145.929688 128.253906 145.957031 128.96875 145.484375 C 129.539062 145.105469 130.074219 144.652344 130.5625 144.167969 C 131.144531 143.59375 131.179688 143.253906 130.597656 142.695312 C 129.90625 142.035156 129.117188 141.472656 128.347656 140.898438 C 127.707031 140.421875 127.011719 140.476562 126.40625 140.929688 C 125.824219 141.363281 125.28125 141.867188 124.789062 142.402344 C 124.632812 142.574219 124.609375 142.980469 124.6875 143.226562 C 124.773438 143.5 125.042969 143.714844 125.351562 144.074219 M 141.929688 358.960938 C 142.902344 358.347656 143.949219 358.03125 145.109375 358.054688 C 145.605469 358.0625 146.191406 358.078125 146.390625 357.496094 C 146.59375 356.910156 146.085938 356.597656 145.734375 356.253906 C 145.652344 356.171875 145.550781 356.109375 145.457031 356.046875 C 143.878906 355.007812 142.121094 354.867188 140.328125 355.121094 C 139.296875 355.265625 138.761719 356.097656 138.863281 357.144531 C 138.988281 358.394531 140.40625 359.324219 141.929688 358.960938 M 234.492188 295.144531 C 234.679688 295.335938 234.863281 295.539062 235.058594 295.722656 C 237.039062 297.585938 237.617188 297.78125 240.011719 295.648438 C 240.070312 295.597656 240.117188 295.535156 240.175781 295.484375 C 240.582031 295.085938 240.582031 294.648438 240.21875 294.25 C 239.886719 293.878906 239.515625 293.535156 239.125 293.230469 C 236.867188 291.484375 236.578125 291.503906 234.558594 293.46875 C 233.898438 294.113281 233.898438 294.113281 234.492188 295.144531 M 39.261719 199.417969 C 38.960938 199.671875 38.632812 199.933594 38.898438 200.382812 C 39.625 201.632812 40.691406 202.609375 42.027344 202.988281 C 43.046875 203.277344 43.839844 202.320312 44.621094 201.699219 C 44.710938 201.625 44.789062 201.539062 44.867188 201.453125 C 45.375 200.886719 45.410156 200.617188 44.945312 200.042969 C 44.253906 199.195312 43.410156 198.53125 42.421875 198.046875 C 41.722656 197.703125 41.0625 197.785156 40.476562 198.273438 C 40.089844 198.589844 39.746094 198.960938 39.261719 199.417969 M 76.390625 218.335938 C 75.132812 218.898438 74.253906 219.835938 74.183594 221.21875 C 74.105469 222.710938 74.824219 223.910156 76.097656 224.722656 C 76.671875 225.09375 77.050781 224.996094 77.273438 224.34375 C 77.59375 223.414062 78.046875 222.585938 78.675781 221.828125 C 79.042969 221.378906 79.285156 220.820312 78.984375 220.203125 C 78.484375 219.183594 77.84375 218.34375 76.390625 218.335938 M 113.578125 339.863281 C 113.273438 340.097656 112.953125 340.320312 112.664062 340.574219 C 110.867188 342.160156 111.574219 345.058594 113.363281 346.046875 C 114.167969 346.492188 114.386719 346.421875 114.78125 345.597656 C 115.097656 344.941406 115.417969 344.265625 115.851562 343.691406 C 116.421875 342.9375 116.730469 342.152344 116.210938 341.332031 C 115.660156 340.460938 115.03125 339.546875 113.578125 339.863281 M 141.929688 39.210938 C 141.042969 39.128906 140.511719 39.707031 139.957031 40.253906 C 138.613281 41.585938 138.621094 41.570312 139.976562 42.941406 C 141.871094 44.855469 142.773438 44.988281 144.855469 42.769531 C 145.421875 42.164062 145.464844 41.714844 144.828125 41.179688 C 143.976562 40.464844 143.015625 39.882812 141.929688 39.210938 M 80.769531 324.152344 C 80.996094 324 81.230469 323.863281 81.441406 323.699219 C 82.988281 322.511719 83.003906 322.074219 81.574219 320.722656 C 79.5625 318.828125 78.429688 318.878906 76.648438 320.941406 C 76.625 320.96875 76.597656 320.996094 76.570312 321.023438 C 76.203125 321.390625 76.183594 321.789062 76.539062 322.148438 C 77.160156 322.78125 77.792969 323.410156 78.460938 323.992188 C 79.101562 324.546875 79.839844 324.667969 80.769531 324.152344 M 204.230469 53.722656 C 203.738281 53.617188 203.25 53.441406 202.753906 53.429688 C 202.148438 53.417969 201.507812 53.445312 200.9375 53.628906 C 199.984375 53.941406 199.792969 54.585938 200.285156 55.4375 C 200.960938 56.601562 201.964844 57.34375 203.269531 57.65625 C 204.324219 57.90625 205.273438 57.628906 206.070312 56.921875 C 206.742188 56.328125 206.800781 55.488281 206.144531 54.890625 C 205.640625 54.4375 204.988281 54.144531 204.230469 53.722656 M 194.816406 198.539062 C 195.625 198.773438 196.351562 198.515625 197.039062 198.136719 C 198.265625 197.460938 198.351562 196.113281 197.195312 195.335938 C 195.890625 194.460938 194.429688 194.136719 192.878906 194.355469 C 191.554688 194.539062 191.140625 195.554688 191.9375 196.625 C 192.621094 197.542969 193.472656 198.265625 194.816406 198.539062 M 333.785156 316.226562 C 332.394531 316.097656 331.648438 316.511719 331.09375 317.722656 C 330.71875 318.542969 330.722656 319.042969 331.410156 319.601562 C 332.085938 320.15625 332.867188 320.613281 333.671875 320.960938 C 334.523438 321.332031 335.203125 321.082031 335.746094 320.425781 C 336.246094 319.820312 336.332031 318.996094 335.882812 318.25 C 335.398438 317.449219 334.859375 316.683594 333.785156 316.226562 M 195.804688 50.8125 C 195.347656 50.195312 194.910156 49.570312 194.433594 48.972656 C 194.132812 48.601562 193.730469 48.523438 193.292969 48.75 C 192.640625 49.082031 191.964844 49.371094 191.34375 49.757812 C 190.421875 50.332031 190.425781 51.324219 191.421875 51.71875 C 192.484375 52.140625 193.628906 52.429688 194.761719 52.566406 C 195.859375 52.695312 196.210938 52.09375 195.804688 50.8125 M 186.921875 191.070312 C 186.722656 190.789062 186.542969 190.484375 186.320312 190.226562 C 185.648438 189.449219 185.238281 189.390625 184.308594 189.878906 C 183.828125 190.128906 183.328125 190.335938 182.867188 190.613281 C 182.015625 191.121094 181.957031 192.082031 182.808594 192.558594 C 184.046875 193.25 185.414062 193.5 186.828125 193.304688 C 187.527344 193.207031 187.734375 192.792969 187.480469 192.140625 C 187.355469 191.820312 187.171875 191.523438 186.921875 191.070312 M 183.542969 198.167969 C 184.269531 198.796875 184.953125 199.488281 185.75 200.015625 C 186.109375 200.257812 186.722656 200.296875 187.171875 200.199219 C 188.101562 199.996094 188.402344 199.257812 187.910156 198.429688 C 187.476562 197.703125 186.976562 197.003906 186.421875 196.367188 C 185.792969 195.648438 185.628906 195.675781 184.84375 196.160156 C 184.484375 196.382812 184.117188 196.597656 183.742188 196.800781 C 183.175781 197.105469 183.078125 197.511719 183.542969 198.167969 M 193.804688 58.890625 C 194.273438 59.054688 194.730469 59.328125 195.207031 59.359375 C 196.363281 59.425781 196.910156 58.566406 196.398438 57.523438 C 196.128906 56.972656 195.777344 56.453125 195.40625 55.964844 C 194.582031 54.878906 194.253906 54.824219 193.089844 55.46875 C 192.855469 55.597656 192.609375 55.710938 192.382812 55.855469 C 191.671875 56.3125 191.59375 56.707031 192.167969 57.347656 C 192.628906 57.863281 193.160156 58.316406 193.804688 58.890625 M 222.433594 50.171875 C 223.824219 49.304688 224.144531 48.363281 223.492188 47.078125 C 223.09375 46.292969 222.324219 45.910156 221.585938 46.136719 C 220.34375 46.519531 219.574219 47.429688 219.753906 48.355469 C 219.804688 48.613281 219.910156 48.902344 220.085938 49.082031 C 220.679688 49.695312 221.304688 50.296875 222.433594 50.171875 M 382.589844 254.023438 C 383.753906 254.121094 384.417969 253.488281 384.050781 252.398438 C 383.742188 251.472656 383.144531 250.628906 382.59375 249.804688 C 382.445312 249.585938 381.957031 249.425781 381.683594 249.492188 C 380.488281 249.785156 379.859375 251.558594 380.652344 252.511719 C 381.132812 253.085938 381.828125 253.480469 382.589844 254.023438 M 199.019531 31.476562 C 198.238281 30.898438 197.40625 30.554688 196.445312 31.015625 C 195.789062 31.332031 195.601562 31.84375 196.007812 32.429688 C 196.753906 33.503906 197.785156 34.257812 199.035156 34.625 C 199.957031 34.894531 200.542969 34.34375 200.246094 33.441406 C 200.027344 32.773438 199.523438 32.203125 199.019531 31.476562 M 287.003906 321.386719 C 287.242188 321.136719 287.484375 320.890625 287.71875 320.632812 C 288.046875 320.265625 288.277344 319.863281 287.933594 319.390625 C 287.617188 318.960938 287.152344 318.90625 286.683594 319.066406 C 285.453125 319.492188 284.59375 320.351562 284.023438 321.492188 C 283.757812 322.019531 283.933594 322.46875 284.410156 322.792969 C 285.183594 323.316406 285.984375 323.136719 286.449219 322.328125 C 286.601562 322.058594 286.75 321.789062 287.003906 321.386719 M 359.710938 187.621094 C 359.199219 187.382812 358.707031 187.039062 358.167969 186.917969 C 357.136719 186.691406 356.3125 187.507812 356.546875 188.546875 C 356.65625 189.03125 357 189.523438 357.371094 189.871094 C 357.980469 190.445312 358.378906 190.332031 358.855469 189.632812 C 359.070312 189.316406 359.351562 189.042969 359.527344 188.707031 C 359.675781 188.421875 359.707031 188.082031 359.710938 187.621094 M 362.941406 190.722656 C 363.542969 191.074219 364.113281 191.097656 364.640625 190.578125 C 364.980469 190.242188 365.066406 189.851562 364.890625 189.410156 C 364.613281 188.714844 364.296875 188.03125 363.476562 187.84375 C 363.007812 187.738281 362.65625 187.996094 362.390625 188.367188 C 361.878906 189.082031 361.996094 189.730469 362.941406 190.722656 M 358.882812 193.601562 C 359.183594 193.945312 359.425781 194.398438 359.804688 194.59375 C 360.210938 194.804688 360.765625 194.882812 361.214844 194.804688 C 361.503906 194.753906 361.886719 194.332031 361.921875 194.042969 C 361.957031 193.757812 361.675781 193.289062 361.40625 193.144531 C 360.949219 192.902344 360.394531 192.785156 359.867188 192.734375 C 359.402344 192.691406 358.925781 192.824219 358.882812 193.601562 M 263.019531 396.816406 C 263.851562 397.371094 264.320312 397.398438 264.738281 396.914062 C 265.078125 396.523438 264.976562 395.867188 264.382812 395.273438 C 264.144531 395.03125 263.722656 394.796875 263.417969 394.835938 C 262.9375 394.898438 262.632812 395.34375 262.628906 395.84375 C 262.628906 396.125 262.808594 396.410156 263.019531 396.816406 M 357.710938 355.214844 C 356.503906 353.539062 355.523438 352.832031 354.546875 352.929688 C 354.53125 352.964844 354.492188 353.011719 354.5 353.035156 C 355.054688 354.34375 356.125 355.125 357.339844 355.738281 C 357.398438 355.765625 357.609375 355.492188 357.710938 355.214844 M 214.109375 234.464844 C 214.699219 234.898438 215.160156 235.59375 216.058594 235.5 C 215.851562 234.203125 214.144531 232.730469 213.011719 232.855469 C 212.992188 233.585938 213.609375 233.894531 214.109375 234.464844 M 356.671875 191.371094 C 356.59375 191.238281 356.527344 191.09375 356.425781 190.980469 C 355.820312 190.300781 354.886719 190.316406 354.375 191.039062 C 354.269531 191.1875 354.246094 191.496094 354.328125 191.660156 C 354.554688 192.121094 355.9375 192.503906 356.429688 192.289062 C 356.777344 192.132812 356.832031 191.855469 356.671875 191.371094 M 88.421875 328.230469 C 88.957031 328.640625 89.414062 329.191406 90.191406 329.203125 C 90.082031 328 88.695312 326.730469 87.476562 326.703125 C 87.367188 327.402344 87.957031 327.695312 88.421875 328.230469 M 370.609375 190.015625 C 370.585938 189.90625 370.582031 189.785156 370.535156 189.683594 C 370.308594 189.199219 369.90625 188.929688 369.429688 189.179688 C 369.101562 189.351562 368.75 189.726562 368.671875 190.070312 C 368.558594 190.578125 369.007812 190.886719 369.453125 191.0625 C 370.023438 191.285156 370.257812 191.097656 370.609375 190.015625 M 355.984375 193.695312 C 355.664062 193.785156 355.300781 193.808594 355.039062 193.984375 C 354.882812 194.085938 354.785156 194.453125 354.835938 194.660156 C 354.949219 195.109375 355.832031 195.648438 356.304688 195.648438 C 356.871094 195.648438 357.1875 195.238281 356.929688 194.726562 C 356.746094 194.363281 356.40625 194.082031 355.984375 193.695312 M 246.957031 301.53125 C 247.28125 301.683594 247.535156 302.082031 247.980469 301.839844 C 247.742188 300.589844 246.328125 299.375 245.164062 299.464844 C 245.355469 300.445312 246.113281 300.925781 246.957031 301.53125 M 135.816406 148.148438 C 136.121094 149.3125 137.324219 150.355469 138.457031 150.425781 C 138.351562 149.367188 137.195312 148.289062 135.816406 148.148438 M 150.8125 46.683594 C 150.605469 46.652344 150.398438 46.617188 150.164062 46.582031 C 150.332031 47.855469 151.707031 49.03125 152.820312 48.941406 C 152.617188 48.027344 152.355469 47.726562 150.8125 46.683594 M 50.417969 205.148438 C 49.945312 205.148438 49.851562 205.457031 50.109375 205.730469 C 50.738281 206.390625 51.421875 207.003906 52.117188 207.589844 C 52.277344 207.722656 52.589844 207.667969 52.832031 207.699219 C 52.886719 207.617188 52.941406 207.535156 52.992188 207.457031 C 52.28125 206.609375 51.582031 205.746094 50.417969 205.148438 M 357.15625 182.722656 C 357.519531 182.933594 357.863281 183.207031 358.253906 183.347656 C 358.699219 183.503906 359.089844 183.109375 358.859375 182.707031 C 358.609375 182.265625 358.199219 181.882812 357.777344 181.589844 C 357.597656 181.464844 357.136719 181.546875 356.929688 181.703125 C 356.554688 181.988281 356.824219 182.320312 357.15625 182.722656 Z M 357.15625 182.722656 "/>
<path style=" stroke:none;fill-rule:nonzero;fill:rgb(55.29412%,57.254905%,50.588238%);fill-opacity:1;" d="M 1.28125 0.234375 C 1.378906 0.773438 1.339844 1.316406 1.339844 1.859375 C 1.339844 134.113281 1.339844 266.367188 1.339844 398.621094 C 1.339844 399.085938 1.355469 399.550781 1.378906 400.125 C 1.011719 400.234375 0.621094 400.234375 0.234375 400.234375 C 0.234375 369.632812 0.234375 339.03125 0.304688 308.273438 C 0.476562 307.910156 0.613281 307.714844 0.664062 307.5 C 0.71875 307.28125 0.699219 307.039062 0.699219 306.808594 C 0.699219 301.785156 0.699219 296.757812 0.691406 291.734375 C 0.691406 291.210938 0.816406 290.625 0.234375 290.273438 C 0.234375 241.347656 0.234375 192.417969 0.308594 143.332031 C 0.488281 142.742188 0.675781 142.308594 0.683594 141.871094 C 0.71875 139.898438 0.699219 137.925781 0.699219 135.953125 C 0.699219 131.964844 0.703125 127.980469 0.691406 123.996094 C 0.691406 123.472656 0.828125 122.882812 0.234375 122.539062 C 0.234375 94.734375 0.234375 66.929688 0.304688 38.964844 C 0.484375 38.410156 0.667969 38.015625 0.683594 37.617188 C 0.722656 36.457031 0.699219 35.296875 0.699219 34.136719 C 0.699219 29.84375 0.703125 25.554688 0.691406 21.261719 C 0.691406 20.738281 0.816406 20.152344 0.234375 19.800781 C 0.234375 13.277344 0.234375 6.757812 0.234375 0.234375 C 0.546875 0.234375 0.855469 0.234375 1.28125 0.234375 Z M 1.28125 0.234375 "/>
<path style=" stroke:none;fill-rule:nonzero;fill:rgb(61.176473%,61.176473%,61.176473%);fill-opacity:1;" d="M 0.234375 122.648438 C 0.828125 122.882812 0.691406 123.472656 0.691406 123.996094 C 0.703125 127.980469 0.699219 131.964844 0.699219 135.953125 C 0.699219 137.925781 0.71875 139.898438 0.683594 141.871094 C 0.675781 142.308594 0.488281 142.742188 0.308594 143.222656 C 0.234375 136.433594 0.234375 129.597656 0.234375 122.648438 Z M 0.234375 122.648438 "/>
<path style=" stroke:none;fill-rule:nonzero;fill:rgb(61.176473%,61.176473%,61.176473%);fill-opacity:1;" d="M 0.234375 19.910156 C 0.816406 20.152344 0.691406 20.738281 0.691406 21.261719 C 0.703125 25.554688 0.699219 29.84375 0.699219 34.136719 C 0.699219 35.296875 0.722656 36.457031 0.683594 37.617188 C 0.667969 38.015625 0.484375 38.410156 0.304688 38.855469 C 0.234375 32.609375 0.234375 26.316406 0.234375 19.910156 Z M 0.234375 19.910156 "/>
<path style=" stroke:none;fill-rule:nonzero;fill:rgb(61.176473%,61.176473%,61.176473%);fill-opacity:1;" d="M 0.234375 290.382812 C 0.816406 290.625 0.691406 291.210938 0.691406 291.734375 C 0.699219 296.757812 0.699219 301.785156 0.699219 306.808594 C 0.699219 307.039062 0.71875 307.28125 0.664062 307.5 C 0.613281 307.714844 0.476562 307.910156 0.304688 308.164062 C 0.234375 302.304688 0.234375 296.398438 0.234375 290.382812 Z M 0.234375 290.382812 "/>
<path style=" stroke:none;fill-rule:nonzero;fill:rgb(72.549021%,84.705883%,14.117648%);fill-opacity:1;" d="M 380.882812 280.917969 C 380.632812 281.273438 380.4375 281.558594 380.222656 281.835938 C 379.699219 282.5 379.34375 282.667969 378.644531 282.195312 C 377.863281 281.664062 377.15625 280.972656 376.550781 280.242188 C 376.320312 279.960938 376.335938 279.332031 376.464844 278.933594 C 376.691406 278.207031 377.089844 277.535156 377.457031 276.757812 C 377.230469 276.664062 377 276.558594 376.765625 276.476562 C 375.625 276.074219 374.757812 275.296875 374.074219 274.347656 C 373.859375 274.050781 373.808594 273.527344 373.882812 273.152344 C 374.109375 272.039062 374.851562 271.285156 375.894531 270.925781 C 378.101562 270.15625 380.363281 269.898438 382.609375 270.734375 C 383.308594 270.992188 383.972656 271.460938 384.527344 271.96875 C 385.144531 272.539062 385.078125 273.003906 384.441406 273.535156 C 384.121094 273.800781 383.738281 274.027344 383.34375 274.164062 C 382.578125 274.433594 381.785156 274.617188 381.007812 274.859375 C 380.582031 274.996094 380.171875 275.1875 379.523438 275.445312 C 379.992188 275.808594 380.277344 276.035156 380.570312 276.25 C 381.832031 277.1875 382.089844 277.980469 381.554688 279.472656 C 381.386719 279.945312 381.136719 280.390625 380.882812 280.917969 Z M 380.882812 280.917969 "/>
<path style=" stroke:none;fill-rule:nonzero;fill:rgb(72.549021%,84.705883%,14.117648%);fill-opacity:1;" d="M 344.957031 339.019531 C 345.121094 339.132812 345.226562 339.1875 345.316406 339.261719 C 346.707031 340.390625 346.710938 341.734375 345.320312 342.851562 C 345.105469 343.019531 344.882812 343.179688 344.648438 343.316406 C 343.984375 343.714844 343.566406 344.285156 343.332031 345.023438 C 343.164062 345.539062 342.972656 346.054688 342.714844 346.527344 C 342.304688 347.28125 341.753906 347.515625 340.960938 347.230469 C 337.609375 346.039062 335.699219 342.609375 337.160156 339.328125 C 337.8125 337.863281 339.058594 337.164062 340.636719 337.441406 C 342.136719 337.707031 343.574219 338.164062 344.957031 339.019531 Z M 344.957031 339.019531 "/>
<path style=" stroke:none;fill-rule:nonzero;fill:rgb(43.529412%,60.784316%,5.882353%);fill-opacity:1;" d="M 330.386719 283.542969 C 329.550781 284.875 329.238281 285.324219 327.59375 284.050781 C 326.308594 283.058594 326.148438 282.3125 326.839844 280.824219 C 326.980469 280.515625 327.121094 280.207031 327.234375 279.964844 C 326.394531 279.320312 325.589844 278.792969 324.894531 278.148438 C 323.816406 277.140625 323.929688 275.953125 325.105469 275.007812 C 325.894531 274.378906 326.839844 274.117188 327.804688 274.035156 C 328.839844 273.949219 329.894531 273.949219 330.933594 274.023438 C 331.871094 274.09375 332.738281 274.464844 333.445312 275.121094 C 334.335938 275.957031 334.25 276.691406 333.148438 277.179688 C 332.445312 277.492188 331.679688 277.65625 330.945312 277.90625 C 330.488281 278.066406 330.039062 278.261719 329.390625 278.515625 C 329.824219 278.941406 330.09375 279.25 330.40625 279.507812 C 331.285156 280.214844 331.460938 281.089844 331.0625 282.101562 C 330.878906 282.570312 330.644531 283.015625 330.386719 283.542969 M 327.652344 279.441406 C 327.652344 279.441406 327.667969 279.433594 327.652344 279.441406 Z M 327.652344 279.441406 "/>
<path style=" stroke:none;fill-rule:nonzero;fill:rgb(72.549021%,84.705883%,14.117648%);fill-opacity:1;" d="M 355.8125 340.171875 C 357.429688 340.167969 358.386719 341.132812 359.25 342.203125 C 360.113281 343.273438 360.632812 344.53125 360.914062 345.871094 C 360.996094 346.257812 361 346.785156 360.800781 347.085938 C 360.160156 348.0625 359.386719 348.953125 358.179688 349.253906 C 357.78125 349.351562 357.316406 349.398438 356.929688 349.292969 C 355.296875 348.851562 354 347.898438 353.109375 346.457031 C 352.335938 345.207031 352.292969 343.886719 353.019531 342.59375 C 353.636719 341.484375 354.472656 340.59375 355.8125 340.171875 Z M 355.8125 340.171875 "/>
<path style=" stroke:none;fill-rule:nonzero;fill:rgb(72.549021%,84.705883%,14.117648%);fill-opacity:1;" d="M 53.667969 318.304688 C 53.867188 317.917969 54.015625 317.601562 54.183594 317.296875 C 54.929688 315.953125 55.972656 315.558594 57.402344 316.105469 C 58.34375 316.464844 59.125 317.085938 59.472656 318.027344 C 60.125 319.8125 60.210938 321.578125 58.882812 323.167969 C 58.179688 324.011719 57.300781 324.449219 56.222656 324.144531 C 55.492188 323.9375 54.710938 323.683594 54.125 323.230469 C 52.433594 321.925781 52.304688 320.261719 53.667969 318.304688 Z M 53.667969 318.304688 "/>
<path style=" stroke:none;fill-rule:nonzero;fill:rgb(72.549021%,84.705883%,14.117648%);fill-opacity:1;" d="M 116.199219 42.664062 C 115.601562 41.945312 115.339844 41.179688 115.34375 40.347656 C 115.347656 39.96875 115.398438 39.550781 115.566406 39.226562 C 116.015625 38.371094 116.511719 37.535156 117.046875 36.734375 C 117.738281 35.703125 119.621094 35.597656 120.832031 36.417969 C 122.789062 37.746094 123.417969 41.621094 120.996094 43.519531 C 119.925781 44.359375 118.714844 44.140625 117.574219 43.660156 C 117.089844 43.457031 116.695312 43.046875 116.199219 42.664062 Z M 116.199219 42.664062 "/>
<path style=" stroke:none;fill-rule:nonzero;fill:rgb(72.549021%,84.705883%,14.117648%);fill-opacity:1;" d="M 22.410156 197.976562 C 22.796875 199.832031 22.015625 201.148438 20.761719 202.261719 C 20.566406 202.433594 20.296875 202.554688 20.042969 202.617188 C 17.835938 203.148438 15.332031 201.296875 15.242188 199.054688 C 15.230469 198.683594 15.328125 198.269531 15.5 197.941406 C 15.929688 197.121094 16.402344 196.320312 16.90625 195.542969 C 17.550781 194.546875 18.363281 194.246094 19.5 194.519531 C 21.269531 194.945312 22.164062 196.128906 22.410156 197.976562 Z M 22.410156 197.976562 "/>
<path style=" stroke:none;fill-rule:nonzero;fill:rgb(72.549021%,84.705883%,14.117648%);fill-opacity:1;" d="M 213.003906 296.570312 C 211.550781 296.046875 210.800781 295.035156 210.484375 293.65625 C 210.335938 293.019531 210.429688 292.4375 210.785156 291.878906 C 211.222656 291.195312 211.648438 290.5 212.015625 289.78125 C 212.410156 288.996094 213.011719 288.652344 213.871094 288.640625 C 215.605469 288.617188 216.808594 289.363281 217.300781 291.027344 C 217.753906 292.566406 217.929688 294.113281 216.800781 295.550781 C 216.050781 296.5 215.191406 296.96875 214 296.785156 C 213.695312 296.738281 213.394531 296.667969 213.003906 296.570312 Z M 213.003906 296.570312 "/>
<path style=" stroke:none;fill-rule:nonzero;fill:rgb(72.549021%,84.705883%,14.117648%);fill-opacity:1;" d="M 344.273438 358.335938 C 343.953125 357.894531 343.644531 357.535156 343.433594 357.125 C 342.808594 355.917969 343.179688 354.988281 344.46875 354.589844 C 344.980469 354.433594 345.53125 354.386719 346.066406 354.355469 C 347.617188 354.265625 349.0625 354.699219 350.445312 355.335938 C 351.867188 355.988281 352.613281 357.128906 352.410156 358.183594 C 352.207031 359.242188 350.9375 360.203125 349.535156 360.371094 C 347.453125 360.625 345.734375 359.929688 344.273438 358.335938 Z M 344.273438 358.335938 "/>
<path style=" stroke:none;fill-rule:nonzero;fill:rgb(72.549021%,84.705883%,14.117648%);fill-opacity:1;" d="M 125.660156 36.898438 C 125.25 35.699219 125.371094 35.214844 126.339844 34.714844 C 128.015625 33.847656 129.800781 33.566406 131.609375 34.191406 C 132.820312 34.609375 133.757812 35.429688 134.082031 36.746094 C 134.402344 38.0625 133.847656 38.976562 132.597656 39.46875 C 130.304688 40.367188 128.449219 39.511719 126.742188 38.058594 C 126.363281 37.738281 126.050781 37.335938 125.660156 36.898438 Z M 125.660156 36.898438 "/>
<path style=" stroke:none;fill-rule:nonzero;fill:rgb(72.549021%,84.705883%,14.117648%);fill-opacity:1;" d="M 34.003906 195.535156 C 33.992188 195.976562 34.003906 196.328125 33.957031 196.671875 C 33.878906 197.199219 33.617188 197.617188 33.113281 197.84375 C 31.960938 198.359375 30.792969 198.652344 29.511719 198.292969 C 28.121094 197.898438 26.988281 197.09375 26.03125 196.082031 C 24.921875 194.910156 25.230469 193.660156 26.742188 193.085938 C 28.28125 192.5 29.886719 192.21875 31.496094 192.820312 C 32.730469 193.28125 33.796875 193.960938 34.003906 195.535156 Z M 34.003906 195.535156 "/>
<path style=" stroke:none;fill-rule:nonzero;fill:rgb(43.529412%,60.784316%,5.882353%);fill-opacity:1;" d="M 118.910156 140.59375 C 115.863281 142.09375 113.113281 140.53125 111.460938 138.460938 C 110.761719 137.589844 110.925781 136.785156 111.894531 136.214844 C 112.515625 135.855469 113.238281 135.582031 113.945312 135.472656 C 115.613281 135.214844 117.265625 135.1875 118.683594 136.378906 C 120.011719 137.496094 120.167969 139.351562 118.910156 140.59375 Z M 118.910156 140.59375 "/>
<path style=" stroke:none;fill-rule:nonzero;fill:rgb(72.549021%,84.705883%,14.117648%);fill-opacity:1;" d="M 226.824219 287.003906 C 227.339844 287.300781 227.800781 287.523438 228.195312 287.832031 C 229.132812 288.574219 229.539062 290.011719 229.078125 291.097656 C 228.925781 291.457031 228.589844 291.820312 228.246094 292.003906 C 226.832031 292.75 225.371094 292.863281 223.894531 292.140625 C 222.875 291.640625 221.90625 291.074219 221.167969 290.195312 C 220.066406 288.886719 220.339844 287.855469 221.9375 287.246094 C 223.507812 286.648438 225.113281 286.625 226.824219 287.003906 Z M 226.824219 287.003906 "/>
<path style=" stroke:none;fill-rule:nonzero;fill:rgb(72.549021%,84.705883%,14.117648%);fill-opacity:1;" d="M 67.238281 319.808594 C 65.5625 319.429688 64.339844 318.503906 63.300781 317.320312 C 62.40625 316.300781 62.554688 315.367188 63.773438 314.792969 C 65.789062 313.84375 67.859375 313.570312 69.882812 314.769531 C 71.242188 315.574219 71.738281 316.730469 71.421875 318.089844 C 71.269531 318.738281 70.929688 319.171875 70.296875 319.457031 C 69.335938 319.894531 68.347656 319.902344 67.238281 319.808594 Z M 67.238281 319.808594 "/>
<path style=" stroke:none;fill-rule:nonzero;fill:rgb(43.529412%,60.784316%,5.882353%);fill-opacity:1;" d="M 116.769531 144.683594 C 118.757812 144.535156 120.496094 144.957031 122.066406 146.019531 C 122.320312 146.191406 122.589844 146.359375 122.816406 146.566406 C 123.699219 147.390625 123.582031 148.152344 122.484375 148.613281 C 122.0625 148.789062 121.597656 148.878906 121.148438 148.992188 C 120.433594 149.175781 119.703125 149.292969 119.011719 149.527344 C 117.945312 149.890625 116.925781 149.816406 115.980469 149.265625 C 115.285156 148.859375 114.59375 148.390625 114.03125 147.820312 C 113.082031 146.851562 113.300781 145.746094 114.539062 145.21875 C 115.203125 144.9375 115.953125 144.855469 116.769531 144.683594 Z M 116.769531 144.683594 "/>
<path style=" stroke:none;fill-rule:nonzero;fill:rgb(72.549021%,84.705883%,14.117648%);fill-opacity:1;" d="M 67.828125 328.019531 C 67.015625 327.421875 66.203125 326.9375 65.566406 326.28125 C 64.777344 325.472656 64.933594 324.652344 65.90625 324.066406 C 66.359375 323.792969 66.894531 323.578125 67.417969 323.496094 C 69.746094 323.132812 71.980469 323.339844 73.9375 324.835938 C 74.183594 325.023438 74.421875 325.222656 74.636719 325.445312 C 75.359375 326.199219 75.257812 326.800781 74.300781 327.238281 C 73.878906 327.425781 73.414062 327.511719 72.964844 327.632812 C 72.21875 327.835938 71.460938 328 70.722656 328.230469 C 69.753906 328.53125 68.820312 328.5625 67.828125 328.019531 Z M 67.828125 328.019531 "/>
<path style=" stroke:none;fill-rule:nonzero;fill:rgb(43.529412%,60.784316%,5.882353%);fill-opacity:1;" d="M 132.054688 43.214844 C 133.566406 43.300781 134.90625 43.65625 136.089844 44.445312 C 136.59375 44.785156 137.078125 45.195312 137.472656 45.65625 C 137.933594 46.191406 137.8125 46.625 137.230469 47.003906 C 137.164062 47.042969 137.097656 47.089844 137.023438 47.109375 C 135.3125 47.5625 133.644531 48.234375 131.839844 48.21875 C 130.144531 48.203125 128.953125 47.21875 128.003906 45.941406 C 127.445312 45.1875 127.671875 44.488281 128.488281 43.992188 C 129.554688 43.347656 130.761719 43.304688 132.054688 43.214844 Z M 132.054688 43.214844 "/>
<path style=" stroke:none;fill-rule:nonzero;fill:rgb(72.549021%,84.705883%,14.117648%);fill-opacity:1;" d="M 223.992188 299.714844 C 223.835938 299.585938 223.742188 299.519531 223.664062 299.433594 C 222.285156 297.980469 222.6875 296.871094 224.503906 296.378906 C 227.292969 295.617188 229.96875 296.011719 232.261719 297.941406 C 233.144531 298.6875 233.046875 299.414062 232.023438 299.917969 C 231.679688 300.089844 231.296875 300.179688 230.921875 300.273438 C 230.210938 300.453125 229.46875 300.539062 228.785156 300.792969 C 227.261719 301.359375 225.898438 301.140625 224.632812 300.164062 C 224.449219 300.019531 224.25 299.894531 223.992188 299.714844 Z M 223.992188 299.714844 "/>
<path style=" stroke:none;fill-rule:nonzero;fill:rgb(72.549021%,84.705883%,14.117648%);fill-opacity:1;" d="M 37.40625 205.386719 C 36.363281 206.042969 32.65625 206.976562 31.558594 206.855469 C 29.984375 206.683594 28.859375 205.742188 27.964844 204.535156 C 27.441406 203.832031 27.722656 202.882812 28.644531 202.527344 C 29.636719 202.144531 30.726562 201.851562 31.78125 201.828125 C 33.6875 201.78125 35.433594 202.433594 36.917969 203.667969 C 37.421875 204.085938 37.976562 204.542969 37.40625 205.386719 Z M 37.40625 205.386719 "/>
<path style=" stroke:none;fill-rule:nonzero;fill:rgb(43.529412%,60.784316%,5.882353%);fill-opacity:1;" d="M 195.808594 43.035156 C 196.34375 41.824219 197.261719 41.507812 198.410156 41.648438 C 199.507812 41.78125 200.515625 42.171875 201.421875 42.78125 C 202.585938 43.570312 202.65625 44.5625 201.535156 45.414062 C 200.789062 45.980469 200.320312 46.652344 199.988281 47.507812 C 199.546875 48.640625 198.96875 48.820312 197.917969 48.195312 C 196.105469 47.113281 195.011719 45.449219 195.808594 43.035156 Z M 195.808594 43.035156 "/>
<path style=" stroke:none;fill-rule:nonzero;fill:rgb(72.549021%,84.705883%,14.117648%);fill-opacity:1;" d="M 139.085938 62.226562 C 138.011719 63.011719 137.601562 63.035156 136.625 62.410156 C 136.363281 62.246094 136.109375 62.066406 135.882812 61.855469 C 134.65625 60.703125 134.65625 59.015625 135.898438 57.875 C 136.875 56.976562 138.078125 56.574219 139.375 56.453125 C 139.667969 56.425781 139.988281 56.515625 140.28125 56.609375 C 142 57.144531 142.332031 58.429688 141.136719 59.777344 C 140.449219 60.550781 139.804688 61.367188 139.085938 62.226562 Z M 139.085938 62.226562 "/>
<path style=" stroke:none;fill-rule:nonzero;fill:rgb(72.549021%,84.705883%,14.117648%);fill-opacity:1;" d="M 333.007812 347.917969 C 334.121094 347.285156 334.597656 347.257812 335.308594 348.125 C 336.085938 349.074219 336.761719 350.125 337.335938 351.210938 C 337.820312 352.125 337.449219 352.882812 336.402344 352.988281 C 334.289062 353.195312 332.214844 352.832031 330.417969 351.65625 C 329.242188 350.886719 329.527344 349.515625 330.84375 348.945312 C 331.550781 348.640625 332.238281 348.292969 333.007812 347.917969 Z M 333.007812 347.917969 "/>
<path style=" stroke:none;fill-rule:nonzero;fill:rgb(72.549021%,84.705883%,14.117648%);fill-opacity:1;" d="M 39.160156 220.644531 C 38.128906 221.667969 37.5625 221.746094 36.484375 220.980469 C 35.609375 220.359375 34.875 219.613281 34.964844 218.417969 C 34.984375 218.113281 35.027344 217.789062 35.152344 217.519531 C 35.90625 215.917969 38.648438 214.523438 40.5 215.296875 C 41.972656 215.914062 42.253906 216.992188 41.207031 218.191406 C 40.527344 218.972656 39.875 219.78125 39.160156 220.644531 Z M 39.160156 220.644531 "/>
<path style=" stroke:none;fill-rule:nonzero;fill:rgb(72.549021%,84.705883%,14.117648%);fill-opacity:1;" d="M 72.390625 339.582031 C 73.195312 337.503906 75.25 336.3125 77.339844 336.679688 C 78.078125 336.808594 78.8125 337.066406 79.105469 337.839844 C 79.414062 338.664062 79.066406 339.410156 78.464844 339.941406 C 77.730469 340.589844 77.121094 341.304688 76.570312 342.113281 C 75.953125 343.011719 75.207031 343.144531 74.230469 342.621094 C 73.066406 341.996094 72.285156 341.09375 72.390625 339.582031 Z M 72.390625 339.582031 "/>
<path style=" stroke:none;fill-rule:nonzero;fill:rgb(72.549021%,84.705883%,14.117648%);fill-opacity:1;" d="M 234.566406 314.480469 C 233.398438 315.945312 232.585938 315.960938 231.257812 314.789062 C 229.777344 313.484375 229.699219 311.554688 231.554688 310.308594 C 232.304688 309.808594 233.21875 309.445312 234.101562 309.296875 C 234.722656 309.191406 235.488281 309.425781 236.074219 309.730469 C 237.183594 310.3125 237.300781 311.265625 236.492188 312.226562 C 236.21875 312.550781 235.882812 312.816406 235.605469 313.140625 C 235.257812 313.546875 234.941406 313.984375 234.566406 314.480469 Z M 234.566406 314.480469 "/>
<path style=" stroke:none;fill-rule:nonzero;fill:rgb(72.549021%,84.705883%,14.117648%);fill-opacity:1;" d="M 65.300781 331.460938 C 65.660156 332.4375 66.03125 333.328125 66.273438 334.253906 C 66.382812 334.675781 66.3125 335.183594 66.1875 335.617188 C 65.855469 336.78125 65.011719 337.113281 63.953125 336.527344 C 62.421875 335.675781 61.136719 334.597656 60.746094 332.773438 C 60.675781 332.4375 60.59375 332.078125 60.640625 331.746094 C 60.761719 330.847656 61.011719 329.976562 61.960938 329.585938 C 62.886719 329.203125 63.613281 329.703125 64.273438 330.257812 C 64.648438 330.578125 64.933594 331.003906 65.300781 331.460938 Z M 65.300781 331.460938 "/>
<path style=" stroke:none;fill-rule:nonzero;fill:rgb(72.549021%,84.705883%,14.117648%);fill-opacity:1;" d="M 23.394531 211.5625 C 23.355469 210.886719 23.269531 210.296875 23.34375 209.730469 C 23.550781 208.195312 24.734375 207.667969 26.140625 208.277344 C 27.707031 208.957031 29.230469 212.109375 28.824219 213.960938 C 28.554688 215.183594 27.65625 215.65625 26.578125 215.070312 C 25.148438 214.292969 23.933594 213.292969 23.394531 211.5625 Z M 23.394531 211.5625 "/>
<path style=" stroke:none;fill-rule:nonzero;fill:rgb(72.549021%,84.705883%,14.117648%);fill-opacity:1;" d="M 223.574219 309.039062 C 223.171875 309.488281 222.734375 309.660156 222.257812 309.4375 C 220.3125 308.53125 218.765625 307.261719 218.386719 304.988281 C 218.355469 304.796875 218.332031 304.59375 218.367188 304.410156 C 218.527344 303.507812 218.769531 302.605469 219.734375 302.261719 C 220.636719 301.941406 221.375 302.375 222.042969 302.992188 C 223.214844 304.070312 223.824219 305.417969 224.046875 306.964844 C 224.148438 307.679688 224.027344 308.355469 223.574219 309.039062 Z M 223.574219 309.039062 "/>
<path style=" stroke:none;fill-rule:nonzero;fill:rgb(72.549021%,84.705883%,14.117648%);fill-opacity:1;" d="M 125.515625 55.738281 C 124.597656 55.152344 124.054688 54.347656 123.628906 53.480469 C 123.082031 52.367188 123.066406 51.226562 123.792969 50.179688 C 124.484375 49.175781 125.222656 49.0625 126.285156 49.726562 C 127.761719 50.648438 128.523438 52.050781 128.792969 53.714844 C 128.894531 54.347656 128.882812 55.035156 128.738281 55.65625 C 128.507812 56.640625 127.792969 56.945312 126.878906 56.542969 C 126.425781 56.339844 126.011719 56.042969 125.515625 55.738281 Z M 125.515625 55.738281 "/>
<path style=" stroke:none;fill-rule:nonzero;fill:rgb(72.549021%,84.705883%,14.117648%);fill-opacity:1;" d="M 210.609375 230.390625 C 209.519531 230.203125 208.523438 230.058594 207.546875 229.824219 C 206.761719 229.636719 206.113281 229.226562 205.988281 228.316406 C 205.886719 227.59375 206.210938 226.839844 206.824219 226.546875 C 208.746094 225.625 210.671875 225.449219 212.570312 226.636719 C 213.582031 227.269531 214.019531 228.375 213.65625 229.421875 C 213.371094 230.238281 212.855469 230.585938 211.976562 230.527344 C 211.554688 230.5 211.132812 230.441406 210.609375 230.390625 Z M 210.609375 230.390625 "/>
<path style=" stroke:none;fill-rule:nonzero;fill:rgb(72.549021%,84.705883%,14.117648%);fill-opacity:1;" d="M 335.421875 362.847656 C 333.839844 362.039062 332.558594 361.003906 331.578125 359.621094 C 330.984375 358.789062 331.058594 358.503906 331.953125 357.980469 C 332.585938 357.609375 333.21875 357.238281 333.84375 356.855469 C 334.539062 356.425781 334.929688 356.394531 335.523438 356.925781 C 336.695312 357.976562 337.523438 359.292969 338.121094 360.726562 C 338.484375 361.597656 338.113281 362.367188 337.207031 362.675781 C 336.679688 362.855469 336.078125 362.816406 335.421875 362.847656 Z M 335.421875 362.847656 "/>
<path style=" stroke:none;fill-rule:nonzero;fill:rgb(43.529412%,60.784316%,5.882353%);fill-opacity:1;" d="M 211.652344 49.265625 C 210.140625 50.222656 209.285156 50.160156 208.042969 49.023438 C 207.46875 48.5 206.882812 47.984375 206.703125 47.167969 C 206.417969 45.855469 207.136719 44.335938 208.355469 43.746094 C 209.050781 43.414062 209.738281 43.535156 210.335938 43.980469 C 211.507812 44.855469 212.175781 46.058594 212.4375 47.484375 C 212.570312 48.199219 212.300781 48.777344 211.652344 49.265625 Z M 211.652344 49.265625 "/>
<path style=" stroke:none;fill-rule:nonzero;fill:rgb(72.549021%,84.705883%,14.117648%);fill-opacity:1;" d="M 207.089844 236.660156 C 207.414062 236.132812 207.6875 235.671875 207.941406 235.246094 C 208.074219 235.21875 208.171875 235.164062 208.21875 235.191406 C 209.714844 236.023438 210.601562 237.359375 211.136719 238.921875 C 211.355469 239.5625 210.949219 240.152344 210.4375 240.53125 C 209.308594 241.367188 207.972656 241.597656 206.601562 241.652344 C 206.457031 241.660156 206.296875 241.59375 206.160156 241.527344 C 204.921875 240.917969 204.726562 238.617188 205.824219 237.789062 C 206.253906 237.464844 206.632812 237.082031 207.089844 236.660156 Z M 207.089844 236.660156 "/>
<path style=" stroke:none;fill-rule:nonzero;fill:rgb(72.549021%,84.705883%,14.117648%);fill-opacity:1;" d="M 376.167969 348.90625 C 374.976562 350.03125 374.527344 350.105469 373.265625 349.289062 C 372.71875 348.9375 372.183594 348.523438 371.75 348.039062 C 370.972656 347.179688 370.980469 346.277344 371.773438 345.445312 C 372.246094 344.949219 372.796875 344.480469 373.394531 344.160156 C 374.492188 343.570312 375.496094 343.832031 376.3125 344.769531 C 377.390625 346.003906 377.363281 347.257812 376.167969 348.90625 Z M 376.167969 348.90625 "/>
<path style=" stroke:none;fill-rule:nonzero;fill:rgb(43.529412%,60.784316%,5.882353%);fill-opacity:1;" d="M 113.914062 153.328125 C 114.152344 154.070312 114.421875 154.722656 114.542969 155.402344 C 114.683594 156.214844 114.445312 156.46875 113.632812 156.515625 C 113.011719 156.554688 112.390625 156.539062 111.769531 156.535156 C 110.398438 156.527344 109.710938 156.070312 109.246094 154.765625 C 108.90625 153.828125 108.882812 152.855469 109.277344 151.925781 C 109.777344 150.75 110.925781 150.347656 111.933594 151.128906 C 112.679688 151.707031 113.234375 152.53125 113.914062 153.328125 Z M 113.914062 153.328125 "/>
<path style=" stroke:none;fill-rule:nonzero;fill:rgb(43.529412%,60.784316%,5.882353%);fill-opacity:1;" d="M 278.078125 315.832031 C 279.523438 315.613281 280.902344 316.28125 281.613281 317.453125 C 281.902344 317.929688 281.746094 318.296875 281.332031 318.53125 C 280.726562 318.871094 280.097656 319.175781 279.453125 319.433594 C 278.953125 319.632812 278.414062 319.734375 277.890625 319.878906 C 276.425781 320.277344 274.636719 319.511719 273.933594 318.1875 C 273.671875 317.699219 273.75 317.230469 274.332031 316.914062 C 274.933594 316.589844 275.613281 316.386719 276.277344 316.195312 C 276.832031 316.035156 277.414062 315.964844 278.078125 315.832031 Z M 278.078125 315.832031 "/>
<path style=" stroke:none;fill-rule:nonzero;fill:rgb(43.529412%,60.784316%,5.882353%);fill-opacity:1;" d="M 132.9375 138.273438 C 132.214844 137.753906 131.484375 137.34375 130.953125 136.757812 C 130.171875 135.898438 130.367188 134.929688 131.417969 134.488281 C 133.074219 133.789062 134.789062 133.613281 136.449219 134.539062 C 137.511719 135.132812 137.6875 136.097656 136.949219 137.066406 C 136.074219 138.214844 134.472656 138.722656 132.9375 138.273438 Z M 132.9375 138.273438 "/>
<path style=" stroke:none;fill-rule:nonzero;fill:rgb(72.549021%,84.705883%,14.117648%);fill-opacity:1;" d="M 69.566406 307.082031 C 69.4375 305.765625 69.71875 305.199219 70.757812 304.8125 C 71.699219 304.464844 72.664062 304.160156 73.640625 303.933594 C 74.777344 303.667969 75.554688 304.085938 75.882812 305.214844 C 76.722656 308.105469 75.902344 308.550781 73.503906 308.386719 C 72.699219 308.332031 71.886719 308.179688 71.113281 307.953125 C 70.578125 307.796875 70.105469 307.433594 69.566406 307.082031 Z M 69.566406 307.082031 "/>
<path style=" stroke:none;fill-rule:nonzero;fill:rgb(72.549021%,84.705883%,14.117648%);fill-opacity:1;" d="M 88.429688 313.410156 C 89.28125 314.453125 89.292969 314.980469 88.546875 315.921875 C 87.578125 317.140625 85.722656 317.5625 84.367188 316.796875 C 83.773438 316.460938 83.203125 316.019531 82.734375 315.519531 C 81.875 314.609375 82.089844 313.542969 83.242188 313.117188 C 84.960938 312.476562 86.703125 312.296875 88.429688 313.410156 Z M 88.429688 313.410156 "/>
<path style=" stroke:none;fill-rule:nonzero;fill:rgb(43.529412%,60.784316%,5.882353%);fill-opacity:1;" d="M 137.628906 23.96875 C 138.738281 24.839844 138.8125 26 138.773438 27.179688 C 138.75 27.835938 138.300781 28.109375 137.691406 28.183594 C 136.164062 28.367188 134.675781 28.132812 133.214844 27.714844 C 132.675781 27.5625 132.191406 27.308594 132.121094 26.65625 C 132.042969 25.9375 132.277344 25.214844 132.882812 24.945312 C 134.351562 24.292969 135.832031 23.515625 137.628906 23.96875 Z M 137.628906 23.96875 "/>
<path style=" stroke:none;fill-rule:nonzero;fill:rgb(72.549021%,84.705883%,14.117648%);fill-opacity:1;" d="M 233.691406 277.984375 C 233.773438 278.414062 233.859375 278.753906 233.878906 279.097656 C 233.964844 280.703125 233.601562 281.15625 231.984375 281.089844 C 230.800781 281.039062 229.617188 280.769531 228.449219 280.53125 C 227.820312 280.40625 227.28125 280.039062 227.203125 279.328125 C 227.128906 278.605469 227.46875 277.933594 228.089844 277.699219 C 229.34375 277.222656 230.644531 276.832031 231.957031 276.59375 C 232.828125 276.433594 233.332031 277.136719 233.691406 277.984375 Z M 233.691406 277.984375 "/>
<path style=" stroke:none;fill-rule:nonzero;fill:rgb(72.549021%,84.705883%,14.117648%);fill-opacity:1;" d="M 45.980469 191.53125 C 47.269531 191.207031 48.46875 190.886719 49.710938 191.300781 C 50.613281 191.601562 51.566406 191.945312 51.617188 193.058594 C 51.660156 194.070312 50.988281 194.71875 50.113281 195.207031 C 47.832031 196.484375 45.929688 195.03125 44.980469 193.527344 C 44.46875 192.714844 44.773438 192.167969 45.980469 191.53125 Z M 45.980469 191.53125 "/>
<path style=" stroke:none;fill-rule:nonzero;fill:rgb(43.529412%,60.784316%,5.882353%);fill-opacity:1;" d="M 117.734375 127.882812 C 117.902344 126.820312 118.460938 126.21875 119.429688 125.960938 C 120.214844 125.75 120.96875 125.421875 121.761719 125.242188 C 123.09375 124.933594 123.9375 125.476562 124.261719 126.8125 C 124.371094 127.257812 124.390625 127.734375 124.390625 128.195312 C 124.386719 129.253906 124.117188 129.589844 123.039062 129.675781 C 121.511719 129.804688 120.019531 129.515625 118.605469 128.960938 C 118.242188 128.816406 118.019531 128.308594 117.734375 127.882812 Z M 117.734375 127.882812 "/>
<path style=" stroke:none;fill-rule:nonzero;fill:rgb(72.549021%,84.705883%,14.117648%);fill-opacity:1;" d="M 33.65625 183.203125 C 34.671875 182.921875 35.59375 182.578125 36.542969 182.449219 C 37.636719 182.304688 38.125 182.671875 38.425781 183.746094 C 38.597656 184.367188 38.652344 185.042969 38.648438 185.695312 C 38.644531 186.464844 38.375 186.734375 37.589844 186.800781 C 36.070312 186.9375 34.558594 186.828125 33.109375 186.3125 C 31.777344 185.839844 31.570312 184.636719 32.65625 183.714844 C 32.910156 183.496094 33.265625 183.390625 33.65625 183.203125 Z M 33.65625 183.203125 "/>
<path style=" stroke:none;fill-rule:nonzero;fill:rgb(43.529412%,60.784316%,5.882353%);fill-opacity:1;" d="M 146.777344 36.625 C 146.179688 36.121094 145.59375 35.71875 145.152344 35.191406 C 144.496094 34.410156 144.664062 33.679688 145.5625 33.171875 C 145.960938 32.949219 146.417969 32.753906 146.867188 32.714844 C 147.75 32.632812 148.644531 32.65625 149.53125 32.660156 C 149.71875 32.660156 149.914062 32.734375 150.089844 32.8125 C 150.773438 33.105469 151.457031 33.429688 151.621094 34.261719 C 151.796875 35.148438 151.296875 35.746094 150.664062 36.238281 C 149.488281 37.148438 148.214844 37.335938 146.777344 36.625 Z M 146.777344 36.625 "/>
<path style=" stroke:none;fill-rule:nonzero;fill:rgb(72.549021%,84.705883%,14.117648%);fill-opacity:1;" d="M 240.195312 287.871094 C 239.855469 286.574219 239.996094 286.242188 241.0625 285.789062 C 242.363281 285.230469 243.722656 285.222656 245.054688 285.5625 C 245.886719 285.773438 246.75 286.238281 246.820312 287.203125 C 246.894531 288.167969 246.25 288.835938 245.398438 289.289062 C 243.460938 290.324219 241.84375 289.914062 240.195312 287.871094 Z M 240.195312 287.871094 "/>
<path style=" stroke:none;fill-rule:nonzero;fill:rgb(72.549021%,84.705883%,14.117648%);fill-opacity:1;" d="M 343.320312 325.324219 C 343.589844 326.042969 343.808594 326.710938 343.222656 327.242188 C 342.664062 327.746094 341.972656 327.589844 341.355469 327.339844 C 339.753906 326.683594 338.390625 325.671875 337.320312 324.308594 C 336.699219 323.519531 336.917969 322.757812 337.835938 322.332031 C 338.886719 321.847656 339.933594 321.84375 340.945312 322.453125 C 342.042969 323.113281 342.832031 324.039062 343.320312 325.324219 Z M 343.320312 325.324219 "/>
<path style=" stroke:none;fill-rule:nonzero;fill:rgb(63.137257%,79.607844%,12.156863%);fill-opacity:1;" d="M 81.898438 221.917969 C 82.179688 221.851562 82.367188 221.804688 82.554688 221.761719 C 84.191406 221.382812 85.421875 221.867188 86.34375 223.25 C 86.675781 223.746094 86.640625 224.082031 86.058594 224.378906 C 85.238281 224.796875 84.367188 225.117188 83.511719 225.460938 C 83.265625 225.5625 82.96875 225.546875 82.726562 225.65625 C 81.519531 226.191406 80.554688 225.746094 79.679688 224.925781 C 79.425781 224.6875 79.171875 224.449219 78.949219 224.183594 C 78.449219 223.585938 78.46875 223.117188 79.183594 222.785156 C 80.007812 222.402344 80.925781 222.214844 81.898438 221.917969 Z M 81.898438 221.917969 "/>
<path style=" stroke:none;fill-rule:nonzero;fill:rgb(43.529412%,60.784316%,5.882353%);fill-opacity:1;" d="M 299.394531 331.792969 C 298.25 331.9375 297.058594 331.269531 296.683594 330.347656 C 296.289062 329.371094 296.703125 328.292969 297.625 327.90625 C 299.546875 327.109375 302.570312 327.847656 303.933594 329.449219 C 304.480469 330.09375 304.378906 330.464844 303.582031 330.691406 C 303.359375 330.757812 303.125 330.789062 302.894531 330.792969 C 301.667969 330.8125 300.507812 331.058594 299.394531 331.792969 Z M 299.394531 331.792969 "/>
<path style=" stroke:none;fill-rule:nonzero;fill:rgb(63.137257%,79.607844%,12.156863%);fill-opacity:1;" d="M 116.117188 344.859375 C 116.898438 343.816406 118.015625 343.628906 119.117188 343.417969 C 119.535156 343.335938 119.984375 343.347656 120.371094 343.199219 C 121.292969 342.835938 122.050781 343.121094 122.722656 343.722656 C 123.203125 344.152344 123.632812 344.644531 124.160156 345.183594 C 123.855469 345.480469 123.671875 345.71875 123.433594 345.886719 C 122.160156 346.789062 120.667969 347.097656 119.171875 347.296875 C 117.957031 347.457031 116.496094 346.246094 116.117188 344.859375 Z M 116.117188 344.859375 "/>
<path style=" stroke:none;fill-rule:nonzero;fill:rgb(43.529412%,60.784316%,5.882353%);fill-opacity:1;" d="M 273.109375 316.953125 C 272.78125 317.738281 272.496094 318.449219 272.214844 319.144531 C 269.929688 318.816406 268.546875 315.917969 269.730469 314.054688 C 269.875 313.828125 270.050781 313.617188 270.21875 313.40625 C 270.945312 312.496094 271.664062 312.234375 272.519531 312.5625 C 273.402344 312.898438 274.378906 314.128906 274.316406 314.945312 C 274.289062 315.304688 274.097656 315.675781 273.90625 315.996094 C 273.707031 316.320312 273.410156 316.585938 273.109375 316.953125 Z M 273.109375 316.953125 "/>
<path style=" stroke:none;fill-rule:nonzero;fill:rgb(72.549021%,84.705883%,14.117648%);fill-opacity:1;" d="M 125.882812 63.460938 C 126.011719 64.132812 126.183594 64.695312 126.222656 65.269531 C 126.28125 66.210938 125.808594 66.546875 125.019531 66.074219 C 124.40625 65.707031 123.777344 65.226562 123.382812 64.644531 C 122.230469 62.929688 121.855469 61.015625 122.453125 58.996094 C 122.570312 58.597656 122.878906 58.117188 123.230469 57.949219 C 123.734375 57.714844 124.195312 58.128906 124.519531 58.523438 C 125.367188 59.550781 125.617188 60.808594 125.773438 62.085938 C 125.824219 62.507812 125.832031 62.9375 125.882812 63.460938 Z M 125.882812 63.460938 "/>
<path style=" stroke:none;fill-rule:nonzero;fill:rgb(72.549021%,84.705883%,14.117648%);fill-opacity:1;" d="M 217.832031 311.082031 C 218.671875 310.523438 219.476562 310.695312 219.933594 311.632812 C 220.332031 312.457031 220.589844 313.367188 220.785156 314.265625 C 221.007812 315.28125 221.101562 316.328125 221.242188 317.363281 C 221.277344 317.628906 221.308594 317.902344 221.296875 318.171875 C 221.246094 319.03125 220.835938 319.257812 220.0625 318.839844 C 218.414062 317.953125 217.675781 316.4375 217.425781 314.691406 C 217.253906 313.507812 217.222656 312.289062 217.832031 311.082031 Z M 217.832031 311.082031 "/>
<path style=" stroke:none;fill-rule:nonzero;fill:rgb(72.549021%,84.705883%,14.117648%);fill-opacity:1;" d="M 60.941406 337.953125 C 62.117188 338.414062 62.570312 339.390625 62.792969 340.402344 C 63.144531 342.019531 63.347656 343.671875 63.558594 345.316406 C 63.597656 345.613281 63.453125 346.136719 63.261719 346.214844 C 62.96875 346.328125 62.503906 346.234375 62.207031 346.070312 C 61.039062 345.414062 60.34375 344.363281 59.9375 343.105469 C 59.550781 341.902344 59.550781 340.660156 59.714844 339.433594 C 59.800781 338.78125 59.929688 338.011719 60.941406 337.953125 Z M 60.941406 337.953125 "/>
<path style=" stroke:none;fill-rule:nonzero;fill:rgb(72.549021%,84.705883%,14.117648%);fill-opacity:1;" d="M 23.476562 223.453125 C 22.203125 221.632812 21.867188 219.714844 22.367188 217.648438 C 22.484375 217.15625 22.613281 216.613281 23.214844 216.523438 C 23.808594 216.433594 24.277344 216.765625 24.570312 217.246094 C 24.871094 217.734375 25.199219 218.257812 25.308594 218.808594 C 25.625 220.398438 25.835938 222.007812 26.085938 223.609375 C 26.09375 223.644531 26.097656 223.6875 26.085938 223.722656 C 25.960938 224.105469 25.832031 224.484375 25.699219 224.867188 C 25.316406 224.730469 24.890625 224.660156 24.558594 224.445312 C 24.175781 224.199219 23.871094 223.832031 23.476562 223.453125 Z M 23.476562 223.453125 "/>
<path style=" stroke:none;fill-rule:nonzero;fill:rgb(63.137257%,79.607844%,12.156863%);fill-opacity:1;" d="M 107.527344 236.664062 C 106.367188 236.648438 105.371094 236.75 104.488281 237.472656 C 103.917969 237.9375 103.277344 237.792969 102.671875 237.355469 C 101.617188 236.585938 101.15625 235.808594 101.410156 234.964844 C 101.734375 233.914062 102.65625 233.585938 103.582031 233.503906 C 105.601562 233.324219 107.414062 233.851562 108.800781 235.4375 C 108.941406 235.601562 109.011719 235.824219 109.117188 236.015625 C 108.714844 236.570312 108.132812 236.523438 107.527344 236.664062 Z M 107.527344 236.664062 "/>
<path style=" stroke:none;fill-rule:nonzero;fill:rgb(43.529412%,60.784316%,5.882353%);fill-opacity:1;" d="M 125.292969 144.015625 C 125.042969 143.714844 124.773438 143.5 124.6875 143.226562 C 124.609375 142.980469 124.632812 142.574219 124.789062 142.402344 C 125.28125 141.867188 125.824219 141.363281 126.40625 140.929688 C 127.011719 140.476562 127.707031 140.421875 128.347656 140.898438 C 129.117188 141.472656 129.90625 142.035156 130.597656 142.695312 C 131.179688 143.253906 131.144531 143.59375 130.5625 144.167969 C 130.074219 144.652344 129.539062 145.105469 128.96875 145.484375 C 128.253906 145.957031 127.496094 145.929688 126.816406 145.378906 C 126.308594 144.964844 125.835938 144.511719 125.292969 144.015625 Z M 125.292969 144.015625 "/>
<path style=" stroke:none;fill-rule:nonzero;fill:rgb(63.137257%,79.607844%,12.156863%);fill-opacity:1;" d="M 141.847656 359 C 140.40625 359.324219 138.988281 358.394531 138.863281 357.144531 C 138.761719 356.097656 139.296875 355.265625 140.328125 355.121094 C 142.121094 354.867188 143.878906 355.007812 145.457031 356.046875 C 145.550781 356.109375 145.652344 356.171875 145.734375 356.253906 C 146.085938 356.597656 146.59375 356.910156 146.390625 357.496094 C 146.191406 358.078125 145.605469 358.0625 145.109375 358.054688 C 143.949219 358.03125 142.902344 358.347656 141.847656 359 Z M 141.847656 359 "/>
<path style=" stroke:none;fill-rule:nonzero;fill:rgb(72.549021%,84.705883%,14.117648%);fill-opacity:1;" d="M 234.4375 295.082031 C 233.898438 294.113281 233.898438 294.113281 234.558594 293.46875 C 236.578125 291.503906 236.867188 291.484375 239.125 293.230469 C 239.515625 293.535156 239.886719 293.878906 240.21875 294.25 C 240.582031 294.648438 240.582031 295.085938 240.175781 295.484375 C 240.117188 295.535156 240.070312 295.597656 240.011719 295.648438 C 237.617188 297.78125 237.039062 297.585938 235.058594 295.722656 C 234.863281 295.539062 234.679688 295.335938 234.4375 295.082031 Z M 234.4375 295.082031 "/>
<path style=" stroke:none;fill-rule:nonzero;fill:rgb(72.549021%,84.705883%,14.117648%);fill-opacity:1;" d="M 39.320312 199.363281 C 39.746094 198.960938 40.089844 198.589844 40.476562 198.273438 C 41.0625 197.785156 41.722656 197.703125 42.421875 198.046875 C 43.410156 198.53125 44.253906 199.195312 44.945312 200.042969 C 45.410156 200.617188 45.375 200.886719 44.867188 201.453125 C 44.789062 201.539062 44.710938 201.625 44.621094 201.699219 C 43.839844 202.320312 43.046875 203.277344 42.027344 202.988281 C 40.691406 202.609375 39.625 201.632812 38.898438 200.382812 C 38.632812 199.933594 38.960938 199.671875 39.320312 199.363281 Z M 39.320312 199.363281 "/>
<path style=" stroke:none;fill-rule:nonzero;fill:rgb(63.137257%,79.607844%,12.156863%);fill-opacity:1;" d="M 76.480469 218.324219 C 77.84375 218.34375 78.484375 219.183594 78.984375 220.203125 C 79.285156 220.820312 79.042969 221.378906 78.675781 221.828125 C 78.046875 222.585938 77.59375 223.414062 77.273438 224.34375 C 77.050781 224.996094 76.671875 225.09375 76.097656 224.722656 C 74.824219 223.910156 74.105469 222.710938 74.183594 221.21875 C 74.253906 219.835938 75.132812 218.898438 76.480469 218.324219 Z M 76.480469 218.324219 "/>
<path style=" stroke:none;fill-rule:nonzero;fill:rgb(63.137257%,79.607844%,12.156863%);fill-opacity:1;" d="M 113.65625 339.832031 C 115.03125 339.546875 115.660156 340.460938 116.210938 341.332031 C 116.730469 342.152344 116.421875 342.9375 115.851562 343.691406 C 115.417969 344.265625 115.097656 344.941406 114.78125 345.597656 C 114.386719 346.421875 114.167969 346.492188 113.363281 346.046875 C 111.574219 345.058594 110.867188 342.160156 112.664062 340.574219 C 112.953125 340.320312 113.273438 340.097656 113.65625 339.832031 Z M 113.65625 339.832031 "/>
<path style=" stroke:none;fill-rule:nonzero;fill:rgb(43.529412%,60.784316%,5.882353%);fill-opacity:1;" d="M 142.015625 39.226562 C 143.015625 39.882812 143.976562 40.464844 144.828125 41.179688 C 145.464844 41.714844 145.421875 42.164062 144.855469 42.769531 C 142.773438 44.988281 141.871094 44.855469 139.976562 42.941406 C 138.621094 41.570312 138.613281 41.585938 139.957031 40.253906 C 140.511719 39.707031 141.042969 39.128906 142.015625 39.226562 Z M 142.015625 39.226562 "/>
<path style=" stroke:none;fill-rule:nonzero;fill:rgb(72.549021%,84.705883%,14.117648%);fill-opacity:1;" d="M 80.691406 324.195312 C 79.839844 324.667969 79.101562 324.546875 78.460938 323.992188 C 77.792969 323.410156 77.160156 322.78125 76.539062 322.148438 C 76.183594 321.789062 76.203125 321.390625 76.570312 321.023438 C 76.597656 320.996094 76.625 320.96875 76.648438 320.941406 C 78.429688 318.878906 79.5625 318.828125 81.574219 320.722656 C 83.003906 322.074219 82.988281 322.511719 81.441406 323.699219 C 81.230469 323.863281 80.996094 324 80.691406 324.195312 Z M 80.691406 324.195312 "/>
<path style=" stroke:none;fill-rule:nonzero;fill:rgb(72.549021%,84.705883%,14.117648%);fill-opacity:1;" d="M 204.316406 53.75 C 204.988281 54.144531 205.640625 54.4375 206.144531 54.890625 C 206.800781 55.488281 206.742188 56.328125 206.070312 56.921875 C 205.273438 57.628906 204.324219 57.90625 203.269531 57.65625 C 201.964844 57.34375 200.960938 56.601562 200.285156 55.4375 C 199.792969 54.585938 199.984375 53.941406 200.9375 53.628906 C 201.507812 53.445312 202.148438 53.417969 202.753906 53.429688 C 203.25 53.441406 203.738281 53.617188 204.316406 53.75 Z M 204.316406 53.75 "/>
<path style=" stroke:none;fill-rule:nonzero;fill:rgb(72.549021%,84.705883%,14.117648%);fill-opacity:1;" d="M 194.730469 198.523438 C 193.472656 198.265625 192.621094 197.542969 191.9375 196.625 C 191.140625 195.554688 191.554688 194.539062 192.878906 194.355469 C 194.429688 194.136719 195.890625 194.460938 197.195312 195.335938 C 198.351562 196.113281 198.265625 197.460938 197.039062 198.136719 C 196.351562 198.515625 195.625 198.773438 194.730469 198.523438 Z M 194.730469 198.523438 "/>
<path style=" stroke:none;fill-rule:nonzero;fill:rgb(43.529412%,60.784316%,5.882353%);fill-opacity:1;" d="M 333.867188 316.257812 C 334.859375 316.683594 335.398438 317.449219 335.882812 318.25 C 336.332031 318.996094 336.246094 319.820312 335.746094 320.425781 C 335.203125 321.082031 334.523438 321.332031 333.671875 320.960938 C 332.867188 320.613281 332.085938 320.15625 331.410156 319.601562 C 330.722656 319.042969 330.71875 318.542969 331.09375 317.722656 C 331.648438 316.511719 332.394531 316.097656 333.867188 316.257812 Z M 333.867188 316.257812 "/>
<path style=" stroke:none;fill-rule:nonzero;fill:rgb(72.549021%,84.705883%,14.117648%);fill-opacity:1;" d="M 195.84375 50.890625 C 196.210938 52.09375 195.859375 52.695312 194.761719 52.566406 C 193.628906 52.429688 192.484375 52.140625 191.421875 51.71875 C 190.425781 51.324219 190.421875 50.332031 191.34375 49.757812 C 191.964844 49.371094 192.640625 49.082031 193.292969 48.75 C 193.730469 48.523438 194.132812 48.601562 194.433594 48.972656 C 194.910156 49.570312 195.347656 50.195312 195.84375 50.890625 Z M 195.84375 50.890625 "/>
<path style=" stroke:none;fill-rule:nonzero;fill:rgb(72.549021%,84.705883%,14.117648%);fill-opacity:1;" d="M 186.96875 191.140625 C 187.171875 191.523438 187.355469 191.820312 187.480469 192.140625 C 187.734375 192.792969 187.527344 193.207031 186.828125 193.304688 C 185.414062 193.5 184.046875 193.25 182.808594 192.558594 C 181.957031 192.082031 182.015625 191.121094 182.867188 190.613281 C 183.328125 190.335938 183.828125 190.128906 184.308594 189.878906 C 185.238281 189.390625 185.648438 189.449219 186.320312 190.226562 C 186.542969 190.484375 186.722656 190.789062 186.96875 191.140625 Z M 186.96875 191.140625 "/>
<path style=" stroke:none;fill-rule:nonzero;fill:rgb(72.549021%,84.705883%,14.117648%);fill-opacity:1;" d="M 183.496094 198.101562 C 183.078125 197.511719 183.175781 197.105469 183.742188 196.800781 C 184.117188 196.597656 184.484375 196.382812 184.84375 196.160156 C 185.628906 195.675781 185.792969 195.648438 186.421875 196.367188 C 186.976562 197.003906 187.476562 197.703125 187.910156 198.429688 C 188.402344 199.257812 188.101562 199.996094 187.171875 200.199219 C 186.722656 200.296875 186.109375 200.257812 185.75 200.015625 C 184.953125 199.488281 184.269531 198.796875 183.496094 198.101562 Z M 183.496094 198.101562 "/>
<path style=" stroke:none;fill-rule:nonzero;fill:rgb(72.549021%,84.705883%,14.117648%);fill-opacity:1;" d="M 193.734375 58.839844 C 193.160156 58.316406 192.628906 57.863281 192.167969 57.347656 C 191.59375 56.707031 191.671875 56.3125 192.382812 55.855469 C 192.609375 55.710938 192.855469 55.597656 193.089844 55.46875 C 194.253906 54.824219 194.582031 54.878906 195.40625 55.964844 C 195.777344 56.453125 196.128906 56.972656 196.398438 57.523438 C 196.910156 58.566406 196.363281 59.425781 195.207031 59.359375 C 194.730469 59.328125 194.273438 59.054688 193.734375 58.839844 Z M 193.734375 58.839844 "/>
<path style=" stroke:none;fill-rule:nonzero;fill:rgb(72.549021%,84.705883%,14.117648%);fill-opacity:1;" d="M 222.347656 50.195312 C 221.304688 50.296875 220.679688 49.695312 220.085938 49.082031 C 219.910156 48.902344 219.804688 48.613281 219.753906 48.355469 C 219.574219 47.429688 220.34375 46.519531 221.585938 46.136719 C 222.324219 45.910156 223.09375 46.292969 223.492188 47.078125 C 224.144531 48.363281 223.824219 49.304688 222.347656 50.195312 Z M 222.347656 50.195312 "/>
<path style=" stroke:none;fill-rule:nonzero;fill:rgb(72.549021%,84.705883%,14.117648%);fill-opacity:1;" d="M 382.511719 253.988281 C 381.828125 253.480469 381.132812 253.085938 380.652344 252.511719 C 379.859375 251.558594 380.488281 249.785156 381.683594 249.492188 C 381.957031 249.425781 382.445312 249.585938 382.59375 249.804688 C 383.144531 250.628906 383.742188 251.472656 384.050781 252.398438 C 384.417969 253.488281 383.753906 254.121094 382.511719 253.988281 Z M 382.511719 253.988281 "/>
<path style=" stroke:none;fill-rule:nonzero;fill:rgb(43.529412%,60.784316%,5.882353%);fill-opacity:1;" d="M 199.085938 31.53125 C 199.523438 32.203125 200.027344 32.773438 200.246094 33.441406 C 200.542969 34.34375 199.957031 34.894531 199.035156 34.625 C 197.785156 34.257812 196.753906 33.503906 196.007812 32.429688 C 195.601562 31.84375 195.789062 31.332031 196.445312 31.015625 C 197.40625 30.554688 198.238281 30.898438 199.085938 31.53125 Z M 199.085938 31.53125 "/>
<path style=" stroke:none;fill-rule:nonzero;fill:rgb(43.529412%,60.784316%,5.882353%);fill-opacity:1;" d="M 286.949219 321.453125 C 286.75 321.789062 286.601562 322.058594 286.449219 322.328125 C 285.984375 323.136719 285.183594 323.316406 284.410156 322.792969 C 283.933594 322.46875 283.757812 322.019531 284.023438 321.492188 C 284.59375 320.351562 285.453125 319.492188 286.683594 319.066406 C 287.152344 318.90625 287.617188 318.960938 287.933594 319.390625 C 288.277344 319.863281 288.046875 320.265625 287.71875 320.632812 C 287.484375 320.890625 287.242188 321.136719 286.949219 321.453125 Z M 286.949219 321.453125 "/>
<path style=" stroke:none;fill-rule:nonzero;fill:rgb(43.529412%,60.784316%,5.882353%);fill-opacity:1;" d="M 359.753906 187.695312 C 359.707031 188.082031 359.675781 188.421875 359.527344 188.707031 C 359.351562 189.042969 359.070312 189.316406 358.855469 189.632812 C 358.378906 190.332031 357.980469 190.445312 357.371094 189.871094 C 357 189.523438 356.65625 189.03125 356.546875 188.546875 C 356.3125 187.507812 357.136719 186.691406 358.167969 186.917969 C 358.707031 187.039062 359.199219 187.382812 359.753906 187.695312 Z M 359.753906 187.695312 "/>
<path style=" stroke:none;fill-rule:nonzero;fill:rgb(43.529412%,60.784316%,5.882353%);fill-opacity:1;" d="M 362.871094 190.675781 C 361.996094 189.730469 361.878906 189.082031 362.390625 188.367188 C 362.65625 187.996094 363.007812 187.738281 363.476562 187.84375 C 364.296875 188.03125 364.613281 188.714844 364.890625 189.410156 C 365.066406 189.851562 364.980469 190.242188 364.640625 190.578125 C 364.113281 191.097656 363.542969 191.074219 362.871094 190.675781 Z M 362.871094 190.675781 "/>
<path style=" stroke:none;fill-rule:nonzero;fill:rgb(43.529412%,60.784316%,5.882353%);fill-opacity:1;" d="M 358.871094 193.519531 C 358.925781 192.824219 359.402344 192.691406 359.867188 192.734375 C 360.394531 192.785156 360.949219 192.902344 361.40625 193.144531 C 361.675781 193.289062 361.957031 193.757812 361.921875 194.042969 C 361.886719 194.332031 361.503906 194.753906 361.214844 194.804688 C 360.765625 194.882812 360.210938 194.804688 359.804688 194.59375 C 359.425781 194.398438 359.183594 193.945312 358.871094 193.519531 Z M 358.871094 193.519531 "/>
<path style=" stroke:none;fill-rule:nonzero;fill:rgb(72.549021%,84.705883%,14.117648%);fill-opacity:1;" d="M 262.960938 396.753906 C 262.808594 396.410156 262.628906 396.125 262.628906 395.84375 C 262.632812 395.34375 262.9375 394.898438 263.417969 394.835938 C 263.722656 394.796875 264.144531 395.03125 264.382812 395.273438 C 264.976562 395.867188 265.078125 396.523438 264.738281 396.914062 C 264.320312 397.398438 263.851562 397.371094 262.960938 396.753906 Z M 262.960938 396.753906 "/>
<path style=" stroke:none;fill-rule:nonzero;fill:rgb(72.549021%,84.705883%,14.117648%);fill-opacity:1;" d="M 357.730469 355.289062 C 357.609375 355.492188 357.398438 355.765625 357.339844 355.738281 C 356.125 355.125 355.054688 354.34375 354.5 353.035156 C 354.492188 353.011719 354.53125 352.964844 354.546875 352.929688 C 355.523438 352.832031 356.503906 353.539062 357.730469 355.289062 Z M 357.730469 355.289062 "/>
<path style=" stroke:none;fill-rule:nonzero;fill:rgb(72.549021%,84.705883%,14.117648%);fill-opacity:1;" d="M 214.046875 234.40625 C 213.609375 233.894531 212.992188 233.585938 213.011719 232.855469 C 214.144531 232.730469 215.851562 234.203125 216.058594 235.5 C 215.160156 235.59375 214.699219 234.898438 214.046875 234.40625 Z M 214.046875 234.40625 "/>
<path style=" stroke:none;fill-rule:nonzero;fill:rgb(72.549021%,84.705883%,14.117648%);fill-opacity:1;" d="M 356.703125 191.445312 C 356.832031 191.855469 356.777344 192.132812 356.429688 192.289062 C 355.9375 192.503906 354.554688 192.121094 354.328125 191.660156 C 354.246094 191.496094 354.269531 191.1875 354.375 191.039062 C 354.886719 190.316406 355.820312 190.300781 356.425781 190.980469 C 356.527344 191.09375 356.59375 191.238281 356.703125 191.445312 Z M 356.703125 191.445312 "/>
<path style=" stroke:none;fill-rule:nonzero;fill:rgb(72.549021%,84.705883%,14.117648%);fill-opacity:1;" d="M 88.363281 328.175781 C 87.957031 327.695312 87.367188 327.402344 87.476562 326.703125 C 88.695312 326.730469 90.082031 328 90.191406 329.203125 C 89.414062 329.191406 88.957031 328.640625 88.363281 328.175781 Z M 88.363281 328.175781 "/>
<path style=" stroke:none;fill-rule:nonzero;fill:rgb(43.529412%,60.784316%,5.882353%);fill-opacity:1;" d="M 370.609375 190.101562 C 370.257812 191.097656 370.023438 191.285156 369.453125 191.0625 C 369.007812 190.886719 368.558594 190.578125 368.671875 190.070312 C 368.75 189.726562 369.101562 189.351562 369.429688 189.179688 C 369.90625 188.929688 370.308594 189.199219 370.535156 189.683594 C 370.582031 189.785156 370.585938 189.90625 370.609375 190.101562 Z M 370.609375 190.101562 "/>
<path style=" stroke:none;fill-rule:nonzero;fill:rgb(72.549021%,84.705883%,14.117648%);fill-opacity:1;" d="M 356.0625 193.730469 C 356.40625 194.082031 356.746094 194.363281 356.929688 194.726562 C 357.1875 195.238281 356.871094 195.648438 356.304688 195.648438 C 355.832031 195.648438 354.949219 195.109375 354.835938 194.660156 C 354.785156 194.453125 354.882812 194.085938 355.039062 193.984375 C 355.300781 193.808594 355.664062 193.785156 356.0625 193.730469 Z M 356.0625 193.730469 "/>
<path style=" stroke:none;fill-rule:nonzero;fill:rgb(72.549021%,84.705883%,14.117648%);fill-opacity:1;" d="M 246.890625 301.488281 C 246.113281 300.925781 245.355469 300.445312 245.164062 299.464844 C 246.328125 299.375 247.742188 300.589844 247.980469 301.839844 C 247.535156 302.082031 247.28125 301.683594 246.890625 301.488281 Z M 246.890625 301.488281 "/>
<path style=" stroke:none;fill-rule:nonzero;fill:rgb(43.529412%,60.784316%,5.882353%);fill-opacity:1;" d="M 135.867188 148.101562 C 137.195312 148.289062 138.351562 149.367188 138.457031 150.425781 C 137.324219 150.355469 136.121094 149.3125 135.867188 148.101562 Z M 135.867188 148.101562 "/>
<path style=" stroke:none;fill-rule:nonzero;fill:rgb(72.549021%,84.705883%,14.117648%);fill-opacity:1;" d="M 150.882812 46.726562 C 152.355469 47.726562 152.617188 48.027344 152.820312 48.941406 C 151.707031 49.03125 150.332031 47.855469 150.164062 46.582031 C 150.398438 46.617188 150.605469 46.652344 150.882812 46.726562 Z M 150.882812 46.726562 "/>
<path style=" stroke:none;fill-rule:nonzero;fill:rgb(72.549021%,84.705883%,14.117648%);fill-opacity:1;" d="M 50.492188 205.167969 C 51.582031 205.746094 52.28125 206.609375 52.992188 207.457031 C 52.941406 207.535156 52.886719 207.617188 52.832031 207.699219 C 52.589844 207.667969 52.277344 207.722656 52.117188 207.589844 C 51.421875 207.003906 50.738281 206.390625 50.109375 205.730469 C 49.851562 205.457031 49.945312 205.148438 50.492188 205.167969 Z M 50.492188 205.167969 "/>
<path style=" stroke:none;fill-rule:nonzero;fill:rgb(43.529412%,60.784316%,5.882353%);fill-opacity:1;" d="M 357.097656 182.660156 C 356.824219 182.320312 356.554688 181.988281 356.929688 181.703125 C 357.136719 181.546875 357.597656 181.464844 357.777344 181.589844 C 358.199219 181.882812 358.609375 182.265625 358.859375 182.707031 C 359.089844 183.109375 358.699219 183.503906 358.253906 183.347656 C 357.863281 183.207031 357.519531 182.933594 357.097656 182.660156 Z M 357.097656 182.660156 "/>
</g>
</svg>
