<?xml version="1.0" encoding="UTF-8"?>
<svg xmlns="http://www.w3.org/2000/svg" xmlns:xlink="http://www.w3.org/1999/xlink" width="120px" height="157px" viewBox="0 0 120 157" version="1.1">
<g id="surface1">
<path style=" stroke:none;fill-rule:nonzero;fill:rgb(98.431373%,59.215689%,3.529412%);fill-opacity:1;" d="M 64.492188 8.179688 C 65.457031 8.671875 66.007812 9.394531 66.609375 10.289062 C 67.257812 10.375 67.257812 10.375 67.996094 10.355469 C 69.113281 10.429688 69.707031 10.542969 70.472656 11.378906 C 71.132812 12.300781 71.34375 13.105469 71.367188 14.25 C 71.285156 14.601562 71.199219 14.957031 71.101562 15.304688 C 71.3125 15.425781 71.3125 15.425781 71.527344 15.546875 C 71.714844 15.65625 71.898438 15.765625 72.09375 15.882812 C 72.277344 15.988281 72.460938 16.09375 72.648438 16.207031 C 73.359375 16.730469 73.800781 17.191406 74.273438 17.941406 C 74.394531 18.902344 74.394531 18.902344 74.371094 19.9375 C 74.367188 20.28125 74.367188 20.625 74.363281 20.976562 C 74.238281 22.28125 74.238281 22.28125 73.746094 22.957031 C 73.191406 23.386719 73.191406 23.386719 72.554688 23.78125 C 71.910156 24.183594 71.378906 24.527344 70.835938 25.066406 C 70.769531 25.792969 70.769531 25.792969 70.792969 26.640625 C 70.800781 27.113281 70.800781 27.113281 70.804688 27.59375 C 70.8125 28.089844 70.8125 28.089844 70.820312 28.597656 C 70.828125 29.246094 70.835938 29.898438 70.84375 30.546875 C 70.847656 30.839844 70.855469 31.128906 70.859375 31.425781 C 70.839844 32.085938 70.765625 32.617188 70.574219 33.246094 C 70.78125 33.234375 70.988281 33.226562 71.199219 33.214844 C 71.894531 33.246094 71.894531 33.246094 72.421875 33.773438 C 72.539062 34.550781 72.539062 34.550781 72.421875 35.359375 C 71.792969 35.855469 71.386719 36.148438 70.574219 36.148438 C 70.617188 36.339844 70.664062 36.53125 70.714844 36.730469 C 70.949219 38.144531 70.691406 39.488281 69.933594 40.710938 C 67.933594 43.148438 65.683594 43.476562 62.644531 43.800781 C 62.554688 44.757812 62.46875 45.71875 62.378906 46.703125 C 62.894531 46.851562 62.894531 46.851562 63.417969 47 C 65.972656 47.851562 68.800781 49.8125 70.042969 52.246094 C 70.042969 52.859375 70.042969 53.476562 70.042969 54.09375 C 70.269531 54.785156 70.535156 55.445312 70.820312 56.117188 C 71.59375 58.519531 71.75 61.09375 71.921875 63.601562 C 71.945312 63.917969 71.96875 64.238281 71.992188 64.570312 C 72.210938 67.980469 72.234375 71.386719 72.230469 74.804688 C 72.230469 75.464844 72.230469 76.125 72.230469 76.785156 C 72.230469 78.152344 72.230469 79.519531 72.226562 80.886719 C 72.226562 82.285156 72.226562 83.683594 72.226562 85.085938 C 72.230469 86.792969 72.230469 88.5 72.230469 90.207031 C 72.230469 90.851562 72.230469 91.5 72.230469 92.144531 C 72.230469 93.042969 72.230469 93.941406 72.226562 94.835938 C 72.226562 95.101562 72.230469 95.367188 72.230469 95.640625 C 72.222656 96.871094 72.183594 97.820312 71.628906 98.949219 C 71.523438 102.605469 72.390625 106.441406 73.082031 110.015625 C 73.394531 111.644531 73.667969 113.273438 73.910156 114.914062 C 73.941406 115.125 73.976562 115.339844 74.007812 115.558594 C 74.503906 119 74.574219 122.457031 74.542969 125.929688 C 74.535156 126.566406 74.53125 127.207031 74.527344 127.847656 C 74.519531 129.660156 74.507812 131.472656 74.492188 133.285156 C 74.480469 134.402344 74.476562 135.523438 74.472656 136.640625 C 74.46875 137.0625 74.46875 137.480469 74.460938 137.902344 C 74.433594 140.109375 74.519531 142.246094 74.886719 144.429688 C 74.917969 144.617188 74.949219 144.804688 74.980469 144.996094 C 75.171875 146.011719 75.390625 146.757812 76.125 147.5 C 76.351562 147.582031 76.582031 147.664062 76.816406 147.75 C 77.023438 147.839844 77.230469 147.933594 77.445312 148.027344 C 77.660156 148.722656 77.660156 148.722656 77.710938 149.347656 C 77.917969 149.375 78.125 149.402344 78.335938 149.429688 C 79.03125 149.613281 79.03125 149.613281 79.558594 150.402344 C 80.230469 150.636719 80.902344 150.789062 81.589844 150.945312 C 82.203125 151.195312 82.203125 151.195312 82.550781 151.664062 C 82.730469 152.25 82.730469 152.25 82.730469 153.570312 C 73.660156 153.570312 64.589844 153.570312 55.242188 153.570312 C 55.230469 146.765625 55.230469 146.765625 55.230469 143.8125 C 55.226562 141.816406 55.226562 139.820312 55.222656 137.824219 C 55.199219 124.882812 55.199219 124.882812 55.402344 120.089844 C 55.507812 117.566406 55.554688 115.042969 55.589844 112.515625 C 55.59375 112.308594 55.597656 112.101562 55.597656 111.886719 C 55.617188 110.621094 55.632812 109.355469 55.648438 108.085938 C 55.660156 106.992188 55.675781 105.898438 55.691406 104.800781 C 55.71875 102.675781 55.746094 100.546875 55.769531 98.421875 C 55.519531 98.421875 55.265625 98.421875 55.007812 98.421875 C 54.675781 98.421875 54.34375 98.425781 54.003906 98.425781 C 53.675781 98.425781 53.347656 98.425781 53.007812 98.425781 C 51.886719 98.421875 50.777344 98.386719 49.660156 98.324219 C 49.46875 98.316406 49.28125 98.304688 49.085938 98.296875 C 47.148438 98.191406 47.148438 98.191406 46.519531 97.628906 C 46.105469 96.183594 46.339844 95.316406 46.949219 93.96875 C 47.574219 92.523438 48.117188 91.074219 48.566406 89.566406 C 48.621094 89.398438 48.671875 89.230469 48.726562 89.058594 C 49.84375 85.238281 49.773438 81.359375 49.761719 77.414062 C 49.757812 76.449219 49.761719 75.484375 49.765625 74.519531 C 49.765625 71.429688 49.699219 68.359375 49.457031 65.277344 C 49.4375 65.019531 49.414062 64.757812 49.394531 64.488281 C 49.261719 62.96875 49.039062 61.488281 48.742188 59.992188 C 48.613281 59.25 48.59375 58.539062 48.632812 57.785156 C 48.398438 57.699219 48.398438 57.699219 48.160156 57.613281 C 47.003906 57.148438 45.910156 56.699219 45.148438 55.667969 C 44.535156 54.175781 44.773438 52.484375 45.246094 50.992188 C 45.40625 50.710938 45.5625 50.425781 45.726562 50.132812 C 45.820312 49.960938 45.914062 49.789062 46.007812 49.609375 C 47.160156 47.59375 48.628906 46.390625 50.808594 45.582031 C 52.089844 45.238281 53.390625 45.167969 54.714844 45.121094 C 54.625 44.25 54.539062 43.378906 54.449219 42.480469 C 54.175781 42.507812 53.902344 42.535156 53.625 42.566406 C 52.285156 42.457031 51.933594 42.105469 51.011719 41.164062 C 51.011719 40.988281 51.011719 40.816406 51.011719 40.636719 C 50.695312 40.65625 50.378906 40.679688 50.054688 40.703125 C 48.871094 40.703125 48.226562 40.339844 47.3125 39.578125 C 46.742188 38.726562 46.730469 38.449219 46.785156 37.46875 C 46.550781 37.398438 46.316406 37.328125 46.074219 37.253906 C 44.964844 36.859375 44.167969 36.492188 43.398438 35.589844 C 42.964844 34.546875 42.964844 33.570312 43.082031 32.457031 C 43.214844 32.324219 43.214844 32.324219 43.347656 32.191406 C 43.054688 32.035156 42.757812 31.875 42.457031 31.714844 C 41.6875 31.300781 41.480469 31.109375 40.96875 30.34375 C 40.820312 28.480469 40.820312 28.480469 41.367188 27.574219 C 41.496094 27.441406 41.628906 27.3125 41.761719 27.179688 C 41.605469 27.117188 41.445312 27.058594 41.28125 26.996094 C 40.515625 26.539062 40.300781 26.136719 39.910156 25.332031 C 39.664062 23.726562 39.445312 21.851562 40.339844 20.433594 C 41.292969 19.574219 42.078125 19.191406 43.347656 19 C 43.316406 18.84375 43.285156 18.691406 43.253906 18.535156 C 43.0625 17.378906 43 16.796875 43.53125 15.714844 C 44.09375 15.09375 44.40625 14.761719 45.199219 14.511719 C 45.546875 14.511719 45.894531 14.511719 46.253906 14.511719 C 46.328125 14.3125 46.398438 14.109375 46.46875 13.902344 C 46.78125 13.203125 46.96875 12.851562 47.578125 12.402344 C 48.253906 12.238281 48.253906 12.238281 48.898438 12.136719 C 49.074219 12.050781 49.246094 11.964844 49.425781 11.875 C 49.449219 11.714844 49.472656 11.558594 49.492188 11.394531 C 49.816406 10.449219 50.40625 10.207031 51.277344 9.761719 C 52.351562 9.570312 53.195312 9.664062 54.183594 10.160156 C 54.359375 10.289062 54.535156 10.421875 54.714844 10.554688 C 54.921875 10.300781 55.128906 10.042969 55.339844 9.78125 C 55.746094 9.277344 55.980469 9 56.5625 8.707031 C 58.628906 8.5 58.628906 8.5 59.570312 9.121094 C 59.710938 9.246094 59.855469 9.371094 60 9.5 C 60.261719 9.410156 60.523438 9.324219 60.792969 9.234375 C 60.792969 9.0625 60.792969 8.886719 60.792969 8.707031 C 61.972656 7.921875 63.109375 7.984375 64.492188 8.179688 Z M 63.964844 105.808594 C 63.464844 106.230469 63.199219 106.484375 63.046875 107.128906 C 63.035156 107.328125 63.023438 107.527344 63.011719 107.734375 C 63 107.964844 62.984375 108.191406 62.96875 108.425781 C 62.957031 108.675781 62.941406 108.921875 62.929688 109.175781 C 62.914062 109.433594 62.898438 109.691406 62.882812 109.957031 C 62.832031 110.785156 62.789062 111.613281 62.742188 112.441406 C 62.710938 112.984375 62.679688 113.527344 62.644531 114.070312 C 62.582031 115.136719 62.519531 116.199219 62.460938 117.265625 C 62.414062 118.152344 62.359375 119.039062 62.300781 119.925781 C 62.09375 122.984375 62.050781 126.035156 62.046875 129.097656 C 62.046875 129.359375 62.046875 129.625 62.046875 129.898438 C 61.597656 139.410156 61.597656 139.410156 64.757812 147.765625 C 64.992188 147.855469 65.226562 147.949219 65.46875 148.046875 C 65.667969 148.125 65.871094 148.207031 66.078125 148.292969 C 66.292969 148.851562 66.292969 148.851562 66.34375 149.347656 C 66.519531 149.347656 66.691406 149.347656 66.871094 149.347656 C 66.875 149.085938 66.875 149.085938 66.878906 148.816406 C 66.910156 146.945312 66.941406 145.070312 66.96875 143.199219 C 66.980469 142.507812 66.992188 141.8125 67.003906 141.121094 C 67.070312 136.882812 67.171875 132.652344 67.34375 128.417969 C 67.589844 122.210938 67.050781 116.273438 65.707031 110.210938 C 65.570312 109.585938 65.441406 108.960938 65.316406 108.335938 C 65.21875 107.871094 65.21875 107.871094 65.121094 107.394531 C 65.070312 107.136719 65.015625 106.882812 64.960938 106.617188 C 64.894531 106.4375 64.828125 106.257812 64.757812 106.074219 C 64.496094 105.988281 64.234375 105.898438 63.964844 105.808594 Z M 63.964844 105.808594 "/>
<path style=" stroke:none;fill-rule:nonzero;fill:rgb(47.843137%,78.823531%,96.470588%);fill-opacity:1;" d="M 56.035156 98.421875 C 56.921875 98.71875 57.246094 99.082031 57.886719 99.742188 C 58.058594 99.828125 58.234375 99.914062 58.414062 100.003906 C 58.546875 100.542969 58.546875 100.542969 58.640625 101.242188 C 58.671875 101.492188 58.707031 101.742188 58.742188 101.996094 C 58.777344 102.261719 58.808594 102.523438 58.84375 102.792969 C 58.878906 103.054688 58.914062 103.316406 58.949219 103.589844 C 59.039062 104.242188 59.125 104.894531 59.207031 105.546875 C 59.753906 105.691406 60.222656 105.808594 60.792969 105.808594 C 60.878906 105.984375 60.96875 106.160156 61.058594 106.335938 C 61.433594 106.3125 61.433594 106.3125 61.816406 106.289062 C 62.089844 106.304688 62.363281 106.320312 62.644531 106.335938 C 63.222656 107.203125 63.230469 107.390625 63.183594 108.382812 C 63.171875 108.640625 63.164062 108.902344 63.152344 109.167969 C 63.136719 109.453125 63.121094 109.738281 63.105469 110.03125 C 63.09375 110.335938 63.078125 110.640625 63.066406 110.953125 C 62.984375 112.660156 62.886719 114.367188 62.769531 116.070312 C 60.953125 132.03125 60.953125 132.03125 64.34375 147.054688 C 64.746094 147.554688 64.746094 147.554688 65.453125 147.765625 C 65.660156 147.851562 65.867188 147.9375 66.078125 148.027344 C 66.261719 148.574219 66.261719 148.574219 66.34375 149.085938 C 66.519531 149.171875 66.691406 149.257812 66.871094 149.347656 C 66.871094 149.171875 66.871094 148.996094 66.871094 148.816406 C 66.863281 146.945312 66.859375 145.070312 66.859375 143.199219 C 66.855469 142.507812 66.855469 141.8125 66.851562 141.121094 C 66.835938 136.621094 66.914062 132.136719 67.109375 127.640625 C 67.34375 121.695312 66.679688 116.015625 65.433594 110.210938 C 64.625 106.339844 64.625 106.339844 65.023438 105.546875 C 65.09375 104.929688 65.140625 104.316406 65.1875 103.699219 C 65.234375 103.4375 65.234375 103.4375 65.285156 103.171875 C 65.460938 103.085938 65.636719 102.996094 65.816406 102.90625 C 65.824219 102.597656 65.835938 102.289062 65.847656 101.96875 C 65.855469 101.792969 65.859375 101.617188 65.867188 101.4375 C 65.820312 100.582031 65.820312 100.582031 65.285156 98.949219 C 67.292969 98.949219 69.296875 98.949219 71.367188 98.949219 C 71.496094 99.847656 71.496094 99.847656 71.625 100.761719 C 71.714844 101.359375 71.800781 101.953125 71.886719 102.550781 C 71.945312 102.957031 72.003906 103.363281 72.0625 103.769531 C 72.394531 106.085938 72.761719 108.386719 73.203125 110.683594 C 73.472656 112.089844 73.707031 113.496094 73.910156 114.914062 C 73.941406 115.125 73.972656 115.332031 74.007812 115.550781 C 74.503906 118.996094 74.574219 122.453125 74.542969 125.929688 C 74.535156 126.566406 74.53125 127.207031 74.527344 127.847656 C 74.519531 129.660156 74.507812 131.472656 74.492188 133.285156 C 74.480469 134.402344 74.476562 135.523438 74.472656 136.640625 C 74.46875 137.0625 74.46875 137.480469 74.460938 137.902344 C 74.433594 140.109375 74.519531 142.246094 74.886719 144.429688 C 74.917969 144.617188 74.949219 144.804688 74.980469 144.996094 C 75.171875 146.011719 75.390625 146.757812 76.125 147.5 C 76.351562 147.582031 76.582031 147.664062 76.816406 147.75 C 77.023438 147.839844 77.230469 147.933594 77.445312 148.027344 C 77.660156 148.722656 77.660156 148.722656 77.710938 149.347656 C 78.019531 149.390625 78.019531 149.390625 78.335938 149.429688 C 79.03125 149.613281 79.03125 149.613281 79.558594 150.402344 C 80.230469 150.636719 80.902344 150.789062 81.589844 150.945312 C 82.203125 151.195312 82.203125 151.195312 82.550781 151.664062 C 82.730469 152.25 82.730469 152.25 82.730469 153.570312 C 73.660156 153.570312 64.589844 153.570312 55.242188 153.570312 C 55.230469 146.765625 55.230469 146.765625 55.230469 143.8125 C 55.226562 141.816406 55.226562 139.820312 55.222656 137.824219 C 55.199219 124.878906 55.199219 124.878906 55.402344 120.070312 C 55.507812 117.597656 55.550781 115.125 55.582031 112.652344 C 55.582031 112.449219 55.585938 112.246094 55.589844 112.039062 C 55.613281 110.179688 55.632812 108.320312 55.652344 106.460938 C 55.664062 105.425781 55.675781 104.394531 55.691406 103.359375 C 55.695312 102.78125 55.703125 102.207031 55.707031 101.628906 C 55.714844 101.113281 55.714844 101.113281 55.722656 100.582031 C 55.722656 100.28125 55.726562 99.976562 55.730469 99.664062 C 55.769531 98.949219 55.769531 98.949219 56.035156 98.421875 Z M 56.035156 98.421875 "/>
<path style=" stroke:none;fill-rule:nonzero;fill:rgb(4.705882%,4.313726%,4.313726%);fill-opacity:1;" d="M 64.492188 8.179688 C 65.457031 8.671875 66.007812 9.394531 66.609375 10.289062 C 67.257812 10.375 67.257812 10.375 67.996094 10.355469 C 69.113281 10.429688 69.707031 10.542969 70.472656 11.378906 C 71.132812 12.300781 71.34375 13.105469 71.367188 14.25 C 71.285156 14.601562 71.199219 14.957031 71.101562 15.304688 C 71.3125 15.425781 71.3125 15.425781 71.527344 15.546875 C 71.714844 15.65625 71.898438 15.765625 72.09375 15.882812 C 72.277344 15.988281 72.460938 16.09375 72.648438 16.207031 C 73.359375 16.730469 73.800781 17.191406 74.273438 17.941406 C 74.394531 18.902344 74.394531 18.902344 74.371094 19.9375 C 74.367188 20.28125 74.367188 20.625 74.363281 20.976562 C 74.28125 21.824219 74.234375 22.277344 73.746094 22.957031 C 73.199219 23.394531 73.199219 23.394531 72.570312 23.796875 C 72.363281 23.933594 72.15625 24.066406 71.945312 24.203125 C 70.972656 24.765625 70.324219 24.824219 69.234375 24.703125 C 68.886719 24.667969 68.886719 24.667969 68.53125 24.632812 C 67.929688 24.539062 67.929688 24.539062 67.402344 24.277344 C 67.375 24.433594 67.347656 24.589844 67.316406 24.753906 C 67.109375 25.414062 66.871094 25.679688 66.34375 26.121094 C 65.609375 26.488281 65.039062 26.4375 64.230469 26.386719 C 63.835938 26.125 63.835938 26.125 63.4375 25.859375 C 63.375 26.058594 63.316406 26.261719 63.253906 26.46875 C 62.832031 27.335938 62.453125 27.570312 61.585938 27.96875 C 61.324219 27.96875 61.0625 27.96875 60.792969 27.96875 C 60.792969 28.839844 60.792969 29.710938 60.792969 30.609375 C 59.734375 30.082031 59.734375 30.082031 59.207031 29.554688 C 58.527344 29.382812 58.527344 29.382812 57.886719 29.289062 C 57.171875 30.621094 56.964844 31.722656 57.09375 33.246094 C 57.496094 34.214844 58.042969 35.320312 58.941406 35.886719 C 59.902344 35.953125 59.902344 35.953125 60.792969 35.886719 C 60.953125 38.859375 60.953125 38.859375 60 40.109375 C 58.664062 41.058594 57.371094 41.265625 55.769531 41.425781 C 55.507812 41.601562 55.246094 41.773438 54.976562 41.953125 C 53.742188 42.117188 52.652344 42.09375 51.507812 41.59375 C 51.34375 41.449219 51.183594 41.308594 51.011719 41.164062 C 51.011719 40.988281 51.011719 40.816406 51.011719 40.636719 C 50.695312 40.65625 50.378906 40.679688 50.054688 40.703125 C 48.871094 40.703125 48.226562 40.339844 47.3125 39.578125 C 46.742188 38.726562 46.730469 38.449219 46.785156 37.46875 C 46.550781 37.398438 46.316406 37.328125 46.074219 37.253906 C 44.964844 36.859375 44.167969 36.492188 43.398438 35.589844 C 42.964844 34.546875 42.964844 33.570312 43.082031 32.457031 C 43.214844 32.324219 43.214844 32.324219 43.347656 32.191406 C 43.054688 32.035156 42.757812 31.875 42.457031 31.714844 C 41.6875 31.300781 41.480469 31.109375 40.96875 30.34375 C 40.820312 28.480469 40.820312 28.480469 41.367188 27.574219 C 41.496094 27.441406 41.628906 27.3125 41.761719 27.179688 C 41.605469 27.117188 41.445312 27.058594 41.28125 26.996094 C 40.515625 26.539062 40.300781 26.136719 39.910156 25.332031 C 39.664062 23.726562 39.445312 21.851562 40.339844 20.433594 C 41.292969 19.574219 42.078125 19.191406 43.347656 19 C 43.316406 18.84375 43.285156 18.691406 43.253906 18.535156 C 43.0625 17.378906 43 16.796875 43.53125 15.714844 C 44.09375 15.09375 44.40625 14.761719 45.199219 14.511719 C 45.546875 14.511719 45.894531 14.511719 46.253906 14.511719 C 46.328125 14.3125 46.398438 14.109375 46.46875 13.902344 C 46.78125 13.203125 46.96875 12.851562 47.578125 12.402344 C 48.253906 12.238281 48.253906 12.238281 48.898438 12.136719 C 49.074219 12.050781 49.246094 11.964844 49.425781 11.875 C 49.449219 11.714844 49.472656 11.558594 49.492188 11.394531 C 49.816406 10.449219 50.40625 10.207031 51.277344 9.761719 C 52.351562 9.570312 53.195312 9.664062 54.183594 10.160156 C 54.359375 10.289062 54.535156 10.421875 54.714844 10.554688 C 54.921875 10.300781 55.128906 10.042969 55.339844 9.78125 C 55.746094 9.277344 55.980469 9 56.5625 8.707031 C 58.628906 8.5 58.628906 8.5 59.570312 9.121094 C 59.710938 9.246094 59.855469 9.371094 60 9.5 C 60.261719 9.410156 60.523438 9.324219 60.792969 9.234375 C 60.792969 9.0625 60.792969 8.886719 60.792969 8.707031 C 61.972656 7.921875 63.109375 7.984375 64.492188 8.179688 Z M 64.492188 8.179688 "/>
<path style=" stroke:none;fill-rule:nonzero;fill:rgb(99.215686%,67.843139%,24.705882%);fill-opacity:1;" d="M 66.078125 50.664062 C 66.429688 50.75 66.777344 50.835938 67.136719 50.925781 C 67.398438 51.972656 67.660156 53.015625 67.929688 54.09375 C 68.582031 54.222656 68.582031 54.222656 69.25 54.355469 C 69.25 54.195312 69.25 54.03125 69.25 53.863281 C 69.25 52.972656 69.25 52.082031 69.25 51.191406 C 69.648438 51.601562 69.648438 51.601562 70.042969 52.246094 C 70.039062 52.511719 70.03125 52.777344 70.027344 53.054688 C 70.046875 54.238281 70.359375 55.035156 70.820312 56.117188 C 71.59375 58.519531 71.75 61.09375 71.921875 63.601562 C 71.945312 63.917969 71.96875 64.238281 71.992188 64.570312 C 72.210938 67.980469 72.234375 71.386719 72.230469 74.804688 C 72.230469 75.464844 72.230469 76.125 72.230469 76.785156 C 72.230469 78.152344 72.230469 79.519531 72.226562 80.886719 C 72.226562 82.285156 72.226562 83.683594 72.226562 85.085938 C 72.230469 86.792969 72.230469 88.5 72.230469 90.207031 C 72.230469 90.851562 72.230469 91.5 72.230469 92.144531 C 72.230469 93.042969 72.230469 93.941406 72.226562 94.835938 C 72.226562 95.101562 72.230469 95.367188 72.230469 95.640625 C 72.214844 98 72.214844 98 71.628906 98.949219 C 70.867188 99.203125 70.394531 99.246094 69.601562 99.238281 C 69.367188 99.238281 69.132812 99.238281 68.886719 99.238281 C 68.519531 99.234375 68.519531 99.234375 68.144531 99.230469 C 67.769531 99.226562 67.769531 99.226562 67.390625 99.226562 C 66.777344 99.222656 66.164062 99.21875 65.550781 99.214844 C 65.636719 99.449219 65.722656 99.6875 65.8125 99.933594 C 66.140625 101 66.117188 101.800781 66.078125 102.90625 C 65.816406 102.996094 65.554688 103.082031 65.285156 103.171875 C 65.289062 103.335938 65.292969 103.503906 65.296875 103.671875 C 65.296875 103.886719 65.300781 104.105469 65.304688 104.324219 C 65.304688 104.539062 65.308594 104.753906 65.3125 104.976562 C 65.285156 105.546875 65.285156 105.546875 65.023438 106.074219 C 64.527344 106.222656 64.527344 106.222656 63.964844 106.335938 C 63.140625 106.507812 63.140625 106.507812 62.90625 107.128906 C 62.777344 106.867188 62.777344 106.867188 62.644531 106.601562 C 62.121094 106.601562 61.597656 106.601562 61.058594 106.601562 C 60.96875 106.339844 60.882812 106.078125 60.792969 105.808594 C 60.585938 105.863281 60.378906 105.917969 60.164062 105.976562 C 59.9375 106.007812 59.707031 106.039062 59.472656 106.074219 C 58.746094 105.351562 58.78125 104.789062 58.644531 103.78125 C 58.601562 103.464844 58.558594 103.148438 58.511719 102.820312 C 58.417969 101.875 58.398438 100.957031 58.414062 100.003906 C 58.238281 99.917969 58.066406 99.832031 57.886719 99.742188 C 58.148438 99.742188 58.410156 99.742188 58.679688 99.742188 C 58.6875 99.59375 58.699219 99.449219 58.710938 99.296875 C 59.0625 98.371094 59.675781 97.824219 60.527344 97.367188 C 61.617188 97.179688 62.640625 97.34375 63.699219 97.628906 C 63.640625 97.339844 63.578125 97.050781 63.515625 96.75 C 63.285156 95.664062 63.054688 94.578125 62.824219 93.492188 C 62.726562 93.023438 62.628906 92.554688 62.527344 92.085938 C 62.027344 89.714844 61.527344 87.34375 61.058594 84.964844 C 60.96875 84.527344 60.882812 84.089844 60.792969 83.65625 C 60.566406 82.53125 60.34375 81.410156 60.121094 80.289062 C 60.019531 79.789062 59.917969 79.292969 59.8125 78.792969 C 59.332031 76.386719 59.410156 74.132812 59.816406 71.722656 C 59.890625 71.257812 59.960938 70.792969 60.035156 70.332031 C 60.074219 70.089844 60.109375 69.851562 60.148438 69.605469 C 60.460938 67.601562 60.730469 65.59375 61 63.585938 C 61.070312 63.070312 61.144531 62.554688 61.214844 62.035156 C 62.234375 57.167969 62.234375 57.167969 61.320312 52.558594 C 61.148438 52.367188 60.972656 52.179688 60.792969 51.980469 C 62.769531 51.851562 64.269531 52.234375 66.078125 53.035156 C 66.167969 53.125 66.253906 53.210938 66.34375 53.300781 C 66.304688 53.152344 66.265625 53.007812 66.226562 52.855469 C 66.070312 52.214844 65.921875 51.578125 65.816406 50.925781 C 65.902344 50.839844 65.988281 50.75 66.078125 50.664062 Z M 66.078125 50.664062 "/>
<path style=" stroke:none;fill-rule:nonzero;fill:rgb(47.450981%,79.215688%,96.470588%);fill-opacity:1;" d="M 65.285156 98.949219 C 67.292969 98.949219 69.296875 98.949219 71.367188 98.949219 C 71.496094 99.847656 71.496094 99.847656 71.625 100.761719 C 71.714844 101.359375 71.800781 101.953125 71.886719 102.550781 C 71.945312 102.957031 72.003906 103.363281 72.0625 103.769531 C 72.394531 106.085938 72.761719 108.386719 73.203125 110.683594 C 73.472656 112.089844 73.707031 113.496094 73.910156 114.914062 C 73.957031 115.226562 73.957031 115.226562 74.007812 115.550781 C 74.558594 119.386719 74.574219 123.242188 74.5625 127.109375 C 74.5625 127.59375 74.5625 128.078125 74.5625 128.5625 C 74.5625 129.824219 74.558594 131.085938 74.554688 132.347656 C 74.554688 133.640625 74.550781 134.933594 74.550781 136.226562 C 74.546875 138.753906 74.542969 141.28125 74.539062 143.808594 C 74.363281 143.71875 74.1875 143.632812 74.007812 143.542969 C 73.511719 143.503906 73.011719 143.476562 72.511719 143.460938 C 72.214844 143.449219 71.917969 143.4375 71.613281 143.425781 C 71.300781 143.414062 70.992188 143.40625 70.671875 143.394531 C 70.359375 143.382812 70.046875 143.371094 69.722656 143.359375 C 68.949219 143.332031 68.175781 143.304688 67.402344 143.277344 C 67.3125 145.367188 67.226562 147.457031 67.136719 149.613281 C 66.699219 149.523438 66.265625 149.4375 65.816406 149.347656 C 65.796875 149.183594 65.78125 149.019531 65.765625 148.851562 C 65.597656 148.21875 65.597656 148.21875 64.875 147.960938 C 64.554688 147.863281 64.554688 147.863281 64.230469 147.765625 C 64.359375 147.503906 64.359375 147.503906 64.492188 147.238281 C 65.269531 147.566406 65.269531 147.566406 66.078125 148.027344 C 66.277344 148.589844 66.277344 148.589844 66.34375 149.085938 C 66.519531 149.171875 66.691406 149.257812 66.871094 149.347656 C 66.871094 149.171875 66.871094 148.996094 66.871094 148.816406 C 66.863281 146.945312 66.859375 145.070312 66.859375 143.199219 C 66.855469 142.507812 66.855469 141.8125 66.851562 141.121094 C 66.835938 136.621094 66.914062 132.136719 67.109375 127.640625 C 67.34375 121.695312 66.679688 116.015625 65.433594 110.210938 C 64.625 106.339844 64.625 106.339844 65.023438 105.546875 C 65.09375 104.929688 65.140625 104.316406 65.1875 103.699219 C 65.21875 103.523438 65.253906 103.351562 65.285156 103.171875 C 65.460938 103.085938 65.636719 102.996094 65.816406 102.90625 C 65.824219 102.597656 65.835938 102.289062 65.847656 101.96875 C 65.855469 101.792969 65.859375 101.617188 65.867188 101.4375 C 65.820312 100.582031 65.820312 100.582031 65.285156 98.949219 Z M 65.285156 98.949219 "/>
<path style=" stroke:none;fill-rule:nonzero;fill:rgb(96.470588%,77.64706%,54.11765%);fill-opacity:1;" d="M 67.402344 24.277344 C 68.449219 24.363281 69.496094 24.449219 70.574219 24.539062 C 70.855469 25.382812 70.871094 25.988281 70.871094 26.871094 C 70.871094 27.175781 70.871094 27.476562 70.875 27.789062 C 70.871094 28.105469 70.871094 28.417969 70.871094 28.746094 C 70.871094 29.058594 70.871094 29.375 70.875 29.699219 C 70.871094 30 70.871094 30.304688 70.871094 30.617188 C 70.871094 30.890625 70.871094 31.167969 70.871094 31.453125 C 70.839844 32.097656 70.757812 32.632812 70.574219 33.246094 C 70.882812 33.230469 70.882812 33.230469 71.199219 33.214844 C 71.894531 33.246094 71.894531 33.246094 72.421875 33.773438 C 72.539062 34.550781 72.539062 34.550781 72.421875 35.359375 C 71.792969 35.855469 71.386719 36.148438 70.574219 36.148438 C 70.617188 36.339844 70.664062 36.53125 70.714844 36.730469 C 70.949219 38.144531 70.691406 39.488281 69.933594 40.710938 C 67.933594 43.148438 65.683594 43.476562 62.644531 43.800781 C 62.554688 44.757812 62.46875 45.71875 62.378906 46.703125 C 62.722656 46.800781 63.066406 46.898438 63.417969 47 C 64.824219 47.460938 65.949219 48.214844 67.136719 49.078125 C 66.261719 49.078125 65.898438 48.90625 65.125 48.519531 C 64.886719 48.402344 64.648438 48.285156 64.402344 48.167969 C 63.90625 47.917969 63.410156 47.671875 62.914062 47.425781 C 60.378906 46.1875 58.320312 45.832031 55.507812 45.746094 C 55.226562 45.738281 54.945312 45.726562 54.65625 45.714844 C 53.972656 45.691406 53.285156 45.667969 52.597656 45.648438 C 52.597656 45.5625 52.597656 45.472656 52.597656 45.386719 C 53.296875 45.296875 53.996094 45.210938 54.714844 45.121094 C 54.625 44.25 54.539062 43.378906 54.449219 42.480469 C 54.164062 42.503906 53.882812 42.527344 53.589844 42.546875 C 52.597656 42.480469 52.597656 42.480469 51.953125 41.953125 C 51.820312 41.78125 51.683594 41.605469 51.542969 41.425781 C 51.804688 41.515625 52.066406 41.601562 52.335938 41.691406 C 52.773438 41.722656 53.214844 41.738281 53.65625 41.738281 C 53.886719 41.742188 54.113281 41.746094 54.351562 41.75 C 55.046875 41.734375 55.046875 41.734375 55.769531 41.164062 C 56.242188 41.066406 56.714844 40.984375 57.191406 40.914062 C 58.710938 40.65625 58.710938 40.65625 60 39.84375 C 60.714844 38.667969 60.695312 37.230469 60.792969 35.886719 C 60.390625 36.015625 60.390625 36.015625 59.984375 36.148438 C 58.941406 36.148438 58.941406 36.148438 58.417969 35.726562 C 57.152344 34.292969 56.726562 33.34375 56.828125 31.398438 C 57.09375 30.570312 57.398438 30.015625 57.886719 29.289062 C 58.480469 29.15625 58.480469 29.15625 59.207031 29.289062 C 59.792969 29.6875 60.269531 30.125 60.792969 30.609375 C 60.792969 29.738281 60.792969 28.867188 60.792969 27.96875 C 61.328125 27.730469 61.859375 27.488281 62.394531 27.25 C 62.996094 26.855469 63.171875 26.515625 63.4375 25.859375 C 63.59375 25.882812 63.753906 25.902344 63.917969 25.925781 C 64.234375 25.964844 64.234375 25.964844 64.558594 26.007812 C 64.769531 26.035156 64.976562 26.0625 65.191406 26.089844 C 65.832031 26.125 66.277344 26.097656 66.871094 25.859375 C 67.21875 25.066406 67.21875 25.066406 67.402344 24.277344 Z M 67.402344 24.277344 "/>
<path style=" stroke:none;fill-rule:nonzero;fill:rgb(63.529414%,36.862746%,23.529412%);fill-opacity:1;" d="M 56.769531 142.980469 C 58.742188 142.984375 60.683594 143.054688 62.644531 143.277344 C 62.710938 143.515625 62.777344 143.75 62.847656 143.992188 C 62.9375 144.300781 63.027344 144.609375 63.121094 144.929688 C 63.210938 145.234375 63.300781 145.539062 63.390625 145.855469 C 63.675781 146.644531 63.925781 147.15625 64.492188 147.765625 C 64.722656 147.851562 64.953125 147.9375 65.1875 148.027344 C 65.394531 148.117188 65.601562 148.203125 65.816406 148.292969 C 66.03125 148.851562 66.03125 148.851562 66.078125 149.347656 C 66.429688 149.433594 66.777344 149.523438 67.136719 149.613281 C 67.136719 149.421875 67.132812 149.230469 67.132812 149.035156 C 67.125 148.175781 67.125 147.320312 67.121094 146.460938 C 67.117188 146.160156 67.117188 145.863281 67.113281 145.554688 C 67.113281 145.269531 67.113281 144.984375 67.109375 144.691406 C 67.109375 144.425781 67.109375 144.164062 67.105469 143.890625 C 67.136719 143.277344 67.136719 143.277344 67.402344 143.015625 C 68.492188 142.992188 69.582031 143.054688 70.671875 143.097656 C 70.980469 143.105469 71.285156 143.117188 71.601562 143.125 C 71.898438 143.136719 72.191406 143.148438 72.496094 143.160156 C 72.902344 143.175781 72.902344 143.175781 73.316406 143.191406 C 74.007812 143.277344 74.007812 143.277344 74.800781 143.808594 C 74.96875 144.398438 74.96875 144.398438 75.066406 145.09375 C 75.210938 146.117188 75.414062 146.734375 76.125 147.5 C 76.351562 147.582031 76.582031 147.664062 76.816406 147.75 C 77.128906 147.886719 77.128906 147.886719 77.445312 148.027344 C 77.660156 148.722656 77.660156 148.722656 77.710938 149.347656 C 77.917969 149.375 78.125 149.402344 78.335938 149.429688 C 79.03125 149.613281 79.03125 149.613281 79.558594 150.402344 C 80.230469 150.636719 80.902344 150.789062 81.589844 150.945312 C 82.203125 151.195312 82.203125 151.195312 82.550781 151.664062 C 82.730469 152.25 82.730469 152.25 82.730469 153.570312 C 73.660156 153.570312 64.589844 153.570312 55.242188 153.570312 C 55.328125 152.4375 55.417969 151.304688 55.507812 150.140625 C 55.535156 149.53125 55.5625 148.921875 55.582031 148.3125 C 55.589844 148.015625 55.601562 147.71875 55.609375 147.414062 C 55.628906 146.800781 55.648438 146.1875 55.667969 145.574219 C 55.675781 145.28125 55.6875 144.988281 55.695312 144.683594 C 55.703125 144.421875 55.710938 144.15625 55.722656 143.882812 C 55.792969 142.996094 55.863281 143.023438 56.769531 142.980469 Z M 56.769531 142.980469 "/>
<path style=" stroke:none;fill-rule:nonzero;fill:rgb(98.823529%,68.235296%,25.490198%);fill-opacity:1;" d="M 45.726562 50.132812 C 45.8125 50.308594 45.902344 50.484375 45.992188 50.664062 C 45.867188 50.988281 45.867188 50.988281 45.742188 51.320312 C 45.339844 52.648438 45.105469 54.074219 45.683594 55.386719 C 46.398438 56.367188 47.191406 56.699219 48.328125 56.933594 C 49.996094 57.109375 50.964844 56.839844 52.382812 55.957031 C 54.121094 54.90625 54.121094 54.90625 54.976562 54.621094 C 54.859375 55.734375 54.738281 56.851562 54.613281 57.96875 C 54.5625 58.433594 54.5625 58.433594 54.511719 58.910156 C 54.28125 61.007812 53.992188 63.089844 53.65625 65.175781 C 52.585938 71.917969 52.128906 77.777344 53.734375 84.449219 C 54.035156 85.699219 54.308594 86.957031 54.582031 88.214844 C 54.636719 88.457031 54.6875 88.699219 54.742188 88.949219 C 55.429688 92.089844 55.996094 95.257812 56.5625 98.421875 C 56.390625 98.421875 56.214844 98.421875 56.035156 98.421875 C 55.949219 98.597656 55.859375 98.769531 55.769531 98.949219 C 55.769531 98.777344 55.769531 98.601562 55.769531 98.421875 C 55.554688 98.425781 55.339844 98.429688 55.121094 98.429688 C 53.296875 98.445312 51.480469 98.414062 49.660156 98.324219 C 49.371094 98.3125 49.371094 98.3125 49.082031 98.296875 C 47.148438 98.1875 47.148438 98.1875 46.519531 97.628906 C 46.105469 96.183594 46.339844 95.316406 46.949219 93.96875 C 47.574219 92.523438 48.117188 91.074219 48.566406 89.566406 C 48.648438 89.316406 48.648438 89.316406 48.726562 89.058594 C 49.84375 85.238281 49.773438 81.359375 49.761719 77.414062 C 49.757812 76.449219 49.761719 75.484375 49.765625 74.519531 C 49.765625 71.429688 49.699219 68.359375 49.457031 65.277344 C 49.4375 65.019531 49.414062 64.757812 49.394531 64.488281 C 49.261719 62.96875 49.039062 61.488281 48.742188 59.992188 C 48.613281 59.25 48.59375 58.539062 48.632812 57.785156 C 48.476562 57.730469 48.320312 57.671875 48.160156 57.613281 C 47.003906 57.148438 45.910156 56.699219 45.148438 55.667969 C 44.597656 54.332031 44.714844 52.726562 45.117188 51.367188 C 45.332031 50.859375 45.332031 50.859375 45.726562 50.132812 Z M 45.726562 50.132812 "/>
<path style=" stroke:none;fill-rule:nonzero;fill:rgb(99.215686%,67.450982%,23.529412%);fill-opacity:1;" d="M 70.835938 81.007812 C 70.925781 81.007812 71.011719 81.007812 71.101562 81.007812 C 71.230469 83.226562 71.230469 83.226562 71.367188 85.492188 C 71.453125 85.492188 71.539062 85.492188 71.628906 85.492188 C 71.648438 87.320312 71.664062 89.144531 71.671875 90.972656 C 71.675781 91.59375 71.683594 92.214844 71.691406 92.839844 C 71.699219 93.730469 71.703125 94.625 71.707031 95.515625 C 71.710938 95.796875 71.714844 96.074219 71.71875 96.359375 C 71.71875 96.621094 71.71875 96.878906 71.71875 97.144531 C 71.722656 97.371094 71.722656 97.601562 71.726562 97.835938 C 71.609375 98.550781 71.410156 98.78125 70.835938 99.214844 C 70.261719 99.304688 70.261719 99.304688 69.601562 99.289062 C 69.367188 99.289062 69.132812 99.285156 68.886719 99.28125 C 68.644531 99.277344 68.398438 99.269531 68.144531 99.261719 C 67.894531 99.257812 67.648438 99.253906 67.390625 99.253906 C 66.777344 99.242188 66.164062 99.230469 65.550781 99.214844 C 65.636719 99.449219 65.722656 99.6875 65.8125 99.933594 C 66.140625 101 66.117188 101.800781 66.078125 102.90625 C 65.6875 103.039062 65.6875 103.039062 65.285156 103.171875 C 65.289062 103.335938 65.292969 103.503906 65.296875 103.671875 C 65.296875 103.886719 65.300781 104.105469 65.304688 104.324219 C 65.304688 104.539062 65.308594 104.753906 65.3125 104.976562 C 65.285156 105.546875 65.285156 105.546875 65.023438 106.074219 C 64.527344 106.222656 64.527344 106.222656 63.964844 106.335938 C 63.140625 106.507812 63.140625 106.507812 62.90625 107.128906 C 62.777344 106.867188 62.777344 106.867188 62.644531 106.601562 C 62.121094 106.601562 61.597656 106.601562 61.058594 106.601562 C 60.96875 106.339844 60.882812 106.078125 60.792969 105.808594 C 60.480469 105.890625 60.480469 105.890625 60.164062 105.976562 C 59.9375 106.007812 59.707031 106.039062 59.472656 106.074219 C 58.746094 105.351562 58.78125 104.789062 58.644531 103.78125 C 58.601562 103.464844 58.558594 103.148438 58.511719 102.820312 C 58.417969 101.875 58.398438 100.957031 58.414062 100.003906 C 58.238281 99.917969 58.066406 99.832031 57.886719 99.742188 C 58.148438 99.742188 58.410156 99.742188 58.679688 99.742188 C 58.6875 99.59375 58.699219 99.449219 58.710938 99.296875 C 59.0625 98.371094 59.675781 97.824219 60.527344 97.367188 C 61.617188 97.179688 62.640625 97.34375 63.699219 97.628906 C 63.660156 97.445312 63.621094 97.261719 63.578125 97.074219 C 63.398438 96.238281 63.21875 95.398438 63.039062 94.5625 C 62.976562 94.273438 62.914062 93.984375 62.847656 93.6875 C 62.757812 93.265625 62.757812 93.265625 62.667969 92.835938 C 62.585938 92.453125 62.585938 92.453125 62.5 92.058594 C 62.375 91.265625 62.359375 90.515625 62.378906 89.714844 C 62.554688 89.714844 62.726562 89.714844 62.90625 89.714844 C 62.90625 89.539062 62.90625 89.367188 62.90625 89.1875 C 63.082031 89.1875 63.257812 89.1875 63.4375 89.1875 C 63.617188 89.402344 63.800781 89.617188 63.988281 89.835938 C 65.015625 90.730469 65.691406 90.695312 67.003906 90.65625 C 67.300781 90.660156 67.300781 90.660156 67.601562 90.664062 C 68.582031 90.648438 69.097656 90.59375 69.96875 90.089844 C 70.789062 89.21875 70.746094 88.683594 70.757812 87.5 C 70.761719 87.3125 70.765625 87.128906 70.773438 86.9375 C 70.78125 86.34375 70.785156 85.753906 70.789062 85.164062 C 70.792969 84.761719 70.800781 84.359375 70.808594 83.957031 C 70.824219 82.972656 70.832031 81.988281 70.835938 81.007812 Z M 70.835938 81.007812 "/>
<path style=" stroke:none;fill-rule:nonzero;fill:rgb(64.313728%,38.039216%,24.705882%);fill-opacity:1;" d="M 68.023438 143 C 68.90625 143.03125 69.789062 143.0625 70.671875 143.097656 C 70.980469 143.105469 71.285156 143.117188 71.601562 143.125 C 71.898438 143.136719 72.191406 143.148438 72.496094 143.160156 C 72.902344 143.175781 72.902344 143.175781 73.316406 143.191406 C 74.007812 143.277344 74.007812 143.277344 74.800781 143.808594 C 74.96875 144.398438 74.96875 144.398438 75.066406 145.09375 C 75.210938 146.117188 75.414062 146.734375 76.125 147.5 C 76.351562 147.582031 76.582031 147.664062 76.816406 147.75 C 77.128906 147.886719 77.128906 147.886719 77.445312 148.027344 C 77.660156 148.722656 77.660156 148.722656 77.710938 149.347656 C 77.917969 149.375 78.125 149.402344 78.335938 149.429688 C 79.03125 149.613281 79.03125 149.613281 79.558594 150.402344 C 80.230469 150.636719 80.902344 150.789062 81.589844 150.945312 C 82.203125 151.195312 82.203125 151.195312 82.550781 151.664062 C 82.730469 152.25 82.730469 152.25 82.730469 153.570312 C 73.660156 153.570312 64.589844 153.570312 55.242188 153.570312 C 55.328125 153.132812 55.417969 152.699219 55.507812 152.25 C 64.230469 152.25 72.953125 152.25 81.9375 152.25 C 81.9375 151.988281 81.9375 151.726562 81.9375 151.457031 C 81.683594 151.457031 81.425781 151.457031 81.160156 151.457031 C 80.804688 151.457031 80.445312 151.457031 80.089844 151.457031 C 80.089844 151.546875 80.089844 151.632812 80.089844 151.722656 C 79.390625 151.722656 78.691406 151.722656 77.972656 151.722656 C 77.972656 151.546875 77.972656 151.375 77.972656 151.195312 C 78.234375 151.019531 78.496094 150.847656 78.765625 150.667969 C 78.765625 150.492188 78.765625 150.320312 78.765625 150.140625 C 77.785156 150.085938 77.503906 150.097656 76.652344 150.667969 C 76.78125 151.191406 76.78125 151.191406 76.917969 151.722656 C 75.433594 151.722656 73.949219 151.722656 72.421875 151.722656 C 72.292969 150.679688 72.292969 150.679688 72.160156 149.613281 C 71.980469 148.78125 71.980469 148.78125 71.3125 148.507812 C 70.511719 148.273438 69.867188 148.238281 69.035156 148.257812 C 68.777344 148.265625 68.519531 148.269531 68.253906 148.273438 C 68.058594 148.28125 67.867188 148.285156 67.664062 148.292969 C 67.664062 147.597656 67.664062 146.898438 67.664062 146.179688 C 68.449219 146.179688 69.234375 146.179688 70.042969 146.179688 C 69.914062 145.660156 69.914062 145.660156 69.78125 145.125 C 68.996094 145.039062 68.210938 144.953125 67.402344 144.863281 C 67.402344 146.515625 67.402344 148.171875 67.402344 149.875 C 66.964844 149.875 66.527344 149.875 66.078125 149.875 C 66.429688 149.789062 66.777344 149.703125 67.136719 149.613281 C 67.136719 149.421875 67.132812 149.230469 67.132812 149.035156 C 67.125 148.175781 67.125 147.320312 67.121094 146.460938 C 67.117188 146.160156 67.117188 145.863281 67.113281 145.554688 C 67.113281 145.269531 67.113281 144.984375 67.109375 144.691406 C 67.109375 144.425781 67.109375 144.164062 67.105469 143.890625 C 67.148438 143.058594 67.1875 143.019531 68.023438 143 Z M 68.023438 143 "/>
<path style=" stroke:none;fill-rule:nonzero;fill:rgb(98.823529%,59.215689%,3.529412%);fill-opacity:1;" d="M 63.171875 80.742188 C 65.703125 80.742188 68.230469 80.742188 70.835938 80.742188 C 70.875 81.960938 70.90625 83.175781 70.925781 84.390625 C 70.933594 84.804688 70.941406 85.21875 70.957031 85.628906 C 70.976562 86.226562 70.984375 86.820312 70.992188 87.417969 C 71 87.601562 71.007812 87.785156 71.015625 87.972656 C 71.015625 88.703125 70.972656 89.277344 70.511719 89.863281 C 69.78125 90.511719 69.144531 90.9375 68.160156 90.9375 C 67.871094 90.9375 67.871094 90.9375 67.578125 90.9375 C 67.285156 90.929688 67.285156 90.929688 66.988281 90.917969 C 66.792969 90.921875 66.597656 90.925781 66.394531 90.925781 C 65.085938 90.910156 64.382812 90.6875 63.4375 89.714844 C 63.046875 88.933594 63.140625 88.144531 63.144531 87.289062 C 63.144531 87.101562 63.148438 86.914062 63.148438 86.722656 C 63.148438 86.125 63.152344 85.527344 63.15625 84.933594 C 63.15625 84.527344 63.15625 84.121094 63.160156 83.71875 C 63.160156 82.726562 63.167969 81.734375 63.171875 80.742188 Z M 63.171875 80.742188 "/>
<path style=" stroke:none;fill-rule:nonzero;fill:rgb(96.078432%,77.254903%,54.509807%);fill-opacity:1;" d="M 62.644531 97.367188 C 62.902344 97.535156 63.164062 97.707031 63.429688 97.882812 C 64.773438 98.683594 66.25 98.664062 67.78125 98.75 C 68.074219 98.773438 68.371094 98.792969 68.671875 98.8125 C 69.394531 98.863281 70.113281 98.910156 70.835938 98.949219 C 70.835938 99.035156 70.835938 99.125 70.835938 99.214844 C 69.09375 99.214844 67.347656 99.214844 65.550781 99.214844 C 65.726562 99.734375 65.898438 100.257812 66.078125 100.796875 C 66.140625 101.511719 66.105469 102.1875 66.078125 102.90625 C 65.816406 102.996094 65.554688 103.082031 65.285156 103.171875 C 65.289062 103.335938 65.292969 103.503906 65.296875 103.671875 C 65.296875 103.886719 65.300781 104.105469 65.304688 104.324219 C 65.304688 104.539062 65.308594 104.753906 65.3125 104.976562 C 65.285156 105.546875 65.285156 105.546875 65.023438 106.074219 C 64.527344 106.222656 64.527344 106.222656 63.964844 106.335938 C 63.140625 106.507812 63.140625 106.507812 62.90625 107.128906 C 62.820312 106.957031 62.734375 106.78125 62.644531 106.601562 C 62.121094 106.601562 61.597656 106.601562 61.058594 106.601562 C 60.925781 106.210938 60.925781 106.210938 60.792969 105.808594 C 60.585938 105.863281 60.378906 105.917969 60.164062 105.976562 C 59.9375 106.007812 59.707031 106.039062 59.472656 106.074219 C 58.746094 105.351562 58.78125 104.789062 58.644531 103.78125 C 58.601562 103.464844 58.558594 103.148438 58.511719 102.820312 C 58.417969 101.875 58.398438 100.957031 58.414062 100.003906 C 58.238281 99.917969 58.066406 99.832031 57.886719 99.742188 C 58.148438 99.742188 58.410156 99.742188 58.679688 99.742188 C 58.6875 99.59375 58.699219 99.449219 58.710938 99.296875 C 59.351562 97.605469 60.933594 96.933594 62.644531 97.367188 Z M 62.644531 97.367188 "/>
<path style=" stroke:none;fill-rule:nonzero;fill:rgb(50.588238%,29.019609%,17.647059%);fill-opacity:1;" d="M 67.402344 144.863281 C 68.1875 144.863281 68.972656 144.863281 69.78125 144.863281 C 69.953125 145.035156 70.128906 145.210938 70.308594 145.390625 C 70.210938 145.949219 70.210938 145.949219 70.042969 146.445312 C 69.347656 146.445312 68.648438 146.445312 67.929688 146.445312 C 67.929688 146.96875 67.929688 147.492188 67.929688 148.027344 C 68.191406 148.015625 68.191406 148.015625 68.460938 148 C 70.835938 147.929688 70.835938 147.929688 71.894531 148.820312 C 72.421875 149.613281 72.421875 149.613281 72.421875 151.722656 C 73.820312 151.636719 75.214844 151.546875 76.652344 151.457031 C 76.652344 151.109375 76.652344 150.761719 76.652344 150.402344 C 77.503906 149.835938 77.785156 149.824219 78.765625 149.875 C 78.765625 150.222656 78.765625 150.570312 78.765625 150.929688 C 78.503906 151.019531 78.242188 151.105469 77.972656 151.195312 C 77.972656 151.367188 77.972656 151.542969 77.972656 151.722656 C 78.496094 151.636719 79.019531 151.546875 79.558594 151.457031 C 79.386719 151.285156 79.210938 151.109375 79.03125 150.929688 C 79.992188 151.105469 80.949219 151.28125 81.9375 151.457031 C 81.9375 151.71875 81.9375 151.980469 81.9375 152.25 C 78.1875 152.25 74.4375 152.25 70.574219 152.25 C 70.484375 151.988281 70.398438 151.726562 70.308594 151.457031 C 69.234375 150.984375 68.304688 150.828125 67.136719 150.929688 C 66.875 151.105469 66.613281 151.28125 66.34375 151.457031 C 65.632812 151.359375 65.632812 151.359375 65.023438 151.195312 C 65.328125 150.542969 65.5625 150.125 66.078125 149.613281 C 66.515625 149.699219 66.953125 149.785156 67.402344 149.875 C 67.402344 148.222656 67.402344 146.566406 67.402344 144.863281 Z M 67.402344 144.863281 "/>
<path style=" stroke:none;fill-rule:nonzero;fill:rgb(85.09804%,78.823531%,61.960787%);fill-opacity:1;" d="M 82.203125 151.722656 C 82.730469 152.25 82.730469 152.25 82.730469 153.570312 C 73.660156 153.570312 64.589844 153.570312 55.242188 153.570312 C 55.328125 153.132812 55.417969 152.699219 55.507812 152.25 C 68.722656 152.382812 68.722656 152.382812 82.203125 152.515625 C 82.203125 152.253906 82.203125 151.992188 82.203125 151.722656 Z M 82.203125 151.722656 "/>
<path style=" stroke:none;fill-rule:nonzero;fill:rgb(99.215686%,73.725492%,38.039216%);fill-opacity:1;" d="M 71.628906 63.0625 C 71.71875 63.0625 71.804688 63.0625 71.894531 63.0625 C 72.1875 66.882812 72.203125 70.691406 72.203125 74.519531 C 72.203125 75.1875 72.203125 75.851562 72.207031 76.515625 C 72.207031 77.898438 72.207031 79.285156 72.207031 80.667969 C 72.207031 82.265625 72.210938 83.859375 72.214844 85.457031 C 72.21875 87.003906 72.21875 88.546875 72.21875 90.09375 C 72.21875 90.75 72.21875 91.402344 72.222656 92.058594 C 72.226562 92.96875 72.222656 93.878906 72.222656 94.789062 C 72.222656 95.058594 72.226562 95.328125 72.226562 95.605469 C 72.21875 97.863281 72.21875 97.863281 71.628906 98.949219 C 71.457031 98.863281 71.28125 98.777344 71.101562 98.6875 C 71.1875 98.597656 71.277344 98.511719 71.367188 98.421875 C 71.390625 97.773438 71.394531 97.128906 71.390625 96.480469 C 71.390625 96.277344 71.390625 96.074219 71.390625 95.863281 C 71.390625 95.414062 71.386719 94.96875 71.386719 94.519531 C 71.382812 93.800781 71.378906 93.085938 71.378906 92.367188 C 71.375 91.34375 71.375 90.320312 71.371094 89.296875 C 71.363281 86.660156 71.359375 84.027344 71.355469 81.390625 C 71.355469 81.132812 71.355469 80.875 71.355469 80.605469 C 71.355469 74.757812 71.445312 68.910156 71.628906 63.0625 Z M 71.628906 63.0625 "/>
<path style=" stroke:none;fill-rule:nonzero;fill:rgb(50.980395%,29.019609%,18.039216%);fill-opacity:1;" d="M 58.941406 147.765625 C 59.804688 148.257812 60.460938 148.816406 61.058594 149.613281 C 61.214844 150.664062 61.125 151.25 60.792969 152.25 C 59.222656 152.25 57.652344 152.25 56.035156 152.25 C 56.035156 150.855469 56.035156 149.464844 56.035156 148.027344 C 57.039062 147.695312 57.90625 147.542969 58.941406 147.765625 Z M 58.941406 147.765625 "/>
<path style=" stroke:none;fill-rule:nonzero;fill:rgb(99.607843%,96.470588%,92.156863%);fill-opacity:1;" d="M 66.078125 50.664062 C 66.601562 50.792969 66.601562 50.792969 67.136719 50.925781 C 67.324219 51.65625 67.503906 52.386719 67.683594 53.117188 C 67.847656 53.769531 68.027344 54.417969 68.21875 55.058594 C 69.332031 58.953125 69.425781 63.296875 68.722656 67.285156 C 68.199219 67.417969 68.199219 67.417969 67.664062 67.550781 C 67.707031 67.246094 67.753906 66.941406 67.796875 66.625 C 68.296875 62 68.015625 56.890625 66.34375 52.507812 C 66.167969 52.335938 65.996094 52.160156 65.816406 51.980469 C 65.914062 51.289062 65.914062 51.289062 66.078125 50.664062 Z M 66.078125 50.664062 "/>
<path style=" stroke:none;fill-rule:nonzero;fill:rgb(99.607843%,83.529413%,61.56863%);fill-opacity:1;" d="M 49.425781 63.0625 C 51.390625 65.023438 50.269531 71.664062 50.269531 74.367188 C 50.269531 74.550781 50.269531 74.730469 50.269531 74.917969 C 50.269531 75.84375 50.273438 76.765625 50.277344 77.6875 C 50.28125 78.585938 50.28125 79.484375 50.28125 80.382812 C 50.28125 80.707031 50.285156 81.03125 50.285156 81.367188 C 50.277344 84.332031 49.996094 87.226562 49.046875 90.042969 C 48.929688 90.398438 48.8125 90.75 48.699219 91.105469 C 48.589844 91.429688 48.480469 91.753906 48.371094 92.089844 C 48.152344 92.816406 47.941406 93.542969 47.730469 94.273438 C 47.578125 94.726562 47.578125 94.726562 47.3125 94.992188 C 47.292969 95.390625 47.289062 95.792969 47.296875 96.195312 C 47.300781 96.582031 47.308594 96.96875 47.3125 97.367188 C 48.097656 97.453125 48.882812 97.539062 49.691406 97.628906 C 49.691406 97.804688 49.691406 97.980469 49.691406 98.15625 C 47.183594 98.242188 47.183594 98.242188 46.519531 97.628906 C 46.164062 96.160156 46.332031 95.332031 46.949219 93.96875 C 47.574219 92.523438 48.117188 91.074219 48.566406 89.566406 C 48.648438 89.316406 48.648438 89.316406 48.726562 89.058594 C 49.851562 85.222656 49.765625 81.332031 49.746094 77.371094 C 49.742188 76.398438 49.742188 75.425781 49.742188 74.453125 C 49.734375 70.648438 49.640625 66.859375 49.425781 63.0625 Z M 49.425781 63.0625 "/>
<path style=" stroke:none;fill-rule:nonzero;fill:rgb(71.372551%,52.941179%,39.215687%);fill-opacity:1;" d="M 77.179688 148.820312 C 77.355469 148.820312 77.53125 148.820312 77.710938 148.820312 C 77.710938 148.996094 77.710938 149.167969 77.710938 149.347656 C 78.019531 149.390625 78.019531 149.390625 78.335938 149.429688 C 79.03125 149.613281 79.03125 149.613281 79.558594 150.402344 C 80.195312 150.671875 80.195312 150.671875 80.914062 150.847656 C 81.15625 150.914062 81.394531 150.980469 81.644531 151.050781 C 81.828125 151.097656 82.011719 151.144531 82.203125 151.195312 C 82.203125 151.628906 82.203125 152.066406 82.203125 152.515625 C 73.566406 152.515625 64.933594 152.515625 56.035156 152.515625 C 56.035156 152.425781 56.035156 152.339844 56.035156 152.25 C 64.582031 152.25 73.132812 152.25 81.9375 152.25 C 81.9375 151.988281 81.9375 151.726562 81.9375 151.457031 C 81.683594 151.457031 81.425781 151.457031 81.160156 151.457031 C 80.804688 151.457031 80.445312 151.457031 80.089844 151.457031 C 80.089844 151.546875 80.089844 151.632812 80.089844 151.722656 C 79.390625 151.722656 78.691406 151.722656 77.972656 151.722656 C 77.972656 151.546875 77.972656 151.375 77.972656 151.195312 C 78.234375 151.019531 78.496094 150.847656 78.765625 150.667969 C 78.765625 150.492188 78.765625 150.320312 78.765625 150.140625 C 78.554688 150.070312 78.339844 149.996094 78.121094 149.925781 C 77.785156 149.769531 77.785156 149.769531 77.445312 149.613281 C 77.3125 149.21875 77.3125 149.21875 77.179688 148.820312 Z M 77.179688 148.820312 "/>
<path style=" stroke:none;fill-rule:nonzero;fill:rgb(62.7451%,33.725491%,20%);fill-opacity:1;" d="M 78.765625 149.875 C 78.765625 150.222656 78.765625 150.570312 78.765625 150.929688 C 78.503906 151.019531 78.242188 151.105469 77.972656 151.195312 C 77.972656 151.367188 77.972656 151.542969 77.972656 151.722656 C 78.496094 151.636719 79.019531 151.546875 79.558594 151.457031 C 79.386719 151.285156 79.210938 151.109375 79.03125 150.929688 C 79.992188 151.105469 80.949219 151.28125 81.9375 151.457031 C 81.9375 151.71875 81.9375 151.980469 81.9375 152.25 C 78.710938 152.25 75.484375 152.25 72.160156 152.25 C 72.246094 152.078125 72.332031 151.902344 72.421875 151.722656 C 73.140625 151.640625 73.835938 151.585938 74.554688 151.558594 C 74.753906 151.546875 74.953125 151.539062 75.160156 151.527344 C 75.660156 151.5 76.15625 151.480469 76.652344 151.457031 C 76.652344 151.109375 76.652344 150.761719 76.652344 150.402344 C 77.503906 149.835938 77.785156 149.824219 78.765625 149.875 Z M 78.765625 149.875 "/>
<path style=" stroke:none;fill-rule:nonzero;fill:rgb(96.862745%,72.156864%,53.333336%);fill-opacity:1;" d="M 66.078125 32.984375 C 66.339844 33.070312 66.601562 33.15625 66.871094 33.246094 C 66.960938 33.507812 67.046875 33.769531 67.136719 34.039062 C 66.695312 34.570312 66.46875 34.808594 65.773438 34.925781 C 65.570312 34.921875 65.363281 34.917969 65.152344 34.914062 C 64.949219 34.910156 64.746094 34.910156 64.535156 34.910156 C 63.964844 34.832031 63.964844 34.832031 63.171875 34.300781 C 63.269531 33.792969 63.269531 33.792969 63.4375 33.246094 C 64.265625 32.832031 65.167969 32.921875 66.078125 32.984375 Z M 66.078125 32.984375 "/>
<path style=" stroke:none;fill-rule:nonzero;fill:rgb(100%,98.823529%,97.647059%);fill-opacity:1;" d="M 68.195312 58.578125 C 68.722656 59.105469 68.722656 59.105469 68.78125 59.917969 C 68.777344 60.425781 68.777344 60.425781 68.773438 60.945312 C 68.773438 61.128906 68.773438 61.308594 68.773438 61.496094 C 68.769531 62.074219 68.761719 62.652344 68.753906 63.230469 C 68.753906 63.621094 68.75 64.011719 68.75 64.402344 C 68.742188 65.363281 68.734375 66.324219 68.722656 67.285156 C 68.199219 67.417969 68.199219 67.417969 67.664062 67.550781 C 67.707031 67.230469 67.746094 66.90625 67.789062 66.578125 C 67.96875 64.964844 68.019531 63.347656 68.078125 61.726562 C 68.089844 61.425781 68.101562 61.121094 68.113281 60.808594 C 68.140625 60.0625 68.167969 59.320312 68.195312 58.578125 Z M 68.195312 58.578125 "/>
<path style=" stroke:none;fill-rule:nonzero;fill:rgb(44.705883%,44.313726%,44.313726%);fill-opacity:1;" d="M 42.027344 31.136719 C 42.722656 31.308594 43.421875 31.484375 44.140625 31.664062 C 44.054688 31.8125 43.964844 31.964844 43.875 32.117188 C 43.433594 33.128906 43.558594 34.054688 43.875 35.09375 C 44.902344 36.238281 45.859375 36.621094 47.3125 36.941406 C 47.339844 37.269531 47.367188 37.59375 47.394531 37.929688 C 47.507812 38.863281 47.703125 39.414062 48.371094 40.109375 C 47.535156 39.746094 47.316406 39.582031 46.785156 38.789062 C 46.75 38.078125 46.75 38.078125 46.785156 37.46875 C 46.550781 37.398438 46.316406 37.328125 46.074219 37.253906 C 44.964844 36.859375 44.167969 36.492188 43.398438 35.589844 C 42.964844 34.546875 42.964844 33.570312 43.082031 32.457031 C 43.171875 32.367188 43.257812 32.28125 43.347656 32.191406 C 43.128906 32.066406 42.910156 31.941406 42.6875 31.8125 C 42.46875 31.675781 42.25 31.539062 42.027344 31.398438 C 42.027344 31.3125 42.027344 31.226562 42.027344 31.136719 Z M 42.027344 31.136719 "/>
<path style=" stroke:none;fill-rule:nonzero;fill:rgb(99.607843%,90.196079%,77.254903%);fill-opacity:1;" d="M 68.195312 55.941406 C 68.976562 57.289062 69.019531 58.703125 69.011719 60.234375 C 69.011719 60.539062 69.011719 60.84375 69.011719 61.15625 C 69.007812 61.46875 69.003906 61.785156 69.003906 62.105469 C 69.003906 62.425781 69 62.746094 69 63.078125 C 68.996094 63.863281 68.992188 64.652344 68.988281 65.4375 C 68.898438 65.4375 68.8125 65.4375 68.722656 65.4375 C 68.636719 63.347656 68.546875 61.257812 68.457031 59.105469 C 68.371094 59.714844 68.285156 60.324219 68.195312 60.953125 C 68.105469 60.953125 68.019531 60.953125 67.929688 60.953125 C 67.871094 60.265625 67.816406 59.578125 67.765625 58.890625 C 67.746094 58.695312 67.730469 58.503906 67.710938 58.300781 C 67.605469 56.820312 67.605469 56.820312 68.195312 55.941406 Z M 68.195312 55.941406 "/>
<path style=" stroke:none;fill-rule:nonzero;fill:rgb(47.450981%,23.921569%,12.941177%);fill-opacity:1;" d="M 56.035156 148.292969 C 56.296875 148.421875 56.296875 148.421875 56.5625 148.554688 C 56.5625 149.601562 56.5625 150.644531 56.5625 151.722656 C 57.960938 151.722656 59.355469 151.722656 60.792969 151.722656 C 60.792969 151.898438 60.792969 152.070312 60.792969 152.25 C 59.222656 152.25 57.652344 152.25 56.035156 152.25 C 56.035156 150.945312 56.035156 149.636719 56.035156 148.292969 Z M 56.035156 148.292969 "/>
<path style=" stroke:none;fill-rule:nonzero;fill:rgb(50.196081%,28.235295%,17.254902%);fill-opacity:1;" d="M 56.035156 144.863281 C 56.421875 144.847656 56.804688 144.835938 57.191406 144.828125 C 57.40625 144.824219 57.621094 144.816406 57.84375 144.8125 C 58.414062 144.863281 58.414062 144.863281 58.941406 145.390625 C 58.941406 145.652344 58.941406 145.914062 58.941406 146.179688 C 57.984375 146.179688 57.023438 146.179688 56.035156 146.179688 C 56.035156 145.746094 56.035156 145.3125 56.035156 144.863281 Z M 56.035156 144.863281 "/>
<path style=" stroke:none;fill-rule:nonzero;fill:rgb(99.215686%,76.862746%,45.490196%);fill-opacity:1;" d="M 47.3125 94.199219 C 47.3125 95.253906 47.3125 96.3125 47.3125 97.367188 C 48.097656 97.453125 48.882812 97.539062 49.691406 97.628906 C 49.691406 97.804688 49.691406 97.980469 49.691406 98.15625 C 47.183594 98.242188 47.183594 98.242188 46.519531 97.628906 C 46.253906 96.773438 46.253906 96.773438 46.253906 95.78125 C 46.769531 94.875 46.769531 94.875 47.3125 94.199219 Z M 47.3125 94.199219 "/>
<path style=" stroke:none;fill-rule:nonzero;fill:rgb(75.294119%,66.666669%,54.901963%);fill-opacity:1;" d="M 51.542969 41.425781 C 51.804688 41.515625 52.066406 41.601562 52.335938 41.691406 C 52.878906 41.75 53.425781 41.796875 53.96875 41.839844 C 54.257812 41.859375 54.542969 41.882812 54.839844 41.90625 C 55.171875 41.929688 55.171875 41.929688 55.507812 41.953125 C 55.246094 42.085938 55.246094 42.085938 54.976562 42.21875 C 55 42.445312 55.023438 42.667969 55.046875 42.902344 C 55.070312 43.191406 55.097656 43.484375 55.125 43.785156 C 55.152344 44.074219 55.183594 44.367188 55.210938 44.667969 C 55.222656 44.902344 55.230469 45.140625 55.242188 45.386719 C 54.976562 45.648438 54.976562 45.648438 54.433594 45.675781 C 54.214844 45.671875 53.996094 45.667969 53.773438 45.664062 C 53.554688 45.664062 53.335938 45.660156 53.109375 45.65625 C 52.855469 45.652344 52.855469 45.652344 52.597656 45.648438 C 52.597656 45.5625 52.597656 45.472656 52.597656 45.386719 C 53.296875 45.296875 53.996094 45.210938 54.714844 45.121094 C 54.625 44.25 54.539062 43.378906 54.449219 42.480469 C 54.023438 42.515625 54.023438 42.515625 53.589844 42.546875 C 52.597656 42.480469 52.597656 42.480469 51.953125 41.953125 C 51.820312 41.78125 51.683594 41.605469 51.542969 41.425781 Z M 51.542969 41.425781 "/>
<path style=" stroke:none;fill-rule:nonzero;fill:rgb(49.803922%,27.843139%,16.862746%);fill-opacity:1;" d="M 78.765625 149.875 C 78.765625 150.222656 78.765625 150.570312 78.765625 150.929688 C 77.914062 151.5 77.632812 151.511719 76.652344 151.457031 C 76.652344 151.109375 76.652344 150.761719 76.652344 150.402344 C 77.503906 149.835938 77.785156 149.824219 78.765625 149.875 Z M 78.765625 149.875 "/>
<path style=" stroke:none;fill-rule:nonzero;fill:rgb(49.803922%,28.235295%,16.862746%);fill-opacity:1;" d="M 77.710938 148.554688 C 77.449219 148.6875 77.449219 148.6875 77.179688 148.820312 C 77.179688 148.996094 77.179688 149.167969 77.179688 149.347656 C 76.328125 149.914062 76.046875 149.929688 75.066406 149.875 C 75.066406 149.527344 75.066406 149.179688 75.066406 148.820312 C 76.082031 148.144531 76.542969 148.335938 77.710938 148.554688 Z M 77.710938 148.554688 "/>
<path style=" stroke:none;fill-rule:nonzero;fill:rgb(49.411765%,27.058825%,16.078432%);fill-opacity:1;" d="M 65.816406 148.292969 C 65.730469 148.789062 65.730469 148.789062 65.550781 149.347656 C 64.757812 149.875 64.757812 149.875 64.046875 149.777344 C 63.84375 149.722656 63.644531 149.667969 63.4375 149.613281 C 63.535156 149.101562 63.535156 149.101562 63.699219 148.554688 C 64.417969 148.199219 65.023438 148.273438 65.816406 148.292969 Z M 65.816406 148.292969 "/>
<path style=" stroke:none;fill-rule:nonzero;fill:rgb(99.215686%,95.686275%,91.37255%);fill-opacity:1;" d="M 66.34375 37.203125 C 67.390625 37.203125 68.4375 37.203125 69.515625 37.203125 C 69.515625 37.378906 69.515625 37.554688 69.515625 37.734375 C 68.550781 38.375 68.003906 38.304688 66.871094 38.261719 C 66.699219 37.914062 66.523438 37.5625 66.34375 37.203125 Z M 66.34375 37.203125 "/>
<path style=" stroke:none;fill-rule:nonzero;fill:rgb(68.235296%,47.450981%,36.862746%);fill-opacity:1;" d="M 77.179688 148.820312 C 77.355469 148.820312 77.53125 148.820312 77.710938 148.820312 C 77.710938 148.996094 77.710938 149.167969 77.710938 149.347656 C 78.011719 149.371094 78.011719 149.371094 78.320312 149.398438 C 79.03125 149.613281 79.03125 149.613281 79.511719 150.289062 C 79.613281 150.5 79.71875 150.710938 79.824219 150.929688 C 79.738281 151.019531 79.648438 151.105469 79.558594 151.195312 C 79.734375 151.367188 79.910156 151.542969 80.089844 151.722656 C 79.390625 151.722656 78.691406 151.722656 77.972656 151.722656 C 77.972656 151.546875 77.972656 151.375 77.972656 151.195312 C 78.234375 151.019531 78.496094 150.847656 78.765625 150.667969 C 78.765625 150.492188 78.765625 150.320312 78.765625 150.140625 C 78.554688 150.070312 78.339844 149.996094 78.121094 149.925781 C 77.898438 149.820312 77.675781 149.71875 77.445312 149.613281 C 77.359375 149.351562 77.269531 149.089844 77.179688 148.820312 Z M 77.179688 148.820312 "/>
<path style=" stroke:none;fill-rule:nonzero;fill:rgb(71.372551%,49.019608%,38.039216%);fill-opacity:1;" d="M 73.746094 143.808594 C 74.09375 143.808594 74.441406 143.808594 74.800781 143.808594 C 74.890625 144.230469 74.980469 144.652344 75.066406 145.078125 C 75.113281 145.3125 75.164062 145.546875 75.214844 145.789062 C 75.332031 146.445312 75.332031 146.445312 75.332031 147.238281 C 74.539062 146.972656 74.539062 146.972656 74.238281 146.5625 C 73.914062 145.648438 73.839844 144.769531 73.746094 143.808594 Z M 73.746094 143.808594 "/>
<path style=" stroke:none;fill-rule:nonzero;fill:rgb(85.490197%,63.921571%,41.176471%);fill-opacity:1;" d="M 67.796875 28.019531 C 68 28.039062 68.207031 28.058594 68.417969 28.078125 C 69.085938 28.261719 69.359375 28.480469 69.78125 29.023438 C 69.78125 29.199219 69.78125 29.375 69.78125 29.554688 C 68.753906 29.058594 68.753906 29.058594 68.457031 28.761719 C 67.132812 28.660156 66.367188 28.765625 65.285156 29.554688 C 65.832031 28.296875 66.421875 27.863281 67.796875 28.019531 Z M 67.796875 28.019531 "/>
<path style=" stroke:none;fill-rule:nonzero;fill:rgb(20.784314%,21.960784%,24.313726%);fill-opacity:1;" d="M 67.664062 30.871094 C 68.101562 30.871094 68.539062 30.871094 68.988281 30.871094 C 68.988281 31.394531 68.988281 31.917969 68.988281 32.457031 C 68.476562 32.605469 68.476562 32.605469 67.929688 32.71875 C 67.664062 32.457031 67.664062 32.457031 67.648438 31.648438 C 67.652344 31.390625 67.660156 31.136719 67.664062 30.871094 Z M 67.664062 30.871094 "/>
<path style=" stroke:none;fill-rule:nonzero;fill:rgb(89.411765%,89.803922%,89.803922%);fill-opacity:1;" d="M 66.078125 50.664062 C 66.625 50.777344 66.625 50.777344 67.136719 50.925781 C 67.136719 51.449219 67.136719 51.972656 67.136719 52.507812 C 66.789062 52.421875 66.4375 52.335938 66.078125 52.246094 C 65.976562 51.808594 65.890625 51.367188 65.816406 50.925781 C 65.902344 50.839844 65.988281 50.75 66.078125 50.664062 Z M 66.078125 50.664062 "/>
<path style=" stroke:none;fill-rule:nonzero;fill:rgb(40.000001%,39.607844%,39.607844%);fill-opacity:1;" d="M 45.992188 36.675781 C 46.644531 36.808594 46.644531 36.808594 47.3125 36.941406 C 47.339844 37.269531 47.367188 37.59375 47.394531 37.929688 C 47.507812 38.863281 47.703125 39.414062 48.371094 40.109375 C 47.535156 39.746094 47.316406 39.582031 46.785156 38.789062 C 46.75 38.078125 46.75 38.078125 46.785156 37.46875 C 46.523438 37.382812 46.261719 37.292969 45.992188 37.203125 C 45.992188 37.03125 45.992188 36.855469 45.992188 36.675781 Z M 45.992188 36.675781 "/>
<path style=" stroke:none;fill-rule:nonzero;fill:rgb(1.960784%,1.568628%,1.568628%);fill-opacity:1;" d="M 40.441406 21.902344 C 40.527344 21.902344 40.613281 21.902344 40.703125 21.902344 C 40.703125 22.945312 40.703125 23.992188 40.703125 25.066406 C 40.617188 24.894531 40.53125 24.71875 40.441406 24.539062 C 40.265625 24.539062 40.089844 24.539062 39.910156 24.539062 C 39.910156 23.84375 39.910156 23.144531 39.910156 22.429688 C 40.085938 22.429688 40.261719 22.429688 40.441406 22.429688 C 40.441406 22.253906 40.441406 22.082031 40.441406 21.902344 Z M 40.441406 21.902344 "/>
<path style=" stroke:none;fill-rule:nonzero;fill:rgb(99.607843%,92.941177%,83.92157%);fill-opacity:1;" d="M 67.929688 65.175781 C 68.320312 65.4375 68.320312 65.4375 68.722656 65.703125 C 68.773438 66.527344 68.773438 66.527344 68.722656 67.285156 C 68.375 67.371094 68.023438 67.460938 67.664062 67.550781 C 67.753906 66.765625 67.839844 65.980469 67.929688 65.175781 Z M 67.929688 65.175781 "/>
<path style=" stroke:none;fill-rule:nonzero;fill:rgb(40.392157%,40.392157%,40.392157%);fill-opacity:1;" d="M 63.089844 8.148438 C 63.484375 8.152344 63.484375 8.152344 63.886719 8.160156 C 64.085938 8.167969 64.285156 8.171875 64.492188 8.179688 C 64.582031 8.355469 64.667969 8.527344 64.757812 8.707031 C 64.574219 8.703125 64.386719 8.695312 64.199219 8.6875 C 63.835938 8.683594 63.835938 8.683594 63.46875 8.675781 C 63.230469 8.667969 62.992188 8.664062 62.746094 8.65625 C 62.066406 8.644531 62.066406 8.644531 61.585938 9.234375 C 61.324219 9.234375 61.0625 9.234375 60.792969 9.234375 C 60.792969 9.0625 60.792969 8.886719 60.792969 8.707031 C 61.695312 8.105469 62.03125 8.121094 63.089844 8.148438 Z M 63.089844 8.148438 "/>
<path style=" stroke:none;fill-rule:nonzero;fill:rgb(51.764709%,78.039217%,89.803922%);fill-opacity:1;" d="M 58.679688 102.90625 C 58.765625 102.90625 58.851562 102.90625 58.941406 102.90625 C 58.949219 103.089844 58.957031 103.269531 58.964844 103.457031 C 58.976562 103.695312 58.992188 103.933594 59.007812 104.175781 C 59.019531 104.414062 59.035156 104.648438 59.046875 104.890625 C 59.152344 105.589844 59.152344 105.589844 59.75 106.027344 C 59.917969 106.128906 60.089844 106.230469 60.265625 106.335938 C 59.824219 106.347656 59.382812 106.347656 58.941406 106.335938 C 58.679688 106.074219 58.679688 106.074219 58.652344 105.355469 C 58.65625 105.066406 58.660156 104.773438 58.660156 104.472656 C 58.664062 104.183594 58.667969 103.890625 58.667969 103.589844 C 58.671875 103.367188 58.675781 103.140625 58.679688 102.90625 Z M 58.679688 102.90625 "/>
<path style=" stroke:none;fill-rule:nonzero;fill:rgb(94.117647%,84.313726%,58.431375%);fill-opacity:1;" d="M 57.355469 32.984375 C 57.929688 33.84375 58.433594 34.722656 58.941406 35.621094 C 58.105469 35.261719 57.886719 35.097656 57.355469 34.300781 C 57.324219 33.59375 57.324219 33.59375 57.355469 32.984375 Z M 57.355469 32.984375 "/>
<path style=" stroke:none;fill-rule:nonzero;fill:rgb(86.666667%,72.156864%,50.588238%);fill-opacity:1;" d="M 68.988281 31.136719 C 69.25 31.222656 69.511719 31.308594 69.78125 31.398438 C 69.546875 32.6875 69.546875 32.6875 69.25 32.984375 C 68.8125 32.992188 68.371094 32.996094 67.929688 32.984375 C 68.191406 32.808594 68.453125 32.636719 68.722656 32.457031 C 68.914062 31.777344 68.914062 31.777344 68.988281 31.136719 Z M 68.988281 31.136719 "/>
</g>
</svg>
