<?xml version="1.0" encoding="UTF-8"?>
<svg xmlns="http://www.w3.org/2000/svg" xmlns:xlink="http://www.w3.org/1999/xlink" width="120px" height="157px" viewBox="0 0 120 157" version="1.1">
<g id="surface1">
<path style=" stroke:none;fill-rule:nonzero;fill:rgb(98.823529%,59.215689%,3.529412%);fill-opacity:1;" d="M 63.964844 7.386719 C 66.804688 7.160156 66.804688 7.160156 67.796875 7.980469 C 68.324219 8.558594 68.816406 9.113281 69.25 9.761719 C 69.4375 9.707031 69.621094 9.652344 69.8125 9.597656 C 70.773438 9.472656 71.28125 9.625 72.160156 10.027344 C 73.710938 11.40625 73.710938 11.40625 73.78125 12.367188 C 73.777344 12.554688 73.777344 12.738281 73.777344 12.929688 C 73.777344 13.207031 73.777344 13.207031 73.78125 13.488281 C 73.746094 13.984375 73.746094 13.984375 73.480469 14.511719 C 73.710938 14.605469 73.9375 14.699219 74.175781 14.792969 C 75.46875 15.535156 76.4375 16.511719 76.917969 17.941406 C 77.066406 19.453125 76.980469 20.601562 76.125 21.902344 C 75.148438 23.054688 74.734375 23.242188 73.214844 23.746094 C 73.214844 26.535156 73.214844 29.320312 73.214844 32.191406 C 73.738281 32.367188 74.261719 32.539062 74.800781 32.71875 C 75 33.4375 75.101562 33.90625 74.902344 34.632812 C 74.539062 35.09375 74.539062 35.09375 73.84375 35.292969 C 73.636719 35.3125 73.429688 35.335938 73.214844 35.359375 C 73.230469 35.582031 73.230469 35.582031 73.242188 35.8125 C 73.3125 37.808594 72.832031 39.136719 71.5625 40.703125 C 69.742188 42.652344 67.574219 42.710938 65.023438 43.011719 C 64.933594 43.96875 64.847656 44.925781 64.757812 45.914062 C 65.089844 46.003906 65.421875 46.097656 65.765625 46.191406 C 68.3125 47.054688 70.691406 48.640625 72.160156 50.925781 C 72.375 51.664062 72.398438 52.253906 72.421875 53.035156 C 72.59375 53.480469 72.769531 53.917969 72.953125 54.355469 C 74.089844 57.894531 74.355469 61.484375 74.539062 65.175781 C 74.546875 65.40625 74.558594 65.636719 74.570312 65.875 C 74.789062 70.511719 74.84375 75.144531 74.835938 79.785156 C 74.835938 80.128906 74.832031 80.472656 74.832031 80.824219 C 74.828125 85.070312 74.804688 89.3125 74.703125 93.558594 C 74.699219 93.753906 74.695312 93.949219 74.691406 94.152344 C 74.679688 94.691406 74.664062 95.230469 74.648438 95.769531 C 74.632812 96.207031 74.632812 96.207031 74.621094 96.65625 C 74.539062 97.367188 74.539062 97.367188 74.007812 98.15625 C 74.023438 98.890625 74.074219 99.578125 74.15625 100.300781 C 74.183594 100.527344 74.207031 100.753906 74.230469 100.984375 C 74.792969 105.886719 75.554688 110.800781 76.5 115.644531 C 76.921875 118.359375 76.949219 121.070312 76.929688 123.8125 C 76.921875 124.472656 76.921875 125.136719 76.917969 125.796875 C 76.914062 127.679688 76.902344 129.558594 76.890625 131.4375 C 76.882812 132.59375 76.878906 133.753906 76.875 134.910156 C 76.875 135.34375 76.871094 135.78125 76.867188 136.214844 C 76.746094 141.484375 76.746094 141.484375 78.238281 146.445312 C 78.761719 146.71875 79.289062 146.980469 79.824219 147.238281 C 80.054688 147.945312 80.054688 147.945312 80.089844 148.554688 C 80.296875 148.582031 80.503906 148.609375 80.714844 148.640625 C 81.410156 148.820312 81.410156 148.820312 81.9375 149.613281 C 82.609375 149.84375 83.28125 149.996094 83.96875 150.15625 C 84.582031 150.402344 84.582031 150.402344 84.929688 150.875 C 85.109375 151.457031 85.109375 151.457031 85.109375 152.777344 C 79.789062 152.777344 74.46875 152.777344 68.988281 152.777344 C 68.980469 150.257812 68.976562 147.738281 68.96875 145.140625 C 68.96875 144.363281 68.964844 143.582031 68.964844 142.777344 C 68.957031 139.3125 68.996094 135.855469 69.152344 132.394531 C 69.269531 129.765625 69.316406 127.140625 69.316406 124.511719 C 69.316406 124.273438 69.316406 124.035156 69.316406 123.789062 C 69.3125 120.105469 69.113281 116.5625 68.457031 112.933594 C 68.34375 112.246094 68.226562 111.558594 68.109375 110.871094 C 67.796875 109.007812 67.46875 107.144531 67.136719 105.28125 C 66.613281 105.457031 66.089844 105.628906 65.550781 105.808594 C 65.554688 105.980469 65.558594 106.152344 65.558594 106.332031 C 65.574219 107.964844 65.53125 109.582031 65.433594 111.210938 C 65.105469 117.019531 64.96875 122.816406 64.972656 128.632812 C 64.972656 128.972656 64.972656 129.308594 64.972656 129.65625 C 64.972656 133.503906 65.027344 137.332031 65.285156 141.167969 C 65.023438 141.167969 64.761719 141.167969 64.492188 141.167969 C 63.992188 136.933594 63.878906 132.75 63.898438 128.484375 C 63.898438 128.160156 63.898438 127.835938 63.898438 127.503906 C 63.914062 120.367188 64.011719 113.175781 64.757812 106.074219 C 64.484375 106.042969 64.210938 106.007812 63.933594 105.976562 C 63.007812 105.828125 62.199219 105.601562 61.320312 105.28125 C 60.949219 103.667969 60.730469 102.191406 60.792969 100.53125 C 59.132812 101.519531 58.464844 102.390625 57.886719 104.226562 C 57.632812 105.535156 57.488281 106.847656 57.347656 108.171875 C 57.304688 108.558594 57.261719 108.945312 57.214844 109.332031 C 57.101562 110.347656 56.988281 111.367188 56.878906 112.382812 C 56.769531 113.390625 56.65625 114.398438 56.539062 115.40625 C 56.339844 117.183594 56.144531 118.960938 55.953125 120.738281 C 55.820312 122 55.675781 123.257812 55.53125 124.519531 C 55.121094 128.148438 54.859375 131.726562 54.902344 135.378906 C 54.914062 136.109375 54.914062 136.835938 54.917969 137.5625 C 54.917969 138.039062 54.921875 138.511719 54.925781 138.988281 C 54.925781 139.199219 54.925781 139.410156 54.925781 139.628906 C 54.957031 142.828125 54.957031 142.828125 56.300781 145.652344 C 56.734375 145.929688 57.171875 146.195312 57.621094 146.445312 C 57.621094 146.707031 57.621094 146.96875 57.621094 147.238281 C 58.144531 147.410156 58.667969 147.585938 59.207031 147.765625 C 59.207031 148.113281 59.207031 148.460938 59.207031 148.820312 C 59.371094 148.863281 59.53125 148.902344 59.699219 148.945312 C 61.4375 149.449219 61.4375 149.449219 62.148438 150.238281 C 62.414062 151.03125 62.363281 151.460938 62.113281 152.25 C 60.277344 152.28125 58.476562 152.195312 56.648438 152.027344 C 56.390625 152.007812 56.132812 151.984375 55.867188 151.960938 C 55.328125 151.910156 54.789062 151.863281 54.25 151.8125 C 53.421875 151.738281 52.59375 151.664062 51.769531 151.59375 C 51.242188 151.546875 50.714844 151.5 50.1875 151.453125 C 49.941406 151.429688 49.695312 151.40625 49.441406 151.386719 C 49.214844 151.363281 48.984375 151.34375 48.746094 151.320312 C 48.546875 151.304688 48.34375 151.285156 48.136719 151.265625 C 47.582031 151.195312 47.058594 151.078125 46.519531 150.929688 C 47.304688 134.132812 47.304688 134.132812 48.105469 126.128906 C 48.15625 125.609375 48.203125 125.089844 48.253906 124.570312 C 48.417969 122.925781 48.597656 121.300781 48.882812 119.671875 C 49.226562 117.640625 49.453125 115.59375 49.675781 113.542969 C 49.699219 113.339844 49.71875 113.132812 49.742188 112.921875 C 50.304688 107.746094 50.667969 102.558594 51.011719 97.367188 C 50.640625 97.316406 50.640625 97.316406 50.261719 97.265625 C 49.285156 97.074219 48.941406 96.847656 48.371094 96.046875 C 48.484375 95.289062 48.71875 94.835938 49.097656 94.152344 C 51.644531 89.179688 52.382812 82.800781 52.371094 77.273438 C 52.371094 77.050781 52.371094 76.824219 52.371094 76.589844 C 52.351562 74.09375 52.199219 71.605469 52.023438 69.117188 C 51.972656 68.34375 51.921875 67.566406 51.871094 66.792969 C 51.652344 63.519531 51.363281 60.257812 51.011719 56.996094 C 50.847656 56.925781 50.683594 56.859375 50.515625 56.789062 C 50.195312 56.652344 50.195312 56.652344 49.863281 56.511719 C 49.546875 56.375 49.546875 56.375 49.21875 56.238281 C 48.261719 55.75 47.78125 55.03125 47.3125 54.09375 C 47.027344 51.34375 47.796875 49.335938 49.488281 47.195312 C 51.652344 44.929688 54.089844 44.515625 57.09375 44.328125 C 57.003906 43.457031 56.917969 42.589844 56.828125 41.691406 C 56.554688 41.71875 56.28125 41.746094 56.003906 41.773438 C 54.664062 41.664062 54.3125 41.316406 53.390625 40.371094 C 53.390625 40.199219 53.390625 40.023438 53.390625 39.84375 C 53.074219 39.867188 52.757812 39.886719 52.433594 39.910156 C 51.234375 39.902344 50.585938 39.621094 49.691406 38.789062 C 49.492188 38.285156 49.492188 38.285156 49.328125 37.734375 C 49.117188 37.050781 49.011719 36.753906 48.417969 36.34375 C 48.046875 36.171875 47.671875 36.007812 47.296875 35.847656 C 46.410156 35.457031 45.910156 34.851562 45.394531 34.054688 C 45.152344 33.386719 45.125 32.898438 45.199219 32.191406 C 45.371094 31.929688 45.546875 31.667969 45.726562 31.398438 C 45.359375 31.171875 45.359375 31.171875 44.984375 30.9375 C 43.769531 30.082031 43.769531 30.082031 43.347656 29.289062 C 43.234375 28.210938 43.367188 27.585938 43.875 26.652344 C 43.761719 26.546875 43.648438 26.445312 43.53125 26.335938 C 42.164062 24.871094 42.148438 23.617188 42.210938 21.710938 C 42.230469 21.246094 42.261719 20.78125 42.289062 20.316406 C 42.464844 20.316406 42.640625 20.316406 42.820312 20.316406 C 42.886719 20.160156 42.949219 20.003906 43.019531 19.839844 C 43.644531 18.746094 44.574219 18.359375 45.726562 17.941406 C 45.671875 17.707031 45.617188 17.476562 45.5625 17.234375 C 45.449219 16.253906 45.492188 15.882812 45.992188 15.039062 C 46.492188 14.507812 46.964844 14.148438 47.578125 13.722656 C 47.925781 13.722656 48.273438 13.722656 48.632812 13.722656 C 48.65625 13.570312 48.679688 13.417969 48.699219 13.257812 C 48.964844 12.460938 49.285156 12.117188 49.957031 11.609375 C 50.816406 11.542969 50.816406 11.542969 51.542969 11.609375 C 51.566406 11.316406 51.566406 11.316406 51.589844 11.015625 C 51.871094 10.066406 52.320312 9.785156 53.128906 9.234375 C 53.742188 8.929688 54.128906 8.925781 54.8125 8.921875 C 55.117188 8.917969 55.117188 8.917969 55.429688 8.910156 C 56.09375 8.976562 56.519531 9.167969 57.09375 9.5 C 57.199219 9.386719 57.304688 9.269531 57.414062 9.152344 C 58.289062 8.296875 58.914062 7.800781 60.164062 7.765625 C 61.164062 7.835938 61.839844 8.085938 62.644531 8.707031 C 62.761719 8.578125 62.882812 8.445312 63.007812 8.3125 C 63.4375 7.914062 63.4375 7.914062 63.964844 7.914062 C 63.964844 7.742188 63.964844 7.566406 63.964844 7.386719 Z M 63.964844 7.386719 "/>
<path style=" stroke:none;fill-rule:nonzero;fill:rgb(47.450981%,79.607844%,96.470588%);fill-opacity:1;" d="M 56.960938 95.683594 C 57.230469 95.679688 57.230469 95.679688 57.503906 95.675781 C 58.257812 95.679688 58.808594 95.691406 59.445312 96.117188 C 59.773438 96.636719 59.902344 97.058594 60.015625 97.664062 C 60.097656 98 60.179688 98.339844 60.265625 98.6875 C 60.4375 98.773438 60.613281 98.859375 60.792969 98.949219 C 60.898438 98.753906 61 98.558594 61.105469 98.355469 C 61.652344 97.527344 62.046875 97.078125 62.90625 96.574219 C 64.617188 96.257812 65.734375 96.675781 67.136719 97.628906 C 67.136719 97.804688 67.136719 97.980469 67.136719 98.15625 C 69.316406 98.246094 71.496094 98.332031 73.746094 98.421875 C 74.070312 100.222656 74.386719 102.007812 74.644531 103.816406 C 74.710938 104.28125 74.777344 104.742188 74.84375 105.207031 C 74.945312 105.917969 75.050781 106.628906 75.152344 107.339844 C 75.25 108.042969 75.351562 108.742188 75.453125 109.441406 C 75.488281 109.667969 75.519531 109.898438 75.554688 110.132812 C 75.820312 111.941406 76.136719 113.738281 76.480469 115.53125 C 76.941406 118.277344 76.949219 121.035156 76.929688 123.8125 C 76.921875 124.472656 76.921875 125.136719 76.917969 125.796875 C 76.914062 127.679688 76.902344 129.558594 76.890625 131.4375 C 76.882812 132.59375 76.878906 133.753906 76.875 134.910156 C 76.875 135.34375 76.871094 135.78125 76.867188 136.214844 C 76.746094 141.484375 76.746094 141.484375 78.238281 146.445312 C 78.761719 146.71875 79.289062 146.980469 79.824219 147.238281 C 80.054688 147.945312 80.054688 147.945312 80.089844 148.554688 C 80.398438 148.597656 80.398438 148.597656 80.714844 148.640625 C 81.410156 148.820312 81.410156 148.820312 81.9375 149.613281 C 82.609375 149.84375 83.28125 149.996094 83.96875 150.15625 C 84.582031 150.402344 84.582031 150.402344 84.929688 150.875 C 85.109375 151.457031 85.109375 151.457031 85.109375 152.777344 C 79.789062 152.777344 74.46875 152.777344 68.988281 152.777344 C 68.980469 150.257812 68.976562 147.738281 68.96875 145.140625 C 68.96875 144.363281 68.964844 143.582031 68.964844 142.777344 C 68.957031 139.3125 68.996094 135.855469 69.152344 132.394531 C 69.269531 129.765625 69.316406 127.140625 69.316406 124.511719 C 69.316406 124.273438 69.316406 124.035156 69.316406 123.789062 C 69.3125 120.105469 69.113281 116.5625 68.457031 112.933594 C 68.34375 112.246094 68.226562 111.558594 68.109375 110.871094 C 67.796875 109.007812 67.46875 107.144531 67.136719 105.28125 C 66.613281 105.457031 66.089844 105.628906 65.550781 105.808594 C 65.554688 105.980469 65.558594 106.152344 65.558594 106.332031 C 65.574219 107.964844 65.53125 109.582031 65.433594 111.210938 C 65.105469 117.019531 64.96875 122.816406 64.972656 128.632812 C 64.972656 128.972656 64.972656 129.308594 64.972656 129.65625 C 64.972656 133.503906 65.027344 137.332031 65.285156 141.167969 C 65.023438 141.167969 64.761719 141.167969 64.492188 141.167969 C 63.992188 136.933594 63.878906 132.75 63.898438 128.484375 C 63.898438 128.160156 63.898438 127.835938 63.898438 127.503906 C 63.914062 120.367188 64.011719 113.175781 64.757812 106.074219 C 64.484375 106.042969 64.210938 106.007812 63.933594 105.976562 C 63.007812 105.828125 62.199219 105.601562 61.320312 105.28125 C 60.949219 103.667969 60.730469 102.191406 60.792969 100.53125 C 59.132812 101.519531 58.464844 102.390625 57.886719 104.226562 C 57.632812 105.535156 57.488281 106.847656 57.347656 108.171875 C 57.304688 108.558594 57.261719 108.945312 57.214844 109.332031 C 57.101562 110.347656 56.988281 111.367188 56.878906 112.382812 C 56.769531 113.390625 56.65625 114.398438 56.539062 115.40625 C 56.339844 117.183594 56.144531 118.960938 55.953125 120.738281 C 55.820312 122 55.675781 123.257812 55.53125 124.519531 C 55.121094 128.148438 54.859375 131.726562 54.902344 135.378906 C 54.914062 136.109375 54.914062 136.835938 54.917969 137.5625 C 54.917969 138.039062 54.921875 138.511719 54.925781 138.988281 C 54.925781 139.199219 54.925781 139.410156 54.925781 139.628906 C 54.957031 142.828125 54.957031 142.828125 56.300781 145.652344 C 56.734375 145.929688 57.171875 146.195312 57.621094 146.445312 C 57.621094 146.707031 57.621094 146.96875 57.621094 147.238281 C 58.40625 147.5 58.40625 147.5 59.207031 147.765625 C 59.207031 148.113281 59.207031 148.460938 59.207031 148.820312 C 59.371094 148.863281 59.53125 148.902344 59.699219 148.945312 C 61.4375 149.449219 61.4375 149.449219 62.148438 150.238281 C 62.414062 151.03125 62.363281 151.460938 62.113281 152.25 C 60.277344 152.28125 58.476562 152.195312 56.648438 152.027344 C 56.390625 152.007812 56.132812 151.984375 55.867188 151.960938 C 55.328125 151.910156 54.789062 151.863281 54.25 151.8125 C 53.421875 151.738281 52.59375 151.664062 51.769531 151.59375 C 51.242188 151.546875 50.714844 151.5 50.1875 151.453125 C 49.941406 151.429688 49.695312 151.40625 49.441406 151.386719 C 49.214844 151.363281 48.984375 151.34375 48.746094 151.320312 C 48.546875 151.304688 48.34375 151.285156 48.136719 151.265625 C 47.582031 151.195312 47.058594 151.078125 46.519531 150.929688 C 47.304688 134.132812 47.304688 134.132812 48.105469 126.128906 C 48.15625 125.609375 48.203125 125.089844 48.253906 124.570312 C 48.417969 122.925781 48.597656 121.300781 48.882812 119.671875 C 49.226562 117.640625 49.453125 115.59375 49.675781 113.542969 C 49.699219 113.339844 49.71875 113.132812 49.742188 112.921875 C 50.027344 110.335938 50.261719 107.753906 50.4375 105.160156 C 50.453125 104.910156 50.472656 104.664062 50.488281 104.40625 C 50.570312 103.191406 50.644531 101.980469 50.714844 100.765625 C 50.742188 100.324219 50.769531 99.882812 50.800781 99.441406 C 50.808594 99.238281 50.820312 99.035156 50.828125 98.828125 C 50.867188 98.265625 50.867188 98.265625 51.011719 97.367188 C 51.804688 96.839844 51.804688 96.839844 52.597656 96.839844 C 52.597656 97.011719 52.597656 97.1875 52.597656 97.367188 C 53.253906 97.496094 53.253906 97.496094 53.921875 97.628906 C 53.949219 97.472656 53.976562 97.316406 54.003906 97.152344 C 54.484375 95.628906 55.527344 95.660156 56.960938 95.683594 Z M 56.960938 95.683594 "/>
<path style=" stroke:none;fill-rule:nonzero;fill:rgb(5.098039%,4.705882%,4.705882%);fill-opacity:1;" d="M 63.964844 7.386719 C 66.804688 7.160156 66.804688 7.160156 67.796875 7.980469 C 68.324219 8.558594 68.816406 9.113281 69.25 9.761719 C 69.4375 9.707031 69.621094 9.652344 69.8125 9.597656 C 70.773438 9.472656 71.28125 9.625 72.160156 10.027344 C 73.710938 11.40625 73.710938 11.40625 73.78125 12.367188 C 73.777344 12.554688 73.777344 12.738281 73.777344 12.929688 C 73.777344 13.207031 73.777344 13.207031 73.78125 13.488281 C 73.746094 13.984375 73.746094 13.984375 73.480469 14.511719 C 73.710938 14.605469 73.9375 14.699219 74.175781 14.792969 C 75.46875 15.535156 76.4375 16.511719 76.917969 17.941406 C 77.066406 19.453125 76.980469 20.601562 76.125 21.902344 C 75.195312 23.007812 74.34375 23.601562 72.953125 24.011719 C 71.863281 24.007812 70.761719 23.976562 69.78125 23.484375 C 69.757812 23.683594 69.734375 23.886719 69.714844 24.09375 C 69.515625 24.804688 69.515625 24.804688 69.085938 25.28125 C 68.21875 25.714844 67.5625 25.683594 66.609375 25.59375 C 66.214844 25.332031 66.214844 25.332031 65.816406 25.066406 C 65.753906 25.269531 65.695312 25.46875 65.632812 25.675781 C 65.210938 26.542969 64.828125 26.777344 63.964844 27.179688 C 63.703125 27.179688 63.441406 27.179688 63.171875 27.179688 C 63.171875 28.050781 63.171875 28.917969 63.171875 29.816406 C 62.113281 29.289062 62.113281 29.289062 61.585938 28.761719 C 60.914062 28.785156 60.914062 28.785156 60.265625 29.023438 C 59.476562 30.203125 59.605469 31.335938 59.734375 32.71875 C 60.128906 33.8125 60.535156 34.554688 61.585938 35.09375 C 62.421875 35.160156 62.421875 35.160156 63.171875 35.09375 C 63.261719 36.480469 63.332031 37.632812 62.757812 38.921875 C 61.71875 39.984375 60.632812 40.359375 59.175781 40.488281 C 58.140625 40.546875 58.140625 40.546875 57.472656 41.179688 C 56.828125 41.691406 56.828125 41.691406 55.917969 41.839844 C 54.679688 41.644531 54.261719 41.261719 53.390625 40.371094 C 53.390625 40.199219 53.390625 40.023438 53.390625 39.84375 C 53.074219 39.867188 52.757812 39.886719 52.433594 39.910156 C 51.234375 39.902344 50.585938 39.621094 49.691406 38.789062 C 49.492188 38.285156 49.492188 38.285156 49.328125 37.734375 C 49.117188 37.050781 49.011719 36.753906 48.417969 36.34375 C 48.046875 36.171875 47.671875 36.007812 47.296875 35.847656 C 46.410156 35.457031 45.910156 34.851562 45.394531 34.054688 C 45.152344 33.386719 45.125 32.898438 45.199219 32.191406 C 45.371094 31.929688 45.546875 31.667969 45.726562 31.398438 C 45.359375 31.171875 45.359375 31.171875 44.984375 30.9375 C 43.769531 30.082031 43.769531 30.082031 43.347656 29.289062 C 43.234375 28.210938 43.367188 27.585938 43.875 26.652344 C 43.761719 26.546875 43.648438 26.445312 43.53125 26.335938 C 42.164062 24.871094 42.148438 23.617188 42.210938 21.710938 C 42.230469 21.246094 42.261719 20.78125 42.289062 20.316406 C 42.464844 20.316406 42.640625 20.316406 42.820312 20.316406 C 42.886719 20.160156 42.949219 20.003906 43.019531 19.839844 C 43.644531 18.746094 44.574219 18.359375 45.726562 17.941406 C 45.671875 17.707031 45.617188 17.476562 45.5625 17.234375 C 45.449219 16.253906 45.492188 15.882812 45.992188 15.039062 C 46.492188 14.507812 46.964844 14.148438 47.578125 13.722656 C 47.925781 13.722656 48.273438 13.722656 48.632812 13.722656 C 48.65625 13.570312 48.679688 13.417969 48.699219 13.257812 C 48.964844 12.460938 49.285156 12.117188 49.957031 11.609375 C 50.816406 11.542969 50.816406 11.542969 51.542969 11.609375 C 51.566406 11.316406 51.566406 11.316406 51.589844 11.015625 C 51.871094 10.066406 52.320312 9.785156 53.128906 9.234375 C 53.742188 8.929688 54.128906 8.925781 54.8125 8.921875 C 55.117188 8.917969 55.117188 8.917969 55.429688 8.910156 C 56.09375 8.976562 56.519531 9.167969 57.09375 9.5 C 57.199219 9.386719 57.304688 9.269531 57.414062 9.152344 C 58.289062 8.296875 58.914062 7.800781 60.164062 7.765625 C 61.164062 7.835938 61.839844 8.085938 62.644531 8.707031 C 62.761719 8.578125 62.882812 8.445312 63.007812 8.3125 C 63.4375 7.914062 63.4375 7.914062 63.964844 7.914062 C 63.964844 7.742188 63.964844 7.566406 63.964844 7.386719 Z M 63.964844 7.386719 "/>
<path style=" stroke:none;fill-rule:nonzero;fill:rgb(47.058824%,78.823531%,96.470588%);fill-opacity:1;" d="M 56.960938 95.683594 C 57.230469 95.679688 57.230469 95.679688 57.503906 95.675781 C 58.242188 95.679688 58.804688 95.699219 59.445312 96.089844 C 59.835938 96.742188 59.933594 97.328125 60.050781 98.074219 C 60.089844 98.335938 60.132812 98.601562 60.175781 98.871094 C 60.207031 99.070312 60.234375 99.269531 60.265625 99.476562 C 60.4375 99.476562 60.613281 99.476562 60.792969 99.476562 C 60.792969 99.824219 60.792969 100.175781 60.792969 100.53125 C 60.335938 100.839844 59.878906 101.148438 59.417969 101.457031 C 57.5625 103 57.582031 105.964844 57.347656 108.171875 C 57.304688 108.558594 57.261719 108.945312 57.214844 109.332031 C 57.101562 110.347656 56.988281 111.367188 56.878906 112.382812 C 56.769531 113.390625 56.65625 114.398438 56.539062 115.40625 C 56.339844 117.183594 56.144531 118.960938 55.953125 120.738281 C 55.820312 122 55.675781 123.257812 55.53125 124.519531 C 55.121094 128.148438 54.859375 131.726562 54.902344 135.378906 C 54.914062 136.109375 54.914062 136.835938 54.917969 137.5625 C 54.917969 138.039062 54.921875 138.511719 54.925781 138.988281 C 54.925781 139.199219 54.925781 139.410156 54.925781 139.628906 C 54.957031 142.828125 54.957031 142.828125 56.300781 145.652344 C 56.734375 145.929688 57.171875 146.195312 57.621094 146.445312 C 57.621094 146.707031 57.621094 146.96875 57.621094 147.238281 C 58.40625 147.5 58.40625 147.5 59.207031 147.765625 C 59.207031 148.113281 59.207031 148.460938 59.207031 148.820312 C 59.371094 148.863281 59.53125 148.902344 59.699219 148.945312 C 61.4375 149.449219 61.4375 149.449219 62.148438 150.238281 C 62.414062 151.03125 62.363281 151.460938 62.113281 152.25 C 60.277344 152.28125 58.476562 152.195312 56.648438 152.027344 C 56.390625 152.007812 56.132812 151.984375 55.867188 151.960938 C 55.328125 151.910156 54.789062 151.863281 54.25 151.8125 C 53.421875 151.738281 52.59375 151.664062 51.769531 151.59375 C 51.242188 151.546875 50.714844 151.5 50.1875 151.453125 C 49.941406 151.429688 49.695312 151.40625 49.441406 151.386719 C 49.214844 151.363281 48.984375 151.34375 48.746094 151.320312 C 48.546875 151.304688 48.34375 151.285156 48.136719 151.265625 C 47.582031 151.195312 47.058594 151.078125 46.519531 150.929688 C 47.304688 134.132812 47.304688 134.132812 48.105469 126.128906 C 48.15625 125.609375 48.203125 125.089844 48.253906 124.570312 C 48.417969 122.925781 48.597656 121.300781 48.882812 119.671875 C 49.226562 117.640625 49.453125 115.59375 49.675781 113.542969 C 49.699219 113.339844 49.71875 113.132812 49.742188 112.921875 C 50.027344 110.335938 50.261719 107.753906 50.4375 105.160156 C 50.453125 104.910156 50.472656 104.664062 50.488281 104.40625 C 50.570312 103.191406 50.644531 101.980469 50.714844 100.765625 C 50.742188 100.324219 50.769531 99.882812 50.800781 99.441406 C 50.808594 99.238281 50.820312 99.035156 50.828125 98.828125 C 50.867188 98.265625 50.867188 98.265625 51.011719 97.367188 C 51.804688 96.839844 51.804688 96.839844 52.597656 96.839844 C 52.597656 97.011719 52.597656 97.1875 52.597656 97.367188 C 53.253906 97.496094 53.253906 97.496094 53.921875 97.628906 C 53.949219 97.472656 53.976562 97.316406 54.003906 97.152344 C 54.484375 95.628906 55.527344 95.660156 56.960938 95.683594 Z M 56.960938 95.683594 "/>
<path style=" stroke:none;fill-rule:nonzero;fill:rgb(98.823529%,68.627453%,26.274511%);fill-opacity:1;" d="M 68.457031 49.871094 C 69.433594 50.054688 69.433594 50.054688 69.78125 50.398438 C 69.839844 50.925781 69.898438 51.453125 69.945312 51.980469 C 70.023438 52.589844 70.023438 52.589844 70.574219 53.300781 C 70.921875 53.386719 71.269531 53.476562 71.628906 53.566406 C 71.628906 52.605469 71.628906 51.648438 71.628906 50.664062 C 71.804688 50.75 71.980469 50.835938 72.160156 50.925781 C 72.226562 51.433594 72.292969 51.945312 72.332031 52.457031 C 72.441406 53.148438 72.683594 53.710938 72.953125 54.355469 C 74.089844 57.894531 74.355469 61.484375 74.539062 65.175781 C 74.554688 65.519531 74.554688 65.519531 74.570312 65.875 C 74.789062 70.511719 74.84375 75.144531 74.835938 79.785156 C 74.835938 80.128906 74.832031 80.472656 74.832031 80.824219 C 74.828125 84.863281 74.820312 88.902344 74.730469 92.9375 C 74.722656 93.335938 74.714844 93.734375 74.710938 94.132812 C 74.703125 94.667969 74.6875 95.207031 74.671875 95.742188 C 74.664062 96.035156 74.660156 96.324219 74.652344 96.625 C 74.523438 97.457031 74.34375 97.835938 73.746094 98.421875 C 72.894531 98.535156 72.894531 98.535156 71.878906 98.503906 C 71.703125 98.5 71.527344 98.496094 71.34375 98.492188 C 69.933594 98.453125 68.535156 98.34375 67.136719 98.15625 C 67.136719 97.984375 67.136719 97.808594 67.136719 97.628906 C 66.890625 97.582031 66.890625 97.582031 66.640625 97.53125 C 66.078125 97.367188 66.078125 97.367188 65.550781 96.839844 C 65.726562 96.839844 65.898438 96.839844 66.078125 96.839844 C 65.3125 92.804688 64.535156 88.777344 63.667969 84.765625 C 63.601562 84.464844 63.535156 84.160156 63.46875 83.847656 C 63.175781 82.492188 62.878906 81.140625 62.574219 79.789062 C 62.523438 79.5625 62.472656 79.335938 62.421875 79.105469 C 62.332031 78.699219 62.238281 78.296875 62.144531 77.894531 C 61.621094 75.507812 61.851562 73.222656 62.230469 70.832031 C 62.300781 70.363281 62.371094 69.894531 62.445312 69.429688 C 62.476562 69.203125 62.511719 68.980469 62.546875 68.75 C 62.640625 68.082031 62.714844 67.417969 62.785156 66.75 C 62.90625 65.703125 62.90625 65.703125 63.171875 65.175781 C 63.347656 65.175781 63.519531 65.175781 63.699219 65.175781 C 64.042969 65.628906 64.042969 65.628906 64.429688 66.265625 C 64.570312 66.5 64.714844 66.730469 64.863281 66.972656 C 65.011719 67.222656 65.164062 67.472656 65.320312 67.730469 C 65.628906 68.238281 65.941406 68.746094 66.25 69.257812 C 66.402344 69.503906 66.550781 69.753906 66.707031 70.011719 C 67.078125 70.621094 67.453125 71.226562 67.832031 71.828125 C 67.933594 71.988281 68.03125 72.144531 68.132812 72.308594 C 68.390625 72.71875 68.652344 73.128906 68.910156 73.539062 C 69.25 74.144531 69.25 74.144531 69.25 74.675781 C 69.425781 74.675781 69.601562 74.675781 69.78125 74.675781 C 69.785156 73.382812 69.792969 72.09375 69.792969 70.804688 C 69.796875 70.367188 69.796875 69.929688 69.800781 69.492188 C 69.804688 68.242188 69.804688 66.992188 69.785156 65.738281 C 69.78125 65.222656 69.777344 64.710938 69.777344 64.195312 C 69.710938 62.054688 69.117188 60.742188 67.863281 59.023438 C 67.558594 58.585938 67.253906 58.144531 66.949219 57.707031 C 66.804688 57.5 66.65625 57.289062 66.503906 57.078125 C 65.644531 55.84375 64.835938 54.652344 64.328125 53.234375 C 64.019531 52.394531 63.753906 51.855469 63.171875 51.191406 C 65.148438 51.058594 66.648438 51.441406 68.457031 52.246094 C 68.546875 52.332031 68.632812 52.417969 68.722656 52.507812 C 68.683594 52.363281 68.644531 52.214844 68.605469 52.0625 C 68.449219 51.421875 68.300781 50.789062 68.195312 50.132812 C 68.28125 50.046875 68.367188 49.960938 68.457031 49.871094 Z M 68.457031 49.871094 "/>
<path style=" stroke:none;fill-rule:nonzero;fill:rgb(96.470588%,77.64706%,53.725493%);fill-opacity:1;" d="M 69.78125 23.484375 C 70.304688 23.519531 70.824219 23.558594 71.347656 23.597656 C 71.640625 23.621094 71.933594 23.640625 72.230469 23.664062 C 72.953125 23.746094 72.953125 23.746094 73.214844 24.011719 C 73.238281 24.617188 73.242188 25.222656 73.242188 25.828125 C 73.242188 26.007812 73.242188 26.1875 73.242188 26.375 C 73.238281 26.957031 73.234375 27.539062 73.230469 28.117188 C 73.230469 28.511719 73.230469 28.902344 73.230469 29.296875 C 73.226562 30.261719 73.222656 31.226562 73.214844 32.191406 C 73.738281 32.367188 74.261719 32.539062 74.800781 32.71875 C 75 33.4375 75.101562 33.90625 74.902344 34.632812 C 74.539062 35.09375 74.539062 35.09375 73.84375 35.292969 C 73.636719 35.3125 73.429688 35.335938 73.214844 35.359375 C 73.226562 35.507812 73.234375 35.65625 73.242188 35.8125 C 73.3125 37.808594 72.832031 39.136719 71.5625 40.703125 C 69.742188 42.652344 67.574219 42.710938 65.023438 43.011719 C 64.933594 43.96875 64.847656 44.925781 64.757812 45.914062 C 64.054688 45.804688 63.355469 45.695312 62.667969 45.519531 C 61.015625 45.097656 59.449219 45.050781 57.753906 45.070312 C 57.363281 45.070312 57.363281 45.070312 56.96875 45.070312 C 55.402344 45.082031 53.886719 45.183594 52.335938 45.386719 C 53.101562 44.617188 53.976562 44.667969 55.011719 44.558594 C 55.210938 44.539062 55.410156 44.515625 55.613281 44.492188 C 56.105469 44.433594 56.601562 44.382812 57.09375 44.328125 C 57.082031 44.109375 57.066406 43.890625 57.054688 43.664062 C 57.042969 43.234375 57.042969 43.234375 57.027344 42.796875 C 57.015625 42.511719 57 42.226562 56.988281 41.933594 C 57.09375 41.164062 57.09375 41.164062 57.535156 40.683594 C 58.234375 40.328125 58.8125 40.210938 59.585938 40.109375 C 60.675781 39.929688 61.511719 39.777344 62.378906 39.050781 C 62.90625 38.207031 63.003906 37.464844 63.074219 36.480469 C 63.09375 36.21875 63.113281 35.960938 63.132812 35.691406 C 63.144531 35.496094 63.160156 35.296875 63.171875 35.09375 C 62.941406 35.164062 62.714844 35.234375 62.476562 35.308594 C 61.585938 35.359375 61.585938 35.359375 60.726562 34.796875 C 59.460938 33.476562 59.359375 32.273438 59.382812 30.503906 C 59.5 29.589844 59.851562 29.109375 60.527344 28.496094 C 61.691406 28.628906 62.300781 29.046875 63.171875 29.816406 C 63.171875 28.945312 63.171875 28.074219 63.171875 27.179688 C 63.707031 26.9375 64.238281 26.695312 64.773438 26.457031 C 65.375 26.066406 65.550781 25.726562 65.816406 25.066406 C 66.078125 25.15625 66.339844 25.242188 66.609375 25.332031 C 67.945312 25.464844 67.945312 25.464844 69.085938 24.851562 C 69.558594 24.277344 69.558594 24.277344 69.78125 23.484375 Z M 69.78125 23.484375 "/>
<path style=" stroke:none;fill-rule:nonzero;fill:rgb(98.823529%,67.843139%,24.313726%);fill-opacity:1;" d="M 48.371094 48.816406 C 48.457031 48.988281 48.542969 49.164062 48.632812 49.34375 C 48.554688 49.535156 48.476562 49.722656 48.394531 49.921875 C 47.84375 51.335938 47.925781 52.867188 48.105469 54.355469 C 48.542969 55.179688 49.125 55.523438 49.957031 55.941406 C 52.472656 56.21875 54.335938 55.726562 56.339844 54.179688 C 56.828125 53.828125 56.828125 53.828125 57.355469 53.828125 C 57.171875 55.871094 56.902344 57.898438 56.613281 59.929688 C 56.207031 62.835938 55.820312 65.742188 55.457031 68.65625 C 55.433594 68.832031 55.414062 69.007812 55.390625 69.191406 C 55.285156 70.023438 55.183594 70.859375 55.082031 71.691406 C 55.019531 72.214844 54.949219 72.738281 54.871094 73.261719 C 54.375 76.816406 55.554688 80.601562 56.265625 84.074219 C 56.355469 84.519531 56.449219 84.96875 56.539062 85.414062 C 56.71875 86.304688 56.898438 87.199219 57.082031 88.089844 C 57.273438 89.035156 57.460938 89.980469 57.652344 90.925781 C 57.699219 91.164062 57.746094 91.40625 57.796875 91.652344 C 57.886719 92.113281 57.980469 92.574219 58.070312 93.03125 C 58.113281 93.238281 58.152344 93.445312 58.195312 93.660156 C 58.230469 93.839844 58.265625 94.023438 58.304688 94.207031 C 58.417969 94.738281 58.542969 95.261719 58.679688 95.78125 C 58.292969 95.796875 58.292969 95.796875 57.898438 95.8125 C 57.558594 95.832031 57.222656 95.847656 56.878906 95.867188 C 56.375 95.886719 56.375 95.886719 55.863281 95.910156 C 55 95.976562 55 95.976562 54.480469 96.40625 C 54.132812 96.871094 54.132812 96.871094 53.921875 97.628906 C 53.484375 97.542969 53.046875 97.457031 52.597656 97.367188 C 52.597656 97.191406 52.597656 97.019531 52.597656 96.839844 C 52.417969 96.929688 52.238281 97.023438 52.054688 97.117188 C 51.058594 97.4375 50.4375 97.359375 49.425781 97.101562 C 48.765625 96.625 48.765625 96.625 48.371094 96.046875 C 48.484375 95.289062 48.71875 94.835938 49.097656 94.152344 C 51.644531 89.179688 52.382812 82.800781 52.371094 77.273438 C 52.371094 77.050781 52.371094 76.824219 52.371094 76.589844 C 52.351562 74.09375 52.199219 71.605469 52.023438 69.117188 C 51.972656 68.34375 51.921875 67.566406 51.871094 66.792969 C 51.652344 63.519531 51.363281 60.257812 51.011719 56.996094 C 50.847656 56.925781 50.683594 56.859375 50.515625 56.789062 C 50.300781 56.695312 50.085938 56.605469 49.863281 56.511719 C 49.652344 56.421875 49.4375 56.332031 49.21875 56.238281 C 48.261719 55.75 47.78125 55.03125 47.3125 54.09375 C 47.101562 52.082031 47.394531 50.578125 48.371094 48.816406 Z M 48.371094 48.816406 "/>
<path style=" stroke:none;fill-rule:nonzero;fill:rgb(64.705884%,38.82353%,25.882354%);fill-opacity:1;" d="M 47.839844 140.375 C 50.015625 140.417969 52.355469 140.546875 54.449219 141.167969 C 54.839844 141.949219 54.808594 142.707031 54.863281 143.574219 C 54.894531 144.082031 54.894531 144.082031 54.929688 144.601562 C 54.945312 144.859375 54.960938 145.121094 54.976562 145.390625 C 55.238281 145.390625 55.5 145.390625 55.769531 145.390625 C 55.769531 145.5625 55.769531 145.738281 55.769531 145.917969 C 56.207031 145.917969 56.644531 145.917969 57.09375 145.917969 C 57.15625 146.082031 57.222656 146.246094 57.289062 146.414062 C 57.679688 147.074219 57.976562 147.214844 58.679688 147.5 C 58.851562 147.589844 59.027344 147.675781 59.207031 147.765625 C 59.207031 148.113281 59.207031 148.460938 59.207031 148.820312 C 59.449219 148.882812 59.449219 148.882812 59.699219 148.945312 C 61.4375 149.449219 61.4375 149.449219 62.148438 150.238281 C 62.414062 151.03125 62.363281 151.460938 62.113281 152.25 C 60.277344 152.28125 58.476562 152.195312 56.648438 152.027344 C 56.390625 152.007812 56.132812 151.984375 55.867188 151.960938 C 55.328125 151.910156 54.789062 151.863281 54.25 151.8125 C 53.421875 151.738281 52.59375 151.664062 51.769531 151.59375 C 51.242188 151.546875 50.714844 151.5 50.1875 151.453125 C 49.941406 151.429688 49.695312 151.40625 49.441406 151.386719 C 49.097656 151.355469 49.097656 151.355469 48.746094 151.320312 C 48.546875 151.304688 48.34375 151.285156 48.136719 151.265625 C 47.582031 151.195312 47.058594 151.078125 46.519531 150.929688 C 46.746094 141.472656 46.746094 141.472656 47.839844 140.375 Z M 47.839844 140.375 "/>
<path style=" stroke:none;fill-rule:nonzero;fill:rgb(64.705884%,38.039216%,24.313726%);fill-opacity:1;" d="M 70.40625 142.207031 C 71.292969 142.230469 72.179688 142.257812 73.066406 142.289062 C 73.53125 142.300781 73.53125 142.300781 74.003906 142.3125 C 74.300781 142.320312 74.59375 142.332031 74.898438 142.34375 C 75.171875 142.351562 75.445312 142.359375 75.726562 142.367188 C 75.945312 142.40625 76.164062 142.445312 76.386719 142.488281 C 76.917969 143.277344 76.917969 143.277344 77 144.300781 C 77.09375 145.195312 77.183594 145.394531 77.773438 146.148438 C 78.457031 146.675781 79.03125 146.929688 79.824219 147.238281 C 79.953125 147.628906 79.953125 147.628906 80.089844 148.027344 C 79.914062 148.027344 79.738281 148.027344 79.558594 148.027344 C 80.160156 148.929688 80.4375 148.96875 81.410156 149.347656 C 81.523438 149.476562 81.636719 149.609375 81.757812 149.742188 C 82.492188 150.394531 83.367188 150.464844 84.316406 150.667969 C 84.316406 150.929688 84.316406 151.191406 84.316406 151.457031 C 79.519531 151.457031 74.722656 151.457031 69.78125 151.457031 C 69.601562 150.199219 69.480469 149.128906 69.480469 147.882812 C 69.480469 147.566406 69.480469 147.253906 69.480469 146.929688 C 69.480469 146.605469 69.480469 146.285156 69.480469 145.949219 C 69.480469 145.621094 69.480469 145.292969 69.480469 144.953125 C 69.480469 144.640625 69.480469 144.328125 69.480469 144.007812 C 69.480469 143.722656 69.480469 143.4375 69.480469 143.140625 C 69.527344 142.277344 69.542969 142.230469 70.40625 142.207031 Z M 70.40625 142.207031 "/>
<path style=" stroke:none;fill-rule:nonzero;fill:rgb(94.901961%,77.64706%,55.686277%);fill-opacity:1;" d="M 65.285156 96.574219 C 65.976562 96.867188 66.511719 97.207031 67.136719 97.628906 C 66.875 97.761719 66.875 97.761719 66.609375 97.894531 C 66.6875 99.085938 66.785156 100.074219 67.285156 101.175781 C 67.773438 102.382812 67.949219 103.46875 67.664062 104.753906 C 66.507812 105.808594 66.507812 105.808594 65.550781 105.808594 C 65.554688 105.980469 65.558594 106.152344 65.558594 106.332031 C 65.574219 107.964844 65.53125 109.582031 65.433594 111.210938 C 65.105469 117.019531 64.96875 122.816406 64.972656 128.632812 C 64.972656 129.140625 64.972656 129.140625 64.972656 129.65625 C 64.972656 133.503906 65.027344 137.332031 65.285156 141.167969 C 65.023438 141.167969 64.761719 141.167969 64.492188 141.167969 C 63.992188 136.933594 63.878906 132.75 63.898438 128.484375 C 63.898438 128.160156 63.898438 127.835938 63.898438 127.503906 C 63.914062 120.367188 64.011719 113.175781 64.757812 106.074219 C 64.484375 106.042969 64.210938 106.007812 63.933594 105.976562 C 63.007812 105.828125 62.199219 105.601562 61.320312 105.28125 C 60.835938 103.324219 60.730469 101.488281 60.792969 99.476562 C 60.617188 99.476562 60.445312 99.476562 60.265625 99.476562 C 61.34375 97.320312 62.871094 96.148438 65.285156 96.574219 Z M 65.285156 96.574219 "/>
<path style=" stroke:none;fill-rule:nonzero;fill:rgb(98.823529%,58.823532%,2.745098%);fill-opacity:1;" d="M 65.816406 80.214844 C 68.257812 80.214844 70.699219 80.214844 73.214844 80.214844 C 73.238281 81.355469 73.261719 82.496094 73.273438 83.636719 C 73.277344 84.023438 73.285156 84.414062 73.296875 84.800781 C 73.308594 85.359375 73.316406 85.917969 73.320312 86.476562 C 73.324219 86.8125 73.332031 87.148438 73.335938 87.496094 C 73.195312 88.546875 72.902344 88.96875 72.160156 89.714844 C 71.300781 90.140625 70.375 90.050781 69.433594 90.0625 C 69.230469 90.066406 69.03125 90.074219 68.824219 90.082031 C 68.628906 90.085938 68.433594 90.089844 68.230469 90.089844 C 68.050781 90.09375 67.875 90.097656 67.691406 90.101562 C 66.828125 89.910156 66.414062 89.570312 65.816406 88.921875 C 65.695312 88.195312 65.660156 87.636719 65.6875 86.914062 C 65.6875 86.722656 65.691406 86.53125 65.691406 86.332031 C 65.699219 85.722656 65.714844 85.113281 65.730469 84.503906 C 65.738281 84.089844 65.746094 83.671875 65.75 83.257812 C 65.765625 82.242188 65.789062 81.230469 65.816406 80.214844 Z M 65.816406 80.214844 "/>
<path style=" stroke:none;fill-rule:nonzero;fill:rgb(99.215686%,67.843139%,25.098041%);fill-opacity:1;" d="M 68.457031 49.871094 C 69.433594 50.054688 69.433594 50.054688 69.78125 50.398438 C 69.8125 50.703125 69.84375 51.007812 69.878906 51.320312 C 69.992188 52.347656 70.261719 53.242188 70.621094 54.207031 C 71.347656 56.484375 71.449219 58.621094 71.433594 60.988281 C 71.433594 61.566406 71.433594 62.144531 71.4375 62.722656 C 71.4375 63.09375 71.4375 63.464844 71.4375 63.835938 C 71.433594 64.167969 71.433594 64.503906 71.433594 64.84375 C 71.371094 65.644531 71.261719 66.089844 70.835938 66.757812 C 70.574219 66.757812 70.3125 66.757812 70.042969 66.757812 C 70.046875 66.457031 70.046875 66.15625 70.050781 65.847656 C 69.9375 62.210938 68.625 59.941406 66.5 57.050781 C 65.625 55.839844 64.835938 54.644531 64.328125 53.234375 C 64.019531 52.394531 63.753906 51.855469 63.171875 51.191406 C 65.148438 51.058594 66.648438 51.441406 68.457031 52.246094 C 68.546875 52.332031 68.632812 52.417969 68.722656 52.507812 C 68.683594 52.363281 68.644531 52.214844 68.605469 52.0625 C 68.449219 51.421875 68.300781 50.789062 68.195312 50.132812 C 68.28125 50.046875 68.367188 49.960938 68.457031 49.871094 Z M 68.457031 49.871094 "/>
<path style=" stroke:none;fill-rule:nonzero;fill:rgb(73.725492%,89.411765%,98.039216%);fill-opacity:1;" d="M 58.679688 102.378906 C 58.851562 102.378906 59.027344 102.378906 59.207031 102.378906 C 59.234375 106.121094 59.246094 109.855469 59.089844 113.59375 C 59.082031 113.855469 59.070312 114.117188 59.058594 114.382812 C 58.976562 116.195312 58.976562 116.195312 58.804688 117.035156 C 58.644531 117.746094 58.644531 117.746094 58.679688 118.738281 C 58.660156 119.363281 58.640625 119.984375 58.621094 120.609375 C 58.410156 127.375 58.382812 134.136719 58.414062 140.902344 C 58.152344 140.902344 57.890625 140.902344 57.621094 140.902344 C 57.257812 135.265625 57.425781 129.660156 57.621094 124.015625 C 57.628906 123.820312 57.632812 123.625 57.640625 123.425781 C 57.710938 121.382812 57.785156 119.335938 57.867188 117.292969 C 57.878906 116.835938 57.878906 116.375 57.871094 115.914062 C 57.886719 115.308594 57.886719 115.308594 58.148438 114.78125 C 58.167969 114.230469 58.171875 113.683594 58.167969 113.132812 C 58.164062 112.804688 58.164062 112.472656 58.160156 112.132812 C 58.15625 111.617188 58.15625 111.617188 58.148438 111.085938 C 58.144531 110.40625 58.136719 109.722656 58.132812 109.042969 C 58.128906 108.738281 58.128906 108.4375 58.125 108.121094 C 58.148438 107.394531 58.148438 107.394531 58.414062 106.867188 C 58.425781 106.15625 58.425781 105.449219 58.414062 104.738281 C 58.402344 104.039062 58.402344 103.34375 58.414062 102.644531 C 58.5 102.554688 58.589844 102.46875 58.679688 102.378906 Z M 58.679688 102.378906 "/>
<path style=" stroke:none;fill-rule:nonzero;fill:rgb(79.215688%,67.450982%,54.11765%);fill-opacity:1;" d="M 68.988281 143.015625 C 69.160156 143.015625 69.335938 143.015625 69.515625 143.015625 C 69.601562 145.800781 69.691406 148.589844 69.78125 151.457031 C 74.578125 151.457031 79.375 151.457031 84.316406 151.457031 C 84.316406 151.199219 84.316406 150.9375 84.316406 150.667969 C 84.082031 150.683594 83.847656 150.699219 83.605469 150.714844 C 82.632812 150.660156 82.1875 150.453125 81.410156 149.875 C 81.277344 149.613281 81.277344 149.613281 81.144531 149.347656 C 80.925781 149.265625 80.710938 149.183594 80.484375 149.101562 C 80.265625 149.007812 80.046875 148.914062 79.824219 148.820312 C 79.691406 148.429688 79.691406 148.429688 79.558594 148.027344 C 79.734375 148.027344 79.910156 148.027344 80.089844 148.027344 C 80.089844 148.203125 80.089844 148.375 80.089844 148.554688 C 80.296875 148.582031 80.503906 148.609375 80.714844 148.640625 C 81.410156 148.820312 81.410156 148.820312 81.9375 149.613281 C 82.609375 149.84375 83.28125 149.996094 83.96875 150.15625 C 84.582031 150.402344 84.582031 150.402344 84.929688 150.875 C 85.109375 151.457031 85.109375 151.457031 85.109375 152.777344 C 79.789062 152.777344 74.46875 152.777344 68.988281 152.777344 C 68.988281 149.554688 68.988281 146.335938 68.988281 143.015625 Z M 68.988281 143.015625 "/>
<path style=" stroke:none;fill-rule:nonzero;fill:rgb(73.333335%,89.019608%,97.647059%);fill-opacity:1;" d="M 64.492188 105.546875 C 64.84375 105.546875 65.191406 105.546875 65.550781 105.546875 C 65.582031 107.449219 65.546875 109.335938 65.433594 111.238281 C 65.105469 117.039062 64.96875 122.824219 64.972656 128.632812 C 64.972656 128.972656 64.972656 129.308594 64.972656 129.65625 C 64.972656 133.503906 65.027344 137.332031 65.285156 141.167969 C 65.023438 141.167969 64.761719 141.167969 64.492188 141.167969 C 63.992188 136.933594 63.878906 132.75 63.898438 128.484375 C 63.898438 128.160156 63.898438 127.835938 63.898438 127.503906 C 63.914062 120.550781 63.9375 113.5 64.734375 106.582031 C 64.800781 106.050781 64.800781 106.050781 64.492188 105.546875 Z M 64.492188 105.546875 "/>
<path style=" stroke:none;fill-rule:nonzero;fill:rgb(99.215686%,78.039217%,49.411765%);fill-opacity:1;" d="M 48.371094 48.816406 C 48.457031 48.988281 48.542969 49.164062 48.632812 49.34375 C 48.554688 49.535156 48.476562 49.722656 48.394531 49.921875 C 47.84375 51.339844 47.933594 52.863281 48.105469 54.355469 C 48.933594 55.675781 50.109375 56.007812 51.542969 56.46875 C 51.628906 57.773438 51.714844 59.078125 51.804688 60.425781 C 51.980469 60.425781 52.15625 60.425781 52.335938 60.425781 C 52.417969 60.804688 52.5 61.183594 52.582031 61.5625 C 52.628906 61.773438 52.675781 61.984375 52.722656 62.203125 C 53.121094 64.628906 53.164062 67.042969 53.132812 69.5 C 53.128906 69.832031 53.125 70.164062 53.121094 70.507812 C 53.113281 71.210938 53.101562 71.914062 53.09375 72.617188 C 53.078125 73.671875 53.070312 74.722656 53.0625 75.777344 C 52.992188 81.96875 52.320312 88.152344 49.957031 93.9375 C 49.78125 93.9375 49.605469 93.9375 49.425781 93.9375 C 49.472656 93.792969 49.515625 93.648438 49.5625 93.5 C 49.789062 92.765625 50.003906 92.03125 50.21875 91.296875 C 50.304688 91.007812 50.390625 90.714844 50.480469 90.417969 C 51.234375 87.746094 51.691406 85.074219 52.070312 82.324219 C 52.105469 82.089844 52.140625 81.851562 52.179688 81.605469 C 52.699219 77.5 52.308594 73.226562 52.023438 69.117188 C 51.972656 68.34375 51.921875 67.566406 51.871094 66.792969 C 51.652344 63.519531 51.363281 60.257812 51.011719 56.996094 C 50.847656 56.925781 50.683594 56.859375 50.515625 56.789062 C 50.300781 56.695312 50.085938 56.605469 49.863281 56.511719 C 49.652344 56.421875 49.4375 56.332031 49.21875 56.238281 C 48.261719 55.75 47.78125 55.03125 47.3125 54.09375 C 47.101562 52.082031 47.394531 50.578125 48.371094 48.816406 Z M 48.371094 48.816406 "/>
<path style=" stroke:none;fill-rule:nonzero;fill:rgb(87.058824%,81.176472%,66.666669%);fill-opacity:1;" d="M 46.519531 149.613281 C 48.242188 149.71875 49.960938 149.828125 51.683594 149.933594 C 52.265625 149.972656 52.851562 150.007812 53.4375 150.046875 C 54.28125 150.097656 55.125 150.152344 55.96875 150.203125 C 56.226562 150.21875 56.484375 150.238281 56.75 150.253906 C 58.367188 150.355469 59.976562 150.496094 61.585938 150.667969 C 61.453125 150.144531 61.453125 150.144531 61.320312 149.613281 C 62.007812 149.953125 62.121094 150.21875 62.378906 150.929688 C 62.28125 151.65625 62.28125 151.65625 62.113281 152.25 C 60.277344 152.28125 58.476562 152.195312 56.648438 152.027344 C 56.261719 151.996094 56.261719 151.996094 55.867188 151.960938 C 55.328125 151.910156 54.789062 151.863281 54.25 151.8125 C 53.421875 151.738281 52.59375 151.664062 51.769531 151.59375 C 51.242188 151.546875 50.714844 151.5 50.1875 151.453125 C 49.820312 151.417969 49.820312 151.417969 49.441406 151.386719 C 49.214844 151.363281 48.984375 151.34375 48.746094 151.320312 C 48.546875 151.304688 48.34375 151.285156 48.136719 151.265625 C 47.582031 151.195312 47.058594 151.078125 46.519531 150.929688 C 46.519531 150.496094 46.519531 150.058594 46.519531 149.613281 Z M 46.519531 149.613281 "/>
<path style=" stroke:none;fill-rule:nonzero;fill:rgb(50.196081%,28.235295%,17.254902%);fill-opacity:1;" d="M 72.953125 147.238281 C 73.789062 147.609375 74.324219 148.03125 74.800781 148.820312 C 74.953125 149.753906 74.890625 150.503906 74.800781 151.457031 C 73.144531 151.457031 71.488281 151.457031 69.78125 151.457031 C 69.78125 150.152344 69.78125 148.847656 69.78125 147.5 C 70.777344 147.003906 71.867188 147.074219 72.953125 147.238281 Z M 72.953125 147.238281 "/>
<path style=" stroke:none;fill-rule:nonzero;fill:rgb(50.196081%,27.843139%,16.862746%);fill-opacity:1;" d="M 48.964844 145.308594 C 49.984375 145.316406 50.402344 145.339844 51.292969 145.867188 C 52.003906 146.667969 52.324219 147.074219 52.402344 148.160156 C 52.335938 149.085938 52.335938 149.085938 51.804688 149.875 C 51.023438 149.890625 50.300781 149.863281 49.527344 149.792969 C 49.316406 149.777344 49.101562 149.761719 48.882812 149.746094 C 48.359375 149.703125 47.835938 149.660156 47.3125 149.613281 C 47.304688 148.957031 47.300781 148.304688 47.296875 147.648438 C 47.292969 147.371094 47.292969 147.371094 47.289062 147.082031 C 47.289062 146.605469 47.300781 146.128906 47.3125 145.652344 C 47.765625 145.199219 48.347656 145.324219 48.964844 145.308594 Z M 48.964844 145.308594 "/>
<path style=" stroke:none;fill-rule:nonzero;fill:rgb(99.607843%,94.901961%,87.843138%);fill-opacity:1;" d="M 68.457031 49.871094 C 69.480469 50.101562 69.480469 50.101562 69.78125 50.398438 C 69.8125 50.703125 69.84375 51.007812 69.878906 51.320312 C 69.992188 52.347656 70.261719 53.242188 70.621094 54.207031 C 71.347656 56.484375 71.449219 58.621094 71.433594 60.988281 C 71.433594 61.566406 71.433594 62.144531 71.4375 62.722656 C 71.4375 63.09375 71.4375 63.464844 71.4375 63.835938 C 71.433594 64.167969 71.433594 64.503906 71.433594 64.84375 C 71.371094 65.644531 71.261719 66.089844 70.835938 66.757812 C 70.664062 66.757812 70.488281 66.757812 70.308594 66.757812 C 70.3125 66.535156 70.316406 66.308594 70.320312 66.078125 C 70.496094 58.765625 70.496094 58.765625 68.722656 51.71875 C 68.546875 51.542969 68.375 51.371094 68.195312 51.191406 C 68.292969 50.496094 68.292969 50.496094 68.457031 49.871094 Z M 68.457031 49.871094 "/>
<path style=" stroke:none;fill-rule:nonzero;fill:rgb(98.039216%,86.666667%,72.156864%);fill-opacity:1;" d="M 72.6875 23.746094 C 72.863281 23.835938 73.035156 23.921875 73.214844 24.011719 C 73.214844 26.710938 73.214844 29.410156 73.214844 32.191406 C 73.738281 32.367188 74.261719 32.539062 74.800781 32.71875 C 75 33.4375 75.101562 33.90625 74.902344 34.632812 C 74.539062 35.09375 74.539062 35.09375 73.84375 35.292969 C 73.636719 35.3125 73.429688 35.335938 73.214844 35.359375 C 73.222656 35.515625 73.226562 35.671875 73.234375 35.832031 C 73.261719 37.03125 73.253906 37.960938 72.6875 39.050781 C 72.375 38.117188 72.449219 37.476562 72.539062 36.496094 C 72.566406 36.183594 72.59375 35.875 72.621094 35.554688 C 72.640625 35.3125 72.664062 35.074219 72.6875 34.832031 C 73.210938 34.65625 73.734375 34.480469 74.273438 34.300781 C 74.359375 33.867188 74.449219 33.433594 74.539062 32.984375 C 73.925781 32.894531 73.316406 32.808594 72.6875 32.71875 C 72.6875 29.757812 72.6875 26.796875 72.6875 23.746094 Z M 72.6875 23.746094 "/>
<path style=" stroke:none;fill-rule:nonzero;fill:rgb(99.607843%,95.294118%,89.411765%);fill-opacity:1;" d="M 68.457031 49.871094 C 69.480469 50.101562 69.480469 50.101562 69.78125 50.398438 C 69.8125 50.703125 69.84375 51.007812 69.878906 51.320312 C 69.972656 52.164062 70.15625 52.898438 70.441406 53.695312 C 71.042969 55.417969 71.316406 56.832031 70.574219 58.578125 C 70.484375 58.578125 70.398438 58.578125 70.308594 58.578125 C 70.261719 58.28125 70.210938 57.984375 70.164062 57.679688 C 69.773438 54.171875 69.773438 54.171875 68.195312 51.191406 C 68.292969 50.496094 68.292969 50.496094 68.457031 49.871094 Z M 68.457031 49.871094 "/>
<path style=" stroke:none;fill-rule:nonzero;fill:rgb(62.352943%,33.333334%,19.607843%);fill-opacity:1;" d="M 81.144531 149.085938 C 81.382812 149.328125 81.382812 149.328125 81.625 149.578125 C 82.449219 150.378906 83.199219 150.445312 84.316406 150.667969 C 84.316406 150.929688 84.316406 151.191406 84.316406 151.457031 C 81.265625 151.457031 78.210938 151.457031 75.066406 151.457031 C 75.066406 151.371094 75.066406 151.285156 75.066406 151.195312 C 75.21875 151.1875 75.371094 151.183594 75.527344 151.175781 C 76.222656 151.144531 76.914062 151.113281 77.609375 151.078125 C 77.847656 151.070312 78.085938 151.058594 78.332031 151.046875 C 79.554688 150.992188 80.734375 150.90625 81.9375 150.667969 C 80.929688 150.304688 80.070312 150.488281 79.03125 150.667969 C 79.03125 150.320312 79.03125 149.96875 79.03125 149.613281 C 79.890625 149.039062 80.148438 148.9375 81.144531 149.085938 Z M 81.144531 149.085938 "/>
<path style=" stroke:none;fill-rule:nonzero;fill:rgb(62.352943%,34.117648%,20%);fill-opacity:1;" d="M 58.679688 148.027344 C 58.722656 148.191406 58.765625 148.355469 58.8125 148.523438 C 59.445312 149.421875 60.265625 149.40625 61.320312 149.613281 C 61.410156 149.960938 61.496094 150.308594 61.585938 150.667969 C 59.261719 150.769531 57.011719 150.457031 54.714844 150.140625 C 54.714844 150.050781 54.714844 149.964844 54.714844 149.875 C 56.285156 149.875 57.855469 149.875 59.472656 149.875 C 58.613281 149.304688 58.519531 149.292969 57.570312 149.445312 C 57.074219 149.527344 57.074219 149.527344 56.5625 149.613281 C 56.476562 149.261719 56.390625 148.914062 56.300781 148.554688 C 57.207031 147.953125 57.617188 147.980469 58.679688 148.027344 Z M 58.679688 148.027344 "/>
<path style=" stroke:none;fill-rule:nonzero;fill:rgb(96.862745%,72.156864%,53.333336%);fill-opacity:1;" d="M 68.722656 32.191406 C 69.203125 32.605469 69.203125 32.605469 69.515625 32.984375 C 69.332031 33.496094 69.332031 33.496094 68.988281 34.039062 C 67.84375 34.496094 66.949219 34.152344 65.816406 33.773438 C 65.863281 33.148438 65.863281 33.148438 66.078125 32.457031 C 67.015625 31.882812 67.691406 31.839844 68.722656 32.191406 Z M 68.722656 32.191406 "/>
<path style=" stroke:none;fill-rule:nonzero;fill:rgb(86.274511%,80.784315%,64.313728%);fill-opacity:1;" d="M 69.25 151.195312 C 69.339844 151.367188 69.425781 151.542969 69.515625 151.722656 C 69.765625 151.71875 70.011719 151.714844 70.269531 151.714844 C 74.953125 151.675781 79.636719 151.847656 84.316406 151.988281 C 84.316406 152.074219 84.316406 152.160156 84.316406 152.25 C 79.433594 152.25 74.546875 152.25 69.515625 152.25 C 69.515625 152.425781 69.515625 152.597656 69.515625 152.777344 C 69.339844 152.777344 69.167969 152.777344 68.988281 152.777344 C 68.976562 152.339844 68.976562 151.898438 68.988281 151.457031 C 69.074219 151.371094 69.160156 151.285156 69.25 151.195312 Z M 69.25 151.195312 "/>
<path style=" stroke:none;fill-rule:nonzero;fill:rgb(70.980394%,88.235295%,98.039216%);fill-opacity:1;" d="M 54.714844 127.445312 C 54.800781 127.445312 54.886719 127.445312 54.976562 127.445312 C 54.976562 127.617188 54.976562 127.785156 54.976562 127.960938 C 54.96875 129.738281 54.964844 131.515625 54.964844 133.292969 C 54.960938 133.953125 54.960938 134.617188 54.957031 135.277344 C 54.953125 136.230469 54.953125 137.1875 54.953125 138.140625 C 54.949219 138.433594 54.949219 138.726562 54.949219 139.03125 C 54.867188 142.125 54.867188 142.125 55.789062 145.011719 C 55.957031 145.308594 56.125 145.609375 56.300781 145.917969 C 56.125 145.917969 55.949219 145.917969 55.769531 145.917969 C 55.769531 145.742188 55.769531 145.570312 55.769531 145.390625 C 55.507812 145.390625 55.246094 145.390625 54.976562 145.390625 C 54.359375 142.253906 54.375 139.148438 54.394531 135.964844 C 54.398438 135.078125 54.398438 134.1875 54.398438 133.296875 C 54.402344 132.730469 54.402344 132.160156 54.40625 131.59375 C 54.40625 131.328125 54.40625 131.066406 54.40625 130.792969 C 54.40625 130.546875 54.410156 130.296875 54.410156 130.042969 C 54.410156 129.828125 54.414062 129.613281 54.414062 129.390625 C 54.453125 128.722656 54.566406 128.097656 54.714844 127.445312 Z M 54.714844 127.445312 "/>
<path style=" stroke:none;fill-rule:nonzero;fill:rgb(63.529414%,85.490197%,97.647059%);fill-opacity:1;" d="M 58.148438 129.558594 C 58.238281 129.558594 58.324219 129.558594 58.414062 129.558594 C 58.414062 133.300781 58.414062 137.046875 58.414062 140.902344 C 58.152344 140.902344 57.890625 140.902344 57.621094 140.902344 C 57.582031 138.359375 57.703125 135.839844 57.886719 133.300781 C 57.910156 132.9375 57.9375 132.570312 57.960938 132.203125 C 58.023438 131.320312 58.085938 130.441406 58.148438 129.558594 Z M 58.148438 129.558594 "/>
<path style=" stroke:none;fill-rule:nonzero;fill:rgb(79.607844%,67.450982%,51.764709%);fill-opacity:1;" d="M 61.320312 149.613281 C 61.496094 149.699219 61.671875 149.785156 61.851562 149.875 C 61.851562 150.222656 61.851562 150.570312 61.851562 150.929688 C 60.671875 151.0625 60.671875 151.0625 59.472656 151.195312 C 59.472656 151.28125 59.472656 151.367188 59.472656 151.457031 C 58.875 151.472656 58.28125 151.484375 57.6875 151.492188 C 57.355469 151.496094 57.023438 151.503906 56.683594 151.511719 C 55.84375 151.460938 55.410156 151.378906 54.714844 150.929688 C 54.800781 150.84375 54.886719 150.757812 54.976562 150.667969 C 54.542969 150.582031 54.105469 150.492188 53.65625 150.402344 C 53.65625 150.316406 53.65625 150.230469 53.65625 150.140625 C 59.210938 150.390625 59.210938 150.390625 61.585938 150.667969 C 61.5 150.320312 61.410156 149.96875 61.320312 149.613281 Z M 61.320312 149.613281 "/>
<path style=" stroke:none;fill-rule:nonzero;fill:rgb(62.7451%,40.000001%,28.235295%);fill-opacity:1;" d="M 69.78125 142.222656 C 70.875 142.261719 71.972656 142.300781 73.066406 142.339844 C 73.378906 142.347656 73.691406 142.359375 74.015625 142.371094 C 74.460938 142.386719 74.460938 142.386719 74.917969 142.402344 C 75.191406 142.414062 75.46875 142.421875 75.75 142.433594 C 76.386719 142.488281 76.386719 142.488281 76.652344 142.75 C 76.664062 143.367188 76.664062 143.984375 76.652344 144.597656 C 76.566406 144.597656 76.476562 144.597656 76.386719 144.597656 C 76.386719 144.164062 76.386719 143.726562 76.386719 143.277344 C 75.777344 143.277344 75.167969 143.277344 74.539062 143.277344 C 74.539062 143.191406 74.539062 143.105469 74.539062 143.015625 C 72.96875 143.015625 71.398438 143.015625 69.78125 143.015625 C 69.78125 142.753906 69.78125 142.492188 69.78125 142.222656 Z M 69.78125 142.222656 "/>
<path style=" stroke:none;fill-rule:nonzero;fill:rgb(50.588238%,29.019609%,18.039216%);fill-opacity:1;" d="M 69.78125 144.070312 C 70.164062 144.054688 70.550781 144.046875 70.9375 144.039062 C 71.152344 144.03125 71.367188 144.023438 71.585938 144.019531 C 72.160156 144.070312 72.160156 144.070312 72.6875 144.597656 C 72.589844 145.160156 72.589844 145.160156 72.421875 145.652344 C 70.375 145.6875 70.375 145.6875 69.78125 145.390625 C 69.78125 144.953125 69.78125 144.519531 69.78125 144.070312 Z M 69.78125 144.070312 "/>
<path style=" stroke:none;fill-rule:nonzero;fill:rgb(50.196081%,28.235295%,17.254902%);fill-opacity:1;" d="M 47.578125 142.222656 C 47.960938 142.210938 48.347656 142.199219 48.734375 142.191406 C 48.949219 142.183594 49.164062 142.179688 49.382812 142.171875 C 49.957031 142.222656 49.957031 142.222656 50.484375 142.75 C 50.386719 143.3125 50.386719 143.3125 50.21875 143.808594 C 48.621094 143.859375 48.621094 143.859375 48.105469 143.808594 C 47.929688 143.632812 47.757812 143.457031 47.578125 143.277344 C 47.578125 142.929688 47.578125 142.582031 47.578125 142.222656 Z M 47.578125 142.222656 "/>
<path style=" stroke:none;fill-rule:nonzero;fill:rgb(51.372552%,80.784315%,96.862745%);fill-opacity:1;" d="M 54.714844 122.699219 C 54.800781 122.699219 54.886719 122.699219 54.976562 122.699219 C 54.976562 123.21875 54.976562 123.742188 54.976562 124.28125 C 55.152344 124.28125 55.328125 124.28125 55.507812 124.28125 C 55.386719 125.839844 55.199219 127.277344 54.714844 128.765625 C 53.976562 127.714844 54.171875 126.648438 54.269531 125.433594 C 54.285156 125.128906 54.285156 125.128906 54.304688 124.816406 C 54.410156 123.304688 54.410156 123.304688 54.714844 122.699219 Z M 54.714844 122.699219 "/>
<path style=" stroke:none;fill-rule:nonzero;fill:rgb(78.431374%,91.37255%,98.431373%);fill-opacity:1;" d="M 57.886719 115.308594 C 58.058594 115.308594 58.234375 115.308594 58.414062 115.308594 C 58.414062 116.179688 58.414062 117.050781 58.414062 117.949219 C 58.589844 117.949219 58.761719 117.949219 58.941406 117.949219 C 58.90625 118.132812 58.871094 118.316406 58.835938 118.507812 C 58.558594 119.992188 58.320312 121.464844 58.148438 122.960938 C 57.976562 122.960938 57.800781 122.960938 57.621094 122.960938 C 57.628906 122.8125 57.636719 122.667969 57.644531 122.515625 C 57.683594 121.832031 57.71875 121.152344 57.753906 120.472656 C 57.765625 120.238281 57.777344 120.007812 57.792969 119.769531 C 57.867188 118.28125 57.898438 116.800781 57.886719 115.308594 Z M 57.886719 115.308594 "/>
<path style=" stroke:none;fill-rule:nonzero;fill:rgb(98.431373%,80.784315%,57.647061%);fill-opacity:1;" d="M 57.09375 41.164062 C 57.355469 41.25 57.617188 41.335938 57.886719 41.425781 C 57.847656 41.949219 57.808594 42.472656 57.769531 42.992188 C 57.75 43.285156 57.726562 43.574219 57.703125 43.875 C 57.621094 44.59375 57.621094 44.59375 57.355469 44.855469 C 56.8125 44.964844 56.269531 45.054688 55.722656 45.136719 C 55.421875 45.183594 55.125 45.230469 54.816406 45.277344 C 53.980469 45.378906 53.179688 45.402344 52.335938 45.386719 C 53.101562 44.617188 53.976562 44.667969 55.011719 44.558594 C 55.210938 44.539062 55.410156 44.515625 55.613281 44.492188 C 56.105469 44.433594 56.601562 44.382812 57.09375 44.328125 C 57.09375 43.285156 57.09375 42.238281 57.09375 41.164062 Z M 57.09375 41.164062 "/>
<path style=" stroke:none;fill-rule:nonzero;fill:rgb(40.784314%,40.392157%,40.392157%);fill-opacity:1;" d="M 63.964844 7.386719 C 66.496094 7.1875 66.496094 7.1875 67.417969 7.683594 C 67.847656 8.046875 67.847656 8.046875 68.457031 8.707031 C 68.371094 8.882812 68.285156 9.054688 68.195312 9.234375 C 68.023438 9.0625 67.855469 8.886719 67.683594 8.707031 C 66.597656 8 65.753906 7.984375 64.492188 8.179688 C 63.738281 8.507812 63.738281 8.507812 63.171875 8.972656 C 62.910156 9.144531 62.648438 9.320312 62.378906 9.5 C 62.117188 9.238281 61.855469 8.976562 61.585938 8.707031 C 61.671875 8.535156 61.761719 8.359375 61.851562 8.179688 C 62.242188 8.441406 62.242188 8.441406 62.644531 8.707031 C 62.824219 8.511719 62.824219 8.511719 63.007812 8.3125 C 63.4375 7.914062 63.4375 7.914062 63.964844 7.914062 C 63.964844 7.742188 63.964844 7.566406 63.964844 7.386719 Z M 63.964844 7.386719 "/>
<path style=" stroke:none;fill-rule:nonzero;fill:rgb(97.254902%,96.862745%,94.901961%);fill-opacity:1;" d="M 68.457031 49.871094 C 69.433594 50.054688 69.433594 50.054688 69.78125 50.398438 C 69.839844 50.796875 69.890625 51.199219 69.929688 51.601562 C 69.949219 51.820312 69.972656 52.039062 69.996094 52.261719 C 70.011719 52.429688 70.027344 52.601562 70.042969 52.773438 C 69.78125 52.859375 69.519531 52.945312 69.25 53.035156 C 68.734375 52.074219 68.320312 51.226562 68.195312 50.132812 C 68.28125 50.046875 68.367188 49.960938 68.457031 49.871094 Z M 68.457031 49.871094 "/>
<path style=" stroke:none;fill-rule:nonzero;fill:rgb(83.529413%,76.078433%,58.431375%);fill-opacity:1;" d="M 46.785156 150.140625 C 49.050781 150.140625 51.320312 150.140625 53.65625 150.140625 C 53.394531 150.53125 53.394531 150.53125 53.128906 150.929688 C 52.292969 151.019531 52.292969 151.019531 51.261719 150.996094 C 50.996094 150.992188 50.996094 150.992188 50.722656 150.988281 C 49.394531 150.960938 48.097656 150.851562 46.785156 150.667969 C 46.785156 150.492188 46.785156 150.320312 46.785156 150.140625 Z M 46.785156 150.140625 "/>
<path style=" stroke:none;fill-rule:nonzero;fill:rgb(50.196081%,28.235295%,17.254902%);fill-opacity:1;" d="M 80.089844 147.765625 C 78.6875 149.28125 78.6875 149.28125 77.710938 149.347656 C 77.535156 149.261719 77.359375 149.171875 77.179688 149.085938 C 77.261719 148.589844 77.261719 148.589844 77.445312 148.027344 C 78.460938 147.351562 78.921875 147.546875 80.089844 147.765625 Z M 80.089844 147.765625 "/>
<path style=" stroke:none;fill-rule:nonzero;fill:rgb(78.039217%,90.980393%,98.431373%);fill-opacity:1;" d="M 64.757812 114.78125 C 64.84375 114.78125 64.933594 114.78125 65.023438 114.78125 C 65.039062 115.6875 65.046875 116.59375 65.054688 117.503906 C 65.058594 117.761719 65.0625 118.019531 65.070312 118.285156 C 65.070312 118.53125 65.070312 118.777344 65.074219 119.035156 C 65.078125 119.261719 65.078125 119.488281 65.082031 119.722656 C 65.023438 120.324219 65.023438 120.324219 64.492188 121.113281 C 64.441406 120.554688 64.394531 119.992188 64.34375 119.433594 C 64.316406 119.121094 64.289062 118.808594 64.261719 118.484375 C 64.230469 117.683594 64.230469 117.683594 64.492188 117.15625 C 64.554688 116.75 64.601562 116.34375 64.640625 115.9375 C 64.664062 115.71875 64.6875 115.503906 64.710938 115.28125 C 64.726562 115.117188 64.742188 114.953125 64.757812 114.78125 Z M 64.757812 114.78125 "/>
<path style=" stroke:none;fill-rule:nonzero;fill:rgb(50.588238%,29.019609%,18.039216%);fill-opacity:1;" d="M 81.144531 149.085938 C 81.234375 149.34375 81.320312 149.605469 81.410156 149.875 C 81.234375 149.875 81.0625 149.875 80.882812 149.875 C 80.882812 150.050781 80.882812 150.222656 80.882812 150.402344 C 80.269531 150.492188 79.660156 150.578125 79.03125 150.667969 C 79.03125 150.320312 79.03125 149.96875 79.03125 149.613281 C 79.882812 149.042969 80.164062 149.03125 81.144531 149.085938 Z M 81.144531 149.085938 "/>
<path style=" stroke:none;fill-rule:nonzero;fill:rgb(49.411765%,27.058825%,16.078432%);fill-opacity:1;" d="M 58.679688 148.027344 C 58.597656 148.523438 58.597656 148.523438 58.414062 149.085938 C 57.621094 149.613281 57.621094 149.613281 56.910156 149.511719 C 56.710938 149.457031 56.507812 149.402344 56.300781 149.347656 C 56.398438 148.835938 56.398438 148.835938 56.5625 148.292969 C 57.28125 147.933594 57.886719 148.011719 58.679688 148.027344 Z M 58.679688 148.027344 "/>
<path style=" stroke:none;fill-rule:nonzero;fill:rgb(46.666667%,46.666667%,46.666667%);fill-opacity:1;" d="M 45.726562 33.773438 C 46.003906 34.078125 46.003906 34.078125 46.289062 34.386719 C 47.34375 35.371094 48.296875 35.800781 49.691406 36.148438 C 49.777344 37.019531 49.867188 37.890625 49.957031 38.789062 C 49.78125 38.699219 49.605469 38.613281 49.425781 38.523438 C 49.371094 38.234375 49.316406 37.949219 49.261719 37.648438 C 48.867188 36.597656 48.820312 36.539062 47.875 36.101562 C 47.6875 36.019531 47.5 35.941406 47.304688 35.859375 C 46.621094 35.546875 46.1875 35.160156 45.726562 34.566406 C 45.726562 34.304688 45.726562 34.042969 45.726562 33.773438 Z M 45.726562 33.773438 "/>
<path style=" stroke:none;fill-rule:nonzero;fill:rgb(49.411765%,27.058825%,16.078432%);fill-opacity:1;" d="M 56.480469 146.28125 C 56.683594 146.335938 56.882812 146.390625 57.09375 146.445312 C 57.003906 146.792969 56.917969 147.140625 56.828125 147.5 C 56.21875 147.589844 55.605469 147.675781 54.976562 147.765625 C 54.976562 147.417969 54.976562 147.066406 54.976562 146.710938 C 55.769531 146.179688 55.769531 146.179688 56.480469 146.28125 Z M 56.480469 146.28125 "/>
<path style=" stroke:none;fill-rule:nonzero;fill:rgb(99.215686%,73.333335%,38.039216%);fill-opacity:1;" d="M 71.628906 50.664062 C 71.804688 50.75 71.980469 50.835938 72.160156 50.925781 C 72.40625 52.25 72.457031 53.292969 72.160156 54.621094 C 71.984375 54.53125 71.808594 54.445312 71.628906 54.355469 C 71.628906 54.183594 71.628906 54.007812 71.628906 53.828125 C 71.457031 53.828125 71.28125 53.828125 71.101562 53.828125 C 71.101562 54.175781 71.101562 54.523438 71.101562 54.882812 C 70.925781 54.882812 70.753906 54.882812 70.574219 54.882812 C 70.484375 54.363281 70.398438 53.839844 70.308594 53.300781 C 70.960938 53.429688 70.960938 53.429688 71.628906 53.566406 C 71.628906 52.605469 71.628906 51.648438 71.628906 50.664062 Z M 71.628906 50.664062 "/>
<path style=" stroke:none;fill-rule:nonzero;fill:rgb(99.215686%,96.078432%,91.764706%);fill-opacity:1;" d="M 68.722656 36.414062 C 69.769531 36.414062 70.816406 36.414062 71.894531 36.414062 C 71.628906 37.203125 71.628906 37.203125 71.101562 37.46875 C 70.03125 37.539062 69.636719 37.550781 68.722656 36.941406 C 68.722656 36.765625 68.722656 36.59375 68.722656 36.414062 Z M 68.722656 36.414062 "/>
<path style=" stroke:none;fill-rule:nonzero;fill:rgb(26.274511%,25.882354%,26.666668%);fill-opacity:1;" d="M 70.308594 29.816406 C 70.855469 29.933594 70.855469 29.933594 71.367188 30.082031 C 71.53125 30.707031 71.53125 30.707031 71.628906 31.398438 C 71.457031 31.574219 71.28125 31.75 71.101562 31.925781 C 70.539062 31.828125 70.539062 31.828125 70.042969 31.664062 C 70.03125 31.136719 70.035156 30.609375 70.042969 30.082031 C 70.132812 29.992188 70.21875 29.90625 70.308594 29.816406 Z M 70.308594 29.816406 "/>
<path style=" stroke:none;fill-rule:nonzero;fill:rgb(51.764709%,51.372552%,51.372552%);fill-opacity:1;" d="M 51.542969 10.820312 C 51.628906 11.167969 51.714844 11.515625 51.804688 11.875 C 51.511719 11.949219 51.21875 12.027344 50.914062 12.105469 C 49.957031 12.320312 49.957031 12.320312 49.425781 12.929688 C 49.257812 13.609375 49.257812 13.609375 49.164062 14.25 C 47.984375 14.378906 47.984375 14.378906 46.785156 14.511719 C 47.046875 14.25 47.308594 13.988281 47.578125 13.722656 C 47.925781 13.722656 48.273438 13.722656 48.632812 13.722656 C 48.65625 13.570312 48.679688 13.417969 48.699219 13.257812 C 48.964844 12.460938 49.285156 12.117188 49.957031 11.609375 C 50.816406 11.542969 50.816406 11.542969 51.542969 11.609375 C 51.542969 11.347656 51.542969 11.085938 51.542969 10.820312 Z M 51.542969 10.820312 "/>
<path style=" stroke:none;fill-rule:nonzero;fill:rgb(90.196079%,77.64706%,53.725493%);fill-opacity:1;" d="M 69.78125 23.484375 C 70.738281 23.570312 71.699219 23.65625 72.6875 23.746094 C 72.6875 23.921875 72.6875 24.097656 72.6875 24.277344 C 71.816406 24.277344 70.941406 24.277344 70.042969 24.277344 C 69.871094 24.710938 69.695312 25.144531 69.515625 25.59375 C 69.167969 25.507812 68.816406 25.421875 68.457031 25.332031 C 68.710938 25.09375 68.710938 25.09375 68.96875 24.851562 C 69.570312 24.300781 69.570312 24.300781 69.78125 23.484375 Z M 69.78125 23.484375 "/>
<path style=" stroke:none;fill-rule:nonzero;fill:rgb(67.450982%,86.666667%,97.647059%);fill-opacity:1;" d="M 58.414062 119.265625 C 58.5 119.265625 58.589844 119.265625 58.679688 119.265625 C 58.589844 121.707031 58.503906 124.144531 58.414062 126.65625 C 58.328125 126.65625 58.238281 126.65625 58.148438 126.65625 C 58.132812 126.476562 58.117188 126.300781 58.101562 126.117188 C 58.078125 125.878906 58.058594 125.644531 58.035156 125.402344 C 58.011719 125.167969 57.992188 124.9375 57.96875 124.695312 C 57.894531 124.097656 57.78125 123.542969 57.621094 122.960938 C 57.796875 122.960938 57.96875 122.960938 58.148438 122.960938 C 58.140625 122.488281 58.140625 122.488281 58.132812 122.003906 C 58.132812 121.066406 58.230469 120.1875 58.414062 119.265625 Z M 58.414062 119.265625 "/>
<path style=" stroke:none;fill-rule:nonzero;fill:rgb(85.490197%,63.921571%,41.176471%);fill-opacity:1;" d="M 70.175781 27.226562 C 70.378906 27.246094 70.585938 27.269531 70.796875 27.289062 C 71.464844 27.46875 71.738281 27.691406 72.160156 28.234375 C 72.160156 28.40625 72.160156 28.582031 72.160156 28.761719 C 71.984375 28.761719 71.808594 28.761719 71.628906 28.761719 C 71.527344 28.628906 71.421875 28.5 71.316406 28.367188 C 70.820312 27.882812 70.820312 27.882812 69.910156 27.871094 C 69.003906 27.882812 69.003906 27.882812 68.507812 28.367188 C 68.351562 28.5625 68.351562 28.5625 68.195312 28.761719 C 68.019531 28.761719 67.84375 28.761719 67.664062 28.761719 C 68.210938 27.503906 68.800781 27.070312 70.175781 27.226562 Z M 70.175781 27.226562 "/>
<path style=" stroke:none;fill-rule:nonzero;fill:rgb(67.450982%,87.058824%,98.039216%);fill-opacity:1;" d="M 64.492188 112.144531 C 64.582031 112.144531 64.667969 112.144531 64.757812 112.144531 C 64.984375 113.816406 65.167969 115.496094 64.757812 117.15625 C 64.582031 117.332031 64.410156 117.503906 64.230469 117.683594 C 64.222656 117.058594 64.214844 116.429688 64.210938 115.804688 C 64.210938 115.628906 64.207031 115.453125 64.207031 115.273438 C 64.199219 114.199219 64.285156 113.195312 64.492188 112.144531 Z M 64.492188 112.144531 "/>
<path style=" stroke:none;fill-rule:nonzero;fill:rgb(99.607843%,93.333334%,84.313726%);fill-opacity:1;" d="M 70.574219 54.882812 C 71.074219 55.621094 71.097656 55.96875 71.035156 56.878906 C 70.835938 57.785156 70.835938 57.785156 70.308594 58.578125 C 70.25 58.0625 70.195312 57.546875 70.144531 57.027344 C 70.113281 56.738281 70.082031 56.453125 70.050781 56.15625 C 70.046875 55.910156 70.046875 55.664062 70.042969 55.410156 C 70.21875 55.238281 70.394531 55.0625 70.574219 54.882812 Z M 70.574219 54.882812 "/>
<path style=" stroke:none;fill-rule:nonzero;fill:rgb(80.000001%,64.705884%,57.254905%);fill-opacity:1;" d="M 54.449219 141.433594 C 54.625 141.433594 54.796875 141.433594 54.976562 141.433594 C 54.984375 141.578125 54.992188 141.726562 55 141.878906 C 55.117188 143.460938 55.519531 144.535156 56.300781 145.917969 C 56.125 145.917969 55.949219 145.917969 55.769531 145.917969 C 55.769531 145.742188 55.769531 145.570312 55.769531 145.390625 C 55.507812 145.390625 55.246094 145.390625 54.976562 145.390625 C 54.804688 144.082031 54.628906 142.777344 54.449219 141.433594 Z M 54.449219 141.433594 "/>
<path style=" stroke:none;fill-rule:nonzero;fill:rgb(97.647059%,76.078433%,49.803922%);fill-opacity:1;" d="M 64.144531 96.523438 C 64.46875 96.535156 64.46875 96.535156 64.792969 96.546875 C 64.957031 96.554688 65.117188 96.566406 65.285156 96.574219 C 65.285156 96.75 65.285156 96.921875 65.285156 97.101562 C 64.214844 97.363281 63.214844 97.386719 62.113281 97.367188 C 62.753906 96.578125 63.144531 96.480469 64.144531 96.523438 Z M 64.144531 96.523438 "/>
<path style=" stroke:none;fill-rule:nonzero;fill:rgb(88.627452%,69.01961%,34.901962%);fill-opacity:1;" d="M 65.550781 96.839844 C 67.070312 97.035156 67.070312 97.035156 67.664062 97.628906 C 68.367188 97.78125 69.0625 97.824219 69.78125 97.894531 C 69.78125 97.980469 69.78125 98.066406 69.78125 98.15625 C 68.90625 98.15625 68.035156 98.15625 67.136719 98.15625 C 67.136719 97.984375 67.136719 97.808594 67.136719 97.628906 C 66.972656 97.597656 66.808594 97.566406 66.640625 97.53125 C 66.078125 97.367188 66.078125 97.367188 65.550781 96.839844 Z M 65.550781 96.839844 "/>
<path style=" stroke:none;fill-rule:nonzero;fill:rgb(72.941178%,89.019608%,98.039216%);fill-opacity:1;" d="M 57.621094 138.265625 C 58.226562 139.175781 58.292969 139.832031 58.414062 140.902344 C 58.152344 140.902344 57.890625 140.902344 57.621094 140.902344 C 57.621094 140.035156 57.621094 139.164062 57.621094 138.265625 Z M 57.621094 138.265625 "/>
<path style=" stroke:none;fill-rule:nonzero;fill:rgb(65.098041%,38.039216%,24.313726%);fill-opacity:1;" d="M 80.882812 150.140625 C 81.40625 150.3125 81.929688 150.488281 82.46875 150.667969 C 82.46875 150.753906 82.46875 150.839844 82.46875 150.929688 C 81.59375 151.019531 80.722656 151.105469 79.824219 151.195312 C 80.171875 150.847656 80.523438 150.5 80.882812 150.140625 Z M 80.882812 150.140625 "/>
<path style=" stroke:none;fill-rule:nonzero;fill:rgb(64.313728%,85.882354%,97.647059%);fill-opacity:1;" d="M 64.230469 119.53125 C 64.316406 119.53125 64.402344 119.53125 64.492188 119.53125 C 64.582031 120.226562 64.667969 120.925781 64.757812 121.640625 C 64.582031 121.640625 64.410156 121.640625 64.230469 121.640625 C 64.230469 122.078125 64.230469 122.511719 64.230469 122.960938 C 64.140625 122.960938 64.054688 122.960938 63.964844 122.960938 C 63.957031 122.585938 63.953125 122.214844 63.949219 121.839844 C 63.945312 121.632812 63.941406 121.421875 63.9375 121.210938 C 63.964844 120.609375 64.0625 120.105469 64.230469 119.53125 Z M 64.230469 119.53125 "/>
<path style=" stroke:none;fill-rule:nonzero;fill:rgb(84.313726%,80.392158%,72.941178%);fill-opacity:1;" d="M 68.457031 49.871094 C 69.433594 50.054688 69.433594 50.054688 69.78125 50.398438 C 69.789062 50.839844 69.792969 51.277344 69.78125 51.71875 C 69.703125 51.550781 69.628906 51.378906 69.546875 51.207031 C 69.296875 50.621094 69.296875 50.621094 68.722656 50.398438 C 68.636719 50.660156 68.546875 50.921875 68.457031 51.191406 C 68.308594 50.679688 68.308594 50.679688 68.195312 50.132812 C 68.28125 50.046875 68.367188 49.960938 68.457031 49.871094 Z M 68.457031 49.871094 "/>
<path style=" stroke:none;fill-rule:nonzero;fill:rgb(83.137256%,72.549021%,50.196081%);fill-opacity:1;" d="M 69.78125 23.484375 C 69.953125 23.570312 70.128906 23.65625 70.308594 23.746094 C 70.046875 24.359375 69.785156 24.96875 69.515625 25.59375 C 69.167969 25.507812 68.816406 25.421875 68.457031 25.332031 C 68.710938 25.09375 68.710938 25.09375 68.96875 24.851562 C 69.570312 24.300781 69.570312 24.300781 69.78125 23.484375 Z M 69.78125 23.484375 "/>
<path style=" stroke:none;fill-rule:nonzero;fill:rgb(48.627451%,26.274511%,14.901961%);fill-opacity:1;" d="M 80.089844 149.085938 C 80.742188 149.214844 80.742188 149.214844 81.410156 149.347656 C 81.410156 149.523438 81.410156 149.695312 81.410156 149.875 C 81.234375 149.875 81.0625 149.875 80.882812 149.875 C 80.882812 150.050781 80.882812 150.222656 80.882812 150.402344 C 80.621094 150.316406 80.359375 150.230469 80.089844 150.140625 C 80.089844 149.792969 80.089844 149.441406 80.089844 149.085938 Z M 80.089844 149.085938 "/>
<path style=" stroke:none;fill-rule:nonzero;fill:rgb(66.274512%,86.666667%,97.647059%);fill-opacity:1;" d="M 63.964844 134.042969 C 64.050781 134.304688 64.140625 134.566406 64.230469 134.835938 C 64.402344 134.835938 64.578125 134.835938 64.757812 134.835938 C 64.671875 135.53125 64.582031 136.226562 64.492188 136.945312 C 64.40625 136.945312 64.320312 136.945312 64.230469 136.945312 C 64.140625 135.988281 64.054688 135.03125 63.964844 134.042969 Z M 63.964844 134.042969 "/>
<path style=" stroke:none;fill-rule:nonzero;fill:rgb(39.215687%,78.431374%,98.431373%);fill-opacity:1;" d="M 66.609375 97.894531 C 66.871094 97.980469 67.132812 98.066406 67.402344 98.15625 C 67.3125 98.765625 67.226562 99.378906 67.136719 100.003906 C 66.960938 100.003906 66.789062 100.003906 66.609375 100.003906 C 66.609375 99.308594 66.609375 98.613281 66.609375 97.894531 Z M 66.609375 97.894531 "/>
<path style=" stroke:none;fill-rule:nonzero;fill:rgb(95.686275%,91.764706%,85.490197%);fill-opacity:1;" d="M 105.199219 49.605469 C 105.371094 49.605469 105.546875 49.605469 105.726562 49.605469 C 105.726562 49.78125 105.726562 49.953125 105.726562 50.132812 C 105.550781 50.132812 105.378906 50.132812 105.199219 50.132812 C 105.199219 49.960938 105.199219 49.785156 105.199219 49.605469 Z M 105.199219 49.605469 "/>
</g>
</svg>
