<?xml version="1.0" encoding="UTF-8"?>
<svg xmlns="http://www.w3.org/2000/svg" xmlns:xlink="http://www.w3.org/1999/xlink" width="120px" height="157px" viewBox="0 0 120 157" version="1.1">
<g id="surface1">
<path style=" stroke:none;fill-rule:nonzero;fill:rgb(98.823529%,59.215689%,3.529412%);fill-opacity:1;" d="M 58.679688 5.804688 C 59.363281 6.175781 59.726562 6.546875 60.265625 7.125 C 60.4375 6.949219 60.613281 6.777344 60.792969 6.597656 C 61.625 6.042969 62.171875 5.898438 63.171875 5.945312 C 64.324219 6.214844 65.003906 7.105469 65.816406 7.914062 C 66.078125 7.742188 66.339844 7.566406 66.609375 7.386719 C 67.621094 7.089844 68.132812 7.105469 69.152344 7.421875 C 70.074219 7.933594 70.535156 8.355469 71.101562 9.234375 C 71.101562 9.410156 71.101562 9.582031 71.101562 9.761719 C 71.386719 9.78125 71.667969 9.796875 71.960938 9.8125 C 72.953125 10.027344 72.953125 10.027344 73.597656 10.652344 C 74.007812 11.347656 74.007812 11.347656 74.007812 12.136719 C 74.292969 12.160156 74.574219 12.179688 74.867188 12.203125 C 75.941406 12.417969 76.253906 12.617188 76.917969 13.457031 C 77.3125 14.246094 77.210938 14.964844 77.179688 15.832031 C 77.09375 16.007812 77.007812 16.179688 76.917969 16.359375 C 77.152344 16.425781 77.386719 16.492188 77.625 16.558594 C 78.683594 16.957031 79.570312 17.4375 80.089844 18.46875 C 80.140625 19.246094 80.171875 20.003906 80.1875 20.78125 C 80.203125 21.097656 80.203125 21.097656 80.21875 21.417969 C 80.234375 22.5625 80.171875 23.265625 79.421875 24.164062 C 79.207031 24.375 78.988281 24.585938 78.765625 24.804688 C 78.855469 24.933594 78.941406 25.066406 79.03125 25.199219 C 79.402344 26.128906 79.523438 26.996094 79.296875 27.96875 C 78.660156 28.785156 77.898438 29.226562 76.917969 29.554688 C 77.007812 29.6875 77.101562 29.824219 77.195312 29.964844 C 77.5625 30.914062 77.445312 31.476562 77.179688 32.457031 C 76.515625 33.539062 75.816406 34.285156 74.605469 34.699219 C 74.320312 34.828125 74.035156 34.960938 73.746094 35.09375 C 73.433594 36 73.433594 36 73.214844 36.941406 C 71.855469 38.230469 71.050781 38.289062 69.25 38.261719 C 69.1875 38.421875 69.121094 38.585938 69.054688 38.753906 C 68.644531 39.445312 68.425781 39.597656 67.664062 39.84375 C 67.046875 39.863281 66.429688 39.867188 65.816406 39.84375 C 65.820312 40.125 65.824219 40.410156 65.832031 40.703125 C 65.820312 41.480469 65.757812 42.015625 65.550781 42.746094 C 65.769531 42.757812 65.992188 42.765625 66.21875 42.777344 C 68.832031 42.929688 71.003906 43.179688 72.972656 45.027344 C 74.398438 46.765625 75.675781 49.171875 75.59375 51.453125 C 75.171875 52.832031 74.585938 53.699219 73.480469 54.621094 C 72.691406 55.015625 72.25 55.148438 71.367188 55.148438 C 71.371094 55.320312 71.378906 55.496094 71.382812 55.671875 C 71.417969 57.523438 71.285156 59.308594 71.046875 61.140625 C 70.542969 65.160156 70.515625 69.207031 70.507812 73.25 C 70.507812 74.109375 70.5 74.972656 70.488281 75.832031 C 70.464844 80.464844 70.855469 84.765625 72.421875 89.152344 C 72.511719 89.421875 72.605469 89.691406 72.699219 89.96875 C 73.199219 91.425781 73.199219 91.425781 73.910156 92.789062 C 74.273438 93.410156 74.273438 93.410156 74.257812 94.101562 C 73.949219 94.878906 73.691406 95.128906 72.953125 95.519531 C 72.511719 95.53125 72.070312 95.53125 71.628906 95.519531 C 72.292969 103.507812 73.105469 111.480469 73.976562 119.449219 C 74.054688 120.140625 74.128906 120.832031 74.207031 121.527344 C 74.382812 123.152344 74.5625 124.78125 74.75 126.410156 C 75.253906 130.875 75.59375 135.339844 75.875 139.824219 C 75.921875 140.550781 75.96875 141.28125 76.015625 142.007812 C 76.070312 142.882812 76.128906 143.761719 76.183594 144.636719 C 76.203125 144.960938 76.226562 145.28125 76.246094 145.613281 C 76.265625 145.914062 76.285156 146.210938 76.304688 146.519531 C 76.320312 146.777344 76.335938 147.039062 76.351562 147.308594 C 76.386719 147.988281 76.394531 148.667969 76.386719 149.347656 C 75.175781 149.457031 73.964844 149.5625 72.75 149.671875 C 72.339844 149.707031 71.929688 149.746094 71.519531 149.78125 C 63.933594 150.460938 63.933594 150.460938 60.527344 150.402344 C 60.484375 149.558594 60.507812 148.828125 60.792969 148.027344 C 61.640625 147.398438 62.632812 146.972656 63.699219 146.972656 C 63.789062 146.625 63.875 146.277344 63.964844 145.917969 C 64.402344 145.832031 64.835938 145.742188 65.285156 145.652344 C 65.199219 145.304688 65.113281 144.957031 65.023438 144.597656 C 65.816406 144.070312 65.816406 144.070312 66.609375 144.070312 C 66.691406 143.863281 66.769531 143.65625 66.855469 143.445312 C 67.136719 142.75 67.136719 142.75 67.402344 142.222656 C 67.660156 140.660156 67.710938 139.078125 67.726562 137.496094 C 67.730469 137.273438 67.734375 137.050781 67.734375 136.824219 C 67.832031 126.511719 66.683594 116.394531 65.359375 106.179688 C 65.328125 105.949219 65.296875 105.714844 65.265625 105.476562 C 65.238281 105.261719 65.210938 105.046875 65.179688 104.824219 C 65.15625 104.636719 65.132812 104.449219 65.105469 104.257812 C 65.011719 103.628906 64.886719 103.003906 64.757812 102.378906 C 64.75 104.296875 64.746094 106.210938 64.742188 108.125 C 64.742188 108.777344 64.738281 109.429688 64.738281 110.078125 C 64.734375 111.015625 64.734375 111.957031 64.730469 112.894531 C 64.730469 113.183594 64.730469 113.472656 64.726562 113.769531 C 64.726562 115.277344 64.804688 116.71875 65.023438 118.210938 C 65.03125 118.789062 65.03125 119.367188 65.023438 119.945312 C 65.007812 121.335938 65.042969 122.714844 65.117188 124.105469 C 65.28125 127.257812 65.316406 130.410156 65.320312 133.566406 C 65.320312 133.789062 65.320312 134.015625 65.320312 134.246094 C 65.324219 134.890625 65.324219 135.539062 65.320312 136.183594 C 65.320312 136.378906 65.324219 136.570312 65.324219 136.773438 C 65.320312 137.660156 65.300781 138.472656 65.023438 139.320312 C 64.761719 139.234375 64.5 139.148438 64.230469 139.058594 C 64.230469 138.84375 64.230469 138.625 64.230469 138.40625 C 64.234375 136.375 64.238281 134.34375 64.242188 132.3125 C 64.246094 131.269531 64.246094 130.226562 64.25 129.183594 C 64.25 128.175781 64.253906 127.167969 64.253906 126.160156 C 64.253906 125.773438 64.253906 125.390625 64.257812 125.007812 C 64.257812 124.46875 64.257812 123.929688 64.257812 123.390625 C 64.257812 123.085938 64.261719 122.777344 64.261719 122.460938 C 64.230469 121.714844 64.128906 121.050781 63.964844 120.324219 C 63.949219 119.964844 63.941406 119.605469 63.949219 119.25 C 63.949219 119.054688 63.953125 118.863281 63.953125 118.664062 C 63.957031 118.464844 63.960938 118.265625 63.964844 118.0625 C 64.023438 116.6875 64.023438 116.6875 63.832031 115.332031 C 63.671875 114.667969 63.667969 114.070312 63.671875 113.386719 C 63.671875 112.96875 63.671875 112.96875 63.671875 112.542969 C 63.671875 112.246094 63.671875 111.945312 63.675781 111.636719 C 63.675781 111.332031 63.675781 111.023438 63.675781 110.707031 C 63.675781 109.722656 63.679688 108.738281 63.683594 107.757812 C 63.683594 107.089844 63.6875 106.425781 63.6875 105.761719 C 63.691406 104.304688 63.695312 102.84375 63.699219 101.382812 C 63.753906 100.378906 63.753906 100.378906 63.039062 99.578125 C 62.820312 99.371094 62.605469 99.164062 62.378906 98.949219 C 62.332031 99.246094 62.28125 99.539062 62.234375 99.84375 C 62.167969 100.234375 62.097656 100.621094 62.03125 101.011719 C 62 101.207031 61.96875 101.402344 61.9375 101.601562 C 61.683594 103.042969 61.683594 103.042969 61.191406 103.691406 C 60.703125 104.023438 60.316406 104.125 59.734375 104.226562 C 59.507812 104.28125 59.277344 104.335938 59.042969 104.390625 C 58.414062 104.492188 58.414062 104.492188 57.886719 104.226562 C 57.617188 104.1875 57.351562 104.152344 57.074219 104.113281 C 56.820312 104.0625 56.5625 104.011719 56.300781 103.964844 C 56.210938 103.789062 56.125 103.613281 56.035156 103.433594 C 55.582031 104.6875 55.300781 105.921875 55.058594 107.226562 C 55.019531 107.433594 54.980469 107.644531 54.9375 107.859375 C 54.855469 108.296875 54.773438 108.738281 54.691406 109.179688 C 54.566406 109.847656 54.4375 110.511719 54.3125 111.179688 C 54.230469 111.609375 54.148438 112.039062 54.066406 112.46875 C 54.011719 112.765625 54.011719 112.765625 53.953125 113.066406 C 53.542969 115.289062 53.351562 117.460938 53.355469 119.722656 C 53.355469 119.964844 53.355469 120.203125 53.355469 120.453125 C 53.355469 120.960938 53.355469 121.46875 53.359375 121.976562 C 53.359375 122.734375 53.359375 123.488281 53.355469 124.246094 C 53.355469 126.667969 53.394531 129.082031 53.523438 131.503906 C 53.71875 135.226562 53.6875 138.949219 53.675781 142.675781 C 53.671875 143.640625 53.671875 144.605469 53.667969 145.570312 C 53.667969 147.445312 53.660156 149.320312 53.65625 151.195312 C 48.421875 151.195312 43.1875 151.195312 37.796875 151.195312 C 37.882812 150.410156 37.972656 149.628906 38.0625 148.820312 C 38.90625 148.257812 39.507812 148.125 40.484375 147.9375 C 41.070312 147.78125 41.070312 147.78125 41.496094 146.972656 C 41.757812 146.925781 41.757812 146.925781 42.027344 146.875 C 42.199219 146.820312 42.375 146.765625 42.554688 146.710938 C 42.636719 146.496094 42.71875 146.285156 42.804688 146.066406 C 42.894531 145.84375 42.988281 145.621094 43.082031 145.390625 C 43.523438 145.210938 43.964844 145.035156 44.40625 144.863281 C 46.734375 142.105469 46.027344 136.664062 45.988281 133.242188 C 45.980469 132.59375 45.976562 131.949219 45.972656 131.300781 C 45.960938 129.46875 45.949219 127.632812 45.925781 125.796875 C 45.859375 120.074219 46.0625 114.628906 47.046875 108.976562 C 47.117188 108.554688 47.183594 108.136719 47.25 107.714844 C 47.40625 106.75 47.574219 105.785156 47.742188 104.820312 C 48.289062 101.601562 48.289062 101.601562 48.75 98.371094 C 48.792969 98.035156 48.835938 97.699219 48.882812 97.355469 C 48.972656 96.523438 48.972656 96.523438 48.371094 95.78125 C 48.289062 95.085938 48.234375 94.414062 48.207031 93.714844 C 48.199219 93.503906 48.1875 93.292969 48.175781 93.078125 C 48.066406 90.507812 48.0625 87.9375 48.0625 85.363281 C 48.058594 84.828125 48.058594 84.292969 48.058594 83.753906 C 48.058594 82.636719 48.054688 81.519531 48.058594 80.398438 C 48.058594 79.269531 48.054688 78.140625 48.050781 77.011719 C 47.992188 57.957031 47.992188 57.957031 50.0625 51.742188 C 50.257812 51.136719 50.257812 51.136719 50.253906 50.265625 C 50.785156 48.136719 52.613281 46.796875 54.410156 45.6875 C 56.527344 44.429688 56.527344 44.429688 57.621094 44.066406 C 57.628906 43.632812 57.632812 43.195312 57.636719 42.761719 C 57.640625 42.519531 57.644531 42.277344 57.648438 42.03125 C 57.691406 41.4375 57.691406 41.4375 57.355469 41.164062 C 56.824219 41.085938 56.289062 41.015625 55.753906 40.949219 C 53.460938 40.601562 52.035156 40.019531 50.542969 38.230469 C 49.820312 37.117188 49.625 36.195312 49.660156 34.878906 C 49.664062 34.621094 49.667969 34.363281 49.671875 34.097656 C 49.679688 33.90625 49.683594 33.710938 49.691406 33.511719 C 49.484375 33.476562 49.277344 33.445312 49.0625 33.410156 C 48.371094 33.246094 48.371094 33.246094 47.839844 32.71875 C 47.941406 31.761719 47.941406 31.761719 48.105469 30.871094 C 48.890625 30.742188 48.890625 30.742188 49.691406 30.609375 C 49.691406 27.820312 49.691406 25.035156 49.691406 22.164062 C 49.167969 21.992188 48.644531 21.816406 48.105469 21.636719 C 46.992188 20.914062 46.417969 20.257812 45.992188 19 C 45.824219 17.507812 45.773438 16.265625 46.453125 14.910156 C 46.648438 14.691406 46.847656 14.472656 47.046875 14.25 C 47.222656 14.054688 47.398438 13.855469 47.578125 13.65625 C 48.089844 13.207031 48.554688 12.953125 49.164062 12.664062 C 49.15625 12.488281 49.152344 12.308594 49.144531 12.125 C 49.140625 11.890625 49.136719 11.65625 49.128906 11.414062 C 49.125 11.179688 49.117188 10.945312 49.113281 10.707031 C 49.167969 9.984375 49.308594 9.578125 49.691406 8.972656 C 50.558594 8.242188 51.226562 8.152344 52.316406 8.113281 C 53.128906 8.0625 53.527344 8.019531 54.160156 7.5 C 54.582031 7.003906 54.582031 7.003906 54.9375 6.488281 C 55.746094 5.375 57.453125 5.644531 58.679688 5.804688 Z M 64.230469 101.058594 C 64.492188 101.589844 64.492188 101.589844 64.492188 101.589844 Z M 64.230469 101.058594 "/>
<path style=" stroke:none;fill-rule:nonzero;fill:rgb(98.823529%,68.235296%,25.882354%);fill-opacity:1;" d="M 53.390625 48.289062 C 53.835938 48.363281 54.277344 48.449219 54.714844 48.550781 C 54.671875 48.710938 54.625 48.867188 54.582031 49.03125 C 54.417969 49.636719 54.417969 49.636719 54.449219 50.398438 C 54.738281 50.273438 55.027344 50.148438 55.324219 50.019531 C 56.679688 49.503906 58.035156 49.417969 59.472656 49.34375 C 59.152344 50 58.824219 50.578125 58.414062 51.191406 C 58.34375 51.464844 58.273438 51.742188 58.203125 52.023438 C 57.871094 53.246094 57.199219 54.207031 56.496094 55.246094 C 56.300781 55.546875 56.300781 55.546875 56.101562 55.851562 C 55.578125 56.65625 55.054688 57.429688 54.441406 58.164062 C 51.695312 61.484375 53.207031 68.523438 53.390625 72.5625 C 53.871094 71.808594 54.351562 71.058594 54.828125 70.304688 C 54.972656 70.078125 55.117188 69.851562 55.261719 69.621094 C 55.953125 68.535156 56.632812 67.445312 57.285156 66.335938 C 57.394531 66.152344 57.5 65.96875 57.613281 65.78125 C 57.8125 65.4375 58.011719 65.089844 58.210938 64.746094 C 58.441406 64.351562 58.691406 63.96875 58.941406 63.589844 C 59.117188 63.589844 59.292969 63.589844 59.472656 63.589844 C 60.75 69.578125 61 74.472656 59.644531 80.484375 C 59.390625 81.628906 59.167969 82.777344 58.941406 83.925781 C 58.664062 85.335938 58.375 86.738281 58.0625 88.140625 C 57.972656 88.546875 57.972656 88.546875 57.882812 88.960938 C 57.765625 89.480469 57.648438 90 57.53125 90.519531 C 57.199219 92.007812 56.96875 93.46875 56.828125 94.992188 C 57.023438 94.980469 57.21875 94.972656 57.417969 94.964844 C 59.992188 94.890625 59.992188 94.890625 61.058594 95.78125 C 61.585938 96.3125 61.585938 96.3125 61.585938 97.367188 C 62.421875 97.191406 62.421875 97.191406 62.679688 96.507812 C 62.765625 96.269531 62.851562 96.03125 62.941406 95.78125 C 63.417969 94.480469 63.417969 94.480469 63.699219 94.199219 C 67.160156 93.632812 67.160156 93.632812 68.222656 94.273438 C 68.574219 94.710938 68.574219 94.710938 68.988281 95.519531 C 69.902344 95.257812 69.902344 95.257812 70.835938 94.992188 C 70.835938 95.164062 70.835938 95.339844 70.835938 95.519531 C 71.097656 95.519531 71.359375 95.519531 71.628906 95.519531 C 71.652344 95.789062 71.675781 96.058594 71.699219 96.335938 C 72.339844 104.054688 73.136719 111.75 73.976562 119.449219 C 74.054688 120.140625 74.128906 120.832031 74.207031 121.527344 C 74.382812 123.152344 74.5625 124.78125 74.75 126.410156 C 75.253906 130.875 75.59375 135.339844 75.875 139.824219 C 75.921875 140.550781 75.96875 141.28125 76.015625 142.007812 C 76.070312 142.882812 76.128906 143.761719 76.183594 144.636719 C 76.203125 144.960938 76.226562 145.28125 76.246094 145.613281 C 76.265625 145.914062 76.285156 146.210938 76.304688 146.519531 C 76.320312 146.777344 76.335938 147.039062 76.351562 147.308594 C 76.386719 147.988281 76.394531 148.667969 76.386719 149.347656 C 75.175781 149.457031 73.964844 149.5625 72.75 149.671875 C 72.339844 149.707031 71.929688 149.746094 71.519531 149.78125 C 63.933594 150.460938 63.933594 150.460938 60.527344 150.402344 C 60.484375 149.558594 60.507812 148.828125 60.792969 148.027344 C 61.640625 147.398438 62.632812 146.972656 63.699219 146.972656 C 63.789062 146.625 63.875 146.277344 63.964844 145.917969 C 64.402344 145.832031 64.835938 145.742188 65.285156 145.652344 C 65.199219 145.304688 65.113281 144.957031 65.023438 144.597656 C 65.816406 144.070312 65.816406 144.070312 66.609375 144.070312 C 66.730469 143.761719 66.730469 143.761719 66.855469 143.445312 C 67.136719 142.75 67.136719 142.75 67.402344 142.222656 C 67.660156 140.660156 67.710938 139.078125 67.726562 137.496094 C 67.730469 137.273438 67.734375 137.050781 67.734375 136.824219 C 67.832031 126.511719 66.683594 116.394531 65.359375 106.179688 C 65.328125 105.949219 65.296875 105.714844 65.265625 105.476562 C 65.222656 105.152344 65.222656 105.152344 65.179688 104.824219 C 65.15625 104.636719 65.132812 104.449219 65.105469 104.257812 C 65.011719 103.628906 64.886719 103.003906 64.757812 102.378906 C 64.75 104.296875 64.746094 106.210938 64.742188 108.125 C 64.742188 108.777344 64.738281 109.429688 64.738281 110.078125 C 64.734375 111.015625 64.734375 111.957031 64.730469 112.894531 C 64.730469 113.183594 64.730469 113.472656 64.726562 113.769531 C 64.726562 115.277344 64.804688 116.71875 65.023438 118.210938 C 65.03125 118.789062 65.03125 119.367188 65.023438 119.945312 C 65.007812 121.335938 65.042969 122.714844 65.117188 124.105469 C 65.28125 127.257812 65.316406 130.410156 65.320312 133.566406 C 65.320312 133.789062 65.320312 134.015625 65.320312 134.246094 C 65.324219 134.890625 65.324219 135.539062 65.320312 136.183594 C 65.320312 136.378906 65.324219 136.570312 65.324219 136.773438 C 65.320312 137.660156 65.300781 138.472656 65.023438 139.320312 C 64.761719 139.234375 64.5 139.148438 64.230469 139.058594 C 64.230469 138.84375 64.230469 138.625 64.230469 138.40625 C 64.234375 136.375 64.238281 134.34375 64.242188 132.3125 C 64.246094 131.269531 64.246094 130.226562 64.25 129.183594 C 64.25 128.175781 64.253906 127.167969 64.253906 126.160156 C 64.253906 125.773438 64.253906 125.390625 64.257812 125.007812 C 64.257812 124.46875 64.257812 123.929688 64.257812 123.390625 C 64.257812 123.085938 64.261719 122.777344 64.261719 122.460938 C 64.230469 121.714844 64.128906 121.050781 63.964844 120.324219 C 63.949219 119.964844 63.941406 119.605469 63.949219 119.25 C 63.949219 119.054688 63.953125 118.863281 63.953125 118.664062 C 63.957031 118.464844 63.960938 118.265625 63.964844 118.0625 C 64.023438 116.6875 64.023438 116.6875 63.832031 115.332031 C 63.671875 114.667969 63.667969 114.070312 63.671875 113.386719 C 63.671875 112.96875 63.671875 112.96875 63.671875 112.542969 C 63.671875 112.246094 63.671875 111.945312 63.675781 111.636719 C 63.675781 111.332031 63.675781 111.023438 63.675781 110.707031 C 63.675781 109.722656 63.679688 108.738281 63.683594 107.757812 C 63.683594 107.089844 63.6875 106.425781 63.6875 105.761719 C 63.691406 104.304688 63.695312 102.84375 63.699219 101.382812 C 63.753906 100.378906 63.753906 100.378906 63.039062 99.578125 C 62.820312 99.371094 62.605469 99.164062 62.378906 98.949219 C 62.332031 99.246094 62.28125 99.539062 62.234375 99.84375 C 62.167969 100.234375 62.097656 100.621094 62.03125 101.011719 C 62 101.207031 61.96875 101.402344 61.9375 101.601562 C 61.683594 103.042969 61.683594 103.042969 61.191406 103.691406 C 60.703125 104.023438 60.316406 104.125 59.734375 104.226562 C 59.507812 104.28125 59.277344 104.335938 59.042969 104.390625 C 58.414062 104.492188 58.414062 104.492188 57.886719 104.226562 C 57.617188 104.1875 57.351562 104.152344 57.074219 104.113281 C 56.820312 104.0625 56.5625 104.011719 56.300781 103.964844 C 56.210938 103.789062 56.125 103.613281 56.035156 103.433594 C 55.582031 104.6875 55.300781 105.921875 55.058594 107.226562 C 55.019531 107.433594 54.980469 107.644531 54.9375 107.859375 C 54.855469 108.296875 54.773438 108.738281 54.691406 109.179688 C 54.566406 109.847656 54.4375 110.511719 54.3125 111.179688 C 54.230469 111.609375 54.148438 112.039062 54.066406 112.46875 C 54.03125 112.664062 53.992188 112.863281 53.953125 113.066406 C 53.542969 115.289062 53.351562 117.460938 53.355469 119.722656 C 53.355469 119.964844 53.355469 120.203125 53.355469 120.453125 C 53.355469 120.960938 53.355469 121.46875 53.359375 121.976562 C 53.359375 122.734375 53.359375 123.488281 53.355469 124.246094 C 53.355469 126.667969 53.394531 129.082031 53.523438 131.503906 C 53.71875 135.226562 53.6875 138.949219 53.675781 142.675781 C 53.671875 143.640625 53.671875 144.605469 53.667969 145.570312 C 53.667969 147.445312 53.660156 149.320312 53.65625 151.195312 C 48.421875 151.195312 43.1875 151.195312 37.796875 151.195312 C 37.882812 150.410156 37.972656 149.628906 38.0625 148.820312 C 38.90625 148.257812 39.507812 148.125 40.484375 147.9375 C 41.070312 147.78125 41.070312 147.78125 41.496094 146.972656 C 41.671875 146.941406 41.847656 146.90625 42.027344 146.875 C 42.199219 146.820312 42.375 146.765625 42.554688 146.710938 C 42.675781 146.390625 42.675781 146.390625 42.804688 146.066406 C 42.894531 145.84375 42.988281 145.621094 43.082031 145.390625 C 43.523438 145.210938 43.964844 145.035156 44.40625 144.863281 C 46.734375 142.105469 46.027344 136.664062 45.988281 133.242188 C 45.980469 132.59375 45.976562 131.949219 45.972656 131.300781 C 45.960938 129.46875 45.949219 127.632812 45.925781 125.796875 C 45.859375 120.074219 46.0625 114.628906 47.046875 108.976562 C 47.117188 108.554688 47.183594 108.136719 47.25 107.714844 C 47.40625 106.75 47.574219 105.785156 47.742188 104.820312 C 48.289062 101.601562 48.289062 101.601562 48.75 98.371094 C 48.792969 98.035156 48.835938 97.699219 48.882812 97.355469 C 48.972656 96.523438 48.972656 96.523438 48.371094 95.78125 C 48.289062 95.085938 48.234375 94.414062 48.207031 93.714844 C 48.199219 93.503906 48.1875 93.292969 48.175781 93.078125 C 48.066406 90.507812 48.0625 87.9375 48.0625 85.363281 C 48.058594 84.828125 48.058594 84.292969 48.058594 83.753906 C 48.058594 82.636719 48.054688 81.519531 48.058594 80.398438 C 48.058594 79.269531 48.054688 78.140625 48.050781 77.011719 C 47.992188 58.054688 47.992188 58.054688 50.058594 51.75 C 50.214844 51.203125 50.292969 50.699219 50.351562 50.132812 C 50.394531 49.875 50.441406 49.613281 50.484375 49.34375 C 50.746094 49.167969 51.007812 48.996094 51.277344 48.816406 C 51.257812 48.980469 51.238281 49.144531 51.21875 49.316406 C 51.183594 49.640625 51.183594 49.640625 51.144531 49.96875 C 51.109375 50.289062 51.109375 50.289062 51.070312 50.617188 C 51.003906 51.183594 51.003906 51.183594 51.011719 51.71875 C 51.660156 51.667969 51.660156 51.667969 52.335938 51.453125 C 52.988281 50.605469 52.992188 49.585938 53.128906 48.550781 C 53.214844 48.464844 53.300781 48.378906 53.390625 48.289062 Z M 64.230469 101.058594 C 64.492188 101.589844 64.492188 101.589844 64.492188 101.589844 Z M 64.230469 101.058594 "/>
<path style=" stroke:none;fill-rule:nonzero;fill:rgb(4.313726%,3.921569%,3.921569%);fill-opacity:1;" d="M 58.679688 5.804688 C 59.363281 6.175781 59.726562 6.546875 60.265625 7.125 C 60.4375 6.949219 60.613281 6.777344 60.792969 6.597656 C 61.625 6.042969 62.171875 5.898438 63.171875 5.945312 C 64.324219 6.214844 65.003906 7.105469 65.816406 7.914062 C 66.078125 7.742188 66.339844 7.566406 66.609375 7.386719 C 67.621094 7.089844 68.132812 7.105469 69.152344 7.421875 C 70.074219 7.933594 70.535156 8.355469 71.101562 9.234375 C 71.101562 9.410156 71.101562 9.582031 71.101562 9.761719 C 71.386719 9.78125 71.667969 9.796875 71.960938 9.8125 C 72.953125 10.027344 72.953125 10.027344 73.597656 10.652344 C 74.007812 11.347656 74.007812 11.347656 74.007812 12.136719 C 74.292969 12.160156 74.574219 12.179688 74.867188 12.203125 C 75.941406 12.417969 76.253906 12.617188 76.917969 13.457031 C 77.3125 14.246094 77.210938 14.964844 77.179688 15.832031 C 77.050781 16.09375 77.050781 16.09375 76.917969 16.359375 C 77.152344 16.425781 77.386719 16.492188 77.625 16.558594 C 78.683594 16.957031 79.570312 17.4375 80.089844 18.46875 C 80.140625 19.246094 80.171875 20.003906 80.1875 20.78125 C 80.203125 21.097656 80.203125 21.097656 80.21875 21.417969 C 80.234375 22.5625 80.171875 23.265625 79.421875 24.164062 C 79.207031 24.375 78.988281 24.585938 78.765625 24.804688 C 78.855469 24.933594 78.941406 25.066406 79.03125 25.199219 C 79.402344 26.128906 79.523438 26.996094 79.296875 27.96875 C 78.660156 28.785156 77.898438 29.226562 76.917969 29.554688 C 77.007812 29.6875 77.101562 29.824219 77.195312 29.964844 C 77.5625 30.914062 77.445312 31.476562 77.179688 32.457031 C 76.515625 33.539062 75.816406 34.285156 74.605469 34.699219 C 74.320312 34.828125 74.035156 34.960938 73.746094 35.09375 C 73.433594 36 73.433594 36 73.214844 36.941406 C 72.050781 38.046875 71.363281 38.292969 69.78125 38.261719 C 69.78125 38.085938 69.78125 37.914062 69.78125 37.734375 C 69.605469 37.898438 69.605469 37.898438 69.429688 38.070312 C 68.441406 38.976562 67.75 39.578125 66.34375 39.578125 C 65.8125 39.414062 65.285156 39.238281 64.757812 39.050781 C 64.230469 38.976562 63.699219 38.90625 63.171875 38.835938 C 61.707031 38.605469 60.996094 38.300781 60 37.203125 C 59.480469 36.367188 59.414062 35.742188 59.4375 34.765625 C 59.441406 34.527344 59.449219 34.292969 59.453125 34.050781 C 59.457031 33.871094 59.464844 33.695312 59.472656 33.511719 C 59.710938 33.476562 59.710938 33.476562 59.953125 33.441406 C 60.164062 33.40625 60.378906 33.367188 60.59375 33.328125 C 60.804688 33.296875 61.011719 33.261719 61.226562 33.226562 C 62.101562 32.882812 62.410156 32.457031 62.90625 31.664062 C 63.144531 30.785156 63.144531 30.785156 63.238281 29.867188 C 63.277344 29.558594 63.316406 29.253906 63.359375 28.9375 C 63.382812 28.707031 63.410156 28.472656 63.4375 28.234375 C 63.261719 28.234375 63.085938 28.234375 62.90625 28.234375 C 62.734375 27.886719 62.558594 27.535156 62.378906 27.179688 C 61.75 27.113281 61.75 27.113281 61.058594 27.179688 C 60.609375 27.558594 60.609375 27.558594 60.265625 27.96875 C 60.089844 27.96875 59.914062 27.96875 59.734375 27.96875 C 59.734375 27.097656 59.734375 26.226562 59.734375 25.332031 C 59.445312 25.304688 59.15625 25.277344 58.859375 25.25 C 57.886719 25.066406 57.886719 25.066406 57.375 24.722656 C 57.09375 24.277344 57.09375 24.277344 57.09375 23.21875 C 56.832031 23.21875 56.570312 23.21875 56.300781 23.21875 C 56.300781 23.394531 56.300781 23.570312 56.300781 23.746094 C 54.65625 24.132812 54.65625 24.132812 53.6875 23.566406 C 53.121094 22.949219 53.019531 22.6875 52.863281 21.902344 C 52.679688 21.910156 52.492188 21.917969 52.300781 21.929688 C 50.605469 21.976562 49.363281 21.882812 47.839844 21.109375 C 46.996094 20.285156 46.652344 19.640625 46.519531 18.46875 C 46.34375 18.46875 46.171875 18.46875 45.992188 18.46875 C 45.867188 16.738281 45.863281 15.628906 47.046875 14.25 C 47.707031 13.507812 48.273438 13.085938 49.164062 12.664062 C 49.15625 12.488281 49.152344 12.308594 49.144531 12.125 C 49.136719 11.773438 49.136719 11.773438 49.128906 11.414062 C 49.125 11.179688 49.117188 10.945312 49.113281 10.707031 C 49.167969 9.984375 49.308594 9.578125 49.691406 8.972656 C 50.558594 8.242188 51.226562 8.152344 52.316406 8.113281 C 53.128906 8.0625 53.527344 8.019531 54.160156 7.5 C 54.582031 7.003906 54.582031 7.003906 54.9375 6.488281 C 55.746094 5.375 57.453125 5.644531 58.679688 5.804688 Z M 58.679688 5.804688 "/>
<path style=" stroke:none;fill-rule:nonzero;fill:rgb(47.058824%,78.823531%,96.470588%);fill-opacity:1;" d="M 68.65625 94.875 C 68.949219 95.195312 68.949219 95.195312 69.25 95.519531 C 69.773438 95.34375 70.296875 95.171875 70.835938 94.992188 C 70.835938 95.164062 70.835938 95.339844 70.835938 95.519531 C 71.097656 95.519531 71.359375 95.519531 71.628906 95.519531 C 71.652344 95.789062 71.675781 96.058594 71.699219 96.335938 C 72.339844 104.054688 73.136719 111.75 73.976562 119.449219 C 74.054688 120.140625 74.128906 120.832031 74.207031 121.527344 C 74.382812 123.152344 74.5625 124.78125 74.75 126.410156 C 75.253906 130.875 75.59375 135.339844 75.875 139.824219 C 75.921875 140.550781 75.96875 141.28125 76.015625 142.007812 C 76.070312 142.882812 76.128906 143.761719 76.183594 144.636719 C 76.203125 144.960938 76.226562 145.28125 76.246094 145.613281 C 76.265625 145.914062 76.285156 146.210938 76.304688 146.519531 C 76.320312 146.777344 76.335938 147.039062 76.351562 147.308594 C 76.386719 147.988281 76.394531 148.667969 76.386719 149.347656 C 75.175781 149.457031 73.964844 149.5625 72.75 149.671875 C 72.339844 149.707031 71.929688 149.746094 71.519531 149.78125 C 63.933594 150.460938 63.933594 150.460938 60.527344 150.402344 C 60.484375 149.558594 60.507812 148.828125 60.792969 148.027344 C 61.640625 147.398438 62.632812 146.972656 63.699219 146.972656 C 63.832031 146.449219 63.832031 146.449219 63.964844 145.917969 C 64.402344 145.832031 64.835938 145.742188 65.285156 145.652344 C 65.15625 145.132812 65.15625 145.132812 65.023438 144.597656 C 65.816406 144.070312 65.816406 144.070312 66.609375 144.070312 C 66.691406 143.863281 66.769531 143.65625 66.855469 143.445312 C 67.136719 142.75 67.136719 142.75 67.402344 142.222656 C 67.660156 140.660156 67.710938 139.078125 67.726562 137.496094 C 67.730469 137.273438 67.734375 137.050781 67.734375 136.824219 C 67.832031 126.511719 66.683594 116.394531 65.359375 106.179688 C 65.328125 105.949219 65.296875 105.714844 65.265625 105.476562 C 65.222656 105.152344 65.222656 105.152344 65.179688 104.824219 C 65.15625 104.636719 65.132812 104.449219 65.105469 104.257812 C 65.011719 103.628906 64.886719 103.003906 64.757812 102.378906 C 64.75 104.296875 64.746094 106.210938 64.742188 108.125 C 64.742188 108.777344 64.738281 109.429688 64.738281 110.078125 C 64.734375 111.015625 64.734375 111.957031 64.730469 112.894531 C 64.730469 113.183594 64.730469 113.472656 64.726562 113.769531 C 64.726562 115.277344 64.804688 116.71875 65.023438 118.210938 C 65.03125 118.789062 65.03125 119.367188 65.023438 119.945312 C 65.007812 121.335938 65.042969 122.714844 65.117188 124.105469 C 65.28125 127.257812 65.316406 130.410156 65.320312 133.566406 C 65.320312 133.789062 65.320312 134.015625 65.320312 134.246094 C 65.324219 134.890625 65.324219 135.539062 65.320312 136.183594 C 65.320312 136.472656 65.320312 136.472656 65.324219 136.773438 C 65.320312 137.660156 65.300781 138.472656 65.023438 139.320312 C 64.761719 139.234375 64.5 139.148438 64.230469 139.058594 C 64.230469 138.734375 64.230469 138.734375 64.230469 138.40625 C 64.234375 136.375 64.238281 134.34375 64.242188 132.3125 C 64.246094 131.269531 64.246094 130.226562 64.25 129.183594 C 64.25 128.175781 64.253906 127.167969 64.253906 126.160156 C 64.253906 125.773438 64.253906 125.390625 64.257812 125.007812 C 64.257812 124.46875 64.257812 123.929688 64.257812 123.390625 C 64.257812 123.085938 64.261719 122.777344 64.261719 122.460938 C 64.230469 121.714844 64.128906 121.050781 63.964844 120.324219 C 63.949219 119.964844 63.941406 119.605469 63.949219 119.25 C 63.949219 119.054688 63.953125 118.863281 63.953125 118.664062 C 63.957031 118.464844 63.960938 118.265625 63.964844 118.0625 C 64.023438 116.6875 64.023438 116.6875 63.832031 115.332031 C 63.671875 114.667969 63.667969 114.070312 63.671875 113.386719 C 63.671875 113.109375 63.671875 112.828125 63.671875 112.542969 C 63.671875 112.246094 63.671875 111.945312 63.675781 111.636719 C 63.675781 111.332031 63.675781 111.023438 63.675781 110.707031 C 63.675781 109.722656 63.679688 108.738281 63.683594 107.757812 C 63.683594 107.089844 63.6875 106.425781 63.6875 105.761719 C 63.691406 104.304688 63.695312 102.84375 63.699219 101.382812 C 63.753906 100.378906 63.753906 100.378906 63.039062 99.578125 C 62.820312 99.371094 62.605469 99.164062 62.378906 98.949219 C 62.203125 99.472656 62.03125 99.996094 61.851562 100.53125 C 61.761719 100.53125 61.675781 100.53125 61.585938 100.53125 C 61.652344 98.71875 61.769531 97.527344 62.90625 96.046875 C 63.09375 95.523438 63.273438 94.996094 63.4375 94.464844 C 63.90625 93.992188 64.597656 94.089844 65.238281 94.035156 C 65.515625 94.011719 65.796875 93.984375 66.085938 93.957031 C 67.316406 93.921875 67.742188 94.023438 68.65625 94.875 Z M 64.230469 101.058594 C 64.492188 101.589844 64.492188 101.589844 64.492188 101.589844 Z M 64.230469 101.058594 "/>
<path style=" stroke:none;fill-rule:nonzero;fill:rgb(47.450981%,79.215688%,96.470588%);fill-opacity:1;" d="M 56.300781 96.046875 C 56.300781 96.832031 56.300781 97.613281 56.300781 98.421875 C 56.125 98.421875 55.949219 98.421875 55.769531 98.421875 C 55.570312 99.59375 55.492188 100.671875 55.53125 101.863281 C 55.613281 104.6875 55.175781 107.296875 54.597656 110.046875 C 54.46875 110.6875 54.339844 111.328125 54.210938 111.96875 C 54.132812 112.359375 54.050781 112.753906 53.96875 113.144531 C 53.515625 115.339844 53.351562 117.484375 53.355469 119.722656 C 53.355469 119.964844 53.355469 120.203125 53.355469 120.453125 C 53.355469 120.960938 53.355469 121.46875 53.359375 121.976562 C 53.359375 122.734375 53.359375 123.488281 53.355469 124.246094 C 53.355469 126.667969 53.394531 129.082031 53.523438 131.503906 C 53.71875 135.226562 53.6875 138.949219 53.675781 142.675781 C 53.671875 143.640625 53.671875 144.605469 53.667969 145.570312 C 53.667969 147.445312 53.660156 149.320312 53.65625 151.195312 C 48.421875 151.195312 43.1875 151.195312 37.796875 151.195312 C 37.882812 150.410156 37.972656 149.628906 38.0625 148.820312 C 38.90625 148.257812 39.507812 148.125 40.484375 147.9375 C 41.070312 147.78125 41.070312 147.78125 41.496094 146.972656 C 41.671875 146.941406 41.847656 146.90625 42.027344 146.875 C 42.199219 146.820312 42.375 146.765625 42.554688 146.710938 C 42.675781 146.390625 42.675781 146.390625 42.804688 146.066406 C 42.894531 145.84375 42.988281 145.621094 43.082031 145.390625 C 43.523438 145.210938 43.964844 145.035156 44.40625 144.863281 C 46.734375 142.105469 46.027344 136.664062 45.988281 133.242188 C 45.980469 132.59375 45.976562 131.949219 45.972656 131.300781 C 45.960938 129.46875 45.949219 127.632812 45.925781 125.796875 C 45.859375 120.074219 46.0625 114.628906 47.046875 108.976562 C 47.117188 108.554688 47.183594 108.132812 47.25 107.707031 C 47.40625 106.734375 47.570312 105.761719 47.742188 104.789062 C 48.140625 102.492188 48.496094 100.199219 48.777344 97.890625 C 48.898438 97.101562 48.898438 97.101562 49.164062 96.574219 C 49.761719 96.464844 49.761719 96.464844 50.546875 96.40625 C 50.972656 96.375 50.972656 96.375 51.402344 96.339844 C 51.847656 96.308594 51.847656 96.308594 52.300781 96.277344 C 52.597656 96.253906 52.890625 96.230469 53.195312 96.207031 C 55.328125 96.046875 55.328125 96.046875 56.300781 96.046875 Z M 56.300781 96.046875 "/>
<path style=" stroke:none;fill-rule:nonzero;fill:rgb(95.294118%,76.862746%,53.333336%);fill-opacity:1;" d="M 45.992188 18.46875 C 46.164062 18.46875 46.339844 18.46875 46.519531 18.46875 C 46.582031 18.613281 46.640625 18.757812 46.703125 18.90625 C 46.789062 19.09375 46.878906 19.28125 46.964844 19.476562 C 47.046875 19.664062 47.132812 19.851562 47.214844 20.042969 C 47.695312 20.761719 48.113281 21.015625 48.898438 21.375 C 49.921875 21.527344 50.933594 21.605469 51.964844 21.683594 C 52.863281 21.902344 52.863281 21.902344 53.332031 22.546875 C 53.4375 22.769531 53.546875 22.992188 53.65625 23.21875 C 54.621094 23.859375 55.167969 23.789062 56.300781 23.746094 C 56.300781 23.574219 56.300781 23.398438 56.300781 23.21875 C 56.5625 23.21875 56.824219 23.21875 57.09375 23.21875 C 57.164062 23.425781 57.234375 23.632812 57.308594 23.847656 C 57.582031 24.613281 57.582031 24.613281 58.414062 25.066406 C 58.851562 25.167969 59.292969 25.257812 59.734375 25.332031 C 59.734375 26.203125 59.734375 27.074219 59.734375 27.96875 C 59.925781 27.796875 60.117188 27.621094 60.3125 27.441406 C 61.117188 26.871094 61.421875 26.757812 62.378906 26.914062 C 62.90625 27.441406 62.90625 27.441406 62.90625 28.234375 C 63.082031 28.234375 63.257812 28.234375 63.4375 28.234375 C 63.570312 30.070312 63.484375 31.214844 62.378906 32.71875 C 61.667969 33.476562 61.394531 33.507812 60.332031 33.558594 C 60.046875 33.542969 59.761719 33.527344 59.472656 33.511719 C 59.535156 35.171875 59.613281 36.460938 60.792969 37.734375 C 62.117188 38.46875 63.28125 38.625 64.757812 38.789062 C 65.167969 38.933594 65.167969 38.933594 65.582031 39.085938 C 66.511719 39.367188 67.007812 39.347656 67.929688 39.050781 C 68.652344 38.398438 68.652344 38.398438 69.25 37.734375 C 69.425781 37.734375 69.601562 37.734375 69.78125 37.734375 C 69.78125 37.90625 69.78125 38.082031 69.78125 38.261719 C 69.605469 38.261719 69.429688 38.261719 69.25 38.261719 C 69.1875 38.421875 69.121094 38.585938 69.054688 38.753906 C 68.644531 39.445312 68.425781 39.597656 67.664062 39.84375 C 67.046875 39.863281 66.429688 39.867188 65.816406 39.84375 C 65.820312 40.125 65.824219 40.410156 65.832031 40.703125 C 65.820312 41.480469 65.757812 42.015625 65.550781 42.746094 C 65.769531 42.757812 65.992188 42.765625 66.21875 42.777344 C 69.34375 42.957031 71.230469 43.417969 73.480469 45.648438 C 73.394531 45.824219 73.304688 45.996094 73.214844 46.175781 C 73.105469 46.070312 72.992188 45.964844 72.875 45.859375 C 72.644531 45.648438 72.644531 45.648438 72.40625 45.433594 C 72.257812 45.296875 72.105469 45.160156 71.949219 45.015625 C 69.96875 43.582031 67.640625 43.476562 65.285156 43.273438 C 65.011719 43.25 64.738281 43.222656 64.457031 43.195312 C 62.449219 43.097656 60.753906 43.609375 58.878906 44.253906 C 58.195312 44.488281 57.546875 44.679688 56.851562 44.851562 C 56.582031 44.941406 56.3125 45.027344 56.035156 45.121094 C 55.90625 45.511719 55.90625 45.511719 55.769531 45.914062 C 55.421875 45.824219 55.074219 45.738281 54.714844 45.648438 C 55.050781 45.433594 55.386719 45.21875 55.722656 45.003906 C 55.910156 44.886719 56.09375 44.765625 56.289062 44.644531 C 56.828125 44.328125 56.828125 44.328125 57.621094 44.066406 C 57.628906 43.632812 57.632812 43.195312 57.636719 42.761719 C 57.640625 42.519531 57.644531 42.277344 57.648438 42.03125 C 57.691406 41.4375 57.691406 41.4375 57.355469 41.164062 C 56.824219 41.085938 56.289062 41.015625 55.753906 40.949219 C 53.460938 40.601562 52.035156 40.019531 50.542969 38.230469 C 49.820312 37.117188 49.625 36.195312 49.660156 34.878906 C 49.664062 34.621094 49.667969 34.363281 49.671875 34.097656 C 49.679688 33.90625 49.683594 33.710938 49.691406 33.511719 C 49.382812 33.460938 49.382812 33.460938 49.0625 33.410156 C 48.371094 33.246094 48.371094 33.246094 47.839844 32.71875 C 47.941406 31.761719 47.941406 31.761719 48.105469 30.871094 C 48.890625 30.742188 48.890625 30.742188 49.691406 30.609375 C 49.691406 27.820312 49.691406 25.035156 49.691406 22.164062 C 49.167969 21.992188 48.644531 21.816406 48.105469 21.636719 C 47 20.917969 46.492188 20.210938 45.992188 19 C 45.992188 18.824219 45.992188 18.648438 45.992188 18.46875 Z M 45.992188 18.46875 "/>
<path style=" stroke:none;fill-rule:nonzero;fill:rgb(98.823529%,68.627453%,26.666668%);fill-opacity:1;" d="M 65.285156 51.980469 C 66.191406 52.410156 67.027344 52.925781 67.878906 53.449219 C 69.859375 54.601562 71.269531 54.703125 73.480469 54.355469 C 72.800781 55.035156 72.296875 55.027344 71.367188 55.148438 C 71.371094 55.320312 71.378906 55.496094 71.382812 55.671875 C 71.417969 57.523438 71.285156 59.308594 71.046875 61.140625 C 70.542969 65.160156 70.515625 69.207031 70.507812 73.25 C 70.507812 74.109375 70.5 74.972656 70.488281 75.832031 C 70.464844 80.464844 70.855469 84.765625 72.421875 89.152344 C 72.511719 89.421875 72.605469 89.691406 72.699219 89.96875 C 73.199219 91.425781 73.199219 91.425781 73.910156 92.789062 C 74.273438 93.410156 74.273438 93.410156 74.257812 94.101562 C 73.9375 94.90625 73.734375 95.140625 72.953125 95.519531 C 72.234375 95.582031 71.5625 95.554688 70.835938 95.519531 C 70.835938 95.34375 70.835938 95.171875 70.835938 94.992188 C 70.226562 95.253906 69.617188 95.515625 68.988281 95.78125 C 68.84375 95.523438 68.703125 95.261719 68.558594 94.992188 C 67.980469 94.269531 67.695312 94.203125 66.753906 94.09375 C 65.820312 94.101562 64.894531 94.132812 63.964844 94.199219 C 64.128906 93.414062 64.296875 92.628906 64.460938 91.839844 C 64.507812 91.621094 64.550781 91.402344 64.601562 91.175781 C 64.816406 90.144531 65.039062 89.117188 65.273438 88.085938 C 65.667969 86.3125 66 84.523438 66.34375 82.738281 C 66.449219 82.199219 66.550781 81.660156 66.65625 81.121094 C 66.753906 80.601562 66.855469 80.082031 66.953125 79.5625 C 67.0625 79.015625 67.171875 78.46875 67.292969 77.925781 C 68.160156 74.046875 67.835938 70.460938 67.300781 66.570312 C 67.1875 65.730469 67.074219 64.894531 66.964844 64.058594 C 66.894531 63.519531 66.824219 62.980469 66.75 62.4375 C 66.703125 62.070312 66.703125 62.070312 66.652344 61.691406 C 66.46875 60.363281 66.238281 59.0625 65.925781 57.757812 C 65.78125 57.109375 65.714844 56.46875 65.667969 55.808594 C 65.566406 54.527344 65.433594 53.257812 65.285156 51.980469 Z M 65.285156 51.980469 "/>
<path style=" stroke:none;fill-rule:nonzero;fill:rgb(64.313728%,37.254903%,23.529412%);fill-opacity:1;" d="M 75.066406 138.792969 C 75.332031 139.058594 75.332031 139.058594 75.355469 139.71875 C 75.351562 139.984375 75.351562 140.25 75.347656 140.523438 C 75.34375 140.792969 75.34375 141.058594 75.339844 141.335938 C 75.335938 141.539062 75.332031 141.746094 75.332031 141.960938 C 75.503906 141.960938 75.679688 141.960938 75.859375 141.960938 C 76.121094 145.617188 76.121094 145.617188 76.386719 149.347656 C 75.175781 149.457031 73.964844 149.5625 72.75 149.671875 C 72.339844 149.707031 71.929688 149.746094 71.519531 149.78125 C 63.933594 150.460938 63.933594 150.460938 60.527344 150.402344 C 60.484375 149.558594 60.507812 148.828125 60.792969 148.027344 C 61.640625 147.398438 62.632812 146.972656 63.699219 146.972656 C 63.789062 146.625 63.875 146.277344 63.964844 145.917969 C 64.402344 145.832031 64.835938 145.742188 65.285156 145.652344 C 65.238281 145.484375 65.1875 145.316406 65.136719 145.140625 C 65.097656 144.964844 65.0625 144.785156 65.023438 144.597656 C 65.285156 144.335938 65.285156 144.335938 66.097656 144.316406 C 66.480469 144.324219 66.480469 144.324219 66.871094 144.335938 C 66.953125 144.128906 67.035156 143.921875 67.121094 143.707031 C 67.402344 143.015625 67.402344 143.015625 67.664062 142.488281 C 67.738281 141.890625 67.78125 141.292969 67.828125 140.691406 C 67.929688 140.113281 67.929688 140.113281 68.457031 139.320312 C 69.140625 139.175781 69.769531 139.074219 70.457031 139.007812 C 70.742188 138.976562 70.742188 138.976562 71.035156 138.945312 C 72.382812 138.800781 73.707031 138.722656 75.066406 138.792969 Z M 75.066406 138.792969 "/>
<path style=" stroke:none;fill-rule:nonzero;fill:rgb(64.705884%,37.64706%,23.921569%);fill-opacity:1;" d="M 51.011719 140.605469 C 51.316406 140.605469 51.316406 140.605469 51.628906 140.605469 C 53.09375 140.609375 53.09375 140.609375 53.390625 140.902344 C 53.433594 141.664062 53.460938 142.417969 53.476562 143.179688 C 53.480469 143.382812 53.484375 143.585938 53.492188 143.792969 C 53.507812 144.550781 53.523438 145.308594 53.539062 146.066406 C 53.578125 147.757812 53.617188 149.449219 53.65625 151.195312 C 48.421875 151.195312 43.1875 151.195312 37.796875 151.195312 C 37.882812 150.410156 37.972656 149.628906 38.0625 148.820312 C 38.90625 148.257812 39.507812 148.125 40.484375 147.9375 C 41.070312 147.78125 41.070312 147.78125 41.496094 146.972656 C 41.671875 146.941406 41.847656 146.90625 42.027344 146.875 C 42.199219 146.820312 42.375 146.765625 42.554688 146.710938 C 42.621094 146.507812 42.6875 146.304688 42.753906 146.097656 C 43.199219 145.144531 43.753906 145 44.703125 144.621094 C 45.507812 144.15625 45.660156 143.527344 45.894531 142.65625 C 45.9375 142.449219 45.980469 142.238281 46.023438 142.027344 C 46.070312 141.816406 46.113281 141.605469 46.160156 141.386719 C 46.191406 141.226562 46.222656 141.066406 46.253906 140.902344 C 47.847656 140.671875 49.40625 140.613281 51.011719 140.605469 Z M 51.011719 140.605469 "/>
<path style=" stroke:none;fill-rule:nonzero;fill:rgb(98.823529%,59.215689%,3.137255%);fill-opacity:1;" d="M 49.425781 78.367188 C 51.957031 78.367188 54.488281 78.367188 57.09375 78.367188 C 57.121094 79.546875 57.148438 80.722656 57.164062 81.902344 C 57.171875 82.304688 57.179688 82.703125 57.191406 83.105469 C 57.207031 83.683594 57.214844 84.257812 57.222656 84.835938 C 57.226562 85.183594 57.234375 85.53125 57.242188 85.886719 C 57.054688 87.050781 56.703125 87.429688 55.769531 88.132812 C 55.175781 88.296875 55.175781 88.296875 54.582031 88.296875 C 54.363281 88.296875 54.144531 88.296875 53.921875 88.296875 C 53.699219 88.292969 53.472656 88.285156 53.242188 88.28125 C 52.90625 88.285156 52.90625 88.285156 52.5625 88.289062 C 50.933594 88.269531 50.933594 88.269531 50.082031 87.628906 C 49.363281 86.609375 49.394531 85.953125 49.402344 84.707031 C 49.402344 84.4375 49.402344 84.4375 49.402344 84.160156 C 49.402344 83.582031 49.40625 83.003906 49.410156 82.425781 C 49.414062 82.035156 49.414062 81.640625 49.414062 81.25 C 49.417969 80.289062 49.421875 79.328125 49.425781 78.367188 Z M 49.425781 78.367188 "/>
<path style=" stroke:none;fill-rule:nonzero;fill:rgb(96.862745%,77.64706%,54.509807%);fill-opacity:1;" d="M 59.734375 94.992188 C 60.519531 95.359375 60.976562 95.703125 61.585938 96.3125 C 61.585938 96.660156 61.585938 97.007812 61.585938 97.367188 C 61.761719 97.453125 61.933594 97.539062 62.113281 97.628906 C 62.050781 98.324219 61.988281 99.019531 61.921875 99.714844 C 61.875 100.238281 61.835938 100.761719 61.800781 101.285156 C 61.777344 101.632812 61.777344 101.632812 61.75 101.984375 C 61.730469 102.296875 61.730469 102.296875 61.710938 102.617188 C 61.558594 103.292969 61.328125 103.539062 60.792969 103.964844 C 60.296875 104.128906 60.296875 104.128906 59.734375 104.226562 C 59.507812 104.28125 59.277344 104.335938 59.042969 104.390625 C 58.414062 104.492188 58.414062 104.492188 57.886719 104.226562 C 57.617188 104.1875 57.351562 104.152344 57.074219 104.113281 C 56.691406 104.039062 56.691406 104.039062 56.300781 103.964844 C 56.210938 103.789062 56.125 103.613281 56.035156 103.433594 C 55.773438 103.566406 55.773438 103.566406 55.507812 103.699219 C 54.863281 102.414062 55.117188 100.511719 55.507812 99.164062 C 55.636719 98.796875 55.636719 98.796875 55.769531 98.421875 C 55.945312 98.421875 56.121094 98.421875 56.300781 98.421875 C 56.300781 97.636719 56.300781 96.855469 56.300781 96.046875 C 56.125 95.960938 55.949219 95.871094 55.769531 95.78125 C 57.097656 94.96875 58.214844 94.777344 59.734375 94.992188 Z M 59.734375 94.992188 "/>
<path style=" stroke:none;fill-rule:nonzero;fill:rgb(99.215686%,67.843139%,24.313726%);fill-opacity:1;" d="M 59.472656 49.34375 C 59.152344 50 58.824219 50.578125 58.414062 51.191406 C 58.34375 51.464844 58.273438 51.742188 58.203125 52.027344 C 57.875 53.242188 57.214844 54.195312 56.515625 55.230469 C 56.382812 55.425781 56.253906 55.621094 56.121094 55.824219 C 55.742188 56.390625 55.363281 56.957031 54.976562 57.523438 C 54.875 57.675781 54.773438 57.828125 54.664062 57.984375 C 53.605469 59.550781 53.605469 59.550781 53.128906 60.160156 C 53.039062 60.160156 52.953125 60.160156 52.863281 60.160156 C 52.777344 59.378906 52.6875 58.59375 52.597656 57.785156 C 52.511719 57.785156 52.425781 57.785156 52.335938 57.785156 C 52.183594 55.253906 52.824219 52.777344 53.65625 50.398438 C 53.917969 50.398438 54.179688 50.398438 54.449219 50.398438 C 54.789062 50.285156 55.125 50.15625 55.457031 50.019531 C 56.792969 49.5 58.035156 49.300781 59.472656 49.34375 Z M 59.472656 49.34375 "/>
<path style=" stroke:none;fill-rule:nonzero;fill:rgb(71.764708%,88.627452%,98.039216%);fill-opacity:1;" d="M 63.699219 99.742188 C 65.03125 100.832031 65.695312 102.296875 65.925781 103.984375 C 65.976562 104.863281 66.003906 105.738281 66.011719 106.617188 C 66.019531 106.921875 66.027344 107.226562 66.035156 107.539062 C 66.054688 108.28125 66.070312 109.023438 66.078125 109.769531 C 65.992188 109.769531 65.90625 109.769531 65.816406 109.769531 C 65.464844 107.328125 65.117188 104.890625 64.757812 102.378906 C 64.75 104.296875 64.746094 106.210938 64.742188 108.125 C 64.742188 108.777344 64.738281 109.429688 64.738281 110.078125 C 64.734375 111.015625 64.734375 111.957031 64.730469 112.894531 C 64.730469 113.183594 64.730469 113.472656 64.726562 113.769531 C 64.726562 115.277344 64.804688 116.71875 65.023438 118.210938 C 65.03125 118.789062 65.03125 119.367188 65.023438 119.945312 C 65.007812 121.335938 65.042969 122.714844 65.117188 124.105469 C 65.28125 127.257812 65.316406 130.410156 65.320312 133.566406 C 65.320312 133.789062 65.320312 134.015625 65.320312 134.246094 C 65.324219 134.890625 65.324219 135.539062 65.320312 136.183594 C 65.320312 136.378906 65.324219 136.570312 65.324219 136.773438 C 65.320312 137.660156 65.300781 138.472656 65.023438 139.320312 C 64.761719 139.234375 64.5 139.148438 64.230469 139.058594 C 64.230469 138.84375 64.230469 138.625 64.230469 138.40625 C 64.234375 136.375 64.238281 134.34375 64.242188 132.3125 C 64.246094 131.269531 64.246094 130.226562 64.25 129.183594 C 64.25 128.175781 64.253906 127.167969 64.253906 126.160156 C 64.253906 125.773438 64.253906 125.390625 64.257812 125.007812 C 64.257812 124.46875 64.257812 123.929688 64.257812 123.390625 C 64.257812 123.085938 64.261719 122.777344 64.261719 122.460938 C 64.230469 121.714844 64.128906 121.050781 63.964844 120.324219 C 63.949219 119.964844 63.941406 119.605469 63.949219 119.25 C 63.949219 119.054688 63.953125 118.863281 63.953125 118.664062 C 63.957031 118.464844 63.960938 118.265625 63.964844 118.0625 C 64.023438 116.683594 64.023438 116.683594 63.832031 115.332031 C 63.671875 114.671875 63.667969 114.074219 63.671875 113.394531 C 63.671875 113.117188 63.671875 112.839844 63.671875 112.558594 C 63.671875 112.257812 63.671875 111.960938 63.675781 111.65625 C 63.675781 111.351562 63.675781 111.042969 63.675781 110.726562 C 63.675781 109.75 63.679688 108.769531 63.683594 107.789062 C 63.683594 107.128906 63.6875 106.46875 63.6875 105.808594 C 63.691406 104.355469 63.695312 102.902344 63.699219 101.449219 C 63.699219 100.878906 63.699219 100.308594 63.699219 99.742188 Z M 64.230469 101.058594 C 64.492188 101.589844 64.492188 101.589844 64.492188 101.589844 Z M 64.230469 101.058594 "/>
<path style=" stroke:none;fill-rule:nonzero;fill:rgb(74.901962%,89.803922%,98.039216%);fill-opacity:1;" d="M 57.09375 104.492188 C 57.355469 104.492188 57.617188 104.492188 57.886719 104.492188 C 58.503906 107.992188 58.570312 111.519531 58.679688 115.066406 C 58.710938 116.089844 58.746094 117.117188 58.78125 118.144531 C 58.949219 123.242188 59.070312 128.347656 58.828125 133.449219 C 58.816406 133.699219 58.804688 133.949219 58.796875 134.207031 C 58.71875 135.917969 58.582031 137.617188 58.414062 139.320312 C 58.066406 139.320312 57.714844 139.320312 57.355469 139.320312 C 57.375 139.023438 57.394531 138.726562 57.414062 138.421875 C 57.640625 134.539062 57.671875 130.660156 57.671875 126.769531 C 57.671875 126.4375 57.671875 126.105469 57.671875 125.765625 C 57.671875 120.171875 57.496094 114.605469 57.171875 109.019531 C 57.089844 107.511719 57.0625 106.003906 57.09375 104.492188 Z M 57.09375 104.492188 "/>
<path style=" stroke:none;fill-rule:nonzero;fill:rgb(50.980395%,29.019609%,18.039216%);fill-opacity:1;" d="M 51.226562 142.1875 C 51.417969 142.1875 51.609375 142.191406 51.804688 142.191406 C 51.996094 142.191406 52.1875 142.1875 52.382812 142.1875 C 52.863281 142.222656 52.863281 142.222656 53.128906 142.488281 C 53.152344 143.035156 53.15625 143.582031 53.152344 144.128906 C 53.152344 144.460938 53.152344 144.792969 53.152344 145.136719 C 53.148438 145.492188 53.148438 145.84375 53.144531 146.199219 C 53.144531 146.554688 53.140625 146.90625 53.140625 147.261719 C 53.136719 148.132812 53.132812 149.003906 53.128906 149.875 C 52.339844 149.882812 51.554688 149.886719 50.765625 149.890625 C 50.429688 149.894531 50.429688 149.894531 50.085938 149.898438 C 49.871094 149.898438 49.65625 149.902344 49.4375 149.902344 C 49.238281 149.902344 49.039062 149.902344 48.835938 149.90625 C 48.371094 149.875 48.371094 149.875 48.105469 149.613281 C 47.921875 148.503906 47.820312 147.425781 48.433594 146.445312 C 49.324219 145.59375 50.027344 145.296875 51.261719 145.289062 C 51.621094 145.316406 51.976562 145.347656 52.335938 145.390625 C 52.421875 144.953125 52.507812 144.519531 52.597656 144.070312 C 51.8125 143.984375 51.027344 143.894531 50.21875 143.808594 C 50.5 142.242188 50.5 142.242188 51.226562 142.1875 Z M 51.226562 142.1875 "/>
<path style=" stroke:none;fill-rule:nonzero;fill:rgb(86.666667%,80.784315%,66.274512%);fill-opacity:1;" d="M 75.59375 143.808594 C 76.128906 144.605469 76.195312 144.8125 76.234375 145.714844 C 76.25 146.03125 76.25 146.03125 76.265625 146.355469 C 76.273438 146.574219 76.28125 146.796875 76.289062 147.023438 C 76.304688 147.355469 76.304688 147.355469 76.320312 147.699219 C 76.34375 148.246094 76.367188 148.796875 76.386719 149.347656 C 75.175781 149.457031 73.964844 149.5625 72.75 149.671875 C 72.339844 149.707031 71.929688 149.746094 71.519531 149.78125 C 63.933594 150.460938 63.933594 150.460938 60.527344 150.402344 C 60.660156 149.226562 60.660156 149.226562 60.792969 148.027344 C 61.054688 148.027344 61.316406 148.027344 61.585938 148.027344 C 61.410156 148.375 61.238281 148.726562 61.058594 149.085938 C 61.953125 149.003906 62.851562 148.917969 63.75 148.835938 C 64.003906 148.8125 64.257812 148.789062 64.519531 148.765625 C 64.765625 148.742188 65.011719 148.722656 65.265625 148.699219 C 65.492188 148.675781 65.714844 148.65625 65.949219 148.632812 C 66.617188 148.554688 67.269531 148.425781 67.929688 148.292969 C 70.484375 148.0625 73.027344 148 75.59375 148.027344 C 75.59375 146.636719 75.59375 145.242188 75.59375 143.808594 Z M 75.59375 143.808594 "/>
<path style=" stroke:none;fill-rule:nonzero;fill:rgb(81.960785%,72.549021%,57.254905%);fill-opacity:1;" d="M 44.40625 144.863281 C 44.40625 145.125 44.40625 145.382812 44.40625 145.652344 C 44.054688 145.742188 43.707031 145.828125 43.347656 145.917969 C 43.347656 146.265625 43.347656 146.613281 43.347656 146.972656 C 43.089844 147.042969 42.835938 147.113281 42.570312 147.1875 C 42.304688 147.289062 42.039062 147.394531 41.761719 147.5 C 41.675781 147.761719 41.585938 148.023438 41.496094 148.292969 C 40.503906 148.722656 39.667969 148.882812 38.589844 148.820312 C 38.503906 149.167969 38.414062 149.515625 38.324219 149.875 C 38.515625 149.871094 38.703125 149.867188 38.894531 149.863281 C 40.664062 149.828125 42.4375 149.792969 44.207031 149.757812 C 45.117188 149.742188 46.023438 149.722656 46.933594 149.703125 C 47.980469 149.683594 49.027344 149.664062 50.070312 149.644531 C 50.398438 149.636719 50.726562 149.628906 51.066406 149.621094 C 51.515625 149.613281 51.515625 149.613281 51.980469 149.605469 C 52.246094 149.601562 52.511719 149.59375 52.789062 149.589844 C 53.390625 149.613281 53.390625 149.613281 53.65625 149.875 C 53.65625 150.3125 53.65625 150.746094 53.65625 151.195312 C 48.421875 151.195312 43.1875 151.195312 37.796875 151.195312 C 37.929688 150.019531 37.929688 150.019531 38.0625 148.820312 C 38.90625 148.257812 39.507812 148.125 40.484375 147.9375 C 41.070312 147.78125 41.070312 147.78125 41.496094 146.972656 C 41.671875 146.941406 41.847656 146.90625 42.027344 146.875 C 42.289062 146.792969 42.289062 146.792969 42.554688 146.710938 C 42.636719 146.496094 42.71875 146.285156 42.804688 146.066406 C 43.082031 145.390625 43.082031 145.390625 43.777344 145.042969 C 44.089844 144.953125 44.089844 144.953125 44.40625 144.863281 Z M 44.40625 144.863281 "/>
<path style=" stroke:none;fill-rule:nonzero;fill:rgb(50.980395%,29.019609%,17.647059%);fill-opacity:1;" d="M 73.761719 143.476562 C 73.992188 143.476562 74.226562 143.472656 74.464844 143.472656 C 75.066406 143.542969 75.066406 143.542969 75.59375 144.070312 C 75.632812 144.753906 75.644531 145.402344 75.628906 146.082031 C 75.617188 146.726562 75.605469 147.367188 75.59375 148.027344 C 74.023438 148.027344 72.453125 148.027344 70.835938 148.027344 C 70.414062 147.183594 70.441406 146.308594 70.574219 145.390625 C 71.410156 144.066406 72.1875 143.46875 73.761719 143.476562 Z M 73.761719 143.476562 "/>
<path style=" stroke:none;fill-rule:nonzero;fill:rgb(99.607843%,94.901961%,88.627452%);fill-opacity:1;" d="M 53.390625 48.289062 C 53.835938 48.363281 54.277344 48.449219 54.714844 48.550781 C 54.546875 49.308594 54.300781 49.9375 53.953125 50.628906 C 52.507812 53.878906 52.492188 57.175781 52.550781 60.65625 C 52.554688 61.097656 52.558594 61.539062 52.558594 61.976562 C 52.570312 63.042969 52.582031 64.109375 52.597656 65.175781 C 52.25 65.085938 51.902344 65 51.542969 64.910156 C 51.117188 61.496094 51.058594 58.085938 51.625 54.6875 C 51.671875 54.402344 51.671875 54.402344 51.71875 54.117188 C 51.960938 52.808594 52.386719 51.636719 52.863281 50.398438 C 52.960938 49.785156 53.050781 49.167969 53.128906 48.550781 C 53.214844 48.464844 53.300781 48.378906 53.390625 48.289062 Z M 53.390625 48.289062 "/>
<path style=" stroke:none;fill-rule:nonzero;fill:rgb(98.039216%,83.92157%,67.058825%);fill-opacity:1;" d="M 49.691406 22.164062 C 50.476562 22.25 51.261719 22.339844 52.070312 22.429688 C 52.070312 22.515625 52.070312 22.601562 52.070312 22.691406 C 51.460938 22.691406 50.847656 22.691406 50.21875 22.691406 C 50.222656 22.9375 50.222656 23.183594 50.222656 23.4375 C 50.230469 24.351562 50.230469 25.261719 50.234375 26.171875 C 50.234375 26.566406 50.238281 26.960938 50.238281 27.359375 C 50.242188 27.925781 50.246094 28.492188 50.246094 29.058594 C 50.246094 29.398438 50.25 29.738281 50.25 30.089844 C 50.21875 30.871094 50.21875 30.871094 49.957031 31.136719 C 49.425781 31.148438 48.898438 31.148438 48.371094 31.136719 C 48.457031 31.660156 48.542969 32.179688 48.632812 32.71875 C 49.15625 32.894531 49.679688 33.066406 50.21875 33.246094 C 50.230469 33.5 50.238281 33.75 50.25 34.007812 C 50.269531 34.339844 50.285156 34.671875 50.304688 35.011719 C 50.316406 35.339844 50.332031 35.667969 50.347656 36.003906 C 50.488281 36.964844 50.761719 37.457031 51.277344 38.261719 C 51.191406 38.433594 51.101562 38.609375 51.011719 38.789062 C 50.066406 37.417969 49.65625 36.574219 49.675781 34.914062 C 49.675781 34.652344 49.679688 34.386719 49.683594 34.117188 C 49.683594 33.917969 49.6875 33.71875 49.691406 33.511719 C 49.484375 33.476562 49.277344 33.445312 49.0625 33.410156 C 48.371094 33.246094 48.371094 33.246094 47.839844 32.71875 C 47.941406 31.761719 47.941406 31.761719 48.105469 30.871094 C 48.890625 30.742188 48.890625 30.742188 49.691406 30.609375 C 49.691406 27.820312 49.691406 25.035156 49.691406 22.164062 Z M 49.691406 22.164062 "/>
<path style=" stroke:none;fill-rule:nonzero;fill:rgb(62.352943%,34.901962%,21.568628%);fill-opacity:1;" d="M 64.230469 146.179688 C 65.121094 146.246094 65.121094 146.246094 66.078125 146.445312 C 66.460938 146.988281 66.460938 146.988281 66.609375 147.5 C 66.519531 147.589844 66.433594 147.675781 66.34375 147.765625 C 68.566406 147.632812 68.566406 147.632812 70.835938 147.5 C 70.835938 147.675781 70.835938 147.847656 70.835938 148.027344 C 71.273438 148.027344 71.710938 148.027344 72.160156 148.027344 C 72.160156 148.117188 72.160156 148.203125 72.160156 148.292969 C 65.648438 148.753906 65.648438 148.753906 62.644531 148.292969 C 62.730469 148.03125 62.816406 147.769531 62.90625 147.5 C 63.453125 147.320312 63.453125 147.320312 63.964844 147.238281 C 64.050781 146.890625 64.140625 146.539062 64.230469 146.179688 Z M 64.230469 146.179688 "/>
<path style=" stroke:none;fill-rule:nonzero;fill:rgb(81.176472%,71.764708%,58.431375%);fill-opacity:1;" d="M 75.59375 143.808594 C 76.128906 144.605469 76.195312 144.8125 76.234375 145.714844 C 76.25 146.03125 76.25 146.03125 76.265625 146.355469 C 76.273438 146.574219 76.28125 146.796875 76.289062 147.023438 C 76.304688 147.355469 76.304688 147.355469 76.320312 147.699219 C 76.34375 148.246094 76.367188 148.796875 76.386719 149.347656 C 75.960938 149.289062 75.960938 149.289062 75.523438 149.234375 C 72.539062 148.855469 69.617188 148.761719 66.609375 148.820312 C 66.609375 148.734375 66.609375 148.644531 66.609375 148.554688 C 69.5 147.894531 72.644531 147.996094 75.59375 148.027344 C 75.59375 146.636719 75.59375 145.242188 75.59375 143.808594 Z M 75.59375 143.808594 "/>
<path style=" stroke:none;fill-rule:nonzero;fill:rgb(49.411765%,49.019608%,49.019608%);fill-opacity:1;" d="M 58.679688 5.804688 C 59.519531 6.332031 59.519531 6.332031 60 6.859375 C 59.914062 7.035156 59.824219 7.207031 59.734375 7.386719 C 59.566406 7.214844 59.398438 7.039062 59.222656 6.859375 C 58.140625 6.15625 57.292969 6.105469 56.035156 6.332031 C 54.96875 6.945312 54.542969 7.539062 54.183594 8.707031 C 54.011719 8.703125 53.839844 8.695312 53.664062 8.6875 C 51.75 8.640625 51.75 8.640625 49.957031 9.234375 C 49.328125 10.441406 49.644531 12.183594 49.957031 13.457031 C 49.539062 13.539062 49.539062 13.539062 49.113281 13.621094 C 47.925781 13.957031 47.503906 14.589844 46.785156 15.566406 C 46.523438 15.835938 46.261719 16.101562 45.992188 16.359375 C 46.332031 14.929688 46.972656 14.089844 48.105469 13.191406 C 48.453125 13.007812 48.804688 12.828125 49.164062 12.664062 C 49.15625 12.488281 49.152344 12.308594 49.144531 12.125 C 49.136719 11.773438 49.136719 11.773438 49.128906 11.414062 C 49.125 11.179688 49.117188 10.945312 49.113281 10.707031 C 49.167969 9.984375 49.308594 9.578125 49.691406 8.972656 C 50.558594 8.242188 51.226562 8.152344 52.316406 8.113281 C 53.128906 8.0625 53.527344 8.019531 54.160156 7.5 C 54.582031 7.003906 54.582031 7.003906 54.9375 6.488281 C 55.746094 5.375 57.449219 5.667969 58.679688 5.804688 Z M 58.679688 5.804688 "/>
<path style=" stroke:none;fill-rule:nonzero;fill:rgb(48.627451%,78.039217%,92.54902%);fill-opacity:1;" d="M 56.300781 96.046875 C 56.300781 96.832031 56.300781 97.613281 56.300781 98.421875 C 56.125 98.421875 55.949219 98.421875 55.769531 98.421875 C 55.597656 99.902344 55.421875 101.382812 55.242188 102.90625 C 55.15625 102.90625 55.066406 102.90625 54.976562 102.90625 C 53.964844 98.289062 53.964844 98.289062 54.449219 96.839844 C 53.664062 96.707031 53.664062 96.707031 52.863281 96.574219 C 52.863281 96.488281 52.863281 96.402344 52.863281 96.3125 C 53.289062 96.265625 53.710938 96.222656 54.136719 96.179688 C 54.371094 96.15625 54.609375 96.128906 54.851562 96.105469 C 55.507812 96.046875 55.507812 96.046875 56.300781 96.046875 Z M 56.300781 96.046875 "/>
<path style=" stroke:none;fill-rule:nonzero;fill:rgb(66.274512%,86.274511%,97.647059%);fill-opacity:1;" d="M 58.148438 123.226562 C 58.324219 123.226562 58.5 123.226562 58.679688 123.226562 C 58.945312 124.023438 58.976562 124.5625 58.976562 125.394531 C 58.976562 125.796875 58.976562 125.796875 58.980469 126.203125 C 58.976562 126.484375 58.976562 126.761719 58.976562 127.050781 C 58.976562 127.332031 58.976562 127.609375 58.980469 127.898438 C 58.980469 128.164062 58.976562 128.433594 58.976562 128.707031 C 58.976562 128.953125 58.976562 129.199219 58.976562 129.453125 C 58.941406 130.085938 58.941406 130.085938 58.679688 130.878906 C 58.503906 130.878906 58.328125 130.878906 58.148438 130.878906 C 57.917969 130.082031 57.851562 129.371094 57.851562 128.542969 C 57.851562 128.300781 57.851562 128.058594 57.847656 127.8125 C 57.851562 127.558594 57.851562 127.308594 57.851562 127.050781 C 57.851562 126.800781 57.851562 126.550781 57.847656 126.292969 C 57.851562 126.050781 57.851562 125.808594 57.851562 125.558594 C 57.851562 125.339844 57.851562 125.117188 57.851562 124.890625 C 57.882812 124.300781 57.984375 123.792969 58.148438 123.226562 Z M 58.148438 123.226562 "/>
<path style=" stroke:none;fill-rule:nonzero;fill:rgb(67.058825%,43.137255%,28.627452%);fill-opacity:1;" d="M 65.285156 144.335938 C 65.460938 144.421875 65.636719 144.507812 65.816406 144.597656 C 65.816406 144.945312 65.816406 145.296875 65.816406 145.652344 C 65.988281 145.652344 66.164062 145.652344 66.34375 145.652344 C 66.34375 145.914062 66.34375 146.175781 66.34375 146.445312 C 65.644531 146.445312 64.949219 146.445312 64.230469 146.445312 C 64.140625 146.707031 64.054688 146.96875 63.964844 147.238281 C 63.617188 147.421875 63.265625 147.597656 62.90625 147.765625 C 62.820312 147.9375 62.734375 148.113281 62.644531 148.292969 C 63.109375 148.285156 63.109375 148.285156 63.585938 148.277344 C 64.617188 148.273438 65.589844 148.386719 66.609375 148.554688 C 66.609375 148.644531 66.609375 148.730469 66.609375 148.820312 C 63.859375 148.949219 63.859375 148.949219 61.058594 149.085938 C 61.320312 148.027344 61.320312 148.027344 61.585938 147.5 C 62.074219 147.332031 62.074219 147.332031 62.660156 147.203125 C 62.855469 147.160156 63.046875 147.117188 63.246094 147.070312 C 63.398438 147.039062 63.546875 147.007812 63.699219 146.972656 C 63.789062 146.625 63.875 146.277344 63.964844 145.917969 C 64.402344 145.832031 64.835938 145.742188 65.285156 145.652344 C 65.210938 145.402344 65.210938 145.402344 65.136719 145.140625 C 65.097656 144.964844 65.0625 144.785156 65.023438 144.597656 C 65.109375 144.511719 65.195312 144.425781 65.285156 144.335938 Z M 65.285156 144.335938 "/>
<path style=" stroke:none;fill-rule:nonzero;fill:rgb(96.862745%,72.156864%,53.333336%);fill-opacity:1;" d="M 55.078125 30.261719 C 56.058594 30.347656 56.398438 30.46875 57.09375 31.136719 C 56.628906 32.160156 56.628906 32.160156 56.035156 32.457031 C 54.324219 32.546875 54.324219 32.546875 53.390625 31.925781 C 53.625 30.773438 53.828125 30.378906 55.078125 30.261719 Z M 55.078125 30.261719 "/>
<path style=" stroke:none;fill-rule:nonzero;fill:rgb(65.098041%,85.882354%,97.647059%);fill-opacity:1;" d="M 74.800781 130.085938 C 74.890625 130.085938 74.976562 130.085938 75.066406 130.085938 C 75.46875 134.042969 75.722656 137.988281 75.859375 141.960938 C 75.683594 141.960938 75.511719 141.960938 75.332031 141.960938 C 75.316406 141.761719 75.304688 141.566406 75.292969 141.363281 C 75.261719 140.972656 75.261719 140.972656 75.230469 140.574219 C 75.210938 140.316406 75.195312 140.058594 75.175781 139.796875 C 75.070312 139.078125 74.878906 138.632812 74.539062 138 C 74.488281 137.292969 74.488281 137.292969 74.539062 136.683594 C 74.625 136.59375 74.710938 136.507812 74.800781 136.417969 C 74.824219 135.949219 74.828125 135.476562 74.828125 135.007812 C 74.828125 134.722656 74.824219 134.4375 74.824219 134.144531 C 74.824219 133.84375 74.820312 133.542969 74.816406 133.234375 C 74.816406 132.933594 74.816406 132.632812 74.816406 132.324219 C 74.8125 131.578125 74.808594 130.832031 74.800781 130.085938 Z M 74.800781 130.085938 "/>
<path style=" stroke:none;fill-rule:nonzero;fill:rgb(99.215686%,95.294118%,89.411765%);fill-opacity:1;" d="M 53.390625 48.289062 C 53.835938 48.363281 54.277344 48.449219 54.714844 48.550781 C 54.539062 49.34375 54.277344 50.039062 53.9375 50.777344 C 53.558594 51.613281 53.195312 52.445312 52.863281 53.300781 C 52.6875 53.300781 52.515625 53.300781 52.335938 53.300781 C 52.289062 52.140625 52.324219 51.414062 52.863281 50.398438 C 52.957031 49.785156 53.046875 49.167969 53.128906 48.550781 C 53.214844 48.464844 53.300781 48.378906 53.390625 48.289062 Z M 53.390625 48.289062 "/>
<path style=" stroke:none;fill-rule:nonzero;fill:rgb(87.450981%,82.745099%,65.882355%);fill-opacity:1;" d="M 53.128906 149.613281 C 53.300781 149.699219 53.476562 149.785156 53.65625 149.875 C 53.65625 150.3125 53.65625 150.746094 53.65625 151.195312 C 53.480469 151.195312 53.308594 151.195312 53.128906 151.195312 C 53.128906 150.933594 53.128906 150.671875 53.128906 150.402344 C 48.242188 150.402344 43.359375 150.402344 38.324219 150.402344 C 38.324219 150.316406 38.324219 150.230469 38.324219 150.140625 C 43.210938 150.140625 48.09375 150.140625 53.128906 150.140625 C 53.128906 149.964844 53.128906 149.792969 53.128906 149.613281 Z M 53.128906 149.613281 "/>
<path style=" stroke:none;fill-rule:nonzero;fill:rgb(99.215686%,65.490198%,18.82353%);fill-opacity:1;" d="M 52.597656 55.941406 C 52.6875 55.941406 52.773438 55.941406 52.863281 55.941406 C 53.054688 58.585938 53.164062 61.203125 53.128906 63.855469 C 52.953125 63.941406 52.777344 64.03125 52.597656 64.121094 C 52.378906 63.351562 52.300781 62.667969 52.300781 61.871094 C 52.300781 61.644531 52.300781 61.417969 52.296875 61.183594 C 52.300781 60.832031 52.300781 60.832031 52.300781 60.476562 C 52.300781 60.242188 52.300781 60.011719 52.296875 59.773438 C 52.300781 58.46875 52.378906 57.226562 52.597656 55.941406 Z M 52.597656 55.941406 "/>
<path style=" stroke:none;fill-rule:nonzero;fill:rgb(97.254902%,81.176472%,59.607846%);fill-opacity:1;" d="M 49.691406 22.164062 C 50.476562 22.25 51.261719 22.339844 52.070312 22.429688 C 52.070312 22.515625 52.070312 22.601562 52.070312 22.691406 C 51.460938 22.691406 50.847656 22.691406 50.21875 22.691406 C 50.21875 24.957031 50.21875 27.21875 50.21875 29.554688 C 50.046875 29.640625 49.871094 29.726562 49.691406 29.816406 C 49.691406 27.292969 49.691406 24.765625 49.691406 22.164062 Z M 49.691406 22.164062 "/>
<path style=" stroke:none;fill-rule:nonzero;fill:rgb(92.156863%,78.823531%,58.039218%);fill-opacity:1;" d="M 55.769531 95.78125 C 56.03125 95.78125 56.292969 95.78125 56.5625 95.78125 C 56.835938 97.390625 56.894531 98.519531 56.222656 100.015625 C 55.90625 100.894531 55.984375 101.71875 56.035156 102.644531 C 56.210938 102.730469 56.382812 102.816406 56.5625 102.90625 C 56.730469 103.453125 56.730469 103.453125 56.828125 103.964844 C 56.652344 103.964844 56.480469 103.964844 56.300781 103.964844 C 56.210938 103.789062 56.125 103.613281 56.035156 103.433594 C 55.859375 103.523438 55.6875 103.609375 55.507812 103.699219 C 54.863281 102.414062 55.117188 100.511719 55.507812 99.164062 C 55.636719 98.796875 55.636719 98.796875 55.769531 98.421875 C 55.945312 98.421875 56.121094 98.421875 56.300781 98.421875 C 56.300781 97.636719 56.300781 96.855469 56.300781 96.046875 C 56.125 95.960938 55.949219 95.871094 55.769531 95.78125 Z M 55.769531 95.78125 "/>
<path style=" stroke:none;fill-rule:nonzero;fill:rgb(87.058824%,80.784315%,67.450982%);fill-opacity:1;" d="M 61.058594 147.765625 C 61.230469 147.851562 61.40625 147.9375 61.585938 148.027344 C 61.410156 148.375 61.238281 148.726562 61.058594 149.085938 C 62.277344 149.085938 63.5 149.085938 64.757812 149.085938 C 64.757812 149.171875 64.757812 149.257812 64.757812 149.347656 C 63.535156 149.433594 62.316406 149.523438 61.058594 149.613281 C 61.335938 149.949219 61.335938 149.949219 61.984375 149.902344 C 62.25 149.898438 62.515625 149.894531 62.792969 149.890625 C 63.058594 149.890625 63.328125 149.886719 63.601562 149.886719 C 63.808594 149.882812 64.015625 149.878906 64.230469 149.875 C 63.699219 150.402344 63.699219 150.402344 62.953125 150.453125 C 62.667969 150.449219 62.378906 150.441406 62.082031 150.4375 C 61.792969 150.429688 61.503906 150.425781 61.203125 150.421875 C 60.980469 150.414062 60.757812 150.410156 60.527344 150.402344 C 60.566406 150.011719 60.605469 149.621094 60.644531 149.234375 C 60.664062 149.015625 60.6875 148.796875 60.710938 148.574219 C 60.792969 148.027344 60.792969 148.027344 61.058594 147.765625 Z M 61.058594 147.765625 "/>
<path style=" stroke:none;fill-rule:nonzero;fill:rgb(45.09804%,45.09804%,45.09804%);fill-opacity:1;" d="M 73.746094 11.347656 C 73.832031 11.609375 73.917969 11.867188 74.007812 12.136719 C 74.292969 12.160156 74.574219 12.179688 74.867188 12.203125 C 75.941406 12.417969 76.253906 12.617188 76.917969 13.457031 C 77.3125 14.246094 77.210938 14.964844 77.179688 15.832031 C 77.09375 16.007812 77.007812 16.179688 76.917969 16.359375 C 77.300781 16.472656 77.300781 16.472656 77.691406 16.589844 C 78.503906 16.886719 78.503906 16.886719 78.765625 17.414062 C 77.980469 17.242188 77.195312 17.066406 76.386719 16.886719 C 76.398438 16.667969 76.414062 16.449219 76.425781 16.222656 C 76.433594 15.9375 76.445312 15.648438 76.453125 15.355469 C 76.464844 15.070312 76.476562 14.785156 76.492188 14.492188 C 76.464844 13.699219 76.464844 13.699219 75.910156 13.234375 C 75.195312 12.859375 74.542969 12.757812 73.746094 12.664062 C 73.746094 12.230469 73.746094 11.792969 73.746094 11.347656 Z M 73.746094 11.347656 "/>
<path style=" stroke:none;fill-rule:nonzero;fill:rgb(49.019608%,26.274511%,15.294118%);fill-opacity:1;" d="M 75.066406 144.070312 C 75.242188 144.070312 75.414062 144.070312 75.59375 144.070312 C 75.59375 145.375 75.59375 146.683594 75.59375 148.027344 C 74.113281 148.027344 72.628906 148.027344 71.101562 148.027344 C 72.355469 147.195312 73.578125 147.46875 75.066406 147.5 C 75.066406 146.367188 75.066406 145.238281 75.066406 144.070312 Z M 75.066406 144.070312 "/>
<path style=" stroke:none;fill-rule:nonzero;fill:rgb(50.196081%,28.235295%,17.254902%);fill-opacity:1;" d="M 73.464844 140.324219 C 74 140.34375 74.53125 140.359375 75.066406 140.375 C 75.066406 140.8125 75.066406 141.246094 75.066406 141.695312 C 74.214844 142.121094 73.363281 141.976562 72.421875 141.960938 C 72.421875 140.429688 72.421875 140.429688 73.464844 140.324219 Z M 73.464844 140.324219 "/>
<path style=" stroke:none;fill-rule:nonzero;fill:rgb(68.627453%,87.450981%,98.039216%);fill-opacity:1;" d="M 63.699219 113.726562 C 64.230469 113.988281 64.230469 113.988281 64.542969 114.796875 C 64.96875 116.59375 64.65625 118.507812 64.492188 120.324219 C 64.320312 120.324219 64.144531 120.324219 63.964844 120.324219 C 63.96875 120.011719 63.972656 119.699219 63.972656 119.378906 C 63.976562 118.96875 63.980469 118.558594 63.980469 118.144531 C 63.984375 117.941406 63.984375 117.734375 63.988281 117.523438 C 63.988281 117.324219 63.988281 117.125 63.992188 116.921875 C 63.992188 116.738281 63.992188 116.554688 63.996094 116.367188 C 63.980469 115.832031 63.980469 115.832031 63.832031 115.308594 C 63.699219 114.78125 63.699219 114.78125 63.699219 113.726562 Z M 63.699219 113.726562 "/>
<path style=" stroke:none;fill-rule:nonzero;fill:rgb(99.607843%,88.627452%,72.941178%);fill-opacity:1;" d="M 52.070312 57.785156 C 52.15625 57.785156 52.246094 57.785156 52.335938 57.785156 C 52.421875 60.226562 52.507812 62.664062 52.597656 65.175781 C 52.25 65.085938 51.902344 65 51.542969 64.910156 C 51.542969 64.128906 51.542969 63.34375 51.542969 62.535156 C 51.628906 62.535156 51.714844 62.535156 51.804688 62.535156 C 51.9375 60.183594 51.9375 60.183594 52.070312 57.785156 Z M 52.070312 57.785156 "/>
<path style=" stroke:none;fill-rule:nonzero;fill:rgb(59.607846%,59.607846%,59.607846%);fill-opacity:1;" d="M 49.691406 8.972656 C 49.867188 9.058594 50.039062 9.144531 50.21875 9.234375 C 50.132812 9.371094 50.046875 9.507812 49.957031 9.648438 C 49.445312 10.890625 49.644531 12.179688 49.957031 13.457031 C 49.539062 13.539062 49.539062 13.539062 49.113281 13.621094 C 47.925781 13.957031 47.503906 14.589844 46.785156 15.566406 C 46.523438 15.835938 46.261719 16.101562 45.992188 16.359375 C 46.332031 14.929688 46.972656 14.089844 48.105469 13.191406 C 48.453125 13.007812 48.804688 12.828125 49.164062 12.664062 C 49.15625 12.488281 49.152344 12.308594 49.144531 12.125 C 49.136719 11.773438 49.136719 11.773438 49.128906 11.414062 C 49.125 11.179688 49.117188 10.945312 49.113281 10.707031 C 49.164062 9.996094 49.332031 9.578125 49.691406 8.972656 Z M 49.691406 8.972656 "/>
<path style=" stroke:none;fill-rule:nonzero;fill:rgb(50.588238%,28.235295%,17.254902%);fill-opacity:1;" d="M 43.960938 145.585938 C 44.796875 145.664062 45.136719 145.855469 45.726562 146.445312 C 45.726562 146.707031 45.726562 146.96875 45.726562 147.238281 C 45 147.4375 44.539062 147.542969 43.8125 147.320312 C 43.347656 146.972656 43.347656 146.972656 43.132812 146.429688 C 43.117188 146.261719 43.101562 146.089844 43.082031 145.917969 C 43.347656 145.652344 43.347656 145.652344 43.960938 145.585938 Z M 43.960938 145.585938 "/>
<path style=" stroke:none;fill-rule:nonzero;fill:rgb(78.823531%,91.37255%,98.431373%);fill-opacity:1;" d="M 57.355469 113.199219 C 57.53125 113.199219 57.707031 113.199219 57.886719 113.199219 C 57.972656 114.15625 58.058594 115.113281 58.148438 116.101562 C 58.324219 116.101562 58.5 116.101562 58.679688 116.101562 C 58.679688 116.449219 58.679688 116.796875 58.679688 117.15625 C 58.503906 117.15625 58.328125 117.15625 58.148438 117.15625 C 58.148438 117.851562 58.148438 118.550781 58.148438 119.265625 C 57.492188 118.613281 57.542969 118.378906 57.511719 117.476562 C 57.5 117.226562 57.492188 116.980469 57.480469 116.722656 C 57.472656 116.464844 57.464844 116.203125 57.457031 115.9375 C 57.445312 115.675781 57.433594 115.414062 57.425781 115.140625 C 57.398438 114.496094 57.378906 113.847656 57.355469 113.199219 Z M 57.355469 113.199219 "/>
<path style=" stroke:none;fill-rule:nonzero;fill:rgb(74.117649%,57.647061%,49.019608%);fill-opacity:1;" d="M 65.285156 144.335938 C 65.460938 144.421875 65.636719 144.507812 65.816406 144.597656 C 65.816406 144.945312 65.816406 145.296875 65.816406 145.652344 C 65.988281 145.652344 66.164062 145.652344 66.34375 145.652344 C 66.34375 145.914062 66.34375 146.175781 66.34375 146.445312 C 65.644531 146.445312 64.949219 146.445312 64.230469 146.445312 C 64.140625 146.707031 64.054688 146.96875 63.964844 147.238281 C 63.117188 147.734375 62.578125 148.027344 61.585938 148.027344 C 61.585938 147.855469 61.585938 147.679688 61.585938 147.5 C 62.285156 147.328125 62.980469 147.152344 63.699219 146.972656 C 63.789062 146.625 63.875 146.277344 63.964844 145.917969 C 64.402344 145.832031 64.835938 145.742188 65.285156 145.652344 C 65.210938 145.402344 65.210938 145.402344 65.136719 145.140625 C 65.097656 144.964844 65.0625 144.785156 65.023438 144.597656 C 65.109375 144.511719 65.195312 144.425781 65.285156 144.335938 Z M 65.285156 144.335938 "/>
<path style=" stroke:none;fill-rule:nonzero;fill:rgb(98.431373%,88.235295%,76.078433%);fill-opacity:1;" d="M 54.976562 40.636719 C 55.40625 40.621094 55.835938 40.609375 56.265625 40.601562 C 56.503906 40.597656 56.746094 40.589844 56.992188 40.582031 C 57.621094 40.636719 57.621094 40.636719 58.148438 41.164062 C 58.203125 41.90625 58.203125 41.90625 58.183594 42.777344 C 58.179688 43.066406 58.171875 43.359375 58.167969 43.65625 C 58.164062 43.878906 58.15625 44.101562 58.148438 44.328125 C 56.628906 45.121094 56.628906 45.121094 56.035156 45.121094 C 55.949219 45.382812 55.859375 45.644531 55.769531 45.914062 C 55.421875 45.824219 55.074219 45.738281 54.714844 45.648438 C 55.050781 45.433594 55.386719 45.21875 55.722656 45.003906 C 55.910156 44.886719 56.09375 44.765625 56.289062 44.644531 C 56.828125 44.328125 56.828125 44.328125 57.621094 44.066406 C 57.628906 43.632812 57.632812 43.195312 57.636719 42.761719 C 57.640625 42.519531 57.644531 42.277344 57.648438 42.03125 C 57.691406 41.4375 57.691406 41.4375 57.355469 41.164062 C 56.957031 41.101562 56.554688 41.054688 56.152344 41.015625 C 55.933594 40.992188 55.714844 40.96875 55.488281 40.949219 C 55.320312 40.929688 55.152344 40.914062 54.976562 40.898438 C 54.976562 40.8125 54.976562 40.726562 54.976562 40.636719 Z M 54.976562 40.636719 "/>
<path style=" stroke:none;fill-rule:nonzero;fill:rgb(50.196081%,27.843139%,16.862746%);fill-opacity:1;" d="M 41.761719 147.238281 C 42.199219 147.238281 42.632812 147.238281 43.082031 147.238281 C 43.082031 147.410156 43.082031 147.585938 43.082031 147.765625 C 43.34375 147.851562 43.605469 147.9375 43.875 148.027344 C 43.789062 148.375 43.703125 148.726562 43.613281 149.085938 C 42.71875 148.941406 42.269531 148.804688 41.496094 148.292969 C 41.585938 147.945312 41.671875 147.597656 41.761719 147.238281 Z M 41.761719 147.238281 "/>
<path style=" stroke:none;fill-rule:nonzero;fill:rgb(99.215686%,94.901961%,89.803922%);fill-opacity:1;" d="M 50.75 34.566406 C 51.882812 34.566406 53.015625 34.566406 54.183594 34.566406 C 53.921875 35.359375 53.921875 35.359375 53.390625 35.621094 C 52.6875 35.65625 51.984375 35.632812 51.277344 35.621094 C 51.101562 35.273438 50.929688 34.925781 50.75 34.566406 Z M 50.75 34.566406 "/>
<path style=" stroke:none;fill-rule:nonzero;fill:rgb(64.313728%,85.490197%,97.647059%);fill-opacity:1;" d="M 65.285156 102.378906 C 65.882812 103.273438 65.890625 103.640625 65.925781 104.691406 C 65.933594 104.988281 65.945312 105.28125 65.957031 105.585938 C 65.964844 105.894531 65.972656 106.203125 65.980469 106.519531 C 65.992188 106.832031 66 107.140625 66.011719 107.460938 C 66.035156 108.230469 66.058594 109 66.078125 109.769531 C 65.992188 109.769531 65.90625 109.769531 65.816406 109.769531 C 65.675781 108.683594 65.539062 107.601562 65.402344 106.519531 C 65.363281 106.210938 65.320312 105.902344 65.28125 105.585938 C 65.242188 105.289062 65.207031 104.996094 65.167969 104.691406 C 65.136719 104.417969 65.101562 104.148438 65.066406 103.867188 C 65.023438 103.171875 65.023438 103.171875 65.285156 102.378906 Z M 65.285156 102.378906 "/>
<path style=" stroke:none;fill-rule:nonzero;fill:rgb(85.490197%,75.294119%,52.156866%);fill-opacity:1;" d="M 61.058594 26.914062 C 61.683594 26.882812 61.683594 26.882812 62.378906 26.914062 C 62.90625 27.441406 62.90625 27.441406 62.90625 28.234375 C 63.082031 28.234375 63.257812 28.234375 63.4375 28.234375 C 63.457031 28.664062 63.472656 29.089844 63.484375 29.519531 C 63.496094 29.757812 63.503906 29.996094 63.511719 30.242188 C 63.488281 30.449219 63.460938 30.660156 63.4375 30.871094 C 63.175781 31.046875 62.914062 31.21875 62.644531 31.398438 C 62.644531 31.246094 62.648438 31.09375 62.652344 30.9375 C 62.667969 29.738281 62.621094 28.621094 62.378906 27.441406 C 61.855469 27.441406 61.332031 27.441406 60.792969 27.441406 C 60.878906 27.269531 60.96875 27.09375 61.058594 26.914062 Z M 61.058594 26.914062 "/>
<path style=" stroke:none;fill-rule:nonzero;fill:rgb(83.137256%,75.686276%,58.431375%);fill-opacity:1;" d="M 63.4375 148.820312 C 64.046875 148.820312 64.65625 148.820312 65.285156 148.820312 C 65.285156 148.90625 65.285156 148.996094 65.285156 149.085938 C 65.898438 149.171875 66.507812 149.257812 67.136719 149.347656 C 67.136719 149.433594 67.136719 149.523438 67.136719 149.613281 C 66.347656 149.703125 66.347656 149.703125 65.5625 149.792969 C 64.972656 149.867188 64.972656 149.867188 64.230469 150.140625 C 63.683594 150.15625 63.140625 150.160156 62.59375 150.15625 C 62.164062 150.152344 62.164062 150.152344 61.722656 150.148438 C 61.503906 150.144531 61.285156 150.144531 61.058594 150.140625 C 61.058594 149.964844 61.058594 149.792969 61.058594 149.613281 C 61.84375 149.4375 62.628906 149.261719 63.4375 149.085938 C 63.4375 148.996094 63.4375 148.910156 63.4375 148.820312 Z M 63.4375 148.820312 "/>
<path style=" stroke:none;fill-rule:nonzero;fill:rgb(49.803922%,27.450982%,16.470589%);fill-opacity:1;" d="M 65.550781 144.597656 C 66.59375 144.550781 67.292969 144.574219 68.195312 145.125 C 68.019531 145.472656 67.84375 145.824219 67.664062 146.179688 C 66.929688 146.082031 66.453125 146.003906 65.863281 145.539062 C 65.550781 145.125 65.550781 145.125 65.550781 144.597656 Z M 65.550781 144.597656 "/>
<path style=" stroke:none;fill-rule:nonzero;fill:rgb(86.274511%,64.705884%,41.960785%);fill-opacity:1;" d="M 53.921875 25.59375 C 54.714844 26.089844 54.714844 26.089844 55.242188 26.652344 C 55.242188 26.824219 55.242188 27 55.242188 27.179688 C 54.21875 26.683594 54.21875 26.683594 53.921875 26.386719 C 53.476562 26.367188 53.027344 26.363281 52.582031 26.371094 C 52.339844 26.371094 52.097656 26.375 51.847656 26.378906 C 51.660156 26.378906 51.472656 26.382812 51.277344 26.386719 C 51.277344 26.648438 51.277344 26.910156 51.277344 27.179688 C 51.015625 27.179688 50.753906 27.179688 50.484375 27.179688 C 51.171875 25.597656 52.277344 25.328125 53.921875 25.59375 Z M 53.921875 25.59375 "/>
<path style=" stroke:none;fill-rule:nonzero;fill:rgb(49.411765%,27.450982%,16.470589%);fill-opacity:1;" d="M 64.230469 146.179688 C 65.121094 146.246094 65.121094 146.246094 66.078125 146.445312 C 66.460938 146.988281 66.460938 146.988281 66.609375 147.5 C 66.34375 147.765625 66.34375 147.765625 65.714844 147.8125 C 65.023438 147.765625 65.023438 147.765625 64.230469 147.238281 C 64.230469 146.890625 64.230469 146.539062 64.230469 146.179688 Z M 64.230469 146.179688 "/>
<path style=" stroke:none;fill-rule:nonzero;fill:rgb(67.450982%,43.137255%,30.980393%);fill-opacity:1;" d="M 75.066406 139.058594 C 75.152344 139.058594 75.242188 139.058594 75.332031 139.058594 C 75.332031 140.015625 75.332031 140.972656 75.332031 141.960938 C 75.503906 141.960938 75.679688 141.960938 75.859375 141.960938 C 75.859375 142.570312 75.859375 143.179688 75.859375 143.808594 C 75.597656 143.808594 75.335938 143.808594 75.066406 143.808594 C 74.890625 143.195312 74.71875 142.585938 74.539062 141.960938 C 74.710938 141.871094 74.886719 141.785156 75.066406 141.695312 C 75.066406 140.824219 75.066406 139.953125 75.066406 139.058594 Z M 75.066406 139.058594 "/>
<path style=" stroke:none;fill-rule:nonzero;fill:rgb(71.372551%,88.235295%,98.039216%);fill-opacity:1;" d="M 58.148438 135.890625 C 58.324219 135.890625 58.5 135.890625 58.679688 135.890625 C 58.589844 137.023438 58.503906 138.15625 58.414062 139.320312 C 58.066406 139.320312 57.714844 139.320312 57.355469 139.320312 C 57.355469 138.710938 57.355469 138.101562 57.355469 137.472656 C 57.53125 137.472656 57.707031 137.472656 57.886719 137.472656 C 57.972656 136.953125 58.058594 136.429688 58.148438 135.890625 Z M 58.148438 135.890625 "/>
<path style=" stroke:none;fill-rule:nonzero;fill:rgb(56.470591%,80.392158%,92.156863%);fill-opacity:1;" d="M 61.851562 97.628906 C 64.289062 99.066406 64.289062 99.066406 64.757812 100.003906 C 64.671875 100.265625 64.582031 100.527344 64.492188 100.796875 C 64.292969 100.589844 64.089844 100.382812 63.882812 100.171875 C 63.195312 99.457031 63.195312 99.457031 62.378906 98.949219 C 62.203125 99.472656 62.03125 99.996094 61.851562 100.53125 C 61.761719 100.53125 61.675781 100.53125 61.585938 100.53125 C 61.671875 99.574219 61.761719 98.617188 61.851562 97.628906 Z M 61.851562 97.628906 "/>
<path style=" stroke:none;fill-rule:nonzero;fill:rgb(47.450981%,73.725492%,85.490197%);fill-opacity:1;" d="M 48.628906 140.144531 C 49 140.164062 49 140.164062 49.378906 140.183594 C 49.632812 140.199219 49.890625 140.210938 50.152344 140.226562 C 50.542969 140.25 50.542969 140.25 50.941406 140.269531 C 51.582031 140.304688 52.222656 140.339844 52.863281 140.375 C 52.863281 140.464844 52.863281 140.550781 52.863281 140.640625 C 49.59375 140.769531 49.59375 140.769531 46.253906 140.902344 C 46.253906 140.730469 46.253906 140.554688 46.253906 140.375 C 47.078125 140.128906 47.773438 140.097656 48.628906 140.144531 Z M 48.628906 140.144531 "/>
<path style=" stroke:none;fill-rule:nonzero;fill:rgb(24.313726%,24.313726%,25.882354%);fill-opacity:1;" d="M 51.542969 28.234375 C 51.890625 28.234375 52.238281 28.234375 52.597656 28.234375 C 52.6875 28.757812 52.773438 29.277344 52.863281 29.816406 C 52.339844 30.078125 52.339844 30.078125 51.804688 30.34375 C 51.277344 29.816406 51.277344 29.816406 51.226562 29.140625 C 51.277344 28.496094 51.277344 28.496094 51.542969 28.234375 Z M 51.542969 28.234375 "/>
<path style=" stroke:none;fill-rule:nonzero;fill:rgb(62.7451%,78.039217%,85.882354%);fill-opacity:1;" d="M 74.800781 136.417969 C 74.890625 136.417969 74.976562 136.417969 75.066406 136.417969 C 75.066406 136.941406 75.066406 137.464844 75.066406 138 C 75.242188 138 75.414062 138 75.59375 138 C 75.683594 139.308594 75.769531 140.613281 75.859375 141.960938 C 75.683594 141.960938 75.511719 141.960938 75.332031 141.960938 C 75.316406 141.761719 75.304688 141.566406 75.292969 141.363281 C 75.269531 141.101562 75.25 140.84375 75.230469 140.574219 C 75.210938 140.316406 75.195312 140.058594 75.175781 139.796875 C 75.070312 139.078125 74.878906 138.632812 74.539062 138 C 74.488281 137.292969 74.488281 137.292969 74.539062 136.683594 C 74.625 136.59375 74.710938 136.507812 74.800781 136.417969 Z M 74.800781 136.417969 "/>
<path style=" stroke:none;fill-rule:nonzero;fill:rgb(67.058825%,86.666667%,97.647059%);fill-opacity:1;" d="M 57.621094 107.921875 C 57.796875 107.921875 57.96875 107.921875 58.148438 107.921875 C 58.375 109.261719 58.4375 110.519531 58.414062 111.878906 C 58.238281 111.878906 58.066406 111.878906 57.886719 111.878906 C 57.886719 111.183594 57.886719 110.484375 57.886719 109.769531 C 57.710938 109.769531 57.535156 109.769531 57.355469 109.769531 C 57.445312 109.160156 57.53125 108.550781 57.621094 107.921875 Z M 57.621094 107.921875 "/>
<path style=" stroke:none;fill-rule:nonzero;fill:rgb(77.64706%,90.588236%,98.431373%);fill-opacity:1;" d="M 63.699219 105.546875 C 63.960938 105.546875 64.222656 105.546875 64.492188 105.546875 C 64.492188 106.503906 64.492188 107.460938 64.492188 108.449219 C 64.230469 108.449219 63.96875 108.449219 63.699219 108.449219 C 63.699219 107.492188 63.699219 106.53125 63.699219 105.546875 Z M 63.699219 105.546875 "/>
<path style=" stroke:none;fill-rule:nonzero;fill:rgb(74.509805%,78.039217%,71.764708%);fill-opacity:1;" d="M 61.320312 101.058594 C 61.496094 101.058594 61.671875 101.058594 61.851562 101.058594 C 61.6875 103.019531 61.6875 103.019531 61.238281 103.683594 C 60.734375 104 60.320312 104.117188 59.734375 104.226562 C 59.472656 104.3125 59.210938 104.402344 58.941406 104.492188 C 58.941406 104.316406 58.941406 104.140625 58.941406 103.964844 C 59.117188 103.964844 59.292969 103.964844 59.472656 103.964844 C 59.472656 103.703125 59.472656 103.441406 59.472656 103.171875 C 59.996094 103.085938 60.519531 102.996094 61.058594 102.90625 C 61.144531 102.296875 61.230469 101.6875 61.320312 101.058594 Z M 61.320312 101.058594 "/>
<path style=" stroke:none;fill-rule:nonzero;fill:rgb(79.215688%,91.37255%,98.431373%);fill-opacity:1;" d="M 57.886719 133.78125 C 57.972656 133.78125 58.058594 133.78125 58.148438 133.78125 C 58.148438 134.214844 58.148438 134.652344 58.148438 135.097656 C 58.324219 135.097656 58.5 135.097656 58.679688 135.097656 C 58.679688 135.359375 58.679688 135.621094 58.679688 135.890625 C 58.503906 135.890625 58.328125 135.890625 58.148438 135.890625 C 58.0625 136.414062 57.976562 136.9375 57.886719 137.472656 C 57.796875 137.472656 57.710938 137.472656 57.621094 137.472656 C 57.613281 136.90625 57.609375 136.339844 57.605469 135.773438 C 57.601562 135.460938 57.597656 135.144531 57.59375 134.820312 C 57.621094 134.042969 57.621094 134.042969 57.886719 133.78125 Z M 57.886719 133.78125 "/>
<path style=" stroke:none;fill-rule:nonzero;fill:rgb(31.764707%,31.37255%,31.37255%);fill-opacity:1;" d="M 79.824219 22.164062 C 80.003906 22.621094 80.003906 22.621094 80.089844 23.21875 C 79.765625 23.785156 79.765625 23.785156 79.3125 24.339844 C 79.160156 24.527344 79.011719 24.714844 78.859375 24.90625 C 78.683594 25.117188 78.683594 25.117188 78.503906 25.332031 C 78.328125 24.984375 78.152344 24.632812 77.972656 24.277344 C 78.378906 23.957031 78.78125 23.640625 79.1875 23.320312 C 79.632812 22.941406 79.632812 22.941406 79.824219 22.164062 Z M 79.824219 22.164062 "/>
<path style=" stroke:none;fill-rule:nonzero;fill:rgb(63.921571%,33.725491%,18.431373%);fill-opacity:1;" d="M 73.257812 138.742188 C 73.582031 138.75 73.582031 138.75 73.910156 138.761719 C 74.234375 138.765625 74.234375 138.765625 74.5625 138.773438 C 74.8125 138.785156 74.8125 138.785156 75.066406 138.792969 C 75.066406 139.316406 75.066406 139.839844 75.066406 140.375 C 74.890625 140.289062 74.71875 140.203125 74.539062 140.113281 C 74.539062 139.851562 74.539062 139.589844 74.539062 139.320312 C 73.753906 139.320312 72.96875 139.320312 72.160156 139.320312 C 72.6875 138.792969 72.6875 138.792969 73.257812 138.742188 Z M 73.257812 138.742188 "/>
<path style=" stroke:none;fill-rule:nonzero;fill:rgb(67.058825%,86.666667%,97.647059%);fill-opacity:1;" d="M 63.699219 108.449219 C 63.960938 108.449219 64.222656 108.449219 64.492188 108.449219 C 64.40625 109.492188 64.320312 110.539062 64.230469 111.613281 C 64.054688 111.613281 63.878906 111.613281 63.699219 111.613281 C 63.699219 110.570312 63.699219 109.523438 63.699219 108.449219 Z M 63.699219 108.449219 "/>
<path style=" stroke:none;fill-rule:nonzero;fill:rgb(95.686275%,82.745099%,57.254905%);fill-opacity:1;" d="M 62.113281 38.789062 C 62.988281 38.789062 63.859375 38.789062 64.757812 38.789062 C 64.933594 39.136719 65.105469 39.484375 65.285156 39.84375 C 64.808594 39.769531 64.328125 39.691406 63.847656 39.613281 C 63.449219 39.546875 63.449219 39.546875 63.039062 39.484375 C 62.824219 39.429688 62.605469 39.371094 62.378906 39.316406 C 62.292969 39.140625 62.203125 38.96875 62.113281 38.789062 Z M 62.113281 38.789062 "/>
<path style=" stroke:none;fill-rule:nonzero;fill:rgb(96.078432%,83.137256%,57.647061%);fill-opacity:1;" d="M 56.828125 23.484375 C 56.5625 24.277344 56.5625 24.277344 56.035156 24.539062 C 54.601562 24.660156 54.601562 24.660156 53.953125 24.144531 C 53.855469 24.011719 53.757812 23.882812 53.65625 23.746094 C 54.191406 23.757812 54.722656 23.765625 55.257812 23.773438 C 55.859375 23.742188 56.222656 23.484375 56.828125 23.484375 Z M 56.828125 23.484375 "/>
<path style=" stroke:none;fill-rule:nonzero;fill:rgb(66.666669%,86.666667%,98.039216%);fill-opacity:1;" d="M 58.148438 117.15625 C 58.324219 117.15625 58.5 117.15625 58.679688 117.15625 C 58.679688 118.113281 58.679688 119.070312 58.679688 120.058594 C 58.417969 119.972656 58.15625 119.882812 57.886719 119.796875 C 57.972656 118.925781 58.058594 118.054688 58.148438 117.15625 Z M 58.148438 117.15625 "/>
<path style=" stroke:none;fill-rule:nonzero;fill:rgb(96.862745%,62.352943%,15.294118%);fill-opacity:1;" d="M 53.390625 47.496094 C 53.921875 47.757812 53.921875 47.757812 54.183594 48.289062 C 53.921875 48.375 53.660156 48.460938 53.390625 48.550781 C 53.304688 49.160156 53.21875 49.769531 53.128906 50.398438 C 53.039062 50.398438 52.953125 50.398438 52.863281 50.398438 C 52.777344 49.613281 52.6875 48.832031 52.597656 48.023438 C 52.859375 47.847656 53.121094 47.675781 53.390625 47.496094 Z M 53.390625 47.496094 "/>
<path style=" stroke:none;fill-rule:nonzero;fill:rgb(99.215686%,76.47059%,47.450981%);fill-opacity:1;" d="M 57.425781 44.421875 C 57.578125 44.476562 57.730469 44.535156 57.886719 44.59375 C 57.4375 44.699219 57.4375 44.699219 56.976562 44.808594 C 56.667969 44.910156 56.355469 45.015625 56.035156 45.121094 C 55.949219 45.382812 55.859375 45.644531 55.769531 45.914062 C 55.421875 45.824219 55.074219 45.738281 54.714844 45.648438 C 55.042969 45.417969 55.371094 45.195312 55.703125 44.972656 C 55.890625 44.847656 56.074219 44.722656 56.261719 44.59375 C 56.828125 44.328125 56.828125 44.328125 57.425781 44.421875 Z M 57.425781 44.421875 "/>
<path style=" stroke:none;fill-rule:nonzero;fill:rgb(79.607844%,91.37255%,98.431373%);fill-opacity:1;" d="M 64.757812 123.488281 C 64.84375 123.488281 64.933594 123.488281 65.023438 123.488281 C 65.023438 124.535156 65.023438 125.578125 65.023438 126.65625 C 64.933594 126.480469 64.847656 126.308594 64.757812 126.128906 C 64.582031 126.128906 64.410156 126.128906 64.230469 126.128906 C 64.402344 125.257812 64.578125 124.386719 64.757812 123.488281 Z M 64.757812 123.488281 "/>
<path style=" stroke:none;fill-rule:nonzero;fill:rgb(78.431374%,91.37255%,98.431373%);fill-opacity:1;" d="M 64.492188 117.683594 C 65.023438 118.210938 65.023438 118.210938 65.074219 118.898438 C 65.066406 119.160156 65.0625 119.425781 65.054688 119.695312 C 65.050781 119.960938 65.046875 120.226562 65.039062 120.496094 C 65.03125 120.804688 65.03125 120.804688 65.023438 121.113281 C 64.671875 120.941406 64.324219 120.765625 63.964844 120.585938 C 64.050781 120.5 64.140625 120.414062 64.230469 120.324219 C 64.289062 119.878906 64.339844 119.433594 64.378906 118.988281 C 64.398438 118.746094 64.421875 118.5 64.445312 118.253906 C 64.460938 118.066406 64.476562 117.878906 64.492188 117.683594 Z M 64.492188 117.683594 "/>
<path style=" stroke:none;fill-rule:nonzero;fill:rgb(67.058825%,86.666667%,97.647059%);fill-opacity:1;" d="M 58.148438 132.988281 C 58.324219 132.988281 58.5 132.988281 58.679688 132.988281 C 58.679688 133.683594 58.679688 134.382812 58.679688 135.097656 C 58.503906 135.097656 58.328125 135.097656 58.148438 135.097656 C 58.050781 134.484375 57.960938 133.871094 57.886719 133.253906 C 57.972656 133.164062 58.058594 133.078125 58.148438 132.988281 Z M 58.148438 132.988281 "/>
<path style=" stroke:none;fill-rule:nonzero;fill:rgb(71.764708%,88.627452%,98.039216%);fill-opacity:1;" d="M 63.964844 120.851562 C 64.488281 121.113281 64.488281 121.113281 65.023438 121.378906 C 65.023438 121.902344 65.023438 122.421875 65.023438 122.960938 C 64.847656 122.960938 64.671875 122.960938 64.492188 122.960938 C 64.320312 122.265625 64.144531 121.566406 63.964844 120.851562 Z M 63.964844 120.851562 "/>
<path style=" stroke:none;fill-rule:nonzero;fill:rgb(77.64706%,90.980393%,98.431373%);fill-opacity:1;" d="M 57.09375 104.492188 C 57.355469 104.492188 57.617188 104.492188 57.886719 104.492188 C 57.796875 105.1875 57.710938 105.882812 57.621094 106.601562 C 57.445312 106.601562 57.273438 106.601562 57.09375 106.601562 C 57.09375 105.90625 57.09375 105.207031 57.09375 104.492188 Z M 57.09375 104.492188 "/>
<path style=" stroke:none;fill-rule:nonzero;fill:rgb(94.117647%,68.627453%,27.058825%);fill-opacity:1;" d="M 68.722656 94.726562 C 69.246094 94.726562 69.769531 94.726562 70.308594 94.726562 C 70.222656 94.988281 70.132812 95.25 70.042969 95.519531 C 69.5 95.699219 69.5 95.699219 68.988281 95.78125 C 68.898438 95.433594 68.8125 95.085938 68.722656 94.726562 Z M 68.722656 94.726562 "/>
<path style=" stroke:none;fill-rule:nonzero;fill:rgb(82.745099%,82.352942%,81.568629%);fill-opacity:1;" d="M 53.390625 48.289062 C 53.828125 48.375 54.265625 48.460938 54.714844 48.550781 C 54.625 48.898438 54.539062 49.246094 54.449219 49.605469 C 54.363281 49.34375 54.273438 49.085938 54.183594 48.816406 C 53.660156 49.078125 53.660156 49.078125 53.128906 49.34375 C 53.214844 48.996094 53.300781 48.644531 53.390625 48.289062 Z M 53.390625 48.289062 "/>
<path style=" stroke:none;fill-rule:nonzero;fill:rgb(80.000001%,69.411767%,48.235294%);fill-opacity:1;" d="M 56.300781 23.21875 C 56.5625 23.21875 56.824219 23.21875 57.09375 23.21875 C 57.164062 23.421875 57.234375 23.621094 57.308594 23.832031 C 57.605469 24.507812 57.863281 24.855469 58.414062 25.332031 C 57.125 25.101562 57.125 25.101562 56.828125 24.804688 C 56.816406 24.363281 56.816406 23.921875 56.828125 23.484375 C 56.652344 23.398438 56.480469 23.308594 56.300781 23.21875 Z M 56.300781 23.21875 "/>
<path style=" stroke:none;fill-rule:nonzero;fill:rgb(56.470591%,56.470591%,56.470591%);fill-opacity:1;" d="M 76.652344 15.832031 C 76.738281 16.007812 76.828125 16.179688 76.917969 16.359375 C 77.179688 16.445312 77.441406 16.535156 77.710938 16.625 C 78.503906 16.886719 78.503906 16.886719 78.765625 17.414062 C 77.589844 17.152344 77.589844 17.152344 76.386719 16.886719 C 76.476562 16.539062 76.5625 16.191406 76.652344 15.832031 Z M 76.652344 15.832031 "/>
<path style=" stroke:none;fill-rule:nonzero;fill:rgb(61.56863%,32.549021%,18.431373%);fill-opacity:1;" d="M 61.320312 148.027344 C 62.105469 148.191406 62.480469 148.359375 63.171875 148.820312 C 62.472656 148.90625 61.777344 148.996094 61.058594 149.085938 C 61.144531 148.734375 61.230469 148.386719 61.320312 148.027344 Z M 61.320312 148.027344 "/>
<path style=" stroke:none;fill-rule:nonzero;fill:rgb(19.215687%,16.078432%,11.372549%);fill-opacity:1;" d="M 56.300781 23.484375 C 55.769531 24.011719 55.769531 24.011719 55.078125 24.042969 C 54.871094 24.035156 54.664062 24.023438 54.449219 24.011719 C 54.363281 23.835938 54.273438 23.664062 54.183594 23.484375 C 54.941406 23.105469 55.488281 23.324219 56.300781 23.484375 Z M 56.300781 23.484375 "/>
</g>
</svg>
