<?xml version="1.0" encoding="UTF-8"?>
<svg xmlns="http://www.w3.org/2000/svg" xmlns:xlink="http://www.w3.org/1999/xlink" width="120px" height="157px" viewBox="0 0 120 157" version="1.1">
<g id="surface1">
<path style=" stroke:none;fill-rule:nonzero;fill:rgb(98.823529%,67.843139%,24.705882%);fill-opacity:1;" d="M 60.265625 7.386719 C 60.945312 7.761719 61.316406 8.128906 61.851562 8.707031 C 61.976562 8.578125 62.101562 8.445312 62.230469 8.3125 C 63.234375 7.722656 64.148438 7.699219 65.285156 7.914062 C 65.964844 8.289062 66.332031 8.65625 66.871094 9.234375 C 66.871094 9.410156 66.871094 9.582031 66.871094 9.761719 C 67.089844 9.632812 67.308594 9.5 67.53125 9.367188 C 68.613281 8.90625 69.417969 8.765625 70.574219 8.972656 C 71.519531 9.453125 72.027344 9.796875 72.554688 10.71875 C 73.085938 11.558594 73.609375 11.570312 74.539062 11.875 C 75.59375 12.984375 75.59375 12.984375 75.59375 13.722656 C 75.828125 13.738281 76.0625 13.753906 76.304688 13.769531 C 77.386719 14.035156 77.789062 14.46875 78.503906 15.304688 C 78.898438 16.09375 78.796875 16.808594 78.765625 17.679688 C 78.679688 17.851562 78.59375 18.027344 78.503906 18.207031 C 78.695312 18.238281 78.890625 18.265625 79.089844 18.296875 C 80.394531 18.605469 81.230469 19.175781 81.9375 20.316406 C 82.113281 21.074219 82.148438 21.804688 82.152344 22.578125 C 82.15625 22.769531 82.160156 22.964844 82.164062 23.164062 C 82.109375 24.644531 81.6875 25.359375 80.617188 26.386719 C 80.441406 26.386719 80.269531 26.386719 80.089844 26.386719 C 80.285156 26.582031 80.285156 26.582031 80.484375 26.78125 C 81.03125 27.691406 81.101562 28.53125 80.882812 29.554688 C 80.199219 30.421875 79.527344 30.984375 78.503906 31.398438 C 78.59375 31.542969 78.6875 31.683594 78.78125 31.828125 C 79.199219 32.878906 78.902344 33.695312 78.503906 34.714844 C 77.71875 35.667969 76.714844 36.179688 75.59375 36.675781 C 75.421875 36.675781 75.246094 36.675781 75.066406 36.675781 C 75.050781 36.960938 75.035156 37.242188 75.015625 37.535156 C 74.800781 38.523438 74.800781 38.523438 74.15625 39.152344 C 72.949219 39.917969 72.257812 39.867188 70.835938 39.84375 C 70.773438 40 70.707031 40.160156 70.640625 40.320312 C 70.242188 41.015625 69.957031 41.308594 69.25 41.691406 C 68.261719 41.738281 68.261719 41.738281 67.402344 41.691406 C 67.3125 42.5625 67.226562 43.433594 67.136719 44.328125 C 67.355469 44.335938 67.578125 44.34375 67.804688 44.351562 C 70.839844 44.503906 72.984375 45.21875 75.066406 47.496094 C 76.4375 49.246094 77.132812 51.066406 77.179688 53.300781 C 76.996094 54.433594 76.457031 55.078125 75.644531 55.890625 C 74.828125 56.449219 74.152344 56.707031 73.214844 56.996094 C 73.195312 57.335938 73.195312 57.335938 73.175781 57.683594 C 73.078125 59.25 72.953125 60.789062 72.6875 62.339844 C 72.015625 66.472656 72.109375 70.710938 72.109375 74.886719 C 72.109375 75.796875 72.105469 76.707031 72.097656 77.621094 C 72.089844 81.773438 72.359375 85.515625 73.5625 89.515625 C 73.636719 89.78125 73.710938 90.042969 73.789062 90.3125 C 74.25 91.875 74.820312 93.273438 75.617188 94.695312 C 75.859375 95.253906 75.859375 95.253906 75.742188 96.179688 C 75.269531 96.933594 75.097656 97.0625 74.273438 97.367188 C 73.574219 97.445312 72.894531 97.5 72.191406 97.53125 C 72.011719 97.542969 71.835938 97.550781 71.652344 97.5625 C 70.382812 97.628906 69.117188 97.632812 67.847656 97.632812 C 67.515625 97.632812 67.183594 97.632812 66.84375 97.632812 C 66.464844 97.632812 66.464844 97.632812 66.078125 97.628906 C 66.105469 100.183594 66.136719 102.734375 66.171875 105.289062 C 66.175781 105.710938 66.179688 106.136719 66.1875 106.5625 C 66.246094 111.355469 66.320312 116.152344 66.488281 120.945312 C 66.496094 121.125 66.5 121.308594 66.507812 121.492188 C 66.539062 122.394531 66.570312 123.292969 66.601562 124.191406 C 66.851562 131.121094 66.898438 138.023438 66.660156 144.953125 C 66.578125 147.566406 66.609375 150.160156 66.609375 152.777344 C 57.535156 152.777344 48.464844 152.777344 39.117188 152.777344 C 39.382812 150.929688 39.382812 150.929688 39.664062 150.453125 C 40.34375 150.039062 41.027344 149.9375 41.800781 149.773438 C 42.476562 149.550781 42.699219 149.132812 43.082031 148.554688 C 43.433594 148.554688 43.78125 148.554688 44.140625 148.554688 C 44.152344 148.355469 44.164062 148.152344 44.175781 147.945312 C 44.40625 147.238281 44.40625 147.238281 45.164062 146.839844 C 45.4375 146.710938 45.710938 146.578125 45.992188 146.445312 C 47.734375 144.046875 47.382812 140.605469 47.351562 137.765625 C 47.34375 137.121094 47.34375 136.476562 47.339844 135.832031 C 47.332031 134.230469 47.320312 132.632812 47.308594 131.03125 C 47.222656 120.15625 47.222656 120.15625 47.839844 115.046875 C 47.863281 114.863281 47.886719 114.683594 47.90625 114.496094 C 48.035156 113.492188 48.1875 112.496094 48.355469 111.5 C 48.421875 111.070312 48.421875 111.070312 48.492188 110.636719 C 48.785156 108.832031 49.097656 107.027344 49.425781 105.230469 C 50.367188 101.355469 50.367188 101.355469 49.957031 97.628906 C 49.664062 95.9375 49.652344 94.226562 49.652344 92.511719 C 49.652344 92.246094 49.652344 91.984375 49.652344 91.710938 C 49.648438 90.84375 49.648438 89.976562 49.648438 89.105469 C 49.644531 88.496094 49.644531 87.882812 49.644531 87.269531 C 49.644531 85.988281 49.640625 84.703125 49.644531 83.417969 C 49.644531 82.117188 49.640625 80.8125 49.636719 79.511719 C 49.582031 59.054688 49.582031 59.054688 51.664062 53.511719 C 51.851562 52.992188 51.851562 52.992188 51.738281 52.246094 C 51.867188 50.726562 53.058594 49.632812 54.136719 48.628906 C 55.496094 47.550781 57.703125 45.914062 59.472656 45.914062 C 59.382812 44.953125 59.296875 43.996094 59.207031 43.011719 C 58.84375 42.972656 58.84375 42.972656 58.472656 42.933594 C 54.128906 42.402344 54.128906 42.402344 52.597656 40.636719 C 52.597656 40.460938 52.597656 40.285156 52.597656 40.109375 C 52.425781 40.109375 52.25 40.109375 52.070312 40.109375 C 51.0625 38.597656 51.199219 37.125 51.277344 35.359375 C 50.894531 35.234375 50.894531 35.234375 50.5 35.109375 C 49.691406 34.832031 49.691406 34.832031 49.425781 34.566406 C 49.378906 33.792969 49.378906 33.792969 49.425781 32.984375 C 49.957031 32.457031 49.957031 32.457031 50.648438 32.421875 C 50.855469 32.433594 51.0625 32.445312 51.277344 32.457031 C 51.304688 31.28125 51.316406 30.109375 51.308594 28.933594 C 51.308594 28.535156 51.316406 28.136719 51.324219 27.738281 C 51.355469 26.449219 51.339844 25.261719 51.011719 24.011719 C 50.378906 23.382812 49.84375 23.082031 49.015625 22.75 C 48.195312 22.339844 47.964844 21.929688 47.578125 21.109375 C 47.371094 19.515625 47.34375 17.964844 47.972656 16.476562 C 48.816406 15.65625 49.722656 15.074219 50.75 14.511719 C 50.660156 14.113281 50.660156 14.113281 50.566406 13.703125 C 50.46875 12.472656 50.671875 11.886719 51.277344 10.820312 C 52.109375 9.863281 52.769531 9.703125 53.988281 9.597656 C 54.21875 9.589844 54.449219 9.582031 54.683594 9.570312 C 54.867188 9.546875 55.050781 9.523438 55.242188 9.5 C 55.328125 9.324219 55.417969 9.152344 55.507812 8.972656 C 55.679688 8.972656 55.855469 8.972656 56.035156 8.972656 C 56.105469 8.808594 56.175781 8.644531 56.25 8.476562 C 57.089844 6.976562 58.761719 7.167969 60.265625 7.386719 Z M 57.621094 105.019531 C 57.359375 105.148438 57.359375 105.148438 57.09375 105.28125 C 56.90625 105.886719 56.90625 105.886719 56.78125 106.621094 C 56.699219 107.039062 56.699219 107.039062 56.617188 107.464844 C 56.5625 107.761719 56.503906 108.058594 56.449219 108.367188 C 56.332031 108.972656 56.214844 109.578125 56.097656 110.183594 C 56.015625 110.621094 56.015625 110.621094 55.929688 111.070312 C 55.6875 112.308594 55.414062 113.535156 55.128906 114.765625 C 54.75 116.769531 54.675781 118.75 54.679688 120.789062 C 54.679688 121.0625 54.679688 121.339844 54.675781 121.625 C 54.675781 122.53125 54.679688 123.4375 54.679688 124.347656 C 54.679688 124.660156 54.679688 124.96875 54.679688 125.292969 C 54.6875 133.046875 54.828125 140.800781 54.976562 148.554688 C 55.238281 148.46875 55.5 148.382812 55.769531 148.292969 C 55.820312 148.039062 55.820312 148.039062 55.871094 147.78125 C 55.925781 147.601562 55.980469 147.421875 56.035156 147.238281 C 56.238281 147.160156 56.4375 147.085938 56.644531 147.007812 C 57.644531 146.589844 57.886719 146.0625 58.414062 145.125 C 58.632812 144.410156 58.75 143.691406 58.859375 142.949219 C 58.890625 142.765625 58.921875 142.578125 58.953125 142.390625 C 59.347656 139.953125 59.519531 137.511719 59.621094 135.050781 C 59.632812 134.808594 59.644531 134.570312 59.65625 134.324219 C 59.859375 129.429688 59.730469 124.53125 59.523438 119.640625 C 59.488281 118.765625 59.453125 117.894531 59.417969 117.023438 C 59.703125 110.75 59.703125 110.75 58.132812 105.300781 C 57.878906 105.160156 57.878906 105.160156 57.621094 105.019531 Z M 57.621094 105.019531 "/>
<path style=" stroke:none;fill-rule:nonzero;fill:rgb(49.019608%,79.215688%,95.686275%);fill-opacity:1;" d="M 65.285156 97.628906 C 65.546875 97.71875 65.808594 97.804688 66.078125 97.894531 C 66.082031 98.085938 66.082031 98.28125 66.085938 98.480469 C 66.113281 100.796875 66.140625 103.113281 66.171875 105.429688 C 66.175781 105.847656 66.179688 106.265625 66.1875 106.683594 C 66.246094 111.433594 66.320312 116.179688 66.488281 120.925781 C 66.496094 121.199219 66.496094 121.199219 66.507812 121.476562 C 66.539062 122.375 66.570312 123.273438 66.601562 124.171875 C 66.851562 131.109375 66.898438 138.015625 66.660156 144.953125 C 66.578125 147.566406 66.609375 150.160156 66.609375 152.777344 C 57.535156 152.777344 48.464844 152.777344 39.117188 152.777344 C 39.382812 150.929688 39.382812 150.929688 39.664062 150.453125 C 40.34375 150.039062 41.027344 149.9375 41.800781 149.773438 C 42.476562 149.550781 42.699219 149.132812 43.082031 148.554688 C 43.433594 148.554688 43.78125 148.554688 44.140625 148.554688 C 44.152344 148.355469 44.164062 148.152344 44.175781 147.945312 C 44.40625 147.238281 44.40625 147.238281 45.164062 146.839844 C 45.4375 146.710938 45.710938 146.578125 45.992188 146.445312 C 47.734375 144.046875 47.382812 140.605469 47.351562 137.765625 C 47.34375 137.121094 47.34375 136.476562 47.339844 135.832031 C 47.332031 134.230469 47.320312 132.632812 47.308594 131.03125 C 47.222656 120.15625 47.222656 120.15625 47.839844 115.046875 C 47.863281 114.863281 47.886719 114.683594 47.90625 114.496094 C 48.035156 113.492188 48.1875 112.496094 48.355469 111.5 C 48.398438 111.214844 48.445312 110.925781 48.492188 110.632812 C 48.804688 108.691406 49.148438 106.757812 49.5 104.824219 C 49.886719 102.613281 50.175781 100.382812 50.484375 98.15625 C 52.492188 98.15625 54.496094 98.15625 56.5625 98.15625 C 56.390625 98.855469 56.214844 99.550781 56.035156 100.269531 C 56.015625 100.882812 56.007812 101.5 56.035156 102.117188 C 56.210938 102.203125 56.382812 102.289062 56.5625 102.378906 C 56.664062 102.878906 56.664062 102.878906 56.710938 103.5 C 56.765625 104.140625 56.820312 104.730469 56.980469 105.351562 C 57.113281 106.214844 57.007812 106.882812 56.847656 107.746094 C 56.789062 108.0625 56.730469 108.382812 56.671875 108.714844 C 56.609375 109.046875 56.546875 109.375 56.480469 109.71875 C 56.390625 110.210938 56.390625 110.210938 56.300781 110.714844 C 55.816406 113.34375 55.816406 113.34375 55.480469 114.601562 C 54.960938 116.730469 54.941406 118.847656 54.949219 121.027344 C 54.949219 121.324219 54.949219 121.625 54.949219 121.933594 C 54.949219 122.914062 54.949219 123.894531 54.953125 124.875 C 54.953125 125.558594 54.953125 126.242188 54.953125 126.925781 C 54.953125 128.53125 54.957031 130.140625 54.957031 131.75 C 54.960938 133.585938 54.964844 135.417969 54.964844 137.25 C 54.96875 141.019531 54.972656 144.789062 54.976562 148.554688 C 55.527344 148.078125 55.527344 148.078125 55.722656 147.5 C 56.035156 146.972656 56.035156 146.972656 56.679688 146.726562 C 57.582031 146.351562 57.722656 146 58.148438 145.125 C 58.324219 144.398438 58.464844 143.699219 58.578125 142.964844 C 58.628906 142.6875 58.628906 142.6875 58.675781 142.402344 C 59.082031 139.964844 59.253906 137.519531 59.355469 135.050781 C 59.371094 134.691406 59.371094 134.691406 59.390625 134.324219 C 59.609375 129.164062 59.441406 124.011719 59.222656 118.855469 C 59.199219 118.285156 59.175781 117.710938 59.152344 117.140625 C 59.128906 116.574219 59.109375 116.007812 59.085938 115.441406 C 59.066406 115.027344 59.066406 115.027344 59.050781 114.609375 C 58.992188 113.222656 58.925781 111.839844 58.847656 110.457031 C 58.832031 110.191406 58.816406 109.921875 58.804688 109.648438 C 58.773438 109.140625 58.746094 108.636719 58.710938 108.128906 C 58.699219 107.90625 58.6875 107.679688 58.675781 107.449219 C 58.664062 107.253906 58.652344 107.054688 58.636719 106.855469 C 58.679688 106.335938 58.679688 106.335938 59.207031 105.546875 C 60.03125 105.496094 60.03125 105.496094 60.792969 105.546875 C 60.878906 105.371094 60.96875 105.199219 61.058594 105.019531 C 61.375 105.027344 61.375 105.027344 61.703125 105.035156 C 62.359375 105.097656 62.359375 105.097656 62.644531 104.753906 C 62.703125 104.355469 62.746094 103.953125 62.785156 103.554688 C 62.816406 103.308594 62.84375 103.066406 62.871094 102.8125 C 62.929688 102.296875 62.980469 101.78125 63.027344 101.261719 C 63.257812 99.363281 63.257812 99.363281 64.242188 98.542969 C 64.5 98.414062 64.757812 98.289062 65.023438 98.15625 C 65.109375 97.984375 65.195312 97.808594 65.285156 97.628906 Z M 65.285156 97.628906 "/>
<path style=" stroke:none;fill-rule:nonzero;fill:rgb(4.705882%,4.313726%,4.313726%);fill-opacity:1;" d="M 60.265625 7.386719 C 60.945312 7.761719 61.316406 8.128906 61.851562 8.707031 C 61.976562 8.578125 62.101562 8.445312 62.230469 8.3125 C 63.234375 7.722656 64.148438 7.699219 65.285156 7.914062 C 65.964844 8.289062 66.332031 8.65625 66.871094 9.234375 C 66.871094 9.410156 66.871094 9.582031 66.871094 9.761719 C 67.089844 9.632812 67.308594 9.5 67.53125 9.367188 C 68.613281 8.90625 69.417969 8.765625 70.574219 8.972656 C 71.519531 9.453125 72.027344 9.796875 72.554688 10.71875 C 73.085938 11.558594 73.609375 11.570312 74.539062 11.875 C 75.59375 12.984375 75.59375 12.984375 75.59375 13.722656 C 75.828125 13.738281 76.0625 13.753906 76.304688 13.769531 C 77.386719 14.035156 77.789062 14.46875 78.503906 15.304688 C 78.898438 16.09375 78.796875 16.808594 78.765625 17.679688 C 78.636719 17.941406 78.636719 17.941406 78.503906 18.207031 C 78.695312 18.238281 78.890625 18.265625 79.089844 18.296875 C 80.394531 18.605469 81.230469 19.175781 81.9375 20.316406 C 82.113281 21.074219 82.148438 21.804688 82.152344 22.578125 C 82.15625 22.769531 82.160156 22.964844 82.164062 23.164062 C 82.109375 24.644531 81.6875 25.359375 80.617188 26.386719 C 80.441406 26.386719 80.269531 26.386719 80.089844 26.386719 C 80.21875 26.515625 80.351562 26.648438 80.484375 26.78125 C 81.03125 27.691406 81.101562 28.53125 80.882812 29.554688 C 80.199219 30.421875 79.527344 30.984375 78.503906 31.398438 C 78.59375 31.542969 78.6875 31.683594 78.78125 31.828125 C 79.199219 32.878906 78.902344 33.695312 78.503906 34.714844 C 77.71875 35.667969 76.714844 36.179688 75.59375 36.675781 C 75.421875 36.675781 75.246094 36.675781 75.066406 36.675781 C 75.042969 37.101562 75.042969 37.101562 75.015625 37.535156 C 74.800781 38.523438 74.800781 38.523438 74.15625 39.152344 C 72.949219 39.917969 72.257812 39.867188 70.835938 39.84375 C 70.773438 40 70.707031 40.160156 70.640625 40.320312 C 70.242188 41.015625 69.957031 41.308594 69.25 41.691406 C 68.34375 41.804688 68.34375 41.804688 67.402344 41.691406 C 67.199219 41.523438 66.996094 41.351562 66.789062 41.179688 C 66 40.574219 65.734375 40.558594 64.773438 40.503906 C 63.523438 40.417969 62.804688 40.175781 61.851562 39.316406 C 60.890625 37.972656 60.972656 36.675781 61.058594 35.09375 C 61.292969 35.117188 61.527344 35.136719 61.769531 35.160156 C 62.855469 35.078125 63.203125 34.800781 63.964844 34.039062 C 64.855469 32.996094 64.851562 32.03125 64.863281 30.714844 C 64.738281 29.960938 64.441406 29.609375 63.964844 29.023438 C 63.964844 28.851562 63.964844 28.675781 63.964844 28.496094 C 62.867188 28.820312 62.261719 29.113281 61.320312 29.816406 C 61.320312 28.859375 61.320312 27.902344 61.320312 26.914062 C 61.085938 26.941406 60.851562 26.96875 60.609375 26.996094 C 59.734375 26.914062 59.734375 26.914062 58.976562 26.289062 C 58.414062 25.59375 58.414062 25.59375 58.414062 25.066406 C 58.152344 25.242188 57.890625 25.414062 57.621094 25.59375 C 56.730469 25.710938 56.730469 25.710938 55.769531 25.59375 C 54.996094 24.984375 54.996094 24.984375 54.449219 24.277344 C 54.449219 24.015625 54.449219 23.753906 54.449219 23.484375 C 54.1875 23.613281 54.1875 23.613281 53.921875 23.746094 C 52.003906 23.9375 50.410156 23.957031 48.789062 22.847656 C 47.980469 22.039062 47.609375 21.367188 47.460938 20.226562 C 47.460938 17.695312 47.460938 17.695312 47.972656 16.476562 C 48.816406 15.65625 49.722656 15.074219 50.75 14.511719 C 50.660156 14.113281 50.660156 14.113281 50.566406 13.703125 C 50.46875 12.472656 50.671875 11.886719 51.277344 10.820312 C 52.109375 9.863281 52.769531 9.703125 53.988281 9.597656 C 54.21875 9.589844 54.449219 9.582031 54.683594 9.570312 C 54.867188 9.546875 55.050781 9.523438 55.242188 9.5 C 55.328125 9.324219 55.417969 9.152344 55.507812 8.972656 C 55.679688 8.972656 55.855469 8.972656 56.035156 8.972656 C 56.105469 8.808594 56.175781 8.644531 56.25 8.476562 C 57.089844 6.976562 58.761719 7.167969 60.265625 7.386719 Z M 60.265625 7.386719 "/>
<path style=" stroke:none;fill-rule:nonzero;fill:rgb(98.431373%,59.215689%,3.529412%);fill-opacity:1;" d="M 73.570312 46.019531 C 75.675781 47.675781 76.835938 49.9375 77.164062 52.570312 C 77.1875 53.691406 77.003906 54.203125 76.386719 55.148438 C 75.386719 56.144531 74.550781 56.585938 73.214844 56.996094 C 73.195312 57.335938 73.195312 57.335938 73.175781 57.683594 C 73.078125 59.25 72.953125 60.789062 72.6875 62.339844 C 72.015625 66.472656 72.109375 70.710938 72.109375 74.886719 C 72.109375 75.796875 72.105469 76.707031 72.097656 77.621094 C 72.089844 81.773438 72.359375 85.515625 73.5625 89.515625 C 73.636719 89.78125 73.710938 90.042969 73.789062 90.3125 C 74.25 91.875 74.820312 93.273438 75.617188 94.695312 C 75.859375 95.253906 75.859375 95.253906 75.742188 96.179688 C 75.273438 96.929688 75.089844 97.058594 74.273438 97.367188 C 73.628906 97.449219 72.984375 97.503906 72.339844 97.542969 C 72.152344 97.554688 71.96875 97.566406 71.777344 97.578125 C 71.386719 97.601562 71 97.625 70.609375 97.644531 C 70.011719 97.679688 69.414062 97.71875 68.816406 97.753906 C 65.890625 97.929688 65.890625 97.929688 65.285156 97.628906 C 65.203125 97.800781 65.121094 97.96875 65.039062 98.140625 C 64.757812 98.6875 64.757812 98.6875 64.492188 98.949219 C 63.867188 99.046875 63.867188 99.046875 63.171875 98.949219 C 62.757812 98.339844 62.757812 98.339844 62.378906 97.628906 C 61.765625 97.042969 61.433594 96.851562 60.582031 96.761719 C 60.324219 96.769531 60.066406 96.78125 59.800781 96.789062 C 59.542969 96.796875 59.28125 96.804688 59.011719 96.8125 C 58.816406 96.820312 58.617188 96.828125 58.414062 96.839844 C 58.335938 94.933594 58.546875 93.222656 58.964844 91.367188 C 59.019531 91.105469 59.078125 90.84375 59.136719 90.574219 C 59.316406 89.742188 59.5 88.914062 59.6875 88.082031 C 59.867188 87.257812 60.046875 86.433594 60.226562 85.609375 C 60.34375 85.078125 60.457031 84.542969 60.574219 84.011719 C 60.972656 82.199219 61.347656 80.382812 61.699219 78.5625 C 61.851562 77.839844 61.851562 77.839844 62.113281 77.046875 C 62.261719 74.632812 61.996094 72.28125 61.652344 69.890625 C 61.582031 69.382812 61.582031 69.382812 61.507812 68.863281 C 61.363281 67.808594 61.210938 66.757812 61.058594 65.703125 C 60.984375 65.191406 60.984375 65.191406 60.90625 64.667969 C 60.414062 61.183594 60.414062 61.183594 59.84375 57.710938 C 59.707031 56.808594 59.671875 55.929688 59.652344 55.015625 C 59.636719 54.515625 59.636719 54.515625 59.625 54 C 59.757812 52.832031 60.078125 52.367188 60.792969 51.453125 C 58.886719 51.332031 57.472656 51.628906 55.769531 52.507812 C 55.597656 52.683594 55.421875 52.859375 55.242188 53.035156 C 55.402344 52.066406 55.570312 51.097656 55.769531 50.132812 C 55.421875 49.960938 55.074219 49.785156 54.714844 49.605469 C 54.871094 48.871094 55.070312 48.410156 55.691406 47.964844 C 56.269531 47.640625 56.859375 47.339844 57.457031 47.050781 C 57.660156 46.949219 57.863281 46.84375 58.070312 46.738281 C 58.625 46.460938 59.179688 46.183594 59.734375 45.914062 C 59.914062 45.820312 60.089844 45.730469 60.273438 45.632812 C 63.679688 44 70.304688 44.058594 73.570312 46.019531 Z M 73.570312 46.019531 "/>
<path style=" stroke:none;fill-rule:nonzero;fill:rgb(46.666667%,79.215688%,96.470588%);fill-opacity:1;" d="M 50.484375 98.15625 C 52.492188 98.15625 54.496094 98.15625 56.5625 98.15625 C 56.390625 98.855469 56.214844 99.550781 56.035156 100.269531 C 56.015625 100.882812 56.007812 101.5 56.035156 102.117188 C 56.210938 102.203125 56.382812 102.289062 56.5625 102.378906 C 56.664062 102.878906 56.664062 102.878906 56.710938 103.5 C 56.765625 104.140625 56.820312 104.730469 56.980469 105.351562 C 57.113281 106.210938 57 106.851562 56.828125 107.703125 C 56.769531 108.007812 56.707031 108.3125 56.644531 108.628906 C 56.582031 108.945312 56.515625 109.261719 56.449219 109.585938 C 56.351562 110.070312 56.351562 110.070312 56.253906 110.558594 C 56.09375 111.351562 55.933594 112.144531 55.769531 112.933594 C 55.597656 112.933594 55.421875 112.933594 55.242188 112.933594 C 54.625 116.175781 54.644531 119.359375 54.660156 122.644531 C 54.664062 123.21875 54.664062 123.792969 54.664062 124.371094 C 54.667969 125.871094 54.671875 127.371094 54.675781 128.871094 C 54.683594 130.40625 54.683594 131.941406 54.6875 133.476562 C 54.695312 136.480469 54.703125 139.484375 54.714844 142.488281 C 54.40625 142.484375 54.097656 142.484375 53.78125 142.484375 C 53.375 142.480469 52.964844 142.480469 52.558594 142.480469 C 52.355469 142.480469 52.152344 142.476562 51.945312 142.476562 C 49.5625 142.402344 49.5625 142.402344 47.3125 143.015625 C 47.300781 140.304688 47.292969 137.589844 47.285156 134.878906 C 47.28125 133.621094 47.277344 132.359375 47.273438 131.101562 C 47.222656 120.078125 47.222656 120.078125 47.839844 115.046875 C 47.875 114.777344 47.875 114.777344 47.90625 114.5 C 48.035156 113.496094 48.1875 112.496094 48.355469 111.5 C 48.421875 111.070312 48.421875 111.070312 48.492188 110.632812 C 48.804688 108.691406 49.148438 106.757812 49.5 104.824219 C 49.886719 102.613281 50.175781 100.382812 50.484375 98.15625 Z M 50.484375 98.15625 "/>
<path style=" stroke:none;fill-rule:nonzero;fill:rgb(96.078432%,77.254903%,53.725493%);fill-opacity:1;" d="M 54.449219 23.484375 C 54.519531 23.738281 54.589844 23.996094 54.664062 24.257812 C 54.769531 24.527344 54.871094 24.792969 54.976562 25.066406 C 56.160156 25.460938 57.230469 25.460938 58.414062 25.066406 C 59.207031 26.058594 59.207031 26.058594 59.207031 26.652344 C 59.90625 26.738281 60.601562 26.824219 61.320312 26.914062 C 61.453125 28.21875 61.453125 28.21875 61.585938 29.554688 C 61.734375 29.378906 61.878906 29.203125 62.03125 29.023438 C 62.644531 28.496094 62.644531 28.496094 63.304688 28.332031 C 63.964844 28.496094 63.964844 28.496094 64.574219 29.125 C 65.160156 30.371094 65.304688 31.367188 65.023438 32.71875 C 64.417969 33.855469 63.714844 34.644531 62.644531 35.359375 C 61.800781 35.257812 61.800781 35.257812 61.058594 35.09375 C 61.171875 37.421875 61.171875 37.421875 62.246094 39.382812 C 63.152344 40.015625 63.621094 40.128906 64.707031 40.171875 C 65.664062 40.269531 66.078125 40.371094 66.921875 40.882812 C 67.621094 42.058594 67.394531 43.023438 67.136719 44.328125 C 67.363281 44.339844 67.589844 44.347656 67.824219 44.359375 C 69.527344 44.457031 70.910156 44.574219 72.421875 45.386719 C 71.894531 45.648438 71.894531 45.648438 70.878906 45.40625 C 69.324219 45.039062 67.804688 45.035156 66.210938 45.039062 C 65.925781 45.035156 65.640625 45.03125 65.347656 45.027344 C 63.585938 45.023438 62.152344 45.222656 60.527344 45.914062 C 60.335938 45.992188 60.140625 46.074219 59.941406 46.160156 C 59.355469 46.414062 58.777344 46.679688 58.199219 46.953125 C 58.003906 47.039062 57.808594 47.128906 57.609375 47.21875 C 56.5625 47.707031 55.714844 48.15625 54.976562 49.078125 C 54.976562 49.253906 54.976562 49.425781 54.976562 49.605469 C 55.328125 49.78125 55.675781 49.953125 56.035156 50.132812 C 55.914062 50.9375 55.71875 51.566406 55.390625 52.3125 C 54.015625 55.476562 54.082031 58.878906 54.136719 62.253906 C 54.140625 62.695312 54.144531 63.136719 54.144531 63.574219 C 54.15625 64.636719 54.167969 65.695312 54.183594 66.757812 C 53.835938 66.671875 53.488281 66.582031 53.128906 66.492188 C 52.355469 62.109375 52.601562 57.570312 53.894531 53.328125 C 54.199219 52.316406 54.242188 51.453125 54.183594 50.398438 C 53.363281 50.597656 53.363281 50.597656 52.597656 51.191406 C 52.449219 51.835938 52.433594 52.445312 52.40625 53.109375 C 52.332031 53.867188 52.136719 54.390625 51.824219 55.082031 C 50.445312 58.296875 50.527344 62.25 50.21875 65.703125 C 50.132812 65.703125 50.046875 65.703125 49.957031 65.703125 C 49.914062 63.554688 50.019531 61.46875 50.285156 59.335938 C 50.316406 59.070312 50.34375 58.804688 50.375 58.53125 C 50.570312 56.941406 50.921875 55.59375 51.597656 54.136719 C 51.824219 53.519531 51.820312 53.140625 51.757812 52.492188 C 51.839844 50.773438 52.914062 49.765625 54.136719 48.632812 C 55.492188 47.546875 57.703125 45.914062 59.472656 45.914062 C 59.382812 44.953125 59.296875 43.996094 59.207031 43.011719 C 58.964844 42.984375 58.722656 42.957031 58.472656 42.933594 C 54.128906 42.402344 54.128906 42.402344 52.597656 40.636719 C 52.597656 40.460938 52.597656 40.285156 52.597656 40.109375 C 52.425781 40.109375 52.25 40.109375 52.070312 40.109375 C 51.0625 38.597656 51.199219 37.125 51.277344 35.359375 C 51.019531 35.277344 50.765625 35.195312 50.5 35.109375 C 49.691406 34.832031 49.691406 34.832031 49.425781 34.566406 C 49.378906 33.792969 49.378906 33.792969 49.425781 32.984375 C 49.601562 32.808594 49.777344 32.636719 49.957031 32.457031 C 50.390625 32.457031 50.828125 32.457031 51.277344 32.457031 C 51.191406 29.582031 51.101562 26.707031 51.011719 23.746094 C 53.921875 23.484375 53.921875 23.484375 54.449219 23.484375 Z M 54.449219 23.484375 "/>
<path style=" stroke:none;fill-rule:nonzero;fill:rgb(63.529414%,36.470589%,23.137255%);fill-opacity:1;" d="M 52.46875 142.191406 C 52.753906 142.1875 52.753906 142.1875 53.042969 142.1875 C 54.417969 142.191406 54.417969 142.191406 54.714844 142.488281 C 54.738281 142.957031 54.742188 143.429688 54.738281 143.898438 C 54.738281 144.183594 54.738281 144.46875 54.738281 144.761719 C 54.734375 145.210938 54.734375 145.210938 54.730469 145.671875 C 54.730469 145.972656 54.726562 146.273438 54.726562 146.582031 C 54.722656 147.328125 54.71875 148.074219 54.714844 148.820312 C 55.238281 148.738281 55.238281 148.738281 55.769531 148.554688 C 55.851562 148.34375 55.933594 148.132812 56.019531 147.914062 C 56.113281 147.691406 56.203125 147.46875 56.300781 147.238281 C 56.507812 147.167969 56.714844 147.09375 56.925781 147.023438 C 58.003906 146.535156 58.273438 145.667969 58.679688 144.597656 C 58.890625 143.898438 59.054688 143.203125 59.207031 142.488281 C 63.949219 142.101562 63.949219 142.101562 65.816406 142.222656 C 66.3125 142.71875 66.136719 143.566406 66.152344 144.226562 C 66.160156 144.40625 66.164062 144.582031 66.167969 144.761719 C 66.183594 145.328125 66.199219 145.894531 66.210938 146.460938 C 66.226562 147.023438 66.238281 147.582031 66.253906 148.140625 C 66.269531 148.65625 66.28125 149.167969 66.292969 149.679688 C 66.347656 150.71875 66.480469 151.75 66.609375 152.777344 C 57.535156 152.777344 48.464844 152.777344 39.117188 152.777344 C 39.382812 150.929688 39.382812 150.929688 39.664062 150.453125 C 40.34375 150.039062 41.027344 149.9375 41.800781 149.773438 C 42.476562 149.550781 42.699219 149.132812 43.082031 148.554688 C 43.433594 148.554688 43.78125 148.554688 44.140625 148.554688 C 44.152344 148.355469 44.164062 148.152344 44.175781 147.945312 C 44.40625 147.238281 44.40625 147.238281 45.164062 146.839844 C 45.4375 146.710938 45.710938 146.578125 45.992188 146.445312 C 46.648438 145.652344 46.820312 145.019531 46.917969 144.019531 C 46.960938 143.6875 47.003906 143.355469 47.046875 143.015625 C 48.601562 141.980469 50.648438 142.199219 52.46875 142.191406 Z M 52.46875 142.191406 "/>
<path style=" stroke:none;fill-rule:nonzero;fill:rgb(99.215686%,69.01961%,27.058825%);fill-opacity:1;" d="M 66.871094 53.828125 C 67.917969 54.203125 68.746094 54.714844 69.664062 55.328125 C 71.578125 56.46875 73.058594 56.292969 75.15625 55.792969 C 75.300781 55.753906 75.445312 55.714844 75.59375 55.675781 C 74.921875 56.496094 74.210938 56.6875 73.214844 56.996094 C 73.203125 57.222656 73.191406 57.449219 73.175781 57.683594 C 73.078125 59.25 72.953125 60.789062 72.6875 62.339844 C 72.015625 66.472656 72.109375 70.710938 72.109375 74.886719 C 72.109375 75.796875 72.105469 76.707031 72.097656 77.621094 C 72.089844 81.773438 72.359375 85.515625 73.5625 89.515625 C 73.636719 89.78125 73.710938 90.042969 73.789062 90.3125 C 74.25 91.875 74.820312 93.273438 75.617188 94.695312 C 75.859375 95.253906 75.859375 95.253906 75.742188 96.179688 C 75.273438 96.929688 75.089844 97.058594 74.273438 97.367188 C 73.628906 97.449219 72.984375 97.503906 72.339844 97.542969 C 72.152344 97.554688 71.96875 97.566406 71.777344 97.578125 C 71.386719 97.601562 71 97.625 70.609375 97.644531 C 70.011719 97.679688 69.414062 97.71875 68.816406 97.753906 C 65.890625 97.929688 65.890625 97.929688 65.285156 97.628906 C 65.363281 97.136719 65.4375 96.640625 65.519531 96.144531 C 65.5625 95.871094 65.601562 95.59375 65.648438 95.3125 C 65.816406 94.464844 65.816406 94.464844 66.070312 93.714844 C 66.332031 92.914062 66.5 92.152344 66.636719 91.324219 C 66.6875 91.027344 66.738281 90.730469 66.792969 90.421875 C 66.875 89.949219 66.875 89.949219 66.953125 89.46875 C 67.375 87.050781 67.832031 84.652344 68.375 82.261719 C 69.527344 77.101562 69.460938 72.6875 68.632812 67.484375 C 68.253906 65.089844 67.925781 62.695312 67.617188 60.292969 C 67.570312 59.953125 67.527344 59.609375 67.480469 59.257812 C 67.25 57.453125 67.039062 55.644531 66.871094 53.828125 Z M 66.871094 53.828125 "/>
<path style=" stroke:none;fill-rule:nonzero;fill:rgb(65.098041%,38.82353%,25.098041%);fill-opacity:1;" d="M 52.46875 142.191406 C 52.753906 142.1875 52.753906 142.1875 53.042969 142.1875 C 54.417969 142.191406 54.417969 142.191406 54.714844 142.488281 C 54.738281 142.957031 54.742188 143.429688 54.738281 143.898438 C 54.738281 144.183594 54.738281 144.46875 54.738281 144.761719 C 54.734375 145.210938 54.734375 145.210938 54.730469 145.671875 C 54.730469 145.972656 54.726562 146.273438 54.726562 146.582031 C 54.722656 147.328125 54.71875 148.074219 54.714844 148.820312 C 55.0625 148.90625 55.410156 148.996094 55.769531 149.085938 C 55.335938 149.085938 54.898438 149.085938 54.449219 149.085938 C 54.449219 147.429688 54.449219 145.773438 54.449219 144.070312 C 53.273438 144.203125 53.273438 144.203125 52.070312 144.335938 C 51.984375 144.683594 51.894531 145.03125 51.804688 145.390625 C 52.589844 145.390625 53.375 145.390625 54.183594 145.390625 C 54.183594 146.085938 54.183594 146.78125 54.183594 147.5 C 53.972656 147.484375 53.757812 147.46875 53.539062 147.453125 C 51.773438 147.363281 51.773438 147.363281 50.171875 147.996094 C 49.683594 148.835938 49.605469 149.25 49.53125 150.191406 C 49.507812 150.429688 49.488281 150.664062 49.46875 150.910156 C 49.453125 151.089844 49.441406 151.273438 49.425781 151.457031 C 49.636719 151.453125 49.851562 151.449219 50.066406 151.445312 C 52.054688 151.410156 54.042969 151.375 56.03125 151.34375 C 57.050781 151.324219 58.074219 151.308594 59.097656 151.289062 C 60.082031 151.269531 61.066406 151.253906 62.050781 151.238281 C 62.429688 151.230469 62.804688 151.222656 63.183594 151.214844 C 63.707031 151.207031 64.234375 151.199219 64.761719 151.1875 C 65.0625 151.183594 65.359375 151.179688 65.667969 151.171875 C 66.34375 151.195312 66.34375 151.195312 66.609375 151.457031 C 66.609375 151.894531 66.609375 152.328125 66.609375 152.777344 C 57.535156 152.777344 48.464844 152.777344 39.117188 152.777344 C 39.382812 150.929688 39.382812 150.929688 39.664062 150.453125 C 40.34375 150.039062 41.027344 149.9375 41.800781 149.773438 C 42.476562 149.550781 42.699219 149.132812 43.082031 148.554688 C 43.433594 148.554688 43.78125 148.554688 44.140625 148.554688 C 44.152344 148.355469 44.164062 148.152344 44.175781 147.945312 C 44.40625 147.238281 44.40625 147.238281 45.164062 146.839844 C 45.4375 146.710938 45.710938 146.578125 45.992188 146.445312 C 46.648438 145.652344 46.820312 145.019531 46.917969 144.019531 C 46.960938 143.6875 47.003906 143.355469 47.046875 143.015625 C 48.601562 141.980469 50.648438 142.199219 52.46875 142.191406 Z M 52.46875 142.191406 "/>
<path style=" stroke:none;fill-rule:nonzero;fill:rgb(98.823529%,59.215689%,3.529412%);fill-opacity:1;" d="M 51.011719 79.953125 C 53.542969 79.953125 56.070312 79.953125 58.679688 79.953125 C 58.703125 81.128906 58.722656 82.308594 58.738281 83.484375 C 58.742188 83.886719 58.75 84.289062 58.757812 84.6875 C 58.769531 85.265625 58.777344 85.84375 58.78125 86.417969 C 58.789062 86.765625 58.792969 87.113281 58.796875 87.46875 C 58.660156 88.539062 58.378906 88.960938 57.621094 89.714844 C 56.765625 90.140625 55.835938 90.050781 54.894531 90.0625 C 54.695312 90.066406 54.492188 90.074219 54.285156 90.082031 C 53.234375 90.09375 52.722656 90.058594 51.8125 89.476562 C 50.898438 88.527344 50.976562 87.75 50.988281 86.496094 C 50.988281 86.308594 50.988281 86.121094 50.988281 85.929688 C 50.988281 85.332031 50.992188 84.738281 50.996094 84.140625 C 50.996094 83.734375 51 83.332031 51 82.925781 C 51.003906 81.933594 51.007812 80.941406 51.011719 79.953125 Z M 51.011719 79.953125 "/>
<path style=" stroke:none;fill-rule:nonzero;fill:rgb(96.862745%,77.64706%,54.11765%);fill-opacity:1;" d="M 61.320312 96.574219 C 62.054688 97 62.660156 97.480469 63.171875 98.15625 C 63.171875 98.417969 63.171875 98.679688 63.171875 98.949219 C 63.433594 99.035156 63.695312 99.125 63.964844 99.214844 C 63.789062 99.214844 63.617188 99.214844 63.4375 99.214844 C 63.410156 99.480469 63.410156 99.480469 63.386719 99.753906 C 63.339844 100.269531 63.292969 100.78125 63.246094 101.296875 C 63.199219 101.824219 63.152344 102.351562 63.113281 102.878906 C 63.09375 103.109375 63.074219 103.34375 63.054688 103.582031 C 63.03125 103.902344 63.03125 103.902344 63.007812 104.226562 C 62.90625 104.753906 62.90625 104.753906 62.378906 105.28125 C 61.683594 105.183594 61.683594 105.183594 61.058594 105.019531 C 60.96875 105.28125 60.882812 105.539062 60.792969 105.808594 C 60.542969 105.800781 60.292969 105.789062 60.03125 105.777344 C 59.179688 105.71875 59.179688 105.71875 58.679688 106.335938 C 58.679688 106.164062 58.679688 105.988281 58.679688 105.808594 C 57.980469 105.425781 57.648438 105.28125 56.828125 105.28125 C 56.511719 104.648438 56.539062 104.238281 56.546875 103.535156 C 56.550781 103.320312 56.550781 103.101562 56.554688 102.878906 C 56.558594 102.714844 56.5625 102.550781 56.5625 102.378906 C 56.300781 102.292969 56.039062 102.207031 55.769531 102.117188 C 55.710938 100.628906 55.894531 99.492188 56.5625 98.15625 C 56.300781 98.070312 56.039062 97.984375 55.769531 97.894531 C 56.015625 97.816406 56.015625 97.816406 56.261719 97.738281 C 56.476562 97.671875 56.691406 97.601562 56.910156 97.53125 C 57.121094 97.464844 57.332031 97.398438 57.550781 97.328125 C 60.152344 96.347656 60.152344 96.347656 61.320312 96.574219 Z M 61.320312 96.574219 "/>
<path style=" stroke:none;fill-rule:nonzero;fill:rgb(83.529413%,76.078433%,59.215689%);fill-opacity:1;" d="M 42.027344 149.875 C 42.027344 150.050781 42.027344 150.222656 42.027344 150.402344 C 41.585938 150.507812 41.585938 150.507812 41.132812 150.617188 C 40.117188 150.839844 40.117188 150.839844 39.648438 151.722656 C 39.972656 151.71875 40.300781 151.714844 40.636719 151.710938 C 43.703125 151.679688 46.773438 151.652344 49.84375 151.621094 C 51.417969 151.605469 52.996094 151.585938 54.574219 151.570312 C 56.097656 151.554688 57.617188 151.539062 59.140625 151.523438 C 59.722656 151.519531 60.304688 151.511719 60.886719 151.507812 C 61.699219 151.5 62.511719 151.492188 63.324219 151.484375 C 63.566406 151.480469 63.804688 151.476562 64.054688 151.476562 C 64.277344 151.472656 64.5 151.472656 64.726562 151.46875 C 64.917969 151.46875 65.109375 151.464844 65.308594 151.464844 C 65.742188 151.460938 66.175781 151.457031 66.609375 151.457031 C 66.609375 151.894531 66.609375 152.328125 66.609375 152.777344 C 57.535156 152.777344 48.464844 152.777344 39.117188 152.777344 C 39.382812 150.929688 39.382812 150.929688 39.714844 150.4375 C 40.441406 149.96875 41.171875 149.875 42.027344 149.875 Z M 42.027344 149.875 "/>
<path style=" stroke:none;fill-rule:nonzero;fill:rgb(50.980395%,29.019609%,17.647059%);fill-opacity:1;" d="M 52.070312 144.070312 C 52.855469 144.070312 53.640625 144.070312 54.449219 144.070312 C 54.449219 145.726562 54.449219 147.378906 54.449219 149.085938 C 54.972656 148.996094 55.496094 148.910156 56.035156 148.820312 C 56.449219 149.296875 56.449219 149.296875 56.828125 149.875 C 56.742188 150.136719 56.652344 150.398438 56.5625 150.667969 C 55.011719 150.4375 55.011719 150.4375 54.714844 150.140625 C 53.574219 150.039062 52.609375 150.277344 51.542969 150.667969 C 51.453125 150.929688 51.367188 151.191406 51.277344 151.457031 C 50.667969 151.457031 50.054688 151.457031 49.425781 151.457031 C 49.195312 149.304688 49.195312 149.304688 49.679688 148.292969 C 50.3125 147.535156 50.777344 147.265625 51.765625 147.140625 C 52.492188 147.136719 53.199219 147.167969 53.921875 147.238281 C 53.921875 146.714844 53.921875 146.191406 53.921875 145.652344 C 53.222656 145.652344 52.523438 145.652344 51.804688 145.652344 C 51.640625 145.160156 51.640625 145.160156 51.542969 144.597656 C 51.714844 144.425781 51.890625 144.25 52.070312 144.070312 Z M 52.070312 144.070312 "/>
<path style=" stroke:none;fill-rule:nonzero;fill:rgb(50.196081%,27.843139%,16.862746%);fill-opacity:1;" d="M 65.816406 147.238281 C 65.816406 148.628906 65.816406 150.023438 65.816406 151.457031 C 64.246094 151.457031 62.675781 151.457031 61.058594 151.457031 C 60.695312 150.378906 60.5 149.414062 61.027344 148.347656 C 62.28125 146.765625 63.953125 147.125 65.816406 147.238281 Z M 65.816406 147.238281 "/>
<path style=" stroke:none;fill-rule:nonzero;fill:rgb(99.607843%,95.686275%,89.803922%);fill-opacity:1;" d="M 54.976562 49.871094 C 55.328125 49.957031 55.675781 50.042969 56.035156 50.132812 C 55.914062 50.9375 55.71875 51.566406 55.390625 52.3125 C 54.015625 55.476562 54.082031 58.878906 54.136719 62.253906 C 54.140625 62.695312 54.144531 63.136719 54.144531 63.574219 C 54.15625 64.636719 54.167969 65.695312 54.183594 66.757812 C 53.835938 66.671875 53.488281 66.582031 53.128906 66.492188 C 52.105469 60.695312 53.117188 55.34375 54.976562 49.871094 Z M 54.976562 49.871094 "/>
<path style=" stroke:none;fill-rule:nonzero;fill:rgb(86.666667%,80.784315%,64.705884%);fill-opacity:1;" d="M 66.078125 151.195312 C 66.339844 151.324219 66.339844 151.324219 66.609375 151.457031 C 66.609375 151.894531 66.609375 152.328125 66.609375 152.777344 C 62.683594 152.777344 58.757812 152.777344 54.714844 152.777344 C 54.714844 152.691406 54.714844 152.605469 54.714844 152.515625 C 49.828125 152.425781 44.945312 152.339844 39.910156 152.25 C 39.910156 152.164062 39.910156 152.078125 39.910156 151.988281 C 41.207031 151.945312 42.5 151.90625 43.792969 151.871094 C 44 151.863281 44.207031 151.859375 44.417969 151.851562 C 47.585938 151.765625 50.753906 151.703125 53.921875 151.65625 C 54.289062 151.648438 54.65625 151.644531 55.027344 151.640625 C 56.6875 151.613281 58.347656 151.589844 60.011719 151.570312 C 60.875 151.558594 61.742188 151.546875 62.605469 151.53125 C 62.925781 151.53125 63.246094 151.527344 63.578125 151.523438 C 63.867188 151.519531 64.160156 151.511719 64.460938 151.507812 C 64.84375 151.503906 64.84375 151.503906 65.238281 151.5 C 65.808594 151.523438 65.808594 151.523438 66.078125 151.195312 Z M 66.078125 151.195312 "/>
<path style=" stroke:none;fill-rule:nonzero;fill:rgb(61.960787%,40.000001%,28.627452%);fill-opacity:1;" d="M 52.46875 142.191406 C 52.753906 142.1875 52.753906 142.1875 53.042969 142.1875 C 54.417969 142.191406 54.417969 142.191406 54.714844 142.488281 C 54.738281 142.957031 54.742188 143.429688 54.738281 143.898438 C 54.738281 144.183594 54.738281 144.46875 54.738281 144.761719 C 54.734375 145.210938 54.734375 145.210938 54.730469 145.671875 C 54.730469 145.972656 54.726562 146.273438 54.726562 146.582031 C 54.722656 147.328125 54.71875 148.074219 54.714844 148.820312 C 55.0625 148.90625 55.410156 148.996094 55.769531 149.085938 C 55.335938 149.085938 54.898438 149.085938 54.449219 149.085938 C 54.363281 146.996094 54.273438 144.90625 54.183594 142.75 C 54.011719 142.839844 53.835938 142.925781 53.65625 143.015625 C 53.214844 143.054688 52.773438 143.082031 52.332031 143.097656 C 52.070312 143.109375 51.8125 143.121094 51.542969 143.132812 C 51.269531 143.140625 50.996094 143.152344 50.714844 143.164062 C 50.304688 143.179688 50.304688 143.179688 49.882812 143.199219 C 49.203125 143.226562 48.523438 143.253906 47.839844 143.277344 C 47.839844 143.800781 47.839844 144.324219 47.839844 144.863281 C 47.753906 144.863281 47.667969 144.863281 47.578125 144.863281 C 47.511719 145.097656 47.445312 145.332031 47.378906 145.570312 C 47.039062 146.472656 46.625 147.046875 45.992188 147.765625 C 45.554688 147.675781 45.117188 147.589844 44.667969 147.5 C 44.652344 147.707031 44.636719 147.914062 44.621094 148.128906 C 44.550781 148.355469 44.476562 148.585938 44.40625 148.820312 C 43.746094 149.132812 43.746094 149.132812 43.082031 149.347656 C 42.996094 149.523438 42.910156 149.695312 42.820312 149.875 C 42.644531 149.789062 42.46875 149.703125 42.289062 149.613281 C 42.621094 149.085938 42.621094 149.085938 43.082031 148.554688 C 43.433594 148.554688 43.78125 148.554688 44.140625 148.554688 C 44.152344 148.355469 44.164062 148.152344 44.175781 147.945312 C 44.40625 147.238281 44.40625 147.238281 45.164062 146.839844 C 45.4375 146.710938 45.710938 146.578125 45.992188 146.445312 C 46.648438 145.652344 46.820312 145.019531 46.917969 144.019531 C 46.960938 143.6875 47.003906 143.355469 47.046875 143.015625 C 48.601562 141.980469 50.648438 142.199219 52.46875 142.191406 Z M 52.46875 142.191406 "/>
<path style=" stroke:none;fill-rule:nonzero;fill:rgb(99.215686%,65.490198%,18.82353%);fill-opacity:1;" d="M 50.75 60.425781 C 50.835938 60.425781 50.921875 60.425781 51.011719 60.425781 C 51.003906 60.578125 50.996094 60.734375 50.988281 60.894531 C 50.691406 67.03125 50.707031 73.171875 50.714844 79.3125 C 50.714844 80.800781 50.714844 82.289062 50.714844 83.777344 C 50.710938 84.9375 50.710938 86.097656 50.714844 87.261719 C 50.714844 87.808594 50.714844 88.355469 50.710938 88.90625 C 50.710938 91.914062 50.757812 94.894531 51.011719 97.894531 C 50.839844 97.894531 50.664062 97.894531 50.484375 97.894531 C 49.976562 96.1875 49.878906 94.640625 49.882812 92.867188 C 49.882812 92.582031 49.878906 92.296875 49.878906 92 C 49.875 91.0625 49.875 90.121094 49.875 89.183594 C 49.875 88.523438 49.875 87.863281 49.871094 87.207031 C 49.871094 85.824219 49.871094 84.445312 49.871094 83.0625 C 49.875 81.304688 49.871094 79.550781 49.863281 77.792969 C 49.859375 76.429688 49.859375 75.070312 49.859375 73.707031 C 49.859375 73.058594 49.859375 72.414062 49.855469 71.765625 C 49.84375 67.910156 50.039062 64.222656 50.75 60.425781 Z M 50.75 60.425781 "/>
<path style=" stroke:none;fill-rule:nonzero;fill:rgb(99.607843%,89.803922%,75.686276%);fill-opacity:1;" d="M 52.863281 57.523438 C 52.949219 57.523438 53.039062 57.523438 53.128906 57.523438 C 53.214844 58.566406 53.300781 59.613281 53.390625 60.6875 C 53.480469 59.730469 53.566406 58.773438 53.65625 57.785156 C 53.742188 57.785156 53.832031 57.785156 53.921875 57.785156 C 54.007812 60.746094 54.09375 63.707031 54.183594 66.757812 C 53.835938 66.671875 53.488281 66.582031 53.128906 66.492188 C 52.78125 64.660156 52.835938 62.832031 52.847656 60.96875 C 52.847656 60.636719 52.847656 60.304688 52.851562 59.964844 C 52.855469 59.152344 52.859375 58.335938 52.863281 57.523438 Z M 52.863281 57.523438 "/>
<path style=" stroke:none;fill-rule:nonzero;fill:rgb(98.431373%,86.274511%,71.764708%);fill-opacity:1;" d="M 51.277344 24.011719 C 51.363281 24.011719 51.453125 24.011719 51.542969 24.011719 C 51.542969 26.886719 51.542969 29.757812 51.542969 32.71875 C 51.019531 32.894531 50.496094 33.066406 49.957031 33.246094 C 50.042969 33.683594 50.128906 34.117188 50.21875 34.566406 C 50.742188 34.652344 51.265625 34.742188 51.804688 34.832031 C 51.820312 35.101562 51.839844 35.371094 51.855469 35.648438 C 51.878906 36.007812 51.898438 36.367188 51.921875 36.726562 C 51.933594 36.90625 51.941406 37.082031 51.953125 37.265625 C 52.015625 38.234375 52.117188 39.164062 52.335938 40.109375 C 51.445312 38.949219 51.246094 38.382812 51.261719 36.90625 C 51.261719 36.617188 51.265625 36.328125 51.269531 36.03125 C 51.269531 35.808594 51.273438 35.585938 51.277344 35.359375 C 51.019531 35.277344 50.765625 35.195312 50.5 35.109375 C 49.691406 34.832031 49.691406 34.832031 49.425781 34.566406 C 49.378906 33.792969 49.378906 33.792969 49.425781 32.984375 C 49.601562 32.808594 49.777344 32.636719 49.957031 32.457031 C 50.390625 32.457031 50.828125 32.457031 51.277344 32.457031 C 51.277344 29.667969 51.277344 26.882812 51.277344 24.011719 Z M 51.277344 24.011719 "/>
<path style=" stroke:none;fill-rule:nonzero;fill:rgb(98.823529%,58.039218%,3.921569%);fill-opacity:1;" d="M 54.449219 50.132812 C 54.492188 51.433594 54.515625 52.378906 53.921875 53.566406 C 53.484375 53.566406 53.046875 53.566406 52.597656 53.566406 C 52.1875 52.742188 52.238281 52.09375 52.335938 51.191406 C 52.960938 50.695312 52.960938 50.695312 53.65625 50.398438 C 54.183594 50.132812 54.183594 50.132812 54.449219 50.132812 Z M 54.449219 50.132812 "/>
<path style=" stroke:none;fill-rule:nonzero;fill:rgb(98.431373%,69.01961%,31.764707%);fill-opacity:1;" d="M 59.472656 46.441406 C 59.167969 46.574219 58.867188 46.707031 58.554688 46.847656 C 58.160156 47.03125 57.765625 47.214844 57.375 47.398438 C 57.175781 47.484375 56.972656 47.570312 56.769531 47.660156 C 56.214844 47.925781 55.726562 48.175781 55.242188 48.550781 C 54.949219 49.339844 54.949219 49.339844 54.976562 50.132812 C 54.890625 50.664062 54.800781 51.191406 54.714844 51.71875 C 54.625 51.71875 54.539062 51.71875 54.449219 51.71875 C 54.363281 51.28125 54.273438 50.847656 54.183594 50.398438 C 53.75 50.484375 53.3125 50.574219 52.863281 50.664062 C 53 49.597656 53.476562 49.214844 54.300781 48.566406 C 57.742188 45.933594 57.742188 45.933594 59.472656 46.441406 Z M 59.472656 46.441406 "/>
<path style=" stroke:none;fill-rule:nonzero;fill:rgb(72.549021%,54.11765%,45.09804%);fill-opacity:1;" d="M 47.046875 143.015625 C 47.222656 143.015625 47.398438 143.015625 47.578125 143.015625 C 47.46875 146.359375 47.46875 146.359375 46.253906 147.765625 C 45.730469 147.675781 45.207031 147.589844 44.667969 147.5 C 44.652344 147.707031 44.636719 147.914062 44.621094 148.128906 C 44.550781 148.355469 44.476562 148.585938 44.40625 148.820312 C 43.746094 149.132812 43.746094 149.132812 43.082031 149.347656 C 42.996094 149.523438 42.910156 149.695312 42.820312 149.875 C 42.644531 149.789062 42.46875 149.703125 42.289062 149.613281 C 42.621094 149.085938 42.621094 149.085938 43.082031 148.554688 C 43.433594 148.554688 43.78125 148.554688 44.140625 148.554688 C 44.152344 148.355469 44.164062 148.152344 44.175781 147.945312 C 44.40625 147.238281 44.40625 147.238281 45.164062 146.839844 C 45.4375 146.710938 45.710938 146.578125 45.992188 146.445312 C 46.875 145.382812 46.933594 144.347656 47.046875 143.015625 Z M 47.046875 143.015625 "/>
<path style=" stroke:none;fill-rule:nonzero;fill:rgb(49.803922%,27.843139%,17.254902%);fill-opacity:1;" d="M 63.4375 144.070312 C 64.222656 144.070312 65.007812 144.070312 65.816406 144.070312 C 65.816406 144.507812 65.816406 144.941406 65.816406 145.390625 C 64.941406 145.390625 64.070312 145.390625 63.171875 145.390625 C 63.257812 144.953125 63.347656 144.519531 63.4375 144.070312 Z M 63.4375 144.070312 "/>
<path style=" stroke:none;fill-rule:nonzero;fill:rgb(45.09804%,44.705883%,44.705883%);fill-opacity:1;" d="M 78.238281 31.398438 C 78.414062 31.488281 78.585938 31.574219 78.765625 31.664062 C 79.078125 32.78125 79.082031 33.378906 78.667969 34.46875 C 77.796875 35.820312 76.28125 36.449219 74.800781 36.941406 C 75.066406 36.148438 75.066406 36.148438 75.515625 35.886719 C 75.699219 35.8125 75.882812 35.734375 76.074219 35.65625 C 77.078125 35.171875 77.695312 34.789062 78.238281 33.773438 C 78.320312 32.976562 78.300781 32.199219 78.238281 31.398438 Z M 78.238281 31.398438 "/>
<path style=" stroke:none;fill-rule:nonzero;fill:rgb(43.529412%,43.529412%,43.529412%);fill-opacity:1;" d="M 58.859375 7.355469 C 59.253906 7.363281 59.253906 7.363281 59.65625 7.371094 C 59.855469 7.375 60.058594 7.382812 60.265625 7.386719 C 60.351562 7.5625 60.4375 7.738281 60.527344 7.914062 C 59.089844 7.785156 59.089844 7.785156 57.621094 7.652344 C 57.445312 8 57.273438 8.347656 57.09375 8.707031 C 56.5625 9.300781 56.5625 9.300781 56.035156 9.761719 C 55.859375 9.761719 55.6875 9.761719 55.507812 9.761719 C 55.507812 9.9375 55.507812 10.109375 55.507812 10.289062 C 55.332031 10.289062 55.15625 10.289062 54.976562 10.289062 C 55.152344 9.855469 55.328125 9.421875 55.507812 8.972656 C 55.679688 8.972656 55.855469 8.972656 56.035156 8.972656 C 56.105469 8.808594 56.175781 8.644531 56.25 8.476562 C 56.894531 7.328125 57.65625 7.328125 58.859375 7.355469 Z M 58.859375 7.355469 "/>
<path style=" stroke:none;fill-rule:nonzero;fill:rgb(49.803922%,27.843139%,16.862746%);fill-opacity:1;" d="M 43.695312 149.019531 C 44.523438 149.09375 44.851562 149.332031 45.460938 149.875 C 45.375 150.136719 45.289062 150.398438 45.199219 150.667969 C 44.304688 150.601562 44.304688 150.601562 43.347656 150.402344 C 42.96875 149.859375 42.96875 149.859375 42.820312 149.347656 C 43.082031 149.085938 43.082031 149.085938 43.695312 149.019531 Z M 43.695312 149.019531 "/>
<path style=" stroke:none;fill-rule:nonzero;fill:rgb(49.411765%,27.058825%,16.078432%);fill-opacity:1;" d="M 56.035156 147.5 C 57.523438 147.433594 57.523438 147.433594 58.414062 148.027344 C 58.328125 148.375 58.238281 148.726562 58.148438 149.085938 C 57.414062 148.984375 56.9375 148.90625 56.347656 148.441406 C 56.035156 148.027344 56.035156 148.027344 56.035156 147.5 Z M 56.035156 147.5 "/>
<path style=" stroke:none;fill-rule:nonzero;fill:rgb(49.411765%,27.450982%,16.470589%);fill-opacity:1;" d="M 44.667969 147.5 C 45.5625 147.566406 45.5625 147.566406 46.519531 147.765625 C 46.898438 148.308594 46.898438 148.308594 47.046875 148.820312 C 46.785156 149.085938 46.785156 149.085938 46.15625 149.148438 C 45.460938 149.085938 45.460938 149.085938 44.984375 148.738281 C 44.667969 148.292969 44.667969 148.292969 44.667969 147.5 Z M 44.667969 147.5 "/>
<path style=" stroke:none;fill-rule:nonzero;fill:rgb(99.607843%,99.215686%,98.431373%);fill-opacity:1;" d="M 53.65625 56.46875 C 53.742188 56.46875 53.832031 56.46875 53.921875 56.46875 C 53.667969 60.925781 53.667969 60.925781 53.390625 62.800781 C 53.304688 62.800781 53.21875 62.800781 53.128906 62.800781 C 53.113281 61.941406 53.101562 61.085938 53.09375 60.226562 C 53.089844 59.984375 53.085938 59.742188 53.082031 59.492188 C 53.078125 59.257812 53.078125 59.023438 53.074219 58.78125 C 53.074219 58.566406 53.070312 58.347656 53.066406 58.125 C 53.132812 57.464844 53.324219 57.039062 53.65625 56.46875 Z M 53.65625 56.46875 "/>
<path style=" stroke:none;fill-rule:nonzero;fill:rgb(92.156863%,89.411765%,85.882354%);fill-opacity:1;" d="M 54.976562 49.871094 C 55.523438 49.984375 55.523438 49.984375 56.035156 50.132812 C 55.859375 51.140625 55.578125 52.074219 55.242188 53.035156 C 54.828125 52.773438 54.828125 52.773438 54.449219 52.246094 C 54.445312 51.503906 54.570312 50.867188 54.714844 50.132812 C 54.800781 50.046875 54.886719 49.960938 54.976562 49.871094 Z M 54.976562 49.871094 "/>
<path style=" stroke:none;fill-rule:nonzero;fill:rgb(99.215686%,96.470588%,92.54902%);fill-opacity:1;" d="M 52.335938 36.414062 C 53.382812 36.414062 54.429688 36.414062 55.507812 36.414062 C 55.242188 37.203125 55.242188 37.203125 54.714844 37.46875 C 53.9375 37.550781 53.9375 37.550781 53.128906 37.46875 C 52.867188 37.121094 52.605469 36.773438 52.335938 36.414062 Z M 52.335938 36.414062 "/>
<path style=" stroke:none;fill-rule:nonzero;fill:rgb(61.960787%,41.176471%,30.588236%);fill-opacity:1;" d="M 65.816406 142.222656 C 65.242188 142.730469 64.898438 143 64.128906 143.082031 C 63.902344 143.066406 63.675781 143.050781 63.441406 143.035156 C 63.191406 143.019531 62.945312 143.003906 62.691406 142.992188 C 62.4375 142.972656 62.179688 142.953125 61.917969 142.933594 C 61.65625 142.917969 61.394531 142.898438 61.128906 142.882812 C 60.488281 142.84375 59.847656 142.800781 59.207031 142.75 C 59.207031 142.664062 59.207031 142.578125 59.207031 142.488281 C 61.414062 142.308594 63.601562 142.183594 65.816406 142.222656 Z M 65.816406 142.222656 "/>
<path style=" stroke:none;fill-rule:nonzero;fill:rgb(24.313726%,24.313726%,25.882354%);fill-opacity:1;" d="M 52.863281 30.082031 C 53.300781 30.082031 53.734375 30.082031 54.183594 30.082031 C 54.351562 30.707031 54.351562 30.707031 54.449219 31.398438 C 54.273438 31.574219 54.101562 31.75 53.921875 31.925781 C 53.359375 31.828125 53.359375 31.828125 52.863281 31.664062 C 52.863281 31.140625 52.863281 30.617188 52.863281 30.082031 Z M 52.863281 30.082031 "/>
<path style=" stroke:none;fill-rule:nonzero;fill:rgb(85.490197%,63.921571%,41.176471%);fill-opacity:1;" d="M 55.242188 27.179688 C 56.019531 27.707031 56.019531 27.707031 56.5625 28.234375 C 56.476562 28.40625 56.390625 28.582031 56.300781 28.761719 C 56.164062 28.628906 56.027344 28.5 55.886719 28.367188 C 55.003906 27.824219 54.410156 27.859375 53.390625 27.96875 C 52.757812 28.328125 52.757812 28.328125 52.335938 28.761719 C 52.417969 28.265625 52.417969 28.265625 52.597656 27.707031 C 53.585938 27.046875 54.070312 27.058594 55.242188 27.179688 Z M 55.242188 27.179688 "/>
<path style=" stroke:none;fill-rule:nonzero;fill:rgb(41.568628%,41.176471%,41.176471%);fill-opacity:1;" d="M 75.066406 12.664062 C 75.121094 12.835938 75.175781 13.003906 75.230469 13.175781 C 75.351562 13.355469 75.472656 13.535156 75.59375 13.722656 C 76.121094 13.824219 76.648438 13.910156 77.179688 13.984375 C 77.808594 14.398438 77.808594 14.398438 78.238281 14.777344 C 78.152344 14.949219 78.0625 15.125 77.972656 15.304688 C 77.800781 15.128906 77.625 14.957031 77.445312 14.777344 C 76.742188 14.628906 76.046875 14.582031 75.332031 14.511719 C 75.242188 13.902344 75.15625 13.292969 75.066406 12.664062 Z M 75.066406 12.664062 "/>
<path style=" stroke:none;fill-rule:nonzero;fill:rgb(63.921571%,33.333334%,17.647059%);fill-opacity:1;" d="M 59.925781 142.726562 C 60.363281 142.730469 60.363281 142.730469 60.808594 142.734375 C 61.246094 142.738281 61.246094 142.738281 61.695312 142.742188 C 61.921875 142.746094 62.144531 142.75 62.378906 142.75 C 62.378906 142.839844 62.378906 142.925781 62.378906 143.015625 C 61.417969 143.015625 60.460938 143.015625 59.472656 143.015625 C 59.488281 143.304688 59.503906 143.59375 59.519531 143.890625 C 59.472656 144.863281 59.472656 144.863281 59.070312 145.320312 C 58.941406 145.429688 58.8125 145.539062 58.679688 145.652344 C 58.714844 145.21875 58.753906 144.785156 58.792969 144.351562 C 58.816406 144.109375 58.835938 143.867188 58.859375 143.617188 C 58.980469 142.742188 59.027344 142.757812 59.925781 142.726562 Z M 59.925781 142.726562 "/>
<path style=" stroke:none;fill-rule:nonzero;fill:rgb(99.607843%,91.764706%,80.784315%);fill-opacity:1;" d="M 54.183594 54.882812 C 54.492188 55.800781 54.371094 56.324219 54.183594 57.257812 C 54.011719 57.085938 53.835938 56.910156 53.65625 56.730469 C 53.480469 56.992188 53.308594 57.253906 53.128906 57.523438 C 53.214844 56.738281 53.300781 55.957031 53.390625 55.148438 C 53.566406 55.234375 53.742188 55.320312 53.921875 55.410156 C 54.007812 55.238281 54.09375 55.0625 54.183594 54.882812 Z M 54.183594 54.882812 "/>
<path style=" stroke:none;fill-rule:nonzero;fill:rgb(38.431373%,38.039216%,37.64706%);fill-opacity:1;" d="M 66.609375 40.898438 C 67.742188 40.898438 68.875 40.898438 70.042969 40.898438 C 69.25 41.691406 69.25 41.691406 68.324219 41.789062 C 67.402344 41.691406 67.402344 41.691406 66.609375 40.898438 Z M 66.609375 40.898438 "/>
<path style=" stroke:none;fill-rule:nonzero;fill:rgb(99.607843%,92.54902%,82.352942%);fill-opacity:1;" d="M 53.65625 64.910156 C 54.183594 65.4375 54.183594 65.4375 54.21875 66.132812 C 54.207031 66.339844 54.195312 66.542969 54.183594 66.757812 C 53.835938 66.671875 53.488281 66.582031 53.128906 66.492188 C 53.128906 66.058594 53.128906 65.625 53.128906 65.175781 C 53.300781 65.085938 53.476562 65 53.65625 64.910156 Z M 53.65625 64.910156 "/>
<path style=" stroke:none;fill-rule:nonzero;fill:rgb(98.823529%,65.098041%,22.745098%);fill-opacity:1;" d="M 70.574219 45.386719 C 70.953125 45.40625 71.332031 45.4375 71.710938 45.46875 C 71.925781 45.484375 72.136719 45.496094 72.355469 45.515625 C 73.046875 45.671875 73.296875 45.902344 73.746094 46.441406 C 73.316406 46.367188 72.886719 46.289062 72.457031 46.210938 C 72.097656 46.144531 72.097656 46.144531 71.730469 46.078125 C 71.101562 45.914062 71.101562 45.914062 70.574219 45.386719 Z M 70.574219 45.386719 "/>
<path style=" stroke:none;fill-rule:nonzero;fill:rgb(65.490198%,39.215687%,25.490198%);fill-opacity:1;" d="M 42.027344 149.875 C 43.105469 150.019531 43.324219 150.117188 44.140625 150.929688 C 43.355469 150.929688 42.570312 150.929688 41.761719 150.929688 C 42.023438 150.757812 42.285156 150.582031 42.554688 150.402344 C 42.378906 150.230469 42.207031 150.054688 42.027344 149.875 Z M 42.027344 149.875 "/>
<path style=" stroke:none;fill-rule:nonzero;fill:rgb(98.039216%,81.568629%,55.686277%);fill-opacity:1;" d="M 53.128906 29.289062 C 53.390625 29.375 53.652344 29.464844 53.921875 29.554688 C 53.757812 29.707031 53.59375 29.859375 53.425781 30.015625 C 52.914062 30.554688 52.625 30.988281 52.335938 31.664062 C 52.136719 31.070312 52.136719 31.070312 52.070312 30.34375 C 52.582031 29.734375 52.582031 29.734375 53.128906 29.289062 Z M 53.128906 29.289062 "/>
<path style=" stroke:none;fill-rule:nonzero;fill:rgb(57.254905%,78.039217%,85.882354%);fill-opacity:1;" d="M 63.171875 100.796875 C 63.257812 100.796875 63.347656 100.796875 63.4375 100.796875 C 63.703125 102.125 63.695312 102.972656 63.171875 104.226562 C 63.085938 104.226562 62.996094 104.226562 62.90625 104.226562 C 62.886719 103.035156 62.878906 101.960938 63.171875 100.796875 Z M 63.171875 100.796875 "/>
<path style=" stroke:none;fill-rule:nonzero;fill:rgb(98.823529%,65.490198%,22.745098%);fill-opacity:1;" d="M 75.332031 48.289062 C 76.023438 49.09375 76.125 49.273438 76.125 50.398438 C 75.863281 50.3125 75.601562 50.222656 75.332031 50.132812 C 75.332031 49.523438 75.332031 48.914062 75.332031 48.289062 Z M 75.332031 48.289062 "/>
</g>
</svg>
