<svg version="1.1" xmlns="http://www.w3.org/2000/svg" xmlns:xlink="http://www.w3.org/1999/xlink" width="89.12334" height="134.77422" viewBox="0,0,89.12334,134.77422"><g transform="translate(-195.87076,-111.95895)"><g data-paper-data="{&quot;isPaintingLayer&quot;:true}" fill-rule="nonzero" stroke-linecap="butt" stroke-linejoin="miter" stroke-miterlimit="10" stroke-dasharray="" stroke-dashoffset="0" style="mix-blend-mode: normal"><path d="M268.15047,112.44287c1.09127,0.68709 2.06129,2.38462 2.91004,5.01174c0.12124,0.36375 1.21252,1.17209 2.42503,1.77835c1.25293,0.60625 2.26336,1.21252 2.26336,1.33376c0,0.16167 0.52541,0.56584 1.17209,0.97001c1.09127,0.60625 3.67797,4.85007 3.67797,5.94134c0,0.92959 -0.80835,0.16167 -1.73794,-1.6167c-0.52541,-1.01043 -1.25293,-1.89961 -1.6571,-1.94003c-0.60625,-0.12124 -0.60626,0.04041 0.20207,1.6167c0.76792,1.41459 0.92959,2.26336 0.84875,4.56714c-0.40417,10.71056 -0.28291,11.39766 2.22294,13.1356c2.42503,1.69753 4.08214,3.43546 4.40548,4.6884c0.64668,2.5867 -1.65711,8.60887 -3.71839,9.65972c-0.44458,0.20208 -1.33377,0.88918 -1.98045,1.53586c-2.06128,1.89961 -3.83963,2.22294 -12.52933,2.30377l-5.6584,0.04042l1.6167,1.49543c2.38462,2.18252 3.23338,5.25424 3.23338,11.80183c0,2.7888 -0.24251,6.14341 -0.52542,7.47717l-0.52541,2.42503l2.34419,4.40548c2.10169,3.96089 2.54628,4.56714 4.24381,5.45632c1.01043,0.60626 2.02086,1.1721 2.14211,1.33377c0.24251,0.24251 0.64668,1.77835 1.65711,6.83052c0.32334,1.49545 -0.48501,2.74836 -2.18252,3.47588c-0.80835,0.32334 -1.89961,0.97001 -2.34419,1.41459c-0.56584,0.48501 -1.65711,0.84875 -3.0313,0.97001c-2.91004,0.28292 -3.19295,0.40417 -3.19295,1.37419c0,0.44459 -0.36376,1.01042 -0.80835,1.29335c-0.44458,0.28292 -0.80835,0.6871 -0.80835,0.84876c0,0.64668 -4.36506,6.54758 -6.02217,8.16428c-2.62711,2.54629 -2.95046,5.09257 -1.4146,10.71056c0.88918,3.0717 2.18252,4.60757 5.13299,6.02216c2.82921,1.37419 4.40547,2.86962 5.09257,4.85007c0.56584,1.77835 0.56584,3.79922 -0.04042,4.40548c-0.52541,0.52542 -22.91657,0.72751 -25.94785,0.20207c-1.13169,-0.16167 -2.22294,-0.84875 -4.04172,-2.54628c-1.33377,-1.29335 -3.03129,-2.5867 -3.67796,-2.95047c-1.85918,-0.9296 -5.45633,-4.93091 -5.45633,-6.02216c0,-1.29335 8.85137,-14.42895 11.55932,-17.13689l2.18252,-2.14211l-1.01042,-1.49545c-0.56584,-0.80835 -1.01043,-1.81877 -1.01043,-2.26336c0,-0.6871 -0.08083,-0.72751 -1.21252,-0.12124c-1.45502,0.76793 -2.82921,0.76792 -3.83963,0.04041c-0.52541,-0.40417 -1.01042,-0.40417 -1.81877,-0.12124c-1.57628,0.60626 -3.11212,0.04042 -3.88005,-1.37419c-0.6871,-1.4146 -0.84875,-5.09257 -0.20207,-5.73924c0.20208,-0.20208 0.24251,-0.76793 0.08083,-1.25294c-0.20208,-0.44459 -0.64668,-2.66753 -1.09127,-4.89047c-0.40417,-2.22295 -0.97001,-4.44589 -1.29335,-4.97132c-0.32334,-0.48501 -2.46545,-1.81878 -4.76923,-2.95047c-3.7588,-1.81878 -4.52673,-2.42503 -7.31551,-5.4159c-4.76923,-5.13299 -6.54758,-9.41721 -6.588,-15.84355v-1.69753l-2.22295,-0.44459c-3.27381,-0.6871 -5.77966,-2.54628 -7.23467,-5.37549c-1.29335,-2.50587 -1.1721,-3.47588 0.20207,-1.73794c1.25294,1.57628 1.4146,0.97001 0.32334,-1.25293c-1.13169,-2.26336 -1.29335,-6.50718 -0.32334,-8.20469c1.53586,-2.70796 3.71839,-5.6584 4.64798,-6.26468c1.21252,-0.80835 1.6167,-0.60625 1.01042,0.52542c-0.64668,1.21252 -0.52541,2.95046 0.28292,4.28423c0.52542,0.84876 1.37419,1.33377 3.63755,2.06129c5.33506,1.69753 6.54758,3.11212 6.54758,7.7601c0,3.31421 -0.92959,6.02216 -2.5867,7.2751c-0.80835,0.64668 -1.05085,1.21252 -1.05085,2.42503c0,2.10169 1.33376,7.2751 2.42503,9.37679c1.37419,2.74836 5.49674,6.62843 8.77054,8.28553c1.6167,0.80835 3.11212,1.45502 3.31421,1.45502c0.24251,0 0.44458,-1.33377 0.52541,-2.95047c0.08083,-2.38463 0.24251,-2.91004 0.76793,-2.86962c0.76793,0.04042 3.63755,-6.26468 3.59712,-7.9622c0,-1.49545 2.78879,-5.49674 6.22425,-9.01304c2.74836,-2.82921 2.99087,-2.95046 6.62843,-4.04172c2.06129,-0.60626 3.63755,-1.25293 3.5163,-1.49543c-0.16167,-0.20208 -0.48501,-0.36376 -0.72751,-0.36376c-1.13169,-0.04042 -1.57627,-0.68709 -1.13169,-1.57627c0.60625,-1.09127 0.12124,-1.09127 -1.98045,-0.04042c-0.88918,0.44459 -1.98044,0.80835 -2.46546,0.80835c-0.80835,0 -0.84875,-0.12124 -0.60625,-2.02086c0.16167,-1.13169 0.20208,-2.02086 0.16167,-2.02086c-0.08083,0 -1.05085,0.36376 -2.18252,0.76793c-2.10169,0.80835 -4.20339,0.6871 -4.4863,-0.24251c-0.08083,-0.24251 0.40417,-0.88918 1.09126,-1.49545c0.6871,-0.56584 1.17209,-1.21252 1.05085,-1.41459c-0.12124,-0.16167 -1.45502,-0.40417 -2.99087,-0.52542c-4.97132,-0.36376 -9.74055,-3.47588 -11.23598,-7.43676c-1.33377,-3.5163 -0.32334,-4.4863 6.66885,-6.02217c2.50587,-0.52541 4.6884,-1.09126 4.93091,-1.21252c0.20208,-0.16167 0.36375,-0.76792 0.36375,-1.41459c0,-0.64668 0.20207,-1.29335 0.40417,-1.4146c0.64668,-0.40417 0.48501,-2.46545 -0.24251,-3.0313c-2.62712,-2.22294 -2.70796,-9.82138 -0.16167,-13.53977c1.69753,-2.46545 2.70795,-2.46545 3.03129,0.08083c0.44459,3.39505 0.64668,4.12256 1.45502,5.17341c0.92959,1.13169 1.29335,1.21252 2.06128,0.48501c2.06129,-1.94003 6.99218,-4.72881 8.40679,-4.72881c0.36376,0 0.84875,-0.52541 1.09126,-1.17209c0.56584,-1.53586 3.23338,-3.2738 5.4159,-3.55671l1.73793,-0.24251l-1.29335,1.53586c-0.6871,0.88918 -1.21252,1.6167 -1.1721,1.69753c0.08083,0.04041 1.4146,-0.16167 2.95046,-0.48501c3.59713,-0.76792 7.55802,-0.76792 9.82139,0.04041c0.97001,0.32334 1.85918,0.48501 1.98044,0.40417c0.08083,-0.12124 -0.04042,-1.01042 -0.32334,-2.02086c-0.28291,-0.97001 -0.36375,-1.98044 -0.20207,-2.26336c0.20208,-0.28291 0.64668,-0.20207 1.49543,0.32334zM250.81149,114.90832c-1.57627,0.72751 -2.54628,1.81877 -2.54628,2.86962c0,0.28291 0.28291,0.28291 0.92959,-0.04041c1.21252,-0.64668 3.92047,-2.91004 3.92047,-3.31421c0,-0.44458 -0.44459,-0.32334 -2.30378,0.48501zM268.06964,116.56543c0,0.56584 1.94003,1.41459 2.34419,1.05085c0.16167,-0.16167 -0.08083,-0.56584 -0.48501,-0.88918c-0.92959,-0.64668 -1.85918,-0.72751 -1.85918,-0.16167zM260.30954,116.64626c-3.5163,-0.12124 -5.57757,0 -5.57757,0.24251c0,0.20207 1.49545,0.48501 3.35464,0.60625c6.38592,0.40417 10.1043,1.6571 12.73143,4.2438c1.05085,1.05085 2.14212,2.42503 2.46546,3.11212c0.72751,1.69753 3.83963,6.62843 4.16297,6.66884c0.48501,0 -0.08083,-3.19295 -0.88918,-5.25424c-0.40417,-1.05085 -0.6871,-2.02086 -0.56584,-2.14212c0.12125,-0.08083 -0.28291,-0.56584 -0.88918,-1.05085c-1.33377,-1.05085 -0.97001,-1.6167 0.44459,-0.68709c0.56584,0.36375 1.01043,0.48501 1.01043,0.28291c0,-0.64668 -3.27381,-2.62711 -7.07302,-4.28423c-3.55671,-1.57627 -3.75879,-1.6167 -9.1747,-1.73793zM240.70719,121.81966c-0.6871,0.60625 -1.49545,1.21252 -1.77835,1.29335c-0.24251,0.08083 -0.40417,0.40417 -0.32334,0.68709c0.12125,0.36375 0.76793,0.04041 1.98045,-0.97001c0.97001,-0.80835 2.26336,-1.73793 2.91004,-2.06128c1.89961,-0.97001 1.25294,0.12124 -0.88918,1.53586c-3.5163,2.30377 -2.46545,3.35463 2.42503,2.50587c1.45502,-0.24251 2.78879,-0.28291 3.03129,-0.12124c0.48501,0.44459 3.43547,0.48501 3.43547,0.04041c0,-0.88918 3.39505,-2.18252 5.69882,-2.22294l2.38463,-0.04041l2.10169,2.42503c4.12256,4.72881 7.59844,7.59844 8.28553,6.87092c0.24251,-0.24251 -1.73794,-4.16297 -2.82921,-5.69882c-1.69753,-2.30377 -3.19295,-3.75879 -4.36506,-4.28423c-0.80835,-0.32334 -1.09126,-0.60625 -0.80835,-0.88918c0.52541,-0.52541 1.73793,0.28291 4.12256,2.62711c2.06128,2.06128 4.36506,6.42633 4.6884,8.81096c0.28291,1.8996 0.76793,1.8996 2.06129,0c1.21252,-1.81878 1.25293,-5.33506 0.08083,-6.34551c-0.44459,-0.40417 -0.80835,-0.9296 -0.80835,-1.17209c0,-0.24251 -0.84875,-1.25293 -1.85918,-2.26336c-2.18252,-2.18252 -5.4159,-3.39505 -10.46807,-4.00129c-8.4472,-0.97001 -15.60105,0.28291 -19.07693,3.2738zM231.77499,120.00088c-0.6871,1.49543 -0.60625,1.8996 0.44459,1.73793c0.6871,-0.08083 0.84875,-0.36375 0.76792,-1.13169c-0.16167,-1.49543 -0.68709,-1.77835 -1.21252,-0.60625zM232.0175,123.51718c-1.37419,0.36375 -1.53586,0.52541 -1.53586,1.6571c0,3.27381 3.55671,7.88135 7.47717,9.78096c3.55671,1.69753 3.96089,1.69753 5.94134,-0.12124c1.65711,-1.57628 1.73794,-1.73794 1.69753,-3.88005c-0.04042,-1.69753 0.08083,-2.26336 0.48501,-2.26336c0.40417,0 0.56584,0.56584 0.56584,1.85918c0,2.10169 -0.40417,3.0717 -2.14212,4.89048l-1.25293,1.33377h1.05085c1.17209,0 2.74836,-1.13169 4.0013,-2.86963c1.53586,-2.14212 0.80835,-6.54758 -1.21252,-7.63885c-0.44458,-0.20208 -2.10169,-0.40417 -3.67796,-0.40417c-2.7888,0 -2.82921,0.04041 -2.62712,0.92959c0.16167,0.52542 -0.04041,1.73793 -0.40417,2.74836c-0.40417,0.97001 -0.6871,2.10169 -0.72751,2.46546c-0.04042,0.72751 -0.48501,0.97001 -0.80835,0.40417c-0.12124,-0.16167 0.04041,-1.01042 0.36375,-1.8996c0.28292,-0.88918 0.56584,-2.38463 0.56584,-3.35463c0,-1.57628 -0.12124,-1.77835 -1.33376,-2.30378c-0.76793,-0.32334 -1.57628,-0.84875 -1.89961,-1.17209c-0.56584,-0.72751 -2.26336,-0.76792 -4.52673,-0.16167zM257.27824,123.43635c-2.02086,0.04041 -2.91004,0.36375 -4.20339,1.6571c-0.44459,0.44459 -1.13169,0.76793 -1.53586,0.76793c-1.01043,0 -1.45502,0.68709 -0.88918,1.37419c0.9296,1.09127 0.97001,4.08214 0.12125,5.94134c-1.53586,3.35463 -2.46545,4.12256 -5.21382,4.32464c-1.57627,0.12124 -3.2738,-0.08083 -4.76923,-0.52541c-2.62712,-0.72751 -2.62711,-0.76793 -13.74185,1.45502c-6.54758,1.29335 -8.89178,2.34419 -5.01174,2.26336c1.4146,-0.04042 3.39505,0.32334 5.61799,1.05085c4.72882,1.53586 9.53846,2.38463 11.72099,2.06129c1.01043,-0.12125 2.66753,-0.72751 3.7588,-1.29335c1.05085,-0.56584 1.98044,-0.9296 2.10169,-0.80835c0.12125,0.12125 -0.24251,1.17209 -0.80835,2.38462c-0.56584,1.21252 -1.01043,2.50587 -1.01043,2.95047c0,0.40417 0.56584,1.94003 1.29335,3.39505c2.26336,4.76923 6.46675,8.04303 12.24641,9.49805c3.11213,0.80835 14.30769,0.92959 17.54107,0.20207c3.43546,-0.72751 3.75879,-1.37419 0.84875,-1.69753c-3.27381,-0.36376 -3.75879,-0.97001 -3.51629,-4.04172c0.24251,-3.27381 0.52541,-4.28423 1.4146,-5.49674c1.01043,-1.37419 5.69882,-4.44589 6.70926,-4.44589c0.72751,0 0.64668,-0.20208 -0.60625,-1.33377c-1.29335,-1.21252 -1.49545,-1.6571 -1.94003,-4.4863c-0.24251,-1.69753 -0.44459,-3.67797 -0.44459,-4.36506c0,-0.68709 -0.48501,-2.22294 -1.09126,-3.43546l-1.09127,-2.14212l-0.6871,2.02086c-1.09126,3.31421 -4.20339,5.98174 -3.92047,3.35464c0.16167,-1.6167 -1.45502,-2.38463 -3.47588,-1.53586c-1.69753,0.72751 -3.55671,0.76792 -4.16297,0.16167c-0.6871,-0.68709 0.40417,-2.62712 1.57627,-2.91004l0.92959,-0.24251l-0.84875,-0.92959c-0.48501,-0.52542 -1.77835,-1.89961 -2.95047,-3.0717c-1.89961,-1.94003 -2.18252,-2.10169 -3.96089,-2.10169zM248.22479,126.46764c1.4146,1.6167 1.81877,2.82921 1.57628,4.85007c-0.08083,0.88918 0,1.37419 0.24251,1.29335c0.64668,-0.20208 0.76793,-2.66753 0.28291,-4.40547c-0.28291,-0.80835 -0.92959,-1.85918 -1.53586,-2.30378c-1.6167,-1.33376 -1.94003,-1.01042 -0.56584,0.56584zM265.28084,130.30728c-0.36376,0.04041 -2.06128,1.49543 -2.06128,1.77835c0,0.40417 1.45502,0.28292 2.70795,-0.20207c1.09127,-0.40417 1.09127,-0.44458 0.36376,-1.01043c-0.44458,-0.32334 -0.88918,-0.56584 -1.01043,-0.56584zM237.19089,135.7636l-1.94003,-1.53586l-1.98044,-1.53586l-0.60626,1.49545c-0.32334,0.80835 -0.48501,1.6167 -0.28291,1.77835c0.16167,0.16167 1.33376,0.16167 2.5867,0.04042zM221.02401,141.58367c-1.05085,0.40417 -0.76793,0.52542 4.20339,2.06129c7.63886,2.30378 8.24511,2.42503 11.9635,2.42503c4.08214,0 4.80964,-0.16167 6.14341,-1.33377c1.45502,-1.33377 1.17209,-1.98044 -0.56584,-1.25293c-3.88005,1.6167 -7.7601,1.41459 -14.75229,-0.84876c-3.63755,-1.1721 -5.94134,-1.53586 -6.99218,-1.05085zM220.2965,142.67495c-0.56584,-0.84876 -0.36376,0.56584 0.24251,1.69753c0.76793,1.45502 3.75879,4.28423 5.4159,5.09257c1.73794,0.88918 7.51761,1.53586 9.53846,1.05085c1.33377,-0.28292 5.61799,-2.82921 6.10299,-3.59713c0.08083,-0.16167 -1.53586,-0.20207 -3.55671,-0.12124c-3.43547,0.12125 -4.12256,0.04042 -9.17471,-1.53586c-2.99087,-0.97001 -6.10299,-1.81877 -6.87092,-1.94003c-0.76793,-0.08083 -1.53586,-0.40417 -1.69753,-0.64668zM276.6785,146.99958c-2.50587,1.57628 -3.71839,3.43547 -4.20339,6.38592c-0.52541,3.31421 0.04042,4.00129 3.71839,4.28423c2.26336,0.16167 2.78879,0.08083 4.00129,-0.76793c1.6167,-1.09127 2.99087,-3.31421 3.88005,-6.26467c0.64668,-2.26336 0.48501,-3.0717 -1.17209,-4.89048c-1.29335,-1.4146 -2.34419,-1.21252 -6.22425,1.25293zM199.44121,148.6971c-0.28292,0.64668 -0.52541,2.82921 -0.56584,4.85007c-0.04042,3.7588 0.56584,5.82008 2.06128,6.95176c0.36376,0.24251 0.52542,0.60625 0.36376,0.72751c-0.16167,0.16167 -0.80835,-0.24251 -1.45502,-0.88918c-0.88918,-0.84876 -1.29335,-1.73793 -1.49545,-3.39505c-0.44459,-2.99087 -0.48501,-4.00129 -0.16167,-5.49674c0.40417,-1.94003 -0.24251,-1.25294 -0.84875,0.84875c-1.13169,4.04172 1.37419,9.57888 4.97131,10.87223c0.36376,0.16167 0.6871,0.44458 0.6871,0.64668c0,0.52542 -2.54629,-0.56584 -4.08214,-1.65711c-1.65711,-1.25294 -1.8996,-0.60626 -0.44458,1.13169c1.89961,2.30378 5.77966,3.43547 9.37679,2.74836l1.29335,-0.28291l-0.20208,-3.0717c-0.20208,-3.39505 -0.80835,-4.89048 -2.99087,-7.63886c-2.02086,-2.46546 -1.29335,-2.62711 1.09127,-0.28291c1.77835,1.81878 2.02086,2.26336 2.38462,4.64797c0.24251,1.45502 0.44459,3.43546 0.44459,4.44589c0,1.65711 0.04041,1.73794 0.64668,1.13169c0.76793,-0.72751 1.77835,-4.6884 1.77835,-6.91134c0,-0.84876 -0.28292,-2.06128 -0.60626,-2.74836c-0.64668,-1.21252 -2.91004,-2.86963 -4.64797,-3.35464c-0.76793,-0.24251 -0.6871,-0.12125 0.40417,0.56584c1.85918,1.1721 3.63755,2.86962 3.63755,3.47588c0,0.24251 -0.84875,-0.28291 -1.85918,-1.21252c-1.01043,-0.88918 -3.03129,-2.30377 -4.52673,-3.11212c-2.82921,-1.53586 -3.55671,-2.62712 -3.15254,-4.93091c0.40417,-2.14212 -1.01042,-0.84875 -2.10169,1.94003zM243.49598,150.15212l-1.13169,-2.46546l-2.7888,1.85918c-1.57627,1.01043 -3.19295,1.85918 -3.63755,1.85918c-0.72751,0 -2.62712,2.18252 -2.62712,2.95047c0,0.44459 1.94003,0.12124 3.59713,-0.60626c0.9296,-0.44459 1.94003,-0.6871 2.14212,-0.56584c0.24251,0.16167 0.32334,1.13169 0.24251,2.22295c-0.12125,1.09127 -0.12124,1.98044 -0.04042,1.98044c0.08083,0 0.72751,-0.28291 1.45502,-0.64668c2.18252,-1.13169 3.92046,-2.5867 3.92046,-3.35463c0,-0.40417 -0.52541,-1.85918 -1.13169,-3.23338zM244.70849,155.36595c-0.92959,2.99087 -0.44459,3.59713 1.37419,1.85918c0.84875,-0.76793 0.97001,-1.09126 0.64668,-1.73793c-0.97001,-1.73794 -1.49545,-1.77835 -2.02086,-0.12125zM246.24435,159.00349c0,0.80835 0.92959,1.98045 4.0013,4.97132c2.18252,2.14212 4.16297,3.92046 4.36506,3.92046c0.52542,0 1.81878,-1.45502 2.91004,-3.35463l0.92959,-1.49545l-3.19295,-1.45502c-4.4863,-2.02086 -7.39634,-3.51629 -7.63885,-3.88005c-0.56584,-0.88918 -1.37419,-0.12125 -1.37419,1.29335zM243.13222,160.9031c-1.29335,0.24251 -1.1721,0.72751 0.28291,1.33376c2.54628,1.05085 4.40547,4.20339 4.4863,7.55802c0.04042,3.23338 -0.12125,3.96089 -1.53586,6.99218c-1.85918,3.88005 -2.70796,4.85007 -4.44589,4.85007c-1.13169,0 -1.37419,0.12124 -1.1721,0.64668c0.12124,0.36376 0.24251,1.37419 0.24251,2.30377v1.69753l1.73794,-0.08083c0.92959,-0.08083 4.93091,-0.16167 8.89178,-0.24251c7.11343,-0.08083 7.23467,-0.12124 8.04302,-1.09126c0.76793,-1.01043 0.80835,-1.01043 0.60626,-0.12125c-0.16167,0.76793 -0.04042,0.9296 0.76792,0.9296c2.54628,0 3.88005,-3.43546 3.96089,-10.1043c0.04042,-2.54629 -0.12124,-5.53716 -0.28291,-6.58801c-0.28291,-1.6167 -0.44459,-1.89961 -1.09127,-1.69753c-0.40417,0.12125 -0.84875,0.04041 -1.01042,-0.20208c-0.12125,-0.20208 -0.44459,-0.40417 -0.6871,-0.40417c-0.60625,0 -0.16167,2.46546 1.33377,7.80052c0.72751,2.62712 1.13169,4.80965 1.01042,5.3755c-0.28291,1.05085 -2.54628,3.35463 -3.2738,3.39505c-0.24251,0 -1.13169,-0.72751 -1.98045,-1.57628l-1.57627,-1.6167l0.28291,-4.85007c0.20207,-3.83964 0.12125,-5.17341 -0.32334,-6.30509c-0.6871,-1.6167 -1.17209,-1.77835 -2.02086,-0.56584c-0.60625,0.84876 -0.68709,0.80835 -5.13298,-3.43547c-4.48632,-4.28423 -4.80965,-4.44589 -7.11343,-4.00129zM261.44122,162.92395c-0.97001,-1.13169 -1.01043,-1.13169 -1.45502,-0.32334c-0.32334,0.6871 -0.32334,0.84875 0.16167,0.84875c0.32334,0 0.97001,0.64668 1.45502,1.45502c0.97001,1.53586 1.45502,1.57628 1.05085,0.08083c-0.12124,-0.52542 -0.68709,-1.45502 -1.21252,-2.06128zM238.76715,162.64105c-1.01043,0.40417 -6.66885,6.22425 -6.66885,6.83052c0,0.24251 0.76793,0.44458 1.81878,0.44458c3.23338,0 8.60886,2.99087 10.18514,5.69883c0.40417,0.64668 0.88918,1.13169 1.09126,1.05085c0.76793,-0.24251 1.77835,-4.16297 1.81878,-6.79009c0.04042,-2.30378 -0.12125,-2.91004 -1.09127,-4.36506c-0.64668,-0.9296 -1.69753,-2.06128 -2.34419,-2.50587c-1.21252,-0.76793 -3.39505,-0.97001 -4.80964,-0.36376zM259.70327,164.74274c-1.05085,-0.16167 -1.85918,1.09126 -1.65711,2.66753c0.08083,0.88918 0.36376,1.13169 1.45502,1.21252l1.33377,0.12125l-0.12125,-1.94003c-0.12124,-1.65711 -0.24251,-1.94003 -1.01043,-2.06129zM207.44383,166.88485c-0.9296,1.13169 -0.24251,8.28552 1.01042,10.99348c2.91004,6.103 6.87092,9.57888 15.27771,13.3781c0.16167,0.08083 0.28291,-0.48501 0.28291,-1.25294c0,-1.29335 -0.16167,-1.49543 -1.49543,-1.94003c-4.40548,-1.45502 -8.04303,-4.60757 -10.67014,-9.25554c-0.36376,-0.64668 -0.92959,-1.57627 -1.25293,-2.10169c-0.6871,-1.09127 -2.06129,-7.47719 -1.69753,-8.04303c0.12125,-0.24251 0.12125,-0.84876 0,-1.4146c-0.28292,-1.13169 -0.72751,-1.21252 -1.45502,-0.36375zM259.0566,170.19905c-0.16167,0.12125 -0.28292,2.38463 -0.28292,4.97132c0,4.20339 0.08083,4.85007 0.84876,5.82008c1.01043,1.29335 1.1721,1.29335 2.50587,0.12124c1.1721,-0.97001 1.33377,-1.98044 0.64668,-3.79922c-0.24251,-0.60626 -0.60625,-2.06128 -0.80835,-3.15254c-0.20208,-1.13169 -0.56584,-2.50587 -0.80835,-3.15254c-0.44458,-1.01043 -1.49545,-1.45502 -2.10169,-0.80835zM231.45165,170.72449c-1.6167,0.64668 -1.41459,1.17209 0.52542,1.45502c1.09127,0.12125 2.86963,0.60626 3.96089,1.01043c2.42503,0.88918 6.3455,4.2438 7.07302,6.06258l0.52541,1.25294l0.56584,-1.09127c0.80835,-1.49545 0.44458,-2.62711 -1.45502,-4.56714c-1.85918,-1.89961 -4.16297,-3.19296 -7.11343,-3.96089c-2.30378,-0.64668 -2.86963,-0.64668 -4.08214,-0.16167zM232.13873,174.0791c-2.38463,-0.24251 -2.42503,-0.20207 -2.70796,0.9296c-0.48501,1.98045 -2.99087,7.15384 -3.79922,7.96219c-0.6871,0.60626 -0.80835,1.25293 -0.80835,4.85007c0,2.74836 0.16167,4.32464 0.48501,4.64798c0.48501,0.48501 1.01043,2.54628 1.98045,7.7601c0.24251,1.45502 0.68709,2.74836 0.92959,2.91004c0.28292,0.20208 0.28292,0.6871 -0.08083,1.65711c-1.49545,4.08214 0.88918,7.39634 3.88005,5.29465c0.84876,-0.56584 0.92959,-0.56584 1.29335,0.48501c0.36376,0.9296 0.60626,1.05085 1.73793,0.84876c2.70796,-0.44459 5.82008,-1.8996 6.26468,-2.91004c0.24251,-0.56584 0.64668,-1.01043 0.84876,-1.01043c0.20207,0 0.76792,-0.64668 1.25294,-1.41459c1.21252,-1.98045 0.84875,-3.0717 -1.73794,-5.05216c-4.0013,-3.0313 -4.08214,-3.15254 -4.12256,-4.97132c-0.08083,-1.81878 -0.56584,-6.22425 -0.84876,-7.67927c-0.08083,-0.48501 -0.28291,-1.45502 -0.40417,-2.18252c-0.20207,-1.01043 -0.52541,-1.37419 -1.6167,-1.73793c-1.57627,-0.52542 -2.42503,-1.45502 -0.92959,-1.01043c0.52542,0.16167 1.45502,0.52541 2.02086,0.80835c0.97001,0.44459 1.13169,0.40417 2.02086,-0.72751c0.52541,-0.64668 1.37419,-1.69753 1.8996,-2.30377c1.81877,-2.26336 0.92959,-3.96089 -3.0313,-5.90091c-1.17209,-0.60626 -3.15254,-1.13169 -4.52673,-1.25294zM242.72805,179.85878c-0.28291,-0.52542 -0.48501,-0.52542 -0.84876,-0.16167c-0.52542,0.52542 -0.64668,1.53586 -0.16167,1.53586c0.16167,0 0.52542,-0.16167 0.84875,-0.36376c0.36376,-0.24251 0.40417,-0.56584 0.16167,-1.01042zM239.89884,182.84965c-0.20207,0 -0.97001,0.72751 -1.69753,1.6167c-1.29335,1.6167 -1.29335,1.6167 -0.76792,3.79922c0.36376,1.6167 0.72751,2.26336 1.29335,2.42503c0.44458,0.12125 0.84875,0.16167 0.88918,0.12124c0.04042,-0.04042 0.20208,-1.85918 0.36376,-4.04172c0.20208,-2.42503 0.16167,-3.92046 -0.08083,-3.92046zM264.14917,185.39593c-0.56584,-0.20208 -1.05085,0.56584 -0.72751,1.13169c0.16167,0.20208 0.32334,1.25294 0.40417,2.30378c0.08083,1.05085 0.32334,2.99087 0.52541,4.32463c0.24251,1.33377 0.44459,3.92047 0.44459,5.73924c0.04042,1.85918 0.12124,3.35463 0.16167,3.35463c0.08083,0 0.72751,-0.28291 1.4146,-0.64668c1.33376,-0.64668 1.69753,-1.37419 0.76793,-1.37419c-0.32334,0 -0.84876,-0.32334 -1.21252,-0.72751c-1.13169,-1.25294 -0.76792,-1.4146 0.56584,-0.32334c1.77835,1.49545 2.38462,1.37419 2.38462,-0.48501c0,-1.85918 0.92959,-3.31421 2.14212,-3.31421c0.72751,0 0.76792,-0.08083 0.28291,-0.40417c-0.32334,-0.20208 -1.57628,-0.40417 -2.70796,-0.40417c-1.17209,0 -2.14211,-0.20207 -2.14211,-0.40417c0,-0.24251 0.56584,-0.40417 1.25293,-0.40417h1.21252l-2.14211,-4.12256c-1.1721,-2.26336 -2.34419,-4.16298 -2.62712,-4.24381zM256.99532,188.6293c0.04042,0.80835 0.28291,1.73793 0.56584,2.10169c0.60625,0.72751 2.7888,0.80835 4.24381,0.12125c0.88918,-0.40417 1.01043,-0.72751 1.01043,-2.34419c0,-1.81878 -0.08083,-1.94003 -1.25293,-2.18252c-3.0717,-0.60626 -4.60757,0.16167 -4.56715,2.30377zM240.86885,187.13387c-0.16167,0.16167 -0.28291,1.17209 -0.28291,2.26336c0,2.54629 0.97001,2.46546 1.13169,-0.08083c0.12124,-1.65711 -0.28291,-2.74836 -0.84876,-2.18252zM242.20262,188.87181c0,1.57628 0.16167,2.06129 0.64668,2.06129c0.48501,0 0.56584,-0.40417 0.48501,-1.89961c-0.16167,-2.66753 -1.13169,-2.82921 -1.13169,-0.16167zM250.81149,186.97221c-7.11343,0.60626 -6.99218,0.56584 -6.99218,2.5867v1.37419h3.83964h3.83964v-2.02086c0,-1.69753 -0.12125,-2.02086 -0.6871,-1.94003zM252.95361,186.89137c-0.48501,0 -0.64668,0.48501 -0.64668,2.06128c0,2.66753 0.97001,2.50587 1.13169,-0.16167c0.08083,-1.49545 0,-1.8996 -0.48501,-1.8996zM254.93404,186.89137c-0.44458,0 -0.60625,0.48501 -0.60625,2.02086c0,1.89961 0.04042,1.98044 0.92959,1.6571c0.88918,-0.36376 1.09127,-1.6571 0.52542,-3.15254c-0.12125,-0.28292 -0.48501,-0.52541 -0.84876,-0.52541zM238.40341,191.09476c-0.52542,-0.20208 -0.64668,0.04041 -0.64668,1.21252c0,1.77835 0.56584,1.85918 1.41459,0.24251c0.36376,-0.6871 0.44458,-1.21252 0.24251,-1.21252c-0.20208,0 -0.64668,-0.12124 -1.01043,-0.24251zM249.6798,191.70101c-0.44458,0.20208 -2.5867,0.32334 -4.76923,0.28292c-4.28423,-0.08083 -4.40548,-0.04042 -5.69883,2.46545c-1.13169,2.26336 -0.88918,3.15254 1.49545,4.93091c3.88005,2.91004 4.64798,3.96089 4.16297,5.90091c-0.28291,1.13169 -4.4863,5.45632 -5.29466,5.45632c-0.92959,0 -0.72751,1.53586 0.28291,2.06129c0.56584,0.28292 3.5163,0.56584 7.59844,0.64668c8.73012,0.20208 8.64928,0.24251 8.77054,-4.24381c0.04042,-2.91004 0.24251,-3.59712 1.49545,-6.02216c1.29335,-2.54629 1.41459,-3.0313 1.45502,-6.58801c0.08083,-4.89048 0.12125,-4.64797 -0.6871,-4.76923c-2.10169,-0.36376 -8.12385,-0.40417 -8.81096,-0.12125zM262.85582,191.37767c-0.12125,0.04042 -0.84875,0.28291 -1.53586,0.48501l-1.33377,0.44459v4.28423c0,4.20339 -0.04042,4.36506 -1.53586,7.31551c-1.25293,2.38463 -1.53586,3.39505 -1.49543,5.01174l0.04042,2.02086l3.0717,0.12124l3.0717,0.08083l0.44459,-1.29335c0.44458,-1.4146 0.32334,-13.33767 -0.16167,-16.61148c-0.16167,-1.05085 -0.40417,-1.85918 -0.56584,-1.85918zM272.71762,195.78315c-0.72751,-0.60626 -0.76792,-0.28292 -0.16167,0.88918c0.24251,0.44459 0.32334,1.25294 0.16167,1.81878c-0.28291,1.21252 -0.68709,0.97001 -0.84875,-0.52542c-0.08083,-0.56584 -0.36376,-1.29335 -0.60625,-1.65711c-0.48501,-0.52542 -0.60625,-0.48501 -1.25293,0.28292c-0.40417,0.48501 -0.72751,1.13169 -0.72751,1.41459c0,0.9296 1.65711,2.62712 2.62712,2.62712c1.09126,0 1.4146,-0.68709 1.4146,-2.82921c0,-0.84876 -0.24251,-1.73793 -0.60626,-2.02086zM266.77628,201.80531c-1.85918,1.01043 -2.46546,2.10169 -1.53586,2.66753c0.60625,0.36376 4.4863,-1.01042 5.45633,-1.94003c0.80835,-0.72751 0.80835,-0.72751 0.04042,-1.33377c-1.05085,-0.76793 -1.69753,-0.64668 -3.96089,0.60626zM271.38386,202.77533c-1.09127,1.13169 -1.13169,2.14211 -0.16167,2.66753c0.97001,0.52542 2.50587,-0.24251 3.31421,-1.69753c0.52541,-0.97001 0.52541,-1.1721 0,-1.49545c-1.01043,-0.64668 -2.22294,-0.44458 -3.15254,0.52542zM267.50381,205.20036c-0.80835,0.64668 -1.09126,1.17209 -0.92959,1.6167c0.32334,0.88918 2.22295,0.88918 3.47588,0.04041c0.84875,-0.60626 0.84875,-0.72751 0.28291,-1.05085c-0.36376,-0.20208 -0.64668,-0.64668 -0.64668,-0.92959c0,-0.88918 -0.84875,-0.72751 -2.18252,0.32334zM264.83626,206.65538c0,0.84876 0.20207,1.25293 0.60625,1.25293c0.44458,0 0.60625,-0.32334 0.48501,-1.09126c-0.20207,-1.57628 -1.09126,-1.69753 -1.09126,-0.16167zM259.42035,211.54587c-2.18252,0 -2.95046,0.40417 -2.46545,1.21252c0.12125,0.20208 -0.20207,0.60626 -0.76792,0.84876c-0.52542,0.24251 -0.88918,0.68709 -0.76793,0.97001c0.24251,0.6871 3.39505,1.98045 3.75879,1.53586c1.33377,-1.6167 2.42503,-3.39505 2.42503,-3.92047c0,-0.52542 -0.48501,-0.64668 -2.18252,-0.64668zM241.51553,213.84965c-1.53586,-0.24251 -1.69753,-0.20208 -1.45502,0.40417c0.12124,0.40417 0.48501,1.09126 0.80835,1.53586c0.60626,0.88918 0.72751,3.43546 0.16167,3.43546c-0.56584,0 -1.6167,2.54629 -2.22295,5.4159l-0.56584,2.70795l1.09127,-0.20207c0.56584,-0.12125 1.85918,-0.32334 2.86962,-0.48501c1.4146,-0.20208 7.23468,-2.82921 8.00261,-3.59713c0.08083,-0.08083 -0.12125,-0.64668 -0.44459,-1.29335c-0.36376,-0.64668 -0.72751,-1.81877 -0.88918,-2.66753c-0.28291,-1.33377 -0.16167,-1.6167 1.17209,-2.95047c1.29335,-1.29335 1.65711,-1.45502 3.0717,-1.29335c0.92959,0.08083 1.6167,-0.04041 1.6167,-0.28291c0,-0.24251 -2.06128,-0.40417 -5.73924,-0.40417c-3.19296,0 -6.54758,-0.12124 -7.47719,-0.32334zM250.40732,216.63844c-0.88918,0.88918 -1.01043,1.29335 -0.80835,2.82921c0.24251,2.30378 1.53586,3.79922 3.31421,3.79922c1.05085,0 1.33376,-0.20207 1.73793,-1.33376c0.60626,-1.65711 0.64668,-4.52673 0.08083,-5.57757c-0.64668,-1.1721 -2.99087,-1.05085 -4.32464,0.28291zM255.54031,217.20427c0,1.53586 0.92959,1.98045 2.02086,1.01043c1.05085,-0.9296 1.01043,-1.1721 -0.20207,-1.73794c-1.53586,-0.72751 -1.81877,-0.60626 -1.81877,0.72751zM238.80759,217.9722c-1.1721,1.21252 -1.21252,2.46545 -0.08083,2.46545c0.72751,0 2.42503,-2.66753 2.06128,-3.23338c-0.40417,-0.64668 -0.76792,-0.48501 -1.98045,0.76793zM237.59507,220.72057c-0.92959,-0.64668 -0.97001,-0.60626 -3.75879,3.47588c-4.28423,6.26468 -4.16298,5.49674 -1.77835,9.13428c1.13169,1.69753 2.06128,3.5163 2.06128,4.0013c0,0.44459 0.44458,1.33376 0.97001,1.98044l0.97001,1.09127l1.69753,-0.76793l1.69753,-0.76792l-0.24251,-2.14212c-0.12124,-1.21252 -0.60625,-3.23338 -1.09126,-4.52673c-0.76793,-2.30378 -0.76793,-2.54628 -0.16167,-6.54758c0.32334,-2.26336 0.60625,-4.16298 0.60625,-4.24381c0,-0.04042 -0.44458,-0.36375 -0.97001,-0.68709zM247.41645,225.9748c-1.65711,1.01043 -5.29465,2.14212 -6.99217,2.14212c-2.34419,0 -2.54629,0.40417 -1.53586,3.51629c0.48501,1.49545 0.97001,3.63755 1.09127,4.76923c0.44459,3.27381 0.52541,3.43547 1.98045,3.43547c1.4146,0 4.93091,1.09126 7.03259,2.18252l1.29335,0.64668l2.26336,-2.06129c2.06129,-1.85918 3.03129,-2.42503 5.57757,-3.35463c0.72751,-0.24251 0.64668,-0.40417 -0.68709,-1.49545c-1.69753,-1.4146 -2.82921,-4.08213 -3.47588,-8.32594c-0.24251,-1.57628 -0.44458,-2.99087 -0.44458,-3.11212c0,-0.80835 -3.79922,0.24251 -6.103,1.6571zM228.66286,233.81574c-0.24251,1.01043 -0.08083,1.53586 0.88918,2.70796c1.4146,1.73794 3.23338,3.15254 3.59712,2.78879c0.36376,-0.36376 -0.92959,-3.23338 -2.34419,-5.21381c-1.37419,-1.85918 -1.77835,-1.94003 -2.14211,-0.28292zM261.92623,238.22123c-0.56584,0 -0.32334,0.64668 0.52541,1.45502c1.09127,0.97001 1.81877,2.42503 2.14211,4.32463c0.28291,1.57628 1.05085,1.69753 1.05085,0.16167c-0.04042,-1.25294 -1.37419,-4.04172 -2.46545,-5.09257c-0.48501,-0.44459 -1.05085,-0.84875 -1.25293,-0.84875zM255.90407,239.7975c-1.85918,1.25294 -4.6884,3.96089 -4.36506,4.20339c0.08083,0.12125 2.66753,0.28291 5.73924,0.40417c6.18384,0.28292 5.8605,0.44459 5.17341,-2.66753c-0.20207,-0.80835 -0.80835,-1.85918 -1.29335,-2.30377c-1.37419,-1.13169 -3.15254,-1.01043 -5.25424,0.36375zM234.03834,240.60583l-1.33376,-0.97001l0.92959,1.29335c1.33377,1.85918 4.52673,4.56715 5.3755,4.56715c1.13169,0 0.97001,-0.24251 -0.84876,-1.25294c-0.88918,-0.52542 -1.8996,-1.33376 -2.22294,-1.81877c-0.32334,-0.48501 -1.1721,-1.33377 -1.89961,-1.81878zM239.29259,240.28249c-1.57627,0.48501 -2.95047,1.13169 -3.03129,1.45502c-0.08083,0.24251 0.40417,0.84876 1.13169,1.33377c1.45502,1.05085 1.98045,0.6871 1.98045,-1.53586c0,-0.6871 -0.04042,-1.29335 -0.08083,-1.25294zM242.52596,240.88877l-2.34419,-0.24251v1.98044v1.98045l4.97132,-0.20208c2.70796,-0.08083 5.17341,-0.24251 5.45633,-0.36375c0.88918,-0.28292 0.12124,-0.97001 -1.05085,-0.97001c-0.60625,0 -1.89961,-0.44458 -2.91004,-0.97001c-1.01043,-0.52542 -2.86962,-1.05085 -4.12256,-1.21252zM241.39429,245.49632c-0.40417,0.24251 3.23338,0.40417 10.62973,0.40417c7.19427,0 11.19557,-0.16167 11.19557,-0.40417c0,-0.52542 -20.97654,-0.52542 -21.82529,0z" fill="#000000" stroke="none" stroke-width="1"/><path d="M254.9268,186.84191c0.36375,0 0.75373,0.24571 0.87498,0.52863c0.56585,1.49544 0.34601,2.88502 -0.54317,3.24878c-0.88917,0.32334 -0.98045,0.19863 -0.98045,-1.70098c0,-1.53585 0.20406,-2.07644 0.64864,-2.07644z" data-paper-data="{&quot;noHover&quot;:false,&quot;origItem&quot;:[&quot;Path&quot;,{&quot;applyMatrix&quot;:true,&quot;segments&quot;:[[[254.93404,186.89137],[0,0],[-0.44458,0]],[[254.32779,188.91223],[0,-1.53585],[0,1.89961]],[[255.25738,190.56933],[-0.88917,0.32334],[0.88918,-0.36376]],[[255.7828,187.41679],[0.56585,1.49544],[-0.12125,-0.28292]],[[254.93404,186.89138],[0.36375,0],[0,0]]],&quot;closed&quot;:true,&quot;fillColor&quot;:[0,0,0,1]}]}" fill="#703e21" stroke="none" stroke-width="0.5"/><path d="M251.54858,188.91179l-0.00559,2.04428l-3.88405,0.02703l-3.88405,-0.02703l-0.00497,-1.38929c0,-2.02086 -0.0295,-2.01485 7.08393,-2.62111c0.56585,-0.08083 0.69472,0.26859 0.69472,1.96612z" data-paper-data="{&quot;noHover&quot;:false,&quot;origItem&quot;:[&quot;Path&quot;,{&quot;applyMatrix&quot;:true,&quot;segments&quot;:[[[250.81149,186.97221],[0.56585,-0.08083],[-7.11343,0.60626]],[[243.81931,189.55891],[0,-2.02086],[0,0]],[243.81931,190.9331],[247.65895,190.9331],[251.49859,190.9331],[[251.49859,188.91224],[0,0],[0,-1.69753]]],&quot;closed&quot;:true,&quot;fillColor&quot;:[0,0,0,1]}]}" fill="#703e21" stroke="none" stroke-width="0.5"/><path d="M240.86157,187.08442c0.56585,-0.56584 1.02457,0.59117 0.90333,2.24828c-0.16168,2.54629 -1.22417,2.63217 -1.22417,0.08588c0,-1.09127 0.15916,-2.1725 0.32083,-2.33417z" data-paper-data="{&quot;noHover&quot;:false,&quot;origItem&quot;:[&quot;Path&quot;,{&quot;applyMatrix&quot;:true,&quot;segments&quot;:[[[240.86885,187.13387],[0,0],[-0.16167,0.16167]],[[240.58594,189.39723],[0,-1.09127],[0,2.54629]],[[241.71763,189.3164],[-0.16168,2.54629],[0.12124,-1.65711]],[[240.86887,187.13388],[0.56585,-0.56584],[0,0]]],&quot;closed&quot;:true,&quot;fillColor&quot;:[0,0,0,1]}]}" fill="#703e21" stroke="none" stroke-width="0.5"/><path d="M242.76665,179.82702c0.2425,0.44458 0.19446,0.83893 -0.1693,1.08144c-0.32333,0.20209 -0.73966,0.36961 -0.90133,0.36961c-0.48501,0 -0.36141,-1.10168 0.16401,-1.6271c0.36375,-0.36375 0.62372,-0.34938 0.90663,0.17604z" data-paper-data="{&quot;noHover&quot;:false,&quot;origItem&quot;:[&quot;Path&quot;,{&quot;applyMatrix&quot;:true,&quot;segments&quot;:[[[242.72805,179.85878],[0,0],[-0.28291,-0.52542]],[[241.87929,179.69711],[0.36375,-0.36375],[-0.52542,0.52542]],[[241.71762,181.23297],[-0.48501,0],[0.16167,0]],[[242.56637,180.86921],[-0.32333,0.20209],[0.36376,-0.24251]],[[242.72804,179.85879],[0.2425,0.44458],[0,0]]],&quot;closed&quot;:true,&quot;fillColor&quot;:[0,0,0,1]}]}" fill="#ffffff" stroke="none" stroke-width="0.5"/><path d="M261.5909,186.28439c1.1721,0.24249 1.27437,0.40116 1.27437,2.21994c0,1.61668 -0.13781,1.98103 -1.02699,2.3852c-1.45501,0.6871 -3.70885,0.60148 -4.3151,-0.12603c-0.28293,-0.36376 -0.53741,-1.32749 -0.57783,-2.13584c-0.04042,-2.1421 1.57384,-2.94953 4.64554,-2.34327z" data-paper-data="{&quot;noHover&quot;:false,&quot;origItem&quot;:[&quot;Path&quot;,{&quot;applyMatrix&quot;:true,&quot;segments&quot;:[[[256.99533,188.6293],[-0.04042,-2.1421],[0.04042,0.80835]],[[257.56117,190.73099],[-0.28293,-0.36376],[0.60625,0.72751]],[[261.80498,190.85224],[-1.45501,0.6871],[0.88918,-0.40417]],[[262.81541,188.50805],[0,1.61668],[0,-1.81878]],[[261.56248,186.32553],[1.1721,0.24249],[-3.0717,-0.60626]]],&quot;closed&quot;:true,&quot;fillColor&quot;:[0,0,0,1]}]}" fill="#fbb631" stroke="none" stroke-width="0.5"/><path d="M242.15298,188.86584c0,-2.66754 1.06898,-2.49167 1.23065,0.17586c0.08083,1.49544 -0.04764,1.94138 -0.53265,1.94138c-0.48501,0 -0.69801,-0.54096 -0.69801,-2.11724z" data-paper-data="{&quot;noHover&quot;:false,&quot;origItem&quot;:[&quot;Path&quot;,{&quot;applyMatrix&quot;:true,&quot;segments&quot;:[[[242.20262,188.87181],[0,0],[0,1.57628]],[[242.8493,190.9331],[-0.48501,0],[0.48501,0]],[[243.33431,189.03349],[0.08083,1.49544],[-0.16167,-2.66753]],[[242.20262,188.87182],[0,-2.66754],[0,0]]],&quot;closed&quot;:true,&quot;fillColor&quot;:[0,0,0,1]}]}" fill="#263b5f" stroke="none" stroke-width="0.5"/><path d="M252.95529,186.84141c0.48501,0 0.61348,0.44592 0.53265,1.94137c-0.16168,2.66754 -1.23065,2.84339 -1.23065,0.17586c0,-1.57627 0.213,-2.11723 0.69801,-2.11723z" data-paper-data="{&quot;noHover&quot;:false,&quot;origItem&quot;:[&quot;Path&quot;,{&quot;applyMatrix&quot;:true,&quot;segments&quot;:[[[252.95361,186.89137],[0,0],[-0.48501,0]],[[252.30693,188.95265],[0,-1.57627],[0,2.66753]],[[253.43862,188.79098],[-0.16168,2.66754],[0.08083,-1.49545]],[[252.95361,186.89138],[0.48501,0],[0,0]]],&quot;closed&quot;:true,&quot;fillColor&quot;:[0,0,0,1]}]}" fill="#263b5f" stroke="none" stroke-width="0.5"/><path d="M259.71018,164.6932c0.76792,0.12126 0.93221,0.45632 1.05345,2.11343l0.10005,1.97833l-1.36049,-0.11221c-1.09126,-0.08083 -1.42113,-0.35134 -1.50196,-1.24052c-0.20207,-1.57627 0.65809,-2.90068 1.70894,-2.73901z" data-paper-data="{&quot;noHover&quot;:false,&quot;origItem&quot;:[&quot;Path&quot;,{&quot;applyMatrix&quot;:true,&quot;segments&quot;:[[[259.70327,164.74274],[0,0],[-1.05085,-0.16167]],[[258.04616,167.41027],[-0.20207,-1.57627],[0.08083,0.88918]],[[259.50118,168.62279],[-1.09126,-0.08083],[0,0]],[260.83495,168.74404],[[260.7137,166.80401],[0,0],[-0.12124,-1.65711]],[[259.70327,164.74272],[0.76792,0.12126],[0,0]]],&quot;closed&quot;:true,&quot;fillColor&quot;:[0,0,0,1]}]}" fill="#263b5f" stroke="none" stroke-width="0.5"/><path d="M259.04071,170.15163c0.60624,-0.64667 1.67482,-0.20463 2.1194,0.8058c0.24251,0.64667 0.62876,2.02713 0.83084,3.15882c0.2021,1.09126 0.58122,2.62037 0.82373,3.22663c0.68709,1.81878 0.49657,2.84762 -0.67553,3.81763c-1.33377,1.17211 -1.51924,1.17159 -2.52967,-0.12176c-0.76793,-0.97001 -0.88304,-1.68139 -0.88304,-5.88478c0,-2.58669 0.1526,-4.88107 0.31427,-5.00232z" data-paper-data="{&quot;noHover&quot;:false,&quot;origItem&quot;:[&quot;Path&quot;,{&quot;applyMatrix&quot;:true,&quot;segments&quot;:[[[259.0566,170.19905],[0,0],[-0.16167,0.12125]],[[258.77368,175.17037],[0,-2.58669],[0,4.20339]],[[259.62244,180.99045],[-0.76793,-0.97001],[1.01043,1.29335]],[[262.12831,181.11169],[-1.33377,1.17211],[1.1721,-0.97001]],[[262.77499,177.31247],[0.68709,1.81878],[-0.24251,-0.60626]],[[261.96664,174.15993],[0.2021,1.09126],[-0.20208,-1.13169]],[[261.15829,171.00739],[0.24251,0.64667],[-0.44458,-1.01043]],[[259.0566,170.19904],[0.60624,-0.64667],[0,0]]],&quot;closed&quot;:true,&quot;fillColor&quot;:[0,0,0,1]}]}" fill="#263b5f" stroke="none" stroke-width="0.5"/><path d="M262.86783,191.32914c0.16167,0 0.40973,0.81006 0.5714,1.86091c0.48501,3.27381 0.60601,15.29057 0.16143,16.70517l-0.44861,1.29465l-3.08675,-0.07905l-3.08659,-0.12405l-0.04434,-2.02243c-0.04043,-1.61669 0.23334,-2.63248 1.48627,-5.01711c1.49544,-2.95045 1.56109,-3.20214 1.56109,-7.40553l0.00213,-4.28438l1.34095,-0.44441c0.68711,-0.2021 1.4218,-0.44336 1.54305,-0.48378z" data-paper-data="{&quot;noHover&quot;:false,&quot;origItem&quot;:[&quot;Path&quot;,{&quot;applyMatrix&quot;:true,&quot;segments&quot;:[[[262.85582,191.37767],[0,0],[-0.12125,0.04042]],[[261.31996,191.86268],[0.68711,-0.2021],[0,0]],[259.98619,192.30727],[[259.98619,196.5915],[0,0],[0,4.20339]],[[258.45033,203.90701],[1.49544,-2.95045],[-1.25293,2.38463]],[[256.9549,208.91875],[-0.04043,-1.61669],[0,0]],[256.99532,210.93961],[260.06702,211.06085],[263.13872,211.14168],[[263.58331,209.84833],[0,0],[0.44458,-1.4146]],[[263.42164,193.23685],[0.48501,3.27381],[-0.16167,-1.05085]],[[262.8558,191.37767],[0.16167,0],[0,0]]],&quot;closed&quot;:true,&quot;fillColor&quot;:[0,0,0,1]}]}" fill="#263b5f" stroke="none" stroke-width="0.5"/><path d="M249.68345,191.65117c0.68711,-0.28292 6.73903,-0.22984 8.84072,0.13392c0.80835,0.12126 0.77786,-0.10899 0.69703,4.78149c-0.04043,3.55671 -0.15514,4.07042 -1.44849,6.61671c-1.25294,2.42504 -1.46793,3.14204 -1.50835,6.05208c-0.12126,4.48632 -0.08387,4.46179 -8.81399,4.25971c-4.08214,-0.08084 -7.0591,-0.37576 -7.62494,-0.65868c-1.01042,-0.52543 -1.21699,-2.06577 -0.2874,-2.06577c0.80836,0 5.00805,-4.32937 5.29096,-5.46106c0.48501,-1.94002 -0.28843,-3.03711 -4.16848,-5.94715c-2.38463,-1.77837 -2.61886,-2.68168 -1.48717,-4.94504c1.29335,-2.50587 1.43534,-2.56104 5.71957,-2.48021c2.18253,0.04042 4.34597,-0.08393 4.79055,-0.28601z" data-paper-data="{&quot;noHover&quot;:false,&quot;origItem&quot;:[&quot;Path&quot;,{&quot;applyMatrix&quot;:true,&quot;segments&quot;:[[[249.6798,191.70101],[0,0],[-0.44458,0.20208]],[[244.91057,191.98393],[2.18253,0.04042],[-4.28423,-0.08083]],[[239.21174,194.44938],[1.29335,-2.50587],[-1.13169,2.26336]],[[240.70719,199.38029],[-2.38463,-1.77837],[3.88005,2.91004]],[[244.87016,205.2812],[0.48501,-1.94002],[-0.28291,1.13169]],[[239.5755,210.73752],[0.80836,0],[-0.92959,0]],[[239.85841,212.79881],[-1.01042,-0.52543],[0.56584,0.28292]],[[247.45685,213.44549],[-4.08214,-0.08084],[8.73012,0.20208]],[[256.22739,209.20168],[-0.12126,4.48632],[0.04042,-2.91004]],[[257.72284,203.17952],[-1.25294,2.42504],[1.29335,-2.54629]],[[259.17786,196.59151],[-0.04043,3.55671],[0.08083,-4.89048]],[[258.49076,191.82228],[0.80835,0.12126],[-2.10169,-0.36376]],[[249.6798,191.70103],[0.68711,-0.28292],[0,0]]],&quot;closed&quot;:true,&quot;fillColor&quot;:[0,0,0,1]}]}" fill="#263b5f" stroke="none" stroke-width="0.5"/><path d="M238.85942,217.76701c0.2236,0.11181 0.1118,0.33541 0.1118,0.33541l-0.106,0.18331c-0.27964,0.27964 -0.54272,0.57311 -0.79539,0.87514c0.00691,0.0229 0.01063,0.04719 0.01063,0.07234v0.26506c0.11964,0.29685 0.2501,0.60557 0.34311,0.87487c0.0349,-0.01851 0.0747,-0.02899 0.11695,-0.02899c0.13807,0 0.25,0.11193 0.25,0.25c0,0.02969 -0.00518,0.05818 -0.01468,0.0846l-0.1165,0.34949l-0.02269,-0.00757c-0.01056,0.10476 -0.02948,0.20819 -0.06074,0.32624c0.00521,0.00641 0.00791,0.01124 0.00791,0.01437c0,0.08083 -0.27478,1.98463 -0.59812,4.24799c-0.17016,1.12303 -0.29124,1.95523 -0.36041,2.6223c0.04335,-0.15539 0.10632,-0.29644 0.19115,-0.41698c0.00667,-0.03992 0.01533,-0.08132 0.02606,-0.12424c0.07716,-0.30861 0.5111,-0.44379 1.0292,-0.45523c0.0862,-0.04423 0.17678,-0.0836 0.27076,-0.11876c0.61617,-0.23058 1.37858,-0.28098 2.01071,-0.34324c3.26664,-0.32177 5.75553,-2.85207 8.69735,-3.5058c0.05063,-0.01125 0.10448,-0.01852 0.16092,-0.02204c-0.00626,-0.03829 -0.00268,-0.08318 0.01689,-0.13535c0.08778,-0.23408 0.32187,-0.1463 0.32187,-0.1463c1.03088,0.38658 1.72461,0.98999 2.8708,0.98999h0.08876c0,0 0.25,0 0.25,0.25c0,0.03664 -0.00537,0.06791 -0.01453,0.0946c0.01783,0.2253 0.22131,1.58961 0.45291,3.09498c0.64667,4.24381 1.79257,6.96084 3.4901,8.37544c1.33377,1.09128 1.41267,1.25871 0.68516,1.50122c-2.54628,0.9296 -3.53805,1.52029 -5.59934,3.37947l-2.27829,2.06682l-1.29989,-0.64583c-2.10168,-1.09126 -5.65649,-2.19707 -7.07109,-2.19707c-1.45504,0 -1.54754,-0.18006 -1.99213,-3.45387c-0.12126,-1.13168 -0.60843,-3.29957 -1.09344,-4.79502c-0.01294,-0.03986 -0.02569,-0.07928 -0.03823,-0.11826c-0.17286,-0.12139 -0.32573,-0.2576 -0.43555,-0.3814c-0.42604,-0.48031 -0.74084,-1.28515 -0.80379,-2.02561c-0.03785,1.11533 0.1545,1.78048 0.60249,3.12443c0.48501,1.29335 0.95447,3.33112 1.07571,4.54364l0.23804,2.14482l-1.70647,0.77164l-1.70656,0.76981l-0.97473,-1.09096c-0.52543,-0.64668 -0.97672,-1.53618 -0.97672,-1.98077c0,-0.485 -0.95882,-2.31777 -2.09051,-4.0153c-2.38463,-3.63754 -2.47951,-2.9545 1.80472,-9.21918c1.14142,-1.67079 1.82613,-2.66433 2.30049,-3.21079c0.00831,-0.07809 0.05266,-0.13724 0.05266,-0.13724c0.73976,-0.98472 1.45569,-1.99179 2.33092,-2.86702l0.01235,-0.05337c0,0 0.11181,-0.2236 0.33541,-0.1118z" fill="#ffffff" stroke="none" stroke-width="0.5"/><path d="M243.10166,160.86349c2.30378,-0.4446 2.64317,-0.2912 7.12949,3.99303c4.44589,4.24382 4.56319,4.2872 5.16944,3.43844c0.84877,-1.21251 1.34692,-1.04151 2.03402,0.57519c0.44459,1.13168 0.53746,2.51745 0.33539,6.35709l-0.30141,4.87454l1.51741,1.53588c0.84876,0.84877 1.736,1.57782 1.97851,1.57782c0.72752,-0.04042 2.97927,-2.33014 3.26218,-3.38099c0.12127,-0.56585 -0.28899,-2.72875 -1.0165,-5.35587c-1.49544,-5.33506 -1.9302,-7.76583 -1.32395,-7.76583c0.24251,0 0.6476,0.14458 0.76885,0.34666c0.16167,0.24249 0.60778,0.32581 1.01195,0.20456c0.64668,-0.20208 0.81178,0.08802 1.09469,1.70472c0.16167,1.05085 0.3259,4.0679 0.28548,6.61419c-0.08084,6.66884 -1.43598,10.1374 -3.98226,10.1374c-0.80834,0 -0.98508,-0.24486 -0.82341,-1.01279c0.20209,-0.88918 0.21496,-0.80459 -0.55297,0.20584c-0.80835,0.97002 -0.96021,1.01732 -8.07364,1.09815c-3.96087,0.08084 -7.98846,0.15102 -8.91805,0.23185l-1.74079,0.07838l-0.00252,-1.70004c0,-0.92958 -0.12521,-1.94479 -0.24645,-2.30855c-0.20209,-0.52544 0.121,-0.70588 1.25269,-0.70588c1.73793,0 2.50198,-0.91761 4.36116,-4.79766c1.41461,-3.03129 1.58093,-3.81141 1.54051,-7.04479c-0.08083,-3.35463 -1.86798,-6.43877 -4.41426,-7.48962c-1.45501,-0.60625 -1.63885,-1.16921 -0.3455,-1.41172z" data-paper-data="{&quot;noHover&quot;:false,&quot;origItem&quot;:[&quot;Path&quot;,{&quot;applyMatrix&quot;:true,&quot;segments&quot;:[[[243.13222,160.9031],[0,0],[-1.29335,0.24251]],[[243.41513,162.23686],[-1.45501,-0.60625],[2.54628,1.05085]],[[247.90143,169.79488],[-0.08083,-3.35463],[0.04042,3.23338]],[[246.36557,176.78706],[1.41461,-3.03129],[-1.85918,3.88005]],[[241.91968,181.63713],[1.73793,0],[-1.13169,0]],[[240.74758,182.28381],[-0.20209,-0.52544],[0.12124,0.36376]],[[240.99009,184.58758],[0,-0.92958],[0,0]],[240.99009,186.28511],[[242.72803,186.20428],[0,0],[0.92959,-0.08083]],[[251.61981,185.96177],[-3.96087,0.08084],[7.11343,-0.08083]],[[259.66283,184.87051],[-0.80835,0.97002],[0.76793,-1.01043]],[[260.26909,184.74926],[0.20209,-0.88918],[-0.16167,0.76793]],[[261.03701,185.67886],[-0.80834,0],[2.54628,0]],[[264.9979,175.57456],[-0.08084,6.66884],[0.04042,-2.54629]],[[264.71499,168.98655],[0.16167,1.05085],[-0.28291,-1.6167]],[[263.62372,167.28902],[0.64668,-0.20208],[-0.40417,0.12125]],[[262.6133,167.08694],[0.16167,0.24249],[-0.12125,-0.20208]],[[261.9262,166.68277],[0.24251,0],[-0.60625,0]],[[263.25997,174.48329],[-1.49544,-5.33506],[0.72751,2.62712]],[[264.27039,179.85879],[0.12127,-0.56585],[-0.28291,1.05085]],[[260.99659,183.25384],[0.72752,-0.04042],[-0.24251,0]],[[259.01614,181.67756],[0.84876,0.84877],[0,0]],[257.43987,180.06086],[[257.72278,175.21079],[0,0],[0.20207,-3.83964]],[[257.39944,168.9057],[0.44459,1.13168],[-0.6871,-1.6167]],[[255.37858,168.33986],[0.84877,-1.21251],[-0.60625,0.84876]],[[250.2456,164.90439],[4.44589,4.24382],[-4.48632,-4.28423]],[[243.13217,160.9031],[2.30378,-0.4446],[0,0]]],&quot;closed&quot;:true,&quot;fillColor&quot;:[0,0,0,1]}]}" fill="#ffffff" stroke="none" stroke-width="0.5"/><path d="M231.41238,170.69354c1.21251,-0.48501 1.79836,-0.5002 4.10214,0.14648c2.95046,0.76793 5.3232,2.10174 7.18238,4.00135c1.8996,1.94003 2.25664,3.10296 1.44829,4.59841l-0.57032,1.09761l-0.60516,-1.31309c-0.72752,-1.81878 -4.57901,-5.10356 -7.00404,-5.99274c-1.09126,-0.40417 -2.8544,-0.90516 -3.94567,-1.02641c-1.94001,-0.28293 -2.22431,-0.86494 -0.60761,-1.51162z" data-paper-data="{&quot;noHover&quot;:false,&quot;origItem&quot;:[&quot;Path&quot;,{&quot;applyMatrix&quot;:true,&quot;segments&quot;:[[[231.45165,170.72449],[0,0],[-1.6167,0.64668]],[[231.97707,172.17951],[-1.94001,-0.28293],[1.09127,0.12125]],[[235.93796,173.18994],[-1.09126,-0.40417],[2.42503,0.88918]],[[243.01098,179.25252],[-0.72752,-1.81878],[0,0]],[243.53639,180.50546],[[244.10223,179.41419],[0,0],[0.80835,-1.49545]],[[242.64721,174.84705],[1.8996,1.94003],[-1.85918,-1.89961]],[[235.53378,170.88616],[2.95046,0.76793],[-2.30378,-0.64668]],[[231.45164,170.72449],[1.21251,-0.48501],[0,0]]],&quot;closed&quot;:true,&quot;fillColor&quot;:[0,0,0,1]}]}" fill="#ffffff" stroke="none" stroke-width="0.5"/><path d="M238.76142,162.59138c1.41459,-0.60625 3.62923,-0.39698 4.84175,0.37095c0.64666,0.44459 1.71357,1.59229 2.36025,2.52189c0.97002,1.45502 1.1392,2.09039 1.09878,4.39417c-0.04043,2.62712 -1.06992,6.58427 -1.83785,6.82678c-0.20208,0.08084 -0.68818,-0.40334 -1.09235,-1.05002c-1.57628,-2.70796 -7.03137,-5.73516 -10.26475,-5.73516c-1.05085,0 -1.81893,-0.20598 -1.81893,-0.44849c0,-0.60627 5.70268,-6.47596 6.71311,-6.88013z" data-paper-data="{&quot;noHover&quot;:false,&quot;origItem&quot;:[&quot;Path&quot;,{&quot;applyMatrix&quot;:true,&quot;segments&quot;:[[[238.76715,162.64105],[0,0],[-1.01043,0.40417]],[[232.0983,169.47157],[0,-0.60627],[0,0.24251]],[[233.91708,169.91615],[-1.05085,0],[3.23338,0]],[[244.10222,175.61498],[-1.57628,-2.70796],[0.40417,0.64668]],[[245.19348,176.66583],[-0.20208,0.08084],[0.76793,-0.24251]],[[247.01226,169.87574],[-0.04043,2.62712],[0.04042,-2.30378]],[[245.92099,165.51068],[0.97002,1.45502],[-0.64668,-0.9296]],[[243.5768,163.00481],[0.64666,0.44459],[-1.21252,-0.76793]],[[238.76716,162.64105],[1.41459,-0.60625],[0,0]]],&quot;closed&quot;:true,&quot;fillColor&quot;:[0,0,0,1]}]}" fill="#ffffff" stroke="none" stroke-width="0.5"/><path d="M261.44833,162.87444c0.52543,0.60626 1.1256,1.61335 1.24684,2.13877c0.40417,1.49545 -0.10442,1.47374 -1.07443,-0.06212c-0.48501,-0.80834 -1.19359,-1.52536 -1.51693,-1.52536c-0.48501,0 -0.47415,-0.1754 -0.15081,-0.8625c0.44459,-0.80835 0.52532,-0.82046 1.49533,0.31123z" data-paper-data="{&quot;noHover&quot;:false,&quot;origItem&quot;:[&quot;Path&quot;,{&quot;applyMatrix&quot;:true,&quot;segments&quot;:[[[261.44122,162.92395],[0,0],[-0.97001,-1.13169]],[[259.9862,162.60061],[0.44459,-0.80835],[-0.32334,0.6871]],[[260.14787,163.44936],[-0.48501,0],[0.32334,0]],[[261.60289,164.90438],[-0.48501,-0.80834],[0.97001,1.53586]],[[262.65374,164.98521],[0.40417,1.49545],[-0.12124,-0.52542]],[[261.44122,162.92393],[0.52543,0.60626],[0,0]]],&quot;closed&quot;:true,&quot;fillColor&quot;:[0,0,0,1]}]}" fill="#ffffff" stroke="none" stroke-width="0.5"/><path d="M246.20132,158.97802c0,-1.4146 0.81668,-2.19307 1.38252,-1.30389c0.24251,0.36376 3.23444,1.8786 7.72074,3.89946l3.19565,1.47513l-0.93261,1.50938c-1.09126,1.89961 -2.41178,3.38313 -2.9372,3.38313c-0.20209,0 -2.24419,-1.7971 -4.42671,-3.93922c-3.07171,-2.99087 -4.00238,-4.21562 -4.00238,-5.02397z" data-paper-data="{&quot;noHover&quot;:false,&quot;origItem&quot;:[&quot;Path&quot;,{&quot;applyMatrix&quot;:true,&quot;segments&quot;:[[[246.24435,159.00349],[0,0],[0,0.80835]],[[250.24565,163.97481],[-3.07171,-2.99087],[2.18252,2.14212]],[[254.61071,167.89527],[-0.20209,0],[0.52542,0]],[[257.52075,164.54064],[-1.09126,1.89961],[0,0]],[258.45034,163.04519],[[255.25739,161.59017],[0,0],[-4.4863,-2.02086]],[[247.61854,157.71012],[0.24251,0.36376],[-0.56584,-0.88918]],[[246.24435,159.00347],[0,-1.4146],[0,0]]],&quot;closed&quot;:true,&quot;fillColor&quot;:[0,0,0,1]}]}" fill="#ffffff" stroke="none" stroke-width="0.5"/><path d="M248.24015,126.51523c-1.37419,-1.57626 -1.06964,-1.99706 0.54706,-0.6633c0.60627,0.4446 1.30147,1.52373 1.58438,2.33208c0.48502,1.73794 0.33211,4.27313 -0.31457,4.47521c-0.24251,0.08084 -0.35232,-0.49985 -0.27149,-1.38903c0.24249,-2.02086 -0.13077,-3.13827 -1.54537,-4.75497z" data-paper-data="{&quot;noHover&quot;:false,&quot;origItem&quot;:[&quot;Path&quot;,{&quot;applyMatrix&quot;:true,&quot;segments&quot;:[[[248.22479,126.46764],[0,0],[1.4146,1.6167]],[[249.80107,131.31771],[0.24249,-2.02086],[-0.08083,0.88918]],[[250.04358,132.61106],[-0.24251,0.08084],[0.64668,-0.20208]],[[250.32649,128.20559],[0.48502,1.73794],[-0.28291,-0.80835]],[[248.79063,125.90181],[0.60627,0.4446],[-1.6167,-1.33376]],[[248.22479,126.46765],[-1.37419,-1.57626],[0,0]]],&quot;closed&quot;:true,&quot;fillColor&quot;:[0,0,0,1]}]}" fill="#e8c48a" stroke="none" stroke-width="0.5"/><path d="M231.9789,123.48539c2.26337,-0.60625 3.97636,-0.57838 4.5422,0.14913c0.32333,0.32334 1.14186,0.84479 1.90979,1.16813c1.21252,0.52543 1.34619,0.7258 1.34619,2.30208c0,0.97 -0.24648,2.48068 -0.5294,3.36986c-0.32334,0.88918 -0.50287,1.72607 -0.38163,1.88774c0.32334,0.56584 0.75348,0.3201 0.7939,-0.40741c0.04041,-0.36377 0.27846,-1.41736 0.68263,-2.38737c0.36376,-1.01043 0.5922,-2.20343 0.43053,-2.72885c-0.20209,-0.88918 -0.11361,-1.01474 2.67519,-1.01474c1.57627,0 3.24488,0.21703 3.68946,0.41911c2.02087,1.09127 2.74902,5.54037 1.21316,7.68249c-1.25294,1.73794 -2.84704,2.89025 -4.01913,2.89025l-1.10083,-0.08642l1.24297,-1.32715c1.73795,-1.81878 2.12479,-2.75524 2.12479,-4.85693c0,-1.29334 -0.16092,-1.84498 -0.56509,-1.84498c-0.40418,0 -0.42714,0.56478 -0.38672,2.26231c0.04041,2.14211 -0.0576,2.33347 -1.71471,3.90975c-1.98045,1.81877 -2.43395,1.82733 -5.99066,0.1298c-3.92046,-1.89961 -7.50444,-6.57681 -7.50444,-9.85062c0,-1.13169 0.16761,-1.30241 1.5418,-1.66616z" data-paper-data="{&quot;noHover&quot;:false,&quot;origItem&quot;:[&quot;Path&quot;,{&quot;applyMatrix&quot;:true,&quot;segments&quot;:[[[232.0175,123.51718],[0,0],[-1.37419,0.36375]],[[230.48164,125.17428],[0,-1.13169],[0,3.27381]],[[237.95881,134.95524],[-3.92046,-1.89961],[3.55671,1.69753]],[[243.90015,134.834],[-1.98045,1.81877],[1.65711,-1.57628]],[[245.59768,130.95395],[0.04041,2.14211],[-0.04042,-1.69753]],[[246.08269,128.69059],[-0.40418,0],[0.40417,0]],[[246.64853,130.54977],[0,-1.29334],[0,2.10169]],[[244.50641,135.44025],[1.73795,-1.81878],[0,0]],[243.25348,136.77402],[[244.30433,136.77402],[0,0],[1.17209,0]],[[248.30563,133.90439],[-1.25294,1.73794],[1.53586,-2.14212]],[[247.09311,126.26554],[2.02087,1.09127],[-0.44458,-0.20208]],[[243.41515,125.86137],[1.57627,0],[-2.7888,0]],[[240.78803,126.79096],[-0.20209,-0.88918],[0.16167,0.52542]],[[240.38386,129.53932],[0.36376,-1.01043],[-0.40417,0.97001]],[[239.65635,132.00478],[0.04041,-0.36377],[-0.04042,0.72751]],[[238.848,132.40895],[0.32334,0.56584],[-0.12124,-0.16167]],[[239.21175,130.50935],[-0.32334,0.88918],[0.28292,-0.88918]],[[239.77759,127.15472],[0,0.97],[0,-1.57628]],[[238.44383,124.85094],[1.21252,0.52543],[-0.76793,-0.32334]],[[236.54422,123.67885],[0.32333,0.32334],[-0.56584,-0.72751]],[[232.01749,123.51718],[2.26337,-0.60625],[0,0]]],&quot;closed&quot;:true,&quot;fillColor&quot;:[0,0,0,1]}]}" fill="#e8c48a" stroke="none" stroke-width="0.5"/><path d="M231.74492,119.96091c0.52543,-1.1721 1.13065,-0.84418 1.29232,0.65125c0.08083,0.76794 -0.12847,1.09577 -0.81557,1.1766c-1.05084,0.16167 -1.16385,-0.33241 -0.47675,-1.82784z" data-paper-data="{&quot;noHover&quot;:false,&quot;origItem&quot;:[&quot;Path&quot;,{&quot;applyMatrix&quot;:true,&quot;segments&quot;:[[[231.77499,120.00088],[0,0],[-0.6871,1.49543]],[[232.21958,121.73881],[-1.05084,0.16167],[0.6871,-0.08083]],[[232.9875,120.60712],[0.08083,0.76794],[-0.16167,-1.49543]],[[231.77498,120.00087],[0.52543,-1.1721],[0,0]]],&quot;closed&quot;:true,&quot;fillColor&quot;:[0,0,0,1]}]}" fill="#e8c48a" stroke="none" stroke-width="0.5"/><path d="M199.41202,148.65654c1.09127,-2.78878 2.51898,-4.08892 2.11481,-1.9468c-0.40417,2.30379 0.33965,3.39238 3.16886,4.92824c1.49544,0.80835 3.56456,2.26056 4.57499,3.14974c1.01043,0.92961 1.76074,1.46701 1.76074,1.2245c0,-0.60626 -1.75978,-2.26447 -3.61896,-3.43657c-1.09127,-0.68709 -1.11524,-0.89029 -0.34731,-0.64778c1.73793,0.48501 4.02563,2.18064 4.67231,3.39316c0.32334,0.68708 0.60464,1.91748 0.60464,2.76624c0,2.22294 -1.03145,6.21245 -1.79938,6.93996c-0.60627,0.60625 -0.7013,0.44166 -0.7013,-1.21545c0,-1.01043 -0.21506,-2.97848 -0.45757,-4.4335c-0.36376,-2.38461 -0.61037,-2.77712 -2.38872,-4.5959c-2.38462,-2.3442 -3.02707,-2.23455 -1.00621,0.23091c2.18252,2.74838 2.77506,4.31536 2.97714,7.71041l0.19604,3.07497l-1.29908,0.28511c-3.59713,0.68711 -7.5245,-0.45413 -9.42411,-2.75791c-1.45502,-1.73795 -1.14615,-2.45938 0.51096,-1.20644c1.53585,1.09127 4.05855,2.17024 4.05855,1.64482c0,-0.2021 -0.34942,-0.38862 -0.71318,-0.55029c-3.59712,-1.29335 -6.13211,-6.90036 -5.00042,-10.94208c0.60624,-2.10169 1.33869,-2.73788 0.93452,-0.79785c-0.32334,1.49545 -0.27455,2.46966 0.17004,5.46053c0.2021,1.65712 0.59393,2.52039 1.48311,3.36915c0.64667,0.64667 1.28329,1.04233 1.44496,0.88066c0.16166,-0.12126 -0.05882,-0.40435 -0.42258,-0.64686c-1.49544,-1.13168 -2.11605,-3.25073 -2.07563,-7.00953c0.04043,-2.02086 0.29984,-4.22474 0.58276,-4.87142z" data-paper-data="{&quot;noHover&quot;:false,&quot;origItem&quot;:[&quot;Path&quot;,{&quot;applyMatrix&quot;:true,&quot;segments&quot;:[[[199.44121,148.6971],[0,0],[-0.28292,0.64668]],[[198.87537,153.54717],[0.04043,-2.02086],[-0.04042,3.7588]],[[200.93665,160.49893],[-1.49544,-1.13168],[0.36376,0.24251]],[[201.30041,161.22644],[0.16166,-0.12126],[-0.16167,0.16167]],[[199.84539,160.33726],[0.64667,0.64667],[-0.88918,-0.84876]],[[198.34994,156.94221],[0.2021,1.65712],[-0.44459,-2.99087]],[[198.18827,151.44547],[-0.32334,1.49545],[0.40417,-1.94003]],[[197.33952,152.29422],[0.60624,-2.10169],[-1.13169,4.04172]],[[202.31083,163.16645],[-3.59712,-1.29335],[0.36376,0.16167]],[[202.99793,163.81313],[0,-0.2021],[0,0.52542]],[[198.91579,162.15602],[1.53585,1.09127],[-1.65711,-1.25294]],[[198.47121,163.28771],[-1.45502,-1.73795],[1.89961,2.30378]],[[207.848,166.03607],[-3.59713,0.68711],[0,0]],[209.14135,165.75316],[[208.93927,162.68146],[0,0],[-0.20208,-3.39505]],[[205.9484,155.0426],[2.18252,2.74838],[-2.02086,-2.46546]],[[207.03967,154.75969],[-2.38462,-2.3442],[1.77835,1.81878]],[[209.42429,159.40766],[-0.36376,-2.38461],[0.24251,1.45502]],[[209.86888,163.85355],[0,-1.01043],[0,1.65711]],[[210.51556,164.98524],[-0.60627,0.60625],[0.76793,-0.72751]],[[212.29391,158.0739],[0,2.22294],[0,-0.84876]],[[211.68765,155.32554],[0.32334,0.68708],[-0.64668,-1.21252]],[[207.03968,151.9709],[1.73793,0.48501],[-0.76793,-0.24251]],[[207.44385,152.53674],[-1.09127,-0.68709],[1.85918,1.1721]],[[211.0814,156.01262],[0,-0.60626],[0,0.24251]],[[209.22222,154.8001],[1.01043,0.92961],[-1.01043,-0.88918]],[[204.69549,151.68798],[1.49544,0.80835],[-2.82921,-1.53586]],[[201.54295,146.75707],[-0.40417,2.30379],[0.40417,-2.14212]],[[199.44126,148.6971],[1.09127,-2.78878],[0,0]]],&quot;closed&quot;:true,&quot;fillColor&quot;:[0,0,0,1]}]}" fill="#703e21" stroke="none" stroke-width="0.5"/><path d="M261.90439,238.17625c0.20208,0 0.78138,0.39985 1.26639,0.84444c1.09126,1.05085 2.46533,3.92741 2.50575,5.18035c0,1.53586 -0.8194,1.3301 -1.10231,-0.24618c-0.32334,-1.8996 -1.00644,-3.26522 -2.09771,-4.23523c-0.84875,-0.80834 -1.13794,-1.54338 -0.5721,-1.54338z" data-paper-data="{&quot;noHover&quot;:false,&quot;origItem&quot;:[&quot;Path&quot;,{&quot;applyMatrix&quot;:true,&quot;segments&quot;:[[[261.92623,238.22123],[0,0],[-0.56584,0]],[[262.45164,239.67625],[-0.84875,-0.80834],[1.09127,0.97001]],[[264.59375,244.00088],[-0.32334,-1.8996],[0.28291,1.57628]],[[265.6446,244.16255],[0,1.53586],[-0.04042,-1.25294]],[[263.17915,239.06998],[1.09126,1.05085],[-0.48501,-0.44459]],[[261.92622,238.22123],[0.20208,0],[0,0]]],&quot;closed&quot;:true,&quot;fillColor&quot;:[0,0,0,1]}]}" fill="#703e21" stroke="none" stroke-width="0.5"/><path d="M255.87554,239.75645c2.1017,-1.37418 3.95251,-1.47826 5.3267,-0.34657c0.485,0.44459 1.09733,1.52054 1.2994,2.32889c0.68709,3.11212 0.96254,2.99917 -5.2213,2.71625c-3.07171,-0.12126 -5.7065,-0.31328 -5.78733,-0.43453c-0.32334,-0.2425 2.52335,-3.0111 4.38253,-4.26404z" data-paper-data="{&quot;noHover&quot;:false,&quot;origItem&quot;:[&quot;Path&quot;,{&quot;applyMatrix&quot;:true,&quot;segments&quot;:[[[255.90407,239.7975],[0,0],[-1.85918,1.25294]],[[251.53901,244.00089],[-0.32334,-0.2425],[0.08083,0.12125]],[[257.27825,244.40506],[-3.07171,-0.12126],[6.18384,0.28292]],[[262.45166,241.73753],[0.68709,3.11212],[-0.20207,-0.80835]],[[261.15831,239.43376],[0.485,0.44459],[-1.37419,-1.13169]],[[255.90407,239.79751],[2.1017,-1.37418],[0,0]]],&quot;closed&quot;:true,&quot;fillColor&quot;:[0,0,0,1]}]}" fill="#703e21" stroke="none" stroke-width="0.5"/><path d="M242.48248,240.8641c1.25294,0.16167 3.20041,0.68956 4.21084,1.21498c1.01043,0.52543 2.30868,0.99779 2.91493,0.99779c1.17209,0 1.93847,0.69509 1.04929,0.97801c-0.28292,0.12124 -2.8084,0.31792 -5.51636,0.39875l-5.00637,0.17071l-0.00305,-1.99765l0.00305,-1.99764l2.34765,0.23503z" data-paper-data="{&quot;noHover&quot;:false,&quot;origItem&quot;:[&quot;Path&quot;,{&quot;applyMatrix&quot;:true,&quot;segments&quot;:[[242.52596,240.88877],[240.18177,240.64626],[240.18177,242.6267],[240.18177,244.60715],[[245.15309,244.40507],[0,0],[2.70796,-0.08083]],[[250.60942,244.04132],[-0.28292,0.12124],[0.88918,-0.28292]],[[249.55857,243.07131],[1.17209,0],[-0.60625,0]],[[246.64853,242.1013],[1.01043,0.52543],[-1.01043,-0.52542]],[[242.52597,240.88878],[1.25294,0.16167],[0,0]]],&quot;closed&quot;:true,&quot;fillColor&quot;:[0,0,0,1]}]}" fill="#703e21" stroke="none" stroke-width="0.5"/><path d="M241.3443,245.4963c0.84875,-0.52542 21.92529,-0.52542 21.92529,0c0,0.2425 -4.07915,0.44572 -11.27342,0.44572c-7.39635,0 -11.05604,-0.20321 -10.65187,-0.44572z" data-paper-data="{&quot;noHover&quot;:false,&quot;origItem&quot;:[&quot;Path&quot;,{&quot;applyMatrix&quot;:true,&quot;segments&quot;:[[[241.39429,245.49632],[0,0],[-0.40417,0.24251]],[[252.02402,245.90049],[-7.39635,0],[7.19427,0]],[[263.21959,245.49632],[0,0.2425],[0,-0.52542]],[[241.3943,245.49632],[0.84875,-0.52542],[0,0]]],&quot;closed&quot;:true,&quot;fillColor&quot;:[0,0,0,1]}]}" fill="#703e21" stroke="none" stroke-width="0.5"/><path d="M234.00121,240.57236c0.72751,0.48501 1.65793,1.39001 1.98127,1.87502c0.32334,0.48501 1.25137,1.23794 2.14055,1.76336c1.81877,1.01043 2.05284,1.32176 0.92115,1.32176c-0.84877,0 -4.11846,-2.77093 -5.45223,-4.63011l-0.92575,-1.29861l1.33499,0.96859z" data-paper-data="{&quot;noHover&quot;:false,&quot;origItem&quot;:[&quot;Path&quot;,{&quot;applyMatrix&quot;:true,&quot;segments&quot;:[[234.03834,240.60583],[232.70458,239.63582],[[233.63417,240.92917],[0,0],[1.33377,1.85918]],[[239.00967,245.49632],[-0.84877,0],[1.13169,0]],[[238.16091,244.24338],[1.81877,1.01043],[-0.88918,-0.52542]],[[235.93797,242.42461],[0.32334,0.48501],[-0.32334,-0.48501]],[[234.03836,240.60583],[0.72751,0.48501],[0,0]]],&quot;closed&quot;:true,&quot;fillColor&quot;:[0,0,0,1]}]}" fill="#703e21" stroke="none" stroke-width="0.5"/><path d="M239.32571,240.245c0.04041,-0.04041 0.096,0.59025 0.096,1.27735c0,2.22296 -0.59134,2.64657 -2.04636,1.59572c-0.72752,-0.48501 -1.24437,-1.14508 -1.16354,-1.38759c0.08082,-0.32333 1.53762,-1.00045 3.11389,-1.48546z" data-paper-data="{&quot;noHover&quot;:false,&quot;origItem&quot;:[&quot;Path&quot;,{&quot;applyMatrix&quot;:true,&quot;segments&quot;:[[[239.29259,240.28249],[0,0],[-1.57627,0.48501]],[[236.2613,241.73751],[0.08082,-0.32333],[-0.08083,0.24251]],[[237.39299,243.07128],[-0.72752,-0.48501],[1.45502,1.05085]],[[239.37344,241.53542],[0,2.22296],[0,-0.6871]],[[239.29261,240.28248],[0.04041,-0.04041],[0,0]]],&quot;closed&quot;:true,&quot;fillColor&quot;:[0,0,0,1]}]}" fill="#703e21" stroke="none" stroke-width="0.5"/><path d="M228.62721,233.7807c0.36376,-1.65711 0.80142,-1.59116 2.17561,0.26802c1.4146,1.98043 2.73831,4.94128 2.37455,5.30504c-0.36374,0.36375 -2.25731,-1.07395 -3.67191,-2.81189c-0.97001,-1.1721 -1.12077,-1.75077 -0.87826,-2.7612z" data-paper-data="{&quot;noHover&quot;:false,&quot;origItem&quot;:[&quot;Path&quot;,{&quot;applyMatrix&quot;:true,&quot;segments&quot;:[[[228.66286,233.81574],[0,0],[-0.24251,1.01043]],[[229.55204,236.5237],[-0.97001,-1.1721],[1.4146,1.73794]],[[233.14916,239.31249],[-0.36374,0.36375],[0.36376,-0.36376]],[[230.80497,234.09868],[1.4146,1.98043],[-1.37419,-1.85918]],[[228.66286,233.81576],[0.36376,-1.65711],[0,0]]],&quot;closed&quot;:true,&quot;fillColor&quot;:[0,0,0,1]}]}" fill="#703e21" stroke="none" stroke-width="0.5"/><path d="M272.74404,195.74068c0.36375,0.28293 0.62947,1.20832 0.62947,2.05708c0,2.14212 -0.36149,2.88413 -1.45275,2.88413c-0.97001,0 -2.68856,-1.74748 -2.68856,-2.67708c0,-0.2829 0.34026,-0.96579 0.74443,-1.4508c0.64668,-0.76793 0.79983,-0.82082 1.28484,-0.2954c0.24249,0.36376 0.57592,1.13317 0.65675,1.69901c0.16166,1.49543 0.46869,1.73141 0.7516,0.51889c0.16167,-0.56584 0.09513,-1.32247 -0.14738,-1.76706c-0.60625,-1.1721 -0.50591,-1.575 0.2216,-0.96874z" data-paper-data="{&quot;noHover&quot;:false,&quot;origItem&quot;:[&quot;Path&quot;,{&quot;applyMatrix&quot;:true,&quot;segments&quot;:[[[272.71762,195.78315],[0,0],[-0.72751,-0.60626]],[[272.55595,196.67233],[-0.60625,-1.1721],[0.24251,0.44459]],[[272.71762,198.49111],[0.16167,-0.56584],[-0.28291,1.21252]],[[271.86887,197.96569],[0.16166,1.49543],[-0.08083,-0.56584]],[[271.26262,196.30858],[0.24249,0.36376],[-0.48501,-0.52542]],[[270.00969,196.5915],[0.64668,-0.76793],[-0.40417,0.48501]],[[269.28218,198.00609],[0,-0.2829],[0,0.9296]],[[271.9093,200.63321],[-0.97001,0],[1.09126,0]],[[273.3239,197.804],[0,2.14212],[0,-0.84876]],[[272.71764,195.78314],[0.36375,0.28293],[0,0]]],&quot;closed&quot;:true,&quot;fillColor&quot;:[0,0,0,1]}]}" fill="#703e21" stroke="none" stroke-width="0.5"/><path d="M271.34326,202.74612c0.9296,-0.97 2.22127,-1.17476 3.2317,-0.52808c0.52541,0.32335 0.53686,0.55737 0.01145,1.52738c-0.80834,1.45502 -2.42736,2.26028 -3.39737,1.73486c-0.97002,-0.52542 -0.93704,-1.60244 0.15423,-2.73413z" data-paper-data="{&quot;noHover&quot;:false,&quot;origItem&quot;:[&quot;Path&quot;,{&quot;applyMatrix&quot;:true,&quot;segments&quot;:[[[271.38386,202.77533],[0,0],[-1.09127,1.13169]],[[271.22219,205.44286],[-0.97002,-0.52542],[0.97001,0.52542]],[[274.5364,203.74533],[-0.80834,1.45502],[0.52541,-0.97001]],[[274.5364,202.24988],[0.52541,0.32335],[-1.01043,-0.64668]],[[271.38386,202.7753],[0.9296,-0.97],[0,0]]],&quot;closed&quot;:true,&quot;fillColor&quot;:[0,0,0,1]}]}" fill="#703e21" stroke="none" stroke-width="0.5"/><path d="M267.46126,205.17412c1.33377,-1.05085 2.2611,-1.22094 2.2611,-0.33176c0,0.28291 0.29683,0.7596 0.66059,0.96168c0.56584,0.32334 0.5573,0.47521 -0.29145,1.08147c-1.25293,0.84877 -3.23954,0.8412 -3.56288,-0.04798c-0.16167,-0.44461 0.1243,-1.01675 0.93265,-1.66343z" data-paper-data="{&quot;noHover&quot;:false,&quot;origItem&quot;:[&quot;Path&quot;,{&quot;applyMatrix&quot;:true,&quot;segments&quot;:[[[267.50381,205.20036],[0,0],[-0.80835,0.64668]],[[266.57422,206.81706],[-0.16167,-0.44461],[0.32334,0.88918]],[[270.0501,206.85747],[-1.25293,0.84877],[0.84875,-0.60626]],[[270.33301,205.80662],[0.56584,0.32334],[-0.36376,-0.20208]],[[269.68633,204.87703],[0,0.28291],[0,-0.88918]],[[267.50381,205.20037],[1.33377,-1.05085],[0,0]]],&quot;closed&quot;:true,&quot;fillColor&quot;:[0,0,0,1]}]}" fill="#703e21" stroke="none" stroke-width="0.5"/><path d="M265.97695,206.82452c0.12124,0.76792 -0.08811,1.13376 -0.53269,1.13376c-0.40418,0 -0.65749,-0.46133 -0.65749,-1.31009c0,-1.53586 0.98811,-1.39995 1.19018,0.17633z" data-paper-data="{&quot;noHover&quot;:false,&quot;origItem&quot;:[&quot;Path&quot;,{&quot;applyMatrix&quot;:true,&quot;segments&quot;:[[[264.83626,206.65538],[0,-1.53586],[0,0.84876]],[[265.44251,207.90831],[-0.40418,0],[0.44458,0]],[[265.92752,206.81705],[0.12124,0.76792],[-0.20207,-1.57628]]],&quot;closed&quot;:true,&quot;fillColor&quot;:[0,0,0,1]}]}" fill="#703e21" stroke="none" stroke-width="0.5"/><path d="M244.67196,155.33182c0.52541,-1.6571 1.13045,-1.60798 2.10046,0.12996c0.32333,0.64667 0.18086,1.04039 -0.66789,1.80832c-1.81878,1.73795 -2.36217,1.05259 -1.43258,-1.93828z" data-paper-data="{&quot;noHover&quot;:false,&quot;origItem&quot;:[&quot;Path&quot;,{&quot;applyMatrix&quot;:true,&quot;segments&quot;:[[[244.70849,155.36595],[0,0],[-0.92959,2.99087]],[[246.08268,157.22513],[-1.81878,1.73795],[0.84875,-0.76793]],[[246.72936,155.4872],[0.32333,0.64667],[-0.97001,-1.73794]],[[244.7085,155.36595],[0.52541,-1.6571],[0,0]]],&quot;closed&quot;:true,&quot;fillColor&quot;:[0,0,0,1]}]}" fill="#703e21" stroke="none" stroke-width="0.5"/><path d="M243.54019,150.12878c0.60628,1.3742 1.1369,2.85993 1.1369,3.2641c0,0.76793 -1.76828,2.26173 -3.9508,3.39342c-0.72751,0.36377 -1.39038,0.65039 -1.47121,0.65039c-0.08082,0 -0.08934,-0.98877 0.03191,-2.08004c0.08083,-1.09126 0.0118,-1.96198 -0.23071,-2.12365c-0.20209,-0.12126 -1.26182,0.09699 -2.19142,0.54158c-1.6571,0.7275 -3.60163,1.0408 -3.60163,0.59621c0,-0.76795 1.90037,-2.98326 2.62788,-2.98326c0.4446,0 2.11806,-0.88027 3.69433,-1.8907l2.80754,-1.85114l1.14725,2.48312z" data-paper-data="{&quot;noHover&quot;:false,&quot;origItem&quot;:[&quot;Path&quot;,{&quot;applyMatrix&quot;:true,&quot;segments&quot;:[[243.49598,150.15212],[242.36429,147.68666],[[239.57549,149.54584],[0,0],[-1.57627,1.01043]],[[235.93794,151.40502],[0.4446,0],[-0.72751,0]],[[233.31082,154.35549],[0,-0.76795],[0,0.44459]],[[236.90795,153.74923],[-1.6571,0.7275],[0.9296,-0.44459]],[[239.05007,153.18339],[-0.20209,-0.12126],[0.24251,0.16167]],[[239.29258,155.40634],[0.08083,-1.09126],[-0.12125,1.09127]],[[239.25216,157.38678],[-0.08082,0],[0.08083,0]],[[240.70718,156.7401],[-0.72751,0.36377],[2.18252,-1.13169]],[[244.62764,153.38547],[0,0.76793],[0,-0.40417]],[[243.49595,150.15209],[0.60628,1.3742],[0,0]]],&quot;closed&quot;:true,&quot;fillColor&quot;:[0,0,0,1]}]}" fill="#703e21" stroke="none" stroke-width="0.5"/><path d="M282.93437,145.70792c1.6571,1.81878 1.83681,2.66007 1.19013,4.92343c-0.88918,2.95046 -2.2975,5.22672 -3.9142,6.31799c-1.2125,0.84876 -1.7696,0.92939 -4.03296,0.76772c-3.67797,-0.28294 -4.27479,-1.00067 -3.74938,-4.31488c0.485,-2.95045 1.72639,-4.87285 4.23226,-6.44913c3.88006,-2.46545 4.98079,-2.65972 6.27414,-1.24512z" data-paper-data="{&quot;noHover&quot;:false,&quot;origItem&quot;:[&quot;Path&quot;,{&quot;applyMatrix&quot;:true,&quot;segments&quot;:[[[276.6785,146.99958],[3.88006,-2.46545],[-2.50587,1.57628]],[[272.47511,153.3855],[0.485,-2.95045],[-0.52541,3.31421]],[[276.1935,157.66973],[-3.67797,-0.28294],[2.26336,0.16167]],[[280.19479,156.9018],[-1.2125,0.84876],[1.6167,-1.09127]],[[284.07484,150.63713],[-0.88918,2.95046],[0.64668,-2.26336]],[[282.90275,145.74665],[1.6571,1.81878],[-1.29335,-1.4146]]],&quot;closed&quot;:true,&quot;fillColor&quot;:[0,0,0,1]}]}" fill="#703e21" stroke="none" stroke-width="0.5"/><path d="M265.29383,130.259c0.12125,0 0.6001,0.27439 1.04468,0.59773c0.72751,0.56585 0.72285,0.64886 -0.36842,1.05303c-1.25293,0.48499 -2.79648,0.59974 -2.79648,0.19557c0,-0.28292 1.75646,-1.80593 2.12022,-1.84634z" data-paper-data="{&quot;noHover&quot;:false,&quot;origItem&quot;:[&quot;Path&quot;,{&quot;applyMatrix&quot;:true,&quot;segments&quot;:[[[265.28084,130.30728],[0,0],[-0.36376,0.04041]],[[263.21956,132.08563],[0,-0.28292],[0,0.40417]],[[265.92751,131.88356],[-1.25293,0.48499],[1.09127,-0.40417]],[[266.29127,130.87313],[0.72751,0.56585],[-0.44458,-0.32334]],[[265.28084,130.30729],[0.12125,0],[0,0]]],&quot;closed&quot;:true,&quot;fillColor&quot;:[0,0,0,1]}]}" fill="#703e21" stroke="none" stroke-width="0.5"/><path d="M269.97631,116.71143c0.40418,0.32334 0.64236,0.76843 0.48069,0.9301c-0.40416,0.36374 -2.43501,-0.52538 -2.43501,-1.09122c0,-0.56584 1.02473,-0.48555 1.95432,0.16113z" data-paper-data="{&quot;noHover&quot;:false,&quot;origItem&quot;:[&quot;Path&quot;,{&quot;applyMatrix&quot;:true,&quot;segments&quot;:[[[268.06965,116.56543],[0,-0.56584],[0,0.56584]],[[270.41384,117.61628],[-0.40416,0.36374],[0.16167,-0.16167]],[[269.92883,116.7271],[0.40418,0.32334],[-0.92959,-0.64668]]],&quot;closed&quot;:true,&quot;fillColor&quot;:[0,0,0,1]}]}" fill="#e8c48a" stroke="none" stroke-width="0.5"/><path d="M260.27853,116.60703c5.41591,0.12123 5.67419,0.15765 9.2309,1.73392c3.79921,1.65712 7.09741,3.67411 7.09741,4.32079c0,0.2021 -0.54337,0.09628 -1.10921,-0.26747c-1.4146,-0.92961 -1.67944,-0.37805 -0.34567,0.6728c0.60627,0.48501 1.01073,0.97584 0.88948,1.05667c-0.12126,0.12126 0.16058,1.10134 0.56475,2.15219c0.80835,2.06129 1.36697,5.27145 0.88196,5.27145c-0.32334,-0.04041 -3.52684,-5.00445 -4.25435,-6.70198c-0.32334,-0.68709 -1.40964,-2.03337 -2.46049,-3.08422c-2.62713,-2.5867 -6.26196,-3.8305 -12.64788,-4.23467c-1.85919,-0.12124 -3.43584,-0.46222 -3.43584,-0.66429c0,-0.24251 2.07261,-0.37641 5.58891,-0.25517z" data-paper-data="{&quot;noHover&quot;:false,&quot;origItem&quot;:[&quot;Path&quot;,{&quot;applyMatrix&quot;:true,&quot;segments&quot;:[[[260.30954,116.64626],[0,0],[-3.5163,-0.12124]],[[254.73197,116.88877],[0,-0.24251],[0,0.20207]],[[258.08661,117.49502],[-1.85919,-0.12124],[6.38592,0.40417]],[[270.81804,121.73882],[-2.62713,-2.5867],[1.05085,1.05085]],[[273.2835,124.85094],[-0.32334,-0.68709],[0.72751,1.69753]],[[277.44647,131.51978],[-0.32334,-0.04041],[0.48501,0]],[[276.55729,126.26554],[0.80835,2.06129],[-0.40417,-1.05085]],[[275.99145,124.12342],[-0.12126,0.12126],[0.12125,-0.08083]],[[275.10227,123.07257],[0.60627,0.48501],[-1.33377,-1.05085]],[[275.54686,122.38548],[-1.4146,-0.92961],[0.56584,0.36375]],[[276.55729,122.66839],[0,0.2021],[0,-0.64668]],[[269.48427,118.38416],[3.79921,1.65712],[-3.55671,-1.57627]],[[260.30957,116.64623],[5.41591,0.12123],[0,0]]],&quot;closed&quot;:true,&quot;fillColor&quot;:[0,0,0,1]}]}" fill="#703e21" stroke="none" stroke-width="0.5"/><path d="M250.81665,114.8586c1.85919,-0.80835 2.33993,-0.90802 2.33993,-0.46344c0,0.40417 -2.78272,2.73285 -3.99524,3.37953c-0.64668,0.32332 -0.93706,0.31488 -0.93706,0.03197c0,-1.05085 1.0161,-2.22056 2.59237,-2.94807z" data-paper-data="{&quot;noHover&quot;:false,&quot;origItem&quot;:[&quot;Path&quot;,{&quot;applyMatrix&quot;:true,&quot;segments&quot;:[[[250.81149,114.90832],[0,0],[-1.57627,0.72751]],[[248.26521,117.77794],[0,-1.05085],[0,0.28291]],[[249.1948,117.73753],[-0.64668,0.32332],[1.21252,-0.64668]],[[253.11527,114.42332],[0,0.40417],[0,-0.44458]],[[250.81149,114.90833],[1.85919,-0.80835],[0,0]]],&quot;closed&quot;:true,&quot;fillColor&quot;:[0,0,0,1]}]}" fill="#703e21" stroke="none" stroke-width="0.5"/><path d="M234.9749,136.05561c-1.25294,0.12125 -2.47358,0.09947 -2.63525,-0.0622c-0.2021,-0.16165 -0.04859,-1.00264 0.27475,-1.81099l0.6233,-1.52835l2.06074,1.55831l1.93608,1.57565z" data-paper-data="{&quot;noHover&quot;:false,&quot;origItem&quot;:[&quot;Path&quot;,{&quot;applyMatrix&quot;:true,&quot;segments&quot;:[[237.19089,135.7636],[235.25086,134.22774],[233.27042,132.69188],[[232.66416,134.18733],[0,0],[-0.32334,0.80835]],[[232.38125,135.96568],[-0.2021,-0.16165],[0.16167,0.16167]],[[234.96795,136.0061],[-1.25294,0.12125],[0,0]]],&quot;closed&quot;:true,&quot;fillColor&quot;:[0,0,0,1]}]}" fill="#703e21" stroke="none" stroke-width="0.5"/><path d="M240.65892,121.80669c3.47588,-2.99089 10.69981,-4.2758 19.14701,-3.30579c5.05217,0.60624 8.31232,1.85189 10.49484,4.03441c1.01043,1.01043 1.86047,2.02904 1.86047,2.27155c0,0.24249 0.3639,0.77159 0.80849,1.17576c1.1721,1.01045 1.12842,4.54453 -0.0841,6.36331c-1.29336,1.8996 -1.87097,1.8619 -2.15388,-0.0377c-0.32334,-2.38463 -2.62977,-6.71767 -4.69105,-8.77895c-2.38463,-2.3442 -3.58615,-3.13157 -4.11156,-2.60616c-0.28291,0.28293 0.07967,0.50589 0.88802,0.82923c1.17211,0.52544 2.67538,2.0077 4.37291,4.31147c1.09127,1.53585 3.06784,5.47528 2.82533,5.71779c-0.68709,0.72752 -4.25813,-2.15165 -8.38069,-6.88046l-2.0874,-2.39884l-2.36392,0.05244c-2.30377,0.04042 -5.6365,1.29875 -5.6365,2.18793c0,0.4446 -2.94937,0.3991 -3.43438,-0.04549c-0.2425,-0.16167 -1.57592,-0.12392 -3.03094,0.11859c-4.89048,0.84876 -6.03931,-0.22045 -2.52301,-2.52422c2.14212,-1.41462 2.88328,-2.47375 0.98367,-1.50374c-0.64668,0.32335 -1.93726,1.24383 -2.90727,2.05218c-1.21252,1.01042 -1.95782,1.31766 -2.07907,0.95391c-0.08083,-0.28292 0.08113,-0.6083 0.32364,-0.68913c0.2829,-0.08083 1.09229,-0.69189 1.77939,-1.29814z" data-paper-data="{&quot;noHover&quot;:false,&quot;origItem&quot;:[&quot;Path&quot;,{&quot;applyMatrix&quot;:true,&quot;segments&quot;:[[[240.70719,121.81966],[0,0],[-0.6871,0.60625]],[[238.92884,123.11301],[0.2829,-0.08083],[-0.24251,0.08083]],[[238.6055,123.8001],[-0.08083,-0.28292],[0.12125,0.36375]],[[240.58595,122.83009],[-1.21252,1.01042],[0.97001,-0.80835]],[[243.49599,120.76881],[-0.64668,0.32335],[1.89961,-0.97001]],[[242.60681,122.30467],[2.14212,-1.41462],[-3.5163,2.30377]],[[245.03184,124.81054],[-4.89048,0.84876],[1.45502,-0.24251]],[[248.06313,124.6893],[-0.2425,-0.16167],[0.48501,0.44459]],[[251.4986,124.72971],[0,0.4446],[0,-0.88918]],[[257.19742,122.50677],[-2.30377,0.04042],[0,0]],[259.58205,122.46636],[[261.68374,124.89139],[0,0],[4.12256,4.72881]],[[269.96927,131.76231],[-0.68709,0.72752],[0.24251,-0.24251]],[[267.14006,126.06349],[1.09127,1.53585],[-1.69753,-2.30377]],[[262.775,121.77926],[1.17211,0.52544],[-0.80835,-0.32334]],[[261.96665,120.89008],[-0.28291,0.28293],[0.52541,-0.52541]],[[266.08921,123.51719],[-2.38463,-2.3442],[2.06128,2.06128]],[[270.77761,132.32815],[-0.32334,-2.38463],[0.28291,1.8996]],[[272.8389,132.32815],[-1.29336,1.8996],[1.21252,-1.81878]],[[272.91973,125.98264],[1.1721,1.01045],[-0.44459,-0.40417]],[[272.11138,124.81055],[0,0.24249],[0,-0.24251]],[[270.2522,122.54719],[1.01043,1.01043],[-2.18252,-2.18252]],[[259.78413,118.5459],[5.05217,0.60624],[-8.4472,-0.97001]],[[240.7072,121.8197],[3.47588,-2.99089],[0,0]]],&quot;closed&quot;:true,&quot;fillColor&quot;:[0,0,0,1]}]}" fill="#703e21" stroke="none" stroke-width="0.5"/><path d="M238.39428,191.04559c0.36375,0.12127 0.84751,0.2517 1.04959,0.2517c0.20207,0 0.13851,0.58159 -0.22525,1.26869c-0.84875,1.61667 -1.51178,1.51623 -1.51178,-0.26212c0,-1.17211 0.16203,-1.46035 0.68745,-1.25827z" data-paper-data="{&quot;noHover&quot;:false,&quot;origItem&quot;:[&quot;Path&quot;,{&quot;applyMatrix&quot;:true,&quot;segments&quot;:[[[238.40341,191.09476],[0,0],[-0.52542,-0.20208]],[[237.75673,192.30728],[0,-1.17211],[0,1.77835]],[[239.17132,192.54979],[-0.84875,1.61667],[0.36376,-0.6871]],[[239.41383,191.33727],[0.20207,0],[-0.20208,0]],[[238.4034,191.09476],[0.36375,0.12127],[0,0]]],&quot;closed&quot;:true,&quot;fillColor&quot;:[0,0,0,1]}]}" fill="#d17c32" stroke="none" stroke-width="0.5"/><path d="M207.41576,166.84346c0.72751,-0.84877 1.22502,-0.68318 1.50794,0.44851c0.12125,0.56584 0.12373,1.17057 0.00248,1.41308c-0.36376,0.56584 1.02912,6.9294 1.71622,8.02067c0.32334,0.52542 0.89313,1.43526 1.25689,2.08194c2.62711,4.64797 6.18452,7.76088 10.59,9.2159c1.33376,0.4446 1.55577,0.72642 1.55577,2.01977c0,0.76793 -0.12393,1.33567 -0.2856,1.25484c-8.40679,-3.79922 -12.44478,-7.32325 -15.35482,-13.42625c-1.25293,-2.70796 -1.91849,-9.89678 -0.98889,-11.02847z" data-paper-data="{&quot;noHover&quot;:false,&quot;origItem&quot;:[&quot;Path&quot;,{&quot;applyMatrix&quot;:true,&quot;segments&quot;:[[[207.44383,166.88485],[0,0],[-0.9296,1.13169]],[[208.45425,177.87833],[-1.25293,-2.70796],[2.91004,6.103]],[[223.73196,191.25643],[-8.40679,-3.79922],[0.16167,0.08083]],[[224.01487,190.00349],[0,0.76793],[0,-1.29335]],[[222.51944,188.06346],[1.33376,0.4446],[-4.40548,-1.45502]],[[211.8493,178.80792],[2.62711,4.64797],[-0.36376,-0.64668]],[[210.59637,176.70623],[0.32334,0.52542],[-0.6871,-1.09127]],[[208.89884,168.6632],[-0.36376,0.56584],[0.12125,-0.24251]],[[208.89884,167.2486],[0.12125,0.56584],[-0.28292,-1.13169]],[[207.44382,166.88485],[0.72751,-0.84877],[0,0]]],&quot;closed&quot;:true,&quot;fillColor&quot;:[0,0,0,1]}]}" fill="#d17c32" stroke="none" stroke-width="0.5"/><path d="M240.82322,217.16874c0.36375,0.56585 -1.38578,3.31599 -2.11329,3.31599c-1.13169,0 -1.10682,-1.33813 0.06528,-2.55065c1.21253,-1.25294 1.64383,-1.41202 2.048,-0.76534z" data-paper-data="{&quot;noHover&quot;:false,&quot;origItem&quot;:[&quot;Path&quot;,{&quot;applyMatrix&quot;:true,&quot;segments&quot;:[[[238.80759,217.9722],[1.21253,-1.25294],[-1.1721,1.21252]],[[238.72676,220.43765],[-1.13169,0],[0.72751,0]],[[240.78804,217.20427],[0.36375,0.56585],[-0.40417,-0.64668]]],&quot;closed&quot;:true,&quot;fillColor&quot;:[0,0,0,1]}]}" fill="#d17c32" stroke="none" stroke-width="0.5"/><path d="M241.48568,213.80954c0.92961,0.2021 4.33242,0.31694 7.52538,0.31694c3.67796,0 5.76144,0.17891 5.76144,0.42142c0,0.2425 -0.76564,0.42551 -1.69523,0.34468c-1.41459,-0.16167 -1.77189,0.0063 -3.06524,1.29965c-1.33376,1.33377 -1.38055,1.55224 -1.09764,2.88601c0.16167,0.84876 0.52926,2.06424 0.89302,2.71092c0.32334,0.64667 0.51998,1.22295 0.43915,1.30378c-0.76793,0.76792 -6.65796,3.40787 -8.07256,3.60995c-1.01044,0.16167 -2.31185,0.35672 -2.87769,0.47797l-1.09309,0.19998l0.56029,-2.71622c0.60625,-2.86961 1.65256,-5.45113 2.2184,-5.45113c0.56584,0 0.455,-2.56689 -0.15126,-3.45607c-0.32334,-0.4446 -0.68467,-1.13438 -0.80591,-1.53855c-0.24251,-0.60625 -0.07492,-0.65186 1.46094,-0.40935z" data-paper-data="{&quot;noHover&quot;:false,&quot;origItem&quot;:[&quot;Path&quot;,{&quot;applyMatrix&quot;:true,&quot;segments&quot;:[[[241.51553,213.84965],[0,0],[-1.53586,-0.24251]],[[240.06051,214.25382],[-0.24251,-0.60625],[0.12124,0.40417]],[[240.86886,215.78968],[-0.32334,-0.4446],[0.60626,0.88918]],[[241.03053,219.22514],[0.56584,0],[-0.56584,0]],[[238.80758,224.64104],[0.60625,-2.86961],[0,0]],[238.24174,227.34899],[[239.33301,227.14692],[0,0],[0.56584,-0.12125]],[[242.20263,226.66191],[-1.01044,0.16167],[1.4146,-0.20208]],[[250.20524,223.06478],[-0.76793,0.76792],[0.08083,-0.08083]],[[249.76065,221.77143],[0.32334,0.64667],[-0.36376,-0.64668]],[[248.87147,219.1039],[0.16167,0.84876],[-0.28291,-1.33377]],[[250.04356,216.15343],[-1.33376,1.33377],[1.29335,-1.29335]],[[253.11526,214.86008],[-1.41459,-0.16167],[0.92959,0.08083]],[[254.73196,214.57717],[0,0.2425],[0,-0.24251]],[[248.99272,214.173],[3.67796,0],[-3.19296,0]],[[241.51553,213.84966],[0.92961,0.2021],[0,0]]],&quot;closed&quot;:true,&quot;fillColor&quot;:[0,0,0,1]}]}" fill="#d17c32" stroke="none" stroke-width="0.5"/><path d="M261.64682,212.16872c0,0.52542 -1.12071,2.37545 -2.45448,3.99215c-0.36374,0.44459 -3.57954,-0.8855 -3.82205,-1.5726c-0.12125,-0.28292 0.24159,-0.74437 0.76701,-0.98688c0.56585,-0.2425 0.89832,-0.67022 0.77707,-0.8723c-0.48501,-0.80835 0.34184,-1.22972 2.52436,-1.22972c1.69751,0 2.20809,0.14393 2.20809,0.66935z" data-paper-data="{&quot;noHover&quot;:false,&quot;origItem&quot;:[&quot;Path&quot;,{&quot;applyMatrix&quot;:true,&quot;segments&quot;:[[[259.42036,211.54587],[1.69751,0],[-2.18252,0]],[[256.95491,212.75839],[-0.48501,-0.80835],[0.12125,0.20208]],[[256.18699,213.60715],[0.56585,-0.2425],[-0.52542,0.24251]],[[255.41906,214.57716],[-0.12125,-0.28292],[0.24251,0.6871]],[[259.17785,216.11302],[-0.36374,0.44459],[1.33377,-1.6167]],[[261.60288,212.19255],[0,0.52542],[0,-0.52542]]],&quot;closed&quot;:true,&quot;fillColor&quot;:[0,0,0,1]}]}" fill="#d17c32" stroke="none" stroke-width="0.5"/><path d="M255.49073,217.19794c0,-1.33377 0.35412,-1.49379 1.88998,-0.76628c1.2125,0.56584 1.26162,0.8932 0.21077,1.8228c-1.09127,0.97002 -2.10076,0.47934 -2.10076,-1.05652z" data-paper-data="{&quot;noHover&quot;:false,&quot;origItem&quot;:[&quot;Path&quot;,{&quot;applyMatrix&quot;:true,&quot;segments&quot;:[[[255.54031,217.20427],[0,0],[0,1.53586]],[[257.56117,218.2147],[-1.09127,0.97002],[1.05085,-0.9296]],[[257.3591,216.47676],[1.2125,0.56584],[-1.53586,-0.72751]],[[255.54033,217.20427],[0,-1.33377],[0,0]]],&quot;closed&quot;:true,&quot;fillColor&quot;:[0,0,0,1]}]}" fill="#d17c32" stroke="none" stroke-width="0.5"/><path d="M250.37886,216.59732c1.33377,-1.33376 3.73737,-1.45314 4.38405,-0.28104c0.56585,1.05084 0.52836,3.99647 -0.0779,5.65358c-0.40417,1.13169 -0.71342,1.34643 -1.76427,1.34643c-1.77835,0 -3.12924,-1.54379 -3.37175,-3.84757c-0.20208,-1.53586 -0.05928,-1.98223 0.8299,-2.87141z" data-paper-data="{&quot;noHover&quot;:false,&quot;origItem&quot;:[&quot;Path&quot;,{&quot;applyMatrix&quot;:true,&quot;segments&quot;:[[[250.40732,216.63844],[0,0],[-0.88918,0.88918]],[[249.59897,219.46765],[-0.20208,-1.53586],[0.24251,2.30378]],[[252.91318,223.26687],[-1.77835,0],[1.05085,0]],[[254.65111,221.93311],[-0.40417,1.13169],[0.60626,-1.65711]],[[254.73194,216.35554],[0.56585,1.05084],[-0.64668,-1.1721]],[[250.4073,216.63845],[1.33377,-1.33376],[0,0]]],&quot;closed&quot;:true,&quot;fillColor&quot;:[0,0,0,1]}]}" fill="#d17c32" stroke="none" stroke-width="0.5"/><path d="M266.73417,201.77835c2.26336,-1.25294 2.99628,-1.37076 4.04713,-0.60283c0.76793,0.60626 0.77377,0.62801 -0.03458,1.35552c-0.97003,0.92961 -4.94187,2.33296 -5.54812,1.9692c-0.9296,-0.56584 -0.32361,-1.71145 1.53557,-2.72188z" data-paper-data="{&quot;noHover&quot;:false,&quot;origItem&quot;:[&quot;Path&quot;,{&quot;applyMatrix&quot;:true,&quot;segments&quot;:[[[266.77629,201.80531],[0,0],[-1.85918,1.01043]],[[265.24043,204.47284],[-0.9296,-0.56584],[0.60625,0.36376]],[[270.69676,202.53281],[-0.97003,0.92961],[0.80835,-0.72751]],[[270.73718,201.19904],[0.76793,0.60626],[-1.05085,-0.76793]],[[266.77629,201.8053],[2.26336,-1.25294],[0,0]]],&quot;closed&quot;:true,&quot;fillColor&quot;:[0,0,0,1]}]}" fill="#d17c32" stroke="none" stroke-width="0.5"/><path d="M264.13078,185.3494c0.28293,0.08083 1.46516,1.97763 2.63726,4.24099l2.20031,4.17036l-1.31164,0.01076c-0.68709,0 -1.15665,0.13576 -1.15665,0.37827c0,0.2021 0.88153,0.39273 2.05362,0.39273c1.13168,0 2.47379,0.24479 2.79713,0.44687c0.48501,0.32334 0.44249,0.40984 -0.28502,0.40984c-1.21253,0 -2.174,1.48282 -2.174,3.342c0,1.8592 -0.62906,1.9816 -2.40741,0.48615c-1.33376,-1.09126 -1.6755,-1.02705 -0.54381,0.22589c0.36376,0.40417 0.87867,0.72584 1.20201,0.72584c0.9296,0 0.55628,0.82695 -0.77748,1.47363c-0.68709,0.36377 -1.34106,0.64509 -1.42189,0.64509c-0.04043,0 -0.13025,-1.49911 -0.17067,-3.35829c0,-1.81877 -0.22776,-4.45993 -0.47027,-5.7937c-0.20207,-1.33376 -0.42518,-3.30391 -0.50601,-4.35476c-0.08083,-1.05084 -0.23726,-2.10506 -0.39893,-2.30714c-0.32334,-0.56585 0.16761,-1.33658 0.73345,-1.1345z" data-paper-data="{&quot;noHover&quot;:false,&quot;origItem&quot;:[&quot;Path&quot;,{&quot;applyMatrix&quot;:true,&quot;segments&quot;:[[[264.14917,185.39593],[0,0],[-0.56584,-0.20208]],[[263.42166,186.52762],[-0.32334,-0.56585],[0.16167,0.20208]],[[263.82583,188.8314],[-0.08083,-1.05084],[0.08083,1.05085]],[[264.35124,193.15603],[-0.20207,-1.33376],[0.24251,1.33377]],[[264.79583,198.89527],[0,-1.81877],[0.04042,1.85918]],[[264.9575,202.2499],[-0.04043,0],[0.08083,0]],[[266.3721,201.60322],[-0.68709,0.36377],[1.33376,-0.64668]],[[267.14003,200.22903],[0.9296,0],[-0.32334,0]],[[265.92751,199.50152],[0.36376,0.40417],[-1.13169,-1.25294]],[[266.49335,199.17818],[-1.33376,-1.09126],[1.77835,1.49545]],[[268.87797,198.69317],[0,1.8592],[0,-1.85918]],[[271.02009,195.37896],[-1.21253,0],[0.72751,0]],[[271.303,194.97479],[0.48501,0.32334],[-0.32334,-0.20208]],[[268.59504,194.57062],[1.13168,0],[-1.17209,0]],[[266.45293,194.16645],[0,0.2021],[0,-0.24251]],[[267.70586,193.76228],[-0.68709,0],[0,0]],[268.91838,193.76228],[[266.77627,189.63972],[0,0],[-1.1721,-2.26336]],[[264.14915,185.39591],[0.28293,0.08083],[0,0]]],&quot;closed&quot;:true,&quot;fillColor&quot;:[0,0,0,1]}]}" fill="#d17c32" stroke="none" stroke-width="0.5"/><path d="M232.13254,174.02952c1.37419,0.12125 3.3671,0.6467 4.53919,1.25296c3.96089,1.94002 4.86451,3.64166 3.04574,5.90502c-0.52541,0.60624 -1.41202,1.74957 -1.93743,2.39625c-0.88917,1.13168 -1.04148,1.17451 -2.01149,0.72992c-0.56584,-0.28294 -1.48397,-0.64622 -2.00939,-0.80789c-1.49544,-0.44459 -0.64902,0.38517 0.92725,0.91059c1.09129,0.36374 1.42685,0.72937 1.62892,1.7398c0.12126,0.7275 0.33273,1.70123 0.41356,2.18624c0.28292,1.45502 0.77899,5.94148 0.85982,7.76026c0.04042,1.81878 0.05437,1.8657 4.05567,4.897c2.58669,1.98046 3.01114,3.15095 1.79862,5.1314c-0.48502,0.76791 -1.05559,1.4174 -1.25766,1.4174c-0.20208,0 -0.60945,0.44612 -0.85196,1.01196c-0.4446,1.01044 -3.57506,2.46957 -6.28302,2.91416c-1.13167,0.20209 -1.37896,0.08076 -1.74272,-0.84884c-0.36376,-1.05085 -0.44834,-1.05123 -1.2971,-0.48539c-2.99087,2.10169 -5.39174,-1.21773 -3.89629,-5.29987c0.36375,-0.97001 0.36124,-1.45644 0.07832,-1.65852c-0.2425,-0.16168 -0.69593,-1.46177 -0.93844,-2.91679c-0.97002,-5.21382 -1.51087,-7.31268 -1.99588,-7.79769c-0.32334,-0.32334 -0.47957,-1.9209 -0.47957,-4.66926c0,-3.59714 0.13227,-4.25819 0.81937,-4.86445c0.80835,-0.80835 3.3341,-5.99275 3.81911,-7.9732c0.28293,-1.13167 0.3308,-1.17362 2.71543,-0.93111z" data-paper-data="{&quot;noHover&quot;:false,&quot;origItem&quot;:[&quot;Path&quot;,{&quot;applyMatrix&quot;:true,&quot;segments&quot;:[[[232.13873,174.0791],[0,0],[-2.38463,-0.24251]],[[229.43077,175.0087],[0.28293,-1.13167],[-0.48501,1.98045]],[[225.63155,182.97089],[0.80835,-0.80835],[-0.6871,0.60626]],[[224.8232,187.82096],[0,-3.59714],[0,2.74836]],[[225.30821,192.46894],[-0.32334,-0.32334],[0.48501,0.48501]],[[227.28866,200.22904],[-0.97002,-5.21382],[0.24251,1.45502]],[[228.21825,203.13908],[-0.2425,-0.16168],[0.28292,0.20208]],[[228.13742,204.79619],[0.36375,-0.97001],[-1.49545,4.08214]],[[232.01747,210.09084],[-2.99087,2.10169],[0.84876,-0.56584]],[[233.31082,210.57585],[-0.36376,-1.05085],[0.36376,0.9296]],[[235.04875,211.42461],[-1.13167,0.20209],[2.70796,-0.44459]],[[241.31343,208.51457],[-0.4446,1.01044],[0.24251,-0.56584]],[[242.16219,207.50414],[-0.20208,0],[0.20207,0]],[[243.41513,206.08955],[-0.48502,0.76791],[1.21252,-1.98045]],[[241.67719,201.03739],[2.58669,1.98046],[-4.0013,-3.0313]],[[237.55463,196.06607],[0.04042,1.81878],[-0.08083,-1.81878]],[[236.70587,188.3868],[0.28292,1.45502],[-0.08083,-0.48501]],[[236.3017,186.20428],[0.12126,0.7275],[-0.20207,-1.01043]],[[234.685,184.46635],[1.09129,0.36374],[-1.57627,-0.52542]],[[233.75541,183.45592],[-1.49544,-0.44459],[0.52542,0.16167]],[[235.77627,184.26427],[-0.56584,-0.28294],[0.97001,0.44459]],[[237.79713,183.53676],[-0.88917,1.13168],[0.52541,-0.64668]],[[239.69673,181.23299],[-0.52541,0.60624],[1.81877,-2.26336]],[[236.66543,175.33208],[3.96089,1.94002],[-1.17209,-0.60626]],[[232.1387,174.07914],[1.37419,0.12125],[0,0]]],&quot;closed&quot;:true,&quot;fillColor&quot;:[0,0,0,1]}]}" fill="#d17c32" stroke="none" stroke-width="0.5"/><path d="M257.29579,123.38961c1.77837,0 2.07134,0.16681 3.97095,2.10684c1.17212,1.17209 2.47377,2.55321 2.95878,3.07863l0.85093,0.93201l-1.00519,0.30796c-1.1721,0.28292 -2.18617,2.15949 -1.49907,2.84658c0.60626,0.60625 2.46895,0.57111 4.16648,-0.1564c2.02086,-0.84877 3.64069,-0.07438 3.47902,1.54232c-0.28292,2.6271 2.73763,-0.00039 3.82889,-3.3146l0.77617,-2.06623l1.09316,2.14599c0.60625,1.21252 1.09346,2.75445 1.09346,3.44154c0,0.68709 0.20368,2.67529 0.44619,4.37282c0.44458,2.8292 0.64703,3.28187 1.94038,4.49439c1.25293,1.13169 1.33363,1.33597 0.60612,1.33597c-1.01044,0 -5.70076,3.08196 -6.71119,4.45615c-0.88919,1.21251 -1.17663,2.23349 -1.41914,5.5073c-0.2425,3.07171 0.15729,3.62567 3.4311,3.98943c2.91004,0.32334 2.66858,1.02736 -0.76688,1.75487c-3.23338,0.72752 -14.45153,0.62319 -17.56366,-0.18516c-5.77966,-1.45502 -10.02814,-4.734 -12.2915,-9.50323c-0.72751,-1.45502 -1.3061,-3.00307 -1.3061,-3.40724c0,-0.4446 0.43782,-1.75082 1.00366,-2.96334c0.56584,-1.21253 0.92686,-2.28315 0.80561,-2.4044c-0.12125,-0.12125 -0.95106,0.24229 -2.00191,0.80813c-1.09127,0.56584 -2.8476,1.18355 -3.85803,1.3048c-2.18253,0.32334 -6.99282,-0.5341 -11.72164,-2.06996c-2.22294,-0.72751 -4.20334,-1.093 -5.61794,-1.05258c-3.88004,0.08083 -1.53531,-0.9753 5.01227,-2.26865c11.11474,-2.22295 11.12,-2.19836 13.74712,-1.47085c1.49543,0.44458 3.20099,0.63555 4.77726,0.51431c2.74837,-0.20208 3.71683,-0.98536 5.25269,-4.33999c0.84876,-1.8592 0.80437,-4.75016 -0.12523,-5.84143c-0.56584,-0.6871 -0.11614,-1.47402 0.89429,-1.47402c0.40417,0 1.09553,-0.32282 1.54012,-0.76741c1.29335,-1.29335 2.19201,-1.61415 4.21287,-1.65456z" data-paper-data="{&quot;noHover&quot;:false,&quot;origItem&quot;:[&quot;Path&quot;,{&quot;applyMatrix&quot;:true,&quot;segments&quot;:[[[257.27824,123.43635],[0,0],[-2.02086,0.04041]],[[253.07485,125.09345],[1.29335,-1.29335],[-0.44459,0.44459]],[[251.53899,125.86138],[0.40417,0],[-1.01043,0]],[[250.64981,127.23557],[-0.56584,-0.6871],[0.9296,1.09127]],[[250.77106,133.17691],[0.84876,-1.8592],[-1.53586,3.35463]],[[245.55724,137.50155],[2.74837,-0.20208],[-1.57627,0.12124]],[[240.78801,136.97614],[1.49543,0.44458],[-2.62712,-0.72751]],[[227.04616,138.43116],[11.11474,-2.22295],[-6.54758,1.29335]],[[222.03442,140.69452],[-3.88004,0.08083],[1.4146,-0.04042]],[[227.65241,141.74537],[-2.22294,-0.72751],[4.72882,1.53586]],[[239.3734,143.80666],[-2.18253,0.32334],[1.01043,-0.12125]],[[243.1322,142.51331],[-1.09127,0.56584],[1.05085,-0.56584]],[[245.23389,141.70496],[-0.12125,-0.12125],[0.12125,0.12125]],[[244.42554,144.08958],[0.56584,-1.21253],[-0.56584,1.21252]],[[243.41511,147.04005],[0,-0.4446],[0,0.40417]],[[244.70846,150.4351],[-0.72751,-1.45502],[2.26336,4.76923]],[[256.95487,159.93315],[-5.77966,-1.45502],[3.11213,0.80835]],[[274.49594,160.13522],[-3.23338,0.72752],[3.43546,-0.72751]],[[275.34469,158.43769],[2.91004,0.32334],[-3.27381,-0.36376]],[[271.8284,154.39597],[-0.2425,3.07171],[0.24251,-3.27381]],[[273.243,148.89923],[-0.88919,1.21251],[1.01043,-1.37419]],[[279.95226,144.45334],[-1.01044,0],[0.72751,0]],[[279.34601,143.11957],[1.25293,1.13169],[-1.29335,-1.21252]],[[277.40598,138.63327],[0.44458,2.8292],[-0.24251,-1.69753]],[[276.96139,134.26821],[0,0.68709],[0,-0.68709]],[[275.87013,130.83275],[0.60625,1.21252],[0,0]],[274.77886,128.69063],[[274.09176,130.71149],[0,0],[-1.09126,3.31421]],[[270.17129,134.06613],[-0.28292,2.6271],[0.16167,-1.6167]],[[266.69541,132.53027],[2.02086,-0.84877],[-1.69753,0.72751]],[[262.53244,132.69194],[0.60626,0.60625],[-0.6871,-0.68709]],[[264.10871,129.7819],[-1.1721,0.28292],[0,0]],[265.0383,129.53939],[[264.18955,128.6098],[0,0],[-0.48501,-0.52542]],[[261.23908,125.5381],[1.17212,1.17209],[-1.89961,-1.94003]],[[257.27819,123.43641],[1.77837,0],[0,0]]],&quot;closed&quot;:true,&quot;fillColor&quot;:[0,0,0,1]}]}" fill="#d17c32" stroke="none" stroke-width="0.5"/><path d="M220.34339,142.69229c0.16167,0.24251 0.83576,0.53128 1.60369,0.61211c0.76793,0.12126 3.88548,0.95937 6.87635,1.92938c5.05215,1.57628 5.83071,1.6867 9.26618,1.56545c2.02085,-0.08083 3.63754,-0.04043 3.55671,0.12124c-0.485,0.76792 -4.78094,3.3447 -6.11471,3.62762c-2.02085,0.48501 -7.88157,-0.16801 -9.61951,-1.05719c-1.65711,-0.80834 -4.65408,-3.6738 -5.42201,-5.12882c-0.60627,-1.13169 -0.80634,-2.55323 -0.2405,-1.70447z" data-paper-data="{&quot;noHover&quot;:false,&quot;origItem&quot;:[&quot;Path&quot;,{&quot;applyMatrix&quot;:true,&quot;segments&quot;:[[[220.2965,142.67495],[0,0],[-0.56584,-0.84876]],[[220.53901,144.37248],[-0.60627,-1.13169],[0.76793,1.45502]],[[225.95491,149.46505],[-1.65711,-0.80834],[1.73794,0.88918]],[[235.49337,150.5159],[-2.02085,0.48501],[1.33377,-0.28292]],[[241.59636,146.91877],[-0.485,0.76792],[0.08083,-0.16167]],[[238.03965,146.79753],[2.02085,-0.08083],[-3.43547,0.12125]],[[228.86494,145.26167],[5.05215,1.57628],[-2.99087,-0.97001]],[[221.99402,143.32164],[0.76793,0.12126],[-0.76793,-0.08083]],[[220.29649,142.67496],[0.16167,0.24251],[0,0]]],&quot;closed&quot;:true,&quot;fillColor&quot;:[0,0,0,1]}]}" fill="#f36e48" stroke="none" stroke-width="0.5"/><path d="M266.89754,135.80402c1.81878,0.92959 3.59713,4.89047 3.59713,7.96219c0,3.35464 -0.80835,4.97132 -2.91004,5.94134c-4.80964,2.18252 -8.9322,-0.36376 -9.49804,-5.8605c-0.36376,-3.67797 1.01042,-6.38592 4.12256,-8.00261c1.57627,-0.84875 3.15254,-0.84875 4.6884,-0.04041zM259.01619,141.78577c-0.36376,2.7888 0.28291,5.09257 1.85918,6.58801c1.01043,0.97001 1.45502,1.09127 3.5163,1.05085c2.7888,-0.04042 3.83963,-0.52542 4.6884,-2.14212c1.29335,-2.46546 0.28291,-8.08345 -1.81878,-10.18514c-2.82921,-2.82921 -7.67927,-0.08083 -8.24511,4.6884z" fill="#000000" stroke="none" stroke-width="1"/><path d="M258.96691,141.77729c0.56584,-4.76923 5.48865,-7.55328 8.31786,-4.72407c2.10169,2.10169 3.12477,7.79841 1.83142,10.26387c-0.84877,1.6167 -1.93493,2.11712 -4.72373,2.15754c-2.06128,0.04042 -2.53239,-0.08797 -3.54282,-1.05798c-1.57627,-1.49544 -2.24648,-3.85056 -1.88272,-6.63936z" data-paper-data="{&quot;noHover&quot;:false,&quot;origItem&quot;:[&quot;Path&quot;,{&quot;applyMatrix&quot;:true,&quot;segments&quot;:[[[259.01619,141.78577],[0,0],[-0.36376,2.7888]],[[260.87537,148.37378],[-1.57627,-1.49544],[1.01043,0.97001]],[[264.39167,149.42463],[-2.06128,0.04042],[2.7888,-0.04042]],[[269.08007,147.28251],[-0.84877,1.6167],[1.29335,-2.46546]],[[267.26129,137.09737],[2.10169,2.10169],[-2.82921,-2.82921]],[[259.01618,141.78577],[0.56584,-4.76923],[0,0]]],&quot;closed&quot;:true,&quot;fillColor&quot;:[0,0,0,1]}]}" fill="#ffffff" stroke="none" stroke-width="0.5"/><path d="M265.03835,136.77403c2.18252,0 3.0717,1.6571 3.35463,6.06258c0.16167,3.23338 0.12124,3.59712 -0.6871,4.40547c-2.06128,2.06129 -5.45632,0 -6.30509,-3.88005c-0.32334,-1.57628 0.32334,-4.12256 1.45502,-5.53715c0.60625,-0.76793 1.21252,-1.05085 2.18252,-1.05085zM264.18959,137.78446c-0.60625,1.49545 1.05085,2.7888 2.18252,1.69753c0.56584,-0.60626 0.56584,-0.72751 -0.12124,-1.49543c-0.84876,-0.97001 -1.73793,-1.05085 -2.06128,-0.20208z" fill="#000000" stroke="none" stroke-width="1"/><path d="M279.70979,149.34378c2.10169,0.72751 2.14212,3.0313 0.08083,2.50587c-1.09126,-0.28292 -2.14212,-1.6167 -1.89961,-2.34419c0.32334,-0.72751 0.24251,-0.72751 1.81878,-0.16167z" fill="#000000" stroke="none" stroke-width="1"/><path d="M204.29129,160.05435c1.89961,2.02086 3.35464,4.12256 3.0717,4.40548c-0.20208,0.24251 -5.17341,-5.4159 -5.17341,-5.90091c0,-0.64668 0.36375,-0.40417 2.10169,1.49543z" fill="#000000" stroke="none" stroke-width="1"/><path d="M259.0566,188.26556c0.28291,0.56584 0.64668,1.05085 0.76792,1.05085c0.12124,0 0.64668,-0.48501 1.1721,-1.13169c0.72751,-0.80835 0.97001,-0.9296 1.01042,-0.44459c0,0.88918 -1.53586,2.7888 -2.22294,2.7888c-0.72751,0 -1.94003,-2.30377 -1.57627,-2.91004c0.16167,-0.28292 0.48501,-0.04042 0.84876,0.64668z" fill="#000000" stroke="none" stroke-width="1"/><path d="M243.35697,145.2452c-0.5242,0.9172 -1.11648,1.46273 -1.7739,1.7633l-0.00828,0.04142l-0.05869,-0.01174c-0.73632,0.31612 -1.55315,0.33433 -2.44643,0.22913c-1.41724,0.12796 -2.95898,-0.05436 -4.37899,-0.18338c-4.51396,-0.82139 -10.24021,-1.80912 -14.34601,-3.83945c0,0 -0.67092,-0.33541 -0.33546,-1.00623c0.13234,-0.26464 0.31688,-0.37268 0.49185,-0.40649c0.05884,-0.08498 0.23063,-0.16382 0.4738,-0.25734v0.00002c1.05084,-0.48501 3.35524,-0.12406 6.99279,1.04804c6.99219,2.26335 10.87078,2.47866 14.75083,0.86196c1.53578,-0.64289 2.01327,-0.20998 1.0995,0.81982c-0.12853,0.3173 -0.27756,0.62694 -0.44693,0.9127c-0.00828,0.01809 -0.01408,0.02824 -0.01408,0.02824z" fill="#b54237" stroke="none" stroke-width="0.5"/><path d="M239.05085,233.61777c-0.24254,0.06063 -0.30317,-0.1819 -0.30317,-0.1819l-0.03552,-0.15137c-0.0369,-0.33651 -0.08868,-0.68008 -0.15245,-1.02442c-0.1001,-0.01857 -0.17925,-0.09678 -0.19922,-0.19637l-0.05524,-0.24856c-0.00767,-0.02033 -0.01526,-0.04069 -0.02278,-0.06107c-1.02857,-0.37245 -0.65885,-4.43188 -0.51263,-5.08988c0.18158,-0.81172 0.29296,-1.63882 0.47338,-2.45562l0.02703,-0.16438c0,0 0.0411,-0.2466 0.2877,-0.2055c0.2466,0.0411 0.2055,0.2877 0.2055,0.2877l-0.03214,0.19065c-0.0899,0.40234 -0.16228,0.80543 -0.23402,1.20811c0.03287,0.06355 0.03287,0.12819 0.03287,0.12819c0,1.15514 -0.20431,2.31554 -0.22155,3.47347c0.0574,0.30846 0.12399,0.61316 0.18623,0.91332c0.03876,0.04683 0.05385,0.09591 0.05385,0.09591c0.30276,0.98568 0.54518,2.06817 0.66042,3.09325l0.02365,0.08532c0,0 0.06063,0.24254 -0.18191,0.30317z" fill="#000000" stroke="none" stroke-width="0.5"/><path d="M233.33415,224.35083c-0.17677,-0.17677 0,-0.35356 0,-0.35356l0.08312,-0.07406c0.90213,-1.42676 2.21997,-2.59653 3.23513,-3.95008c0.91165,-1.27649 2.06716,-2.3944 2.92271,-3.68923c0,0 0.13868,-0.20801 0.34669,-0.06934c0.20801,0.13868 0.06933,0.34669 0.06933,0.34669c-0.87157,1.2974 -2.01763,2.4227 -2.93527,3.70721c-1.00406,1.33874 -2.34,2.50028 -3.21458,3.91975l-0.15357,0.16262c0,0 -0.17678,0.17677 -0.35356,0z" fill="#000000" stroke="none" stroke-width="0.5"/><path d="M238.09747,219.91443c0.17677,-0.17677 0.35356,0 0.35356,0l0.08687,0.09168c0.09019,0.06487 0.16166,0.10035 0.21977,0.11427l0.08237,-0.11532l0.01722,0.0123l0.00944,-0.04377c0.02294,-0.01659 0.04543,-0.03362 0.06749,-0.05106c0.02303,-0.08714 0.13088,-0.16383 0.21668,-0.33824l0.00971,-0.00792l-0.00367,-0.00229l0.14563,-0.23302c0.04375,-0.07261 0.12335,-0.12117 0.21429,-0.12117c0.00168,0 0.00335,0.00001 0.00502,0.00005c0.11643,-0.20219 0.2119,-0.41823 0.29345,-0.63665c0,0 0.08778,-0.23408 0.32186,-0.1463c0.23408,0.08778 0.1463,0.32187 0.1463,0.32187c-0.16544,0.43944 -0.38582,0.89309 -0.70541,1.248c-0.17263,0.53375 -0.69078,0.86056 -1.33078,0.40612l-0.14981,-0.145c0,0 -0.17677,-0.17678 0,-0.35356z" fill="#d17c32" stroke="none" stroke-width="0.5"/><path d="M248.70067,176.73036v-7.9375h8.55693v7.9375z" fill="#263b5f" stroke="none" stroke-width="0"/><text transform="translate(248.44558,179.37934) scale(0.07191,0.07024)" font-size="40" xml:space="preserve" fill="#263b5f" fill-rule="nonzero" stroke="none" stroke-width="1" stroke-linecap="butt" stroke-linejoin="miter" stroke-miterlimit="10" stroke-dasharray="" stroke-dashoffset="0" font-family="Sans Serif" font-weight="normal" text-anchor="start" style="mix-blend-mode: normal"><tspan x="0" dy="0">CARES</tspan></text><path d="M249.74043,175.71054v-5.84321h6.34794v5.84321z" fill="#263b5f" stroke="#ffffff" stroke-width="0.5"/><path d="M251.07837,174.51183v-3.37735h3.76333v3.37735z" fill="none" stroke="#ffffff" stroke-width="0.5"/><path d="M252.61837,177.03721v-8.68h0.72v8.68z" fill="#ffffff" stroke="none" stroke-width="0"/><path d="M248.25837,173.19721v-0.68h9.12v0.68z" fill="#ffffff" stroke="none" stroke-width="0"/></g></g></svg>